<?xml version="1.0" encoding="utf-8"?>
<!-- Generator: Adobe Illustrator 19.0.0, SVG Export Plug-In . SVG Version: 6.00 Build 0)  -->
<svg version="1.1" id="Laag_1" xmlns="http://www.w3.org/2000/svg" xmlns:xlink="http://www.w3.org/1999/xlink" x="0px" y="0px"
	 viewBox="0 0 144.2 71.6" style="enable-background:new 0 0 144.2 71.6;" xml:space="preserve">
<style type="text/css">
	.st0{fill:#FFFFFF;}
	.st1{fill:none;}
	.st2{enable-background:new    ;}
	.st3{fill:#37509E;}
	.st4{fill:#E02F2F;}
	.st5{fill:#050607;}
	.st6{font-family:'SegoeUI-Bold';}
	.st7{font-size:21px;}
	.st8{font-size:20.9992px;}
</style>
<rect id="XMLID_216_" x="308.4" y="-327.7" transform="matrix(-0.9975 7.098179e-02 -7.098179e-02 -0.9975 716.1369 -657.9782)" class="st0" width="122.7" height="22.9"/>
<rect id="XMLID_215_" x="308.4" y="-325.9" transform="matrix(-0.997 7.791874e-02 -7.791874e-02 -0.997 715.8845 -662.6258)" class="st1" width="124.9" height="17.1"/>
<text id="XMLID_214_" transform="matrix(0.9975 -7.098339e-02 7.098339e-02 0.9975 309.0869 -306.3998)" class="st3 st6 st7">Postkantoor</text>
<g id="XMLID_309_">
	
		<rect id="XMLID_463_" x="308.4" y="-322.7" transform="matrix(-0.997 7.791874e-02 -7.791874e-02 -0.997 716.1379 -656.2355)" class="st1" width="124.9" height="17.1"/>
	<text id="XMLID_461_" transform="matrix(0.9975 -7.098339e-02 7.098339e-02 0.9975 309.0869 -303.2269)" class="st4 st6 st7">Postkantoor</text>
</g>
<g id="XMLID_313_">
	
		<rect id="XMLID_466_" x="308.4" y="-324.8" transform="matrix(-0.997 7.791874e-02 -7.791874e-02 -0.997 715.9754 -660.4295)" class="st1" width="124.9" height="17.1"/>
	<text id="XMLID_464_" transform="matrix(0.9982 -7.103365e-02 7.098339e-02 0.9975 309.0864 -305.3343)" class="st5 st6 st7">Postkantoor</text>
</g>
<rect id="XMLID_213_" x="317.7" y="-350.4" transform="matrix(-0.9926 -0.1218 0.1218 -0.9926 776.9059 -630.4249)" class="st0" width="102.9" height="22.9"/>
<rect id="XMLID_212_" x="318.1" y="-349.7" transform="matrix(-0.9934 -0.1149 0.1149 -0.9934 790.3128 -636.7674)" class="st1" width="117.4" height="17.1"/>
<text id="XMLID_211_" transform="matrix(0.9926 0.1218 -0.1218 0.9926 317.7384 -341.8123)" class="st3 st6" style="font-size:21.0009px;">Protserige </text>
<g id="XMLID_217_">
	
		<rect id="XMLID_469_" x="317.4" y="-346.1" transform="matrix(-0.9934 -0.1149 0.1149 -0.9934 788.5094 -629.6688)" class="st1" width="117.4" height="17.1"/>
	
		<text id="XMLID_467_" transform="matrix(0.9926 0.1218 -0.1218 0.9926 317.0288 -338.1866)" class="st4 st6" style="font-size:21.0009px;">Protserige </text>
</g>
<g id="XMLID_222_">
	
		<rect id="XMLID_472_" x="317.7" y="-348.1" transform="matrix(-0.9934 -0.1149 0.1149 -0.9934 789.3498 -633.6388)" class="st1" width="117.4" height="17.1"/>
	
		<text id="XMLID_470_" transform="matrix(0.9933 0.1219 -0.1218 0.9926 317.4117 -340.1422)" class="st5 st6" style="font-size:21.0009px;">Protserige </text>
</g>
<rect id="XMLID_304_" x="329.7" y="-138.2" transform="matrix(-0.9647 -0.2634 0.2634 -0.9647 832.556 -141.9148)" class="st0" width="154.1" height="22.9"/>
<rect id="XMLID_303_" x="330.6" y="-137.4" transform="matrix(-0.9665 -0.2566 0.2566 -0.9665 836.507 -148.5172)" class="st1" width="156" height="17.1"/>
<text id="XMLID_293_" transform="matrix(0.9647 0.2634 -0.2634 0.9647 331.6156 -143.0772)" class="st3 st6 st7">Babyschoentjes</text>
<g id="XMLID_234_">
	
		<rect id="XMLID_478_" x="329.5" y="-134.7" transform="matrix(-0.9664 -0.257 0.257 -0.9664 831.0211 -143.6009)" class="st1" width="153.2" height="17.1"/>
	<text id="XMLID_476_" transform="matrix(0.9654 0.2636 -0.2634 0.9647 330.533 -139.992)" class="st4 st6 st7">Babyschoentjes</text>
</g>
<g id="XMLID_268_">
	
		<rect id="XMLID_494_" x="330.1" y="-136.3" transform="matrix(-0.9665 -0.2566 0.2566 -0.9665 833.1938 -146.7935)" class="st1" width="153.9" height="17.1"/>
	<text id="XMLID_492_" transform="matrix(0.9654 0.2636 -0.2634 0.9647 331.1305 -141.6911)" class="st5 st6 st7">Babyschoentjes</text>
</g>
<rect id="XMLID_288_" x="336" y="-115.4" transform="matrix(-0.9999 -1.125435e-02 1.125435e-02 -0.9999 785.9527 -203.439)" class="st0" width="112.8" height="22.9"/>
<g id="XMLID_276_">
	
		<rect id="XMLID_500_" x="336" y="-114.7" transform="matrix(-1 -4.296304e-03 4.296304e-03 -1 806.9255 -210.6581)" class="st1" width="134.4" height="17.1"/>
	<text id="XMLID_498_" transform="matrix(0.9999 1.125436e-02 -1.125436e-02 0.9999 336.0522 -100.4555)" class="st3 st6 st8">Babywinkel</text>
</g>
<g id="XMLID_367_">
	
		<rect id="XMLID_511_" x="335.9" y="-112.4" transform="matrix(-1 -4.296304e-03 4.296304e-03 -1 806.7156 -206.0577)" class="st1" width="134.4" height="17.1"/>
	<text id="XMLID_504_" transform="matrix(0.9999 1.125436e-02 -1.125436e-02 0.9999 335.8623 -98.1606)" class="st4 st6 st8">Babywinkel</text>
</g>
<g id="XMLID_369_">
	
		<rect id="XMLID_514_" x="336" y="-113.6" transform="matrix(-1 -4.296304e-03 4.296304e-03 -1 806.9208 -208.4574)" class="st1" width="134.4" height="17.1"/>
	<text id="XMLID_512_" transform="matrix(1.0006 1.126233e-02 -1.125436e-02 0.9999 335.9577 -99.3366)" class="st5 st6 st8">Babywinkel</text>
</g>
<rect id="XMLID_152_" x="31.5" y="5.1" transform="matrix(-0.9975 7.098179e-02 -7.098179e-02 -0.9975 163.3962 27.3648)" class="st0" width="99.5" height="22.9"/>
<rect id="XMLID_151_" x="31.5" y="4.8" transform="matrix(-0.997 7.791874e-02 -7.791874e-02 -0.997 188.5887 19.4226)" class="st1" width="124.9" height="17.1"/>
<text id="XMLID_150_" transform="matrix(0.9975 -7.098339e-02 7.098339e-02 0.9975 32.1359 24.3841)" class="st3 st6 st7">Achter de </text>
<g id="XMLID_149_">
	
		<rect id="XMLID_451_" x="31.5" y="8" transform="matrix(-0.997 7.791874e-02 -7.791874e-02 -0.997 188.8348 25.8132)" class="st1" width="124.9" height="17.1"/>
	<text id="XMLID_450_" transform="matrix(0.9982 -7.103365e-02 7.098339e-02 0.9975 32.1358 27.6062)" class="st4 st6 st7">Achter de</text>
</g>
<g id="XMLID_148_">
	
		<rect id="XMLID_429_" x="31.5" y="6.3" transform="matrix(-0.997 7.791874e-02 -7.791874e-02 -0.997 188.7127 22.4176)" class="st1" width="124.9" height="17.1"/>
	<text id="XMLID_426_" transform="matrix(0.9982 -7.103365e-02 7.098339e-02 0.9975 32.1358 25.8381)" class="st5 st6 st7">Achter de</text>
</g>
<rect id="XMLID_147_" x="9.4" y="25.9" transform="matrix(-0.996 -8.953676e-02 8.953676e-02 -0.996 145.4755 81.3114)" class="st0" width="130.4" height="22.9"/>
<g id="XMLID_146_">
	
		<rect id="XMLID_428_" x="9.8" y="26.9" transform="matrix(-0.9966 -8.260480e-02 8.260480e-02 -0.9966 150.7224 77.2173)" class="st1" width="134.4" height="17.1"/>
	<text id="XMLID_427_" transform="matrix(0.996 8.953825e-02 -8.953825e-02 0.996 9.466 35.9391)" class="st3 st6 st7">Aardkleurige</text>
</g>
<g id="XMLID_145_">
	
		<rect id="XMLID_446_" x="9.4" y="29.1" transform="matrix(-0.9966 -8.260480e-02 8.260480e-02 -0.9966 149.7543 81.5726)" class="st1" width="134.4" height="17.1"/>
	<text id="XMLID_440_" transform="matrix(0.996 8.953825e-02 -8.953825e-02 0.996 9.0984 38.2118)" class="st4 st6 st7">Aardkleurige</text>
</g>
<g id="XMLID_144_">
	
		<rect id="XMLID_452_" x="9.6" y="28" transform="matrix(-0.9966 -8.260480e-02 8.260480e-02 -0.9966 150.2338 79.3937)" class="st1" width="134.4" height="17.1"/>
	<text id="XMLID_447_" transform="matrix(0.9967 8.960168e-02 -8.953825e-02 0.996 9.2867 37.0468)" class="st5 st6 st7">Aardkleurige</text>
</g>
<rect id="XMLID_399_" x="13.4" y="44.5" transform="matrix(-0.9975 7.098179e-02 -7.098179e-02 -0.9975 80.247 108.9731)" class="st0" width="49.6" height="22.9"/>
<g id="XMLID_392_">
	
		<rect id="XMLID_421_" x="13.5" y="45.5" transform="matrix(-0.997 7.791866e-02 -7.791866e-02 -0.997 80.5621 104.8781)" class="st1" width="49.5" height="17.1"/>
	<text id="XMLID_418_" transform="matrix(0.9975 -7.098339e-02 7.098339e-02 0.9975 14.0373 62.5873)" class="st3 st6 st7">Auto</text>
</g>
<g id="XMLID_375_">
	
		<rect id="XMLID_435_" x="13.5" y="50.6" transform="matrix(-0.997 7.791866e-02 -7.791866e-02 -0.997 81.1633 115.0609)" class="st1" width="49.7" height="17.1"/>
	<text id="XMLID_422_" transform="matrix(0.9975 -7.098339e-02 7.098339e-02 0.9975 14.037 67.6725)" class="st4 st6 st7">Auto</text>
</g>
<g id="XMLID_383_">
	
		<rect id="XMLID_438_" x="13.5" y="48.5" transform="matrix(-0.997 7.791866e-02 -7.791866e-02 -0.997 80.9998 110.8671)" class="st1" width="49.7" height="17.1"/>
	<text id="XMLID_436_" transform="matrix(0.9982 -7.103365e-02 7.098339e-02 0.9975 14.037 65.5721)" class="st5 st6 st7">Auto</text>
</g>
<rect id="XMLID_420_" x="75.1" y="46.6" transform="matrix(-0.9976 -6.872112e-02 6.872112e-02 -0.9976 186.3463 122.4385)" class="st0" width="40.4" height="22.9"/>
<g id="XMLID_397_">
	
		<rect id="XMLID_442_" x="75.4" y="48" transform="matrix(-0.9981 -6.177514e-02 6.177514e-02 -0.9981 196.582 119.1061)" class="st1" width="49.5" height="17.1"/>
	<text id="XMLID_439_" transform="matrix(0.9976 6.872112e-02 -6.872112e-02 0.9976 75.0286 61.6054)" class="st3 st6 st8">Aan</text>
</g>
<g id="XMLID_378_">
	
		<rect id="XMLID_445_" x="74.7" y="53" transform="matrix(-0.9981 -6.177514e-02 6.177514e-02 -0.9981 195.0801 129.0563)" class="st1" width="49.7" height="17.1"/>
	<text id="XMLID_443_" transform="matrix(0.9976 6.872112e-02 -6.872112e-02 0.9976 74.3195 66.6419)" class="st4 st6 st8">Aan</text>
</g>
<g id="XMLID_390_">
	
		<rect id="XMLID_449_" x="75.1" y="50.2" transform="matrix(-0.9981 -6.177514e-02 6.177514e-02 -0.9981 196.0448 123.4854)" class="st1" width="49.7" height="17.1"/>
	<text id="XMLID_448_" transform="matrix(0.9983 6.876979e-02 -6.872112e-02 0.9976 74.7233 63.7809)" class="st5 st6 st8">Aan</text>
</g>
<rect id="XMLID_254_" x="521.3" y="21.4" transform="matrix(-0.9975 7.098179e-02 -7.098179e-02 -0.9975 1158.676 24.4559)" class="st0" width="115.3" height="22.9"/>
<rect id="XMLID_253_" x="521.2" y="22.5" transform="matrix(-0.997 7.791872e-02 -7.791872e-02 -0.997 1158.2991 17.8416)" class="st1" width="115.1" height="18.1"/>
<text id="XMLID_252_" transform="matrix(0.9975 -7.098339e-02 7.098339e-02 0.9975 521.8716 41.6971)" class="st3 st6 st7">Bibberende</text>
<rect id="XMLID_251_" x="521.4" y="25.7" transform="matrix(-0.997 7.791874e-02 -7.791874e-02 -0.997 1160.173 22.1714)" class="st1" width="116.6" height="16.1"/>
<text id="XMLID_250_" transform="matrix(0.9975 -7.098339e-02 7.098339e-02 0.9975 522.0836 44.8994)" class="st4 st6 st7">Bibberende</text>
<rect id="XMLID_249_" x="521.3" y="24" transform="matrix(-0.997 7.791872e-02 -7.791872e-02 -0.997 1160.6843 19.7513)" class="st1" width="117.4" height="17.1"/>
<text id="XMLID_248_" transform="matrix(0.9975 -7.098339e-02 7.098339e-02 0.9975 521.9509 43.212)" class="st5 st6 st7">Bibberende</text>
<rect id="XMLID_218_" x="532.7" y="41" transform="matrix(-0.9945 -0.1043 0.1043 -0.9945 1172.0985 166.1234)" class="st0" width="115.3" height="22.9"/>
<rect id="XMLID_210_" x="533.1" y="41.5" transform="matrix(-0.9952 -9.738448e-02 9.738448e-02 -0.9952 1176.0054 157.441)" class="st1" width="117.4" height="17.1"/>
<text id="XMLID_209_" transform="matrix(0.9945 0.1043 -0.1043 0.9945 532.7845 50.4648)" class="st3 st6" style="font-size:20.999px;">Bibliotheek</text>
<rect id="XMLID_243_" x="532.6" y="45.8" transform="matrix(-0.9952 -9.738448e-02 9.738448e-02 -0.9952 1174.5935 165.9627)" class="st1" width="117.4" height="17.1"/>
<text id="XMLID_237_" transform="matrix(0.9945 0.1043 -0.1043 0.9945 532.3318 54.7831)" class="st4 st6" style="font-size:20.999px;">Bibliotheek</text>
<g id="XMLID_244_">
	
		<rect id="XMLID_460_" x="532.8" y="44" transform="matrix(-0.9952 -9.738448e-02 9.738448e-02 -0.9952 1175.1628 162.3921)" class="st1" width="117.4" height="17.1"/>
	
		<text id="XMLID_458_" transform="matrix(0.9945 0.1043 -0.1043 0.9945 532.5231 52.958)" class="st5 st6" style="font-size:20.999px;">Bibliotheek</text>
</g>
</svg>
