<?xml version="1.0" encoding="utf-8"?>
<!-- Generator: Adobe Illustrator 19.0.0, SVG Export Plug-In . SVG Version: 6.00 Build 0)  -->
<svg version="1.1" id="Laag_1" xmlns="http://www.w3.org/2000/svg" xmlns:xlink="http://www.w3.org/1999/xlink" x="0px" y="0px"
	 viewBox="-204 231.3 432 134" style="enable-background:new -204 231.3 432 134;" xml:space="preserve">
<style type="text/css">
	.st0{fill:#5F94CF;}
	.st1{fill:#5DA47C;}
	.st2{fill:#05915F;}
	.st3{fill:#8EB99B;}
	.st4{fill:#4CB8A4;}
	.st5{fill:#0F2E45;}
	.st6{fill:#D13981;}
	.st7{fill:#005184;}
	.st8{fill:#C5426E;}
	.st9{fill:#FFFFFF;}
	.st10{fill:#869CBC;}
	.st11{fill:#587FA7;}
	.st12{fill:#AFBBD2;}
	.st13{fill:#E1B470;}
	.st14{fill:#B2976E;}
	.st15{fill:#8E7B5D;}
	.st16{fill:#C4AF8F;}
	.st17{fill:none;stroke:#0F2E45;stroke-miterlimit:10;}
	.st18{fill:#8B8C8C;}
	.st19{fill:#5F5F5E;}
	.st20{fill:#AFAFAF;}
	.st21{fill:#009FE3;}
	.st22{fill:#3AAA35;}
	.st23{fill:#009640;}
	.st24{fill:#7FC07B;}
</style>
<rect id="XMLID_52_" x="-958.9" y="231.3" class="st0" width="1896" height="206.5"/>
<ellipse id="XMLID_40_" class="st1" cx="-154.1" cy="353.2" rx="107.7" ry="61.8"/>
<ellipse id="XMLID_43_" class="st2" cx="200.7" cy="333" rx="107.7" ry="61.8"/>
<ellipse id="XMLID_42_" class="st1" cx="93" cy="353.2" rx="107.7" ry="61.8"/>
<rect id="XMLID_46_" x="-311.8" y="-37.5" class="st1" width="89.3" height="85.3"/>
<ellipse id="XMLID_41_" class="st3" cx="-46.3" cy="376" rx="107.7" ry="61.8"/>
<rect id="XMLID_45_" x="-203.7" y="59" class="st4" width="89.3" height="85.3"/>
<rect id="XMLID_44_" x="22" y="59" class="st5" width="89.3" height="85.3"/>
<rect id="XMLID_78_" x="141.7" y="59" class="st6" width="89.3" height="85.3"/>
<rect id="XMLID_47_" x="-311.8" y="59" class="st3" width="89.3" height="85.3"/>
<rect id="XMLID_48_" x="-203.7" y="-37.5" class="st2" width="89.3" height="85.3"/>
<rect id="XMLID_49_" x="24.3" y="-37.5" class="st7" width="89.3" height="85.3"/>
<rect id="XMLID_50_" x="-91" y="-37.5" class="st0" width="89.3" height="85.3"/>
<rect id="XMLID_51_" x="-95.1" y="59" class="st8" width="89.3" height="85.3"/>
<path id="XMLID_54_" class="st1" d="M-54.8,313.6l-5.8-10.1c-1.8-3.2-2.1-7.1-0.7-10.5l15.5-38.4l10.9,48.7c0.7,3.1-0.1,6.4-2,8.9
	l-2.2,2.7C-43.3,320.1-51.5,319.5-54.8,313.6z"/>
<polygon id="XMLID_53_" class="st5" points="-46.3,348.8 -50.5,348.8 -48.4,274.3 "/>
<path id="XMLID_56_" class="st1" d="M-34.9,310.2l-5.8-10.1c-1.8-3.2-2.1-7.1-0.7-10.5l15.5-38.4l10.9,48.7c0.7,3.1-0.1,6.4-2,8.9
	l-2.2,2.7C-23.4,316.7-31.6,316.1-34.9,310.2z"/>
<polygon id="XMLID_55_" class="st5" points="-26.5,345.4 -30.6,345.4 -28.5,270.9 "/>
<path id="XMLID_60_" class="st1" d="M67.1,284l-4.1-7.2c-1.3-2.3-1.5-5-0.5-7.5l11-27.2l7.7,34.5c0.5,2.2,0,4.5-1.5,6.3l-1.5,1.9
	C75.3,288.6,69.5,288.2,67.1,284z"/>
<polygon id="XMLID_59_" class="st5" points="73.1,309 70.2,309 71.6,256.1 "/>
<path id="XMLID_58_" class="st1" d="M81.2,281.6l-4.1-7.2c-1.3-2.3-1.5-5-0.5-7.5l11-27.2l7.7,34.5c0.5,2.2,0,4.5-1.5,6.3l-1.5,1.9
	C89.4,286.2,83.6,285.7,81.2,281.6z"/>
<polygon id="XMLID_57_" class="st5" points="87.2,306.5 84.3,306.5 85.7,253.7 "/>
<path id="XMLID_64_" class="st1" d="M-132.3,288l-3.4-5.9c-1.1-1.9-1.2-4.1-0.4-6.1l9-22.3l6.3,28.3c0.4,1.8,0,3.7-1.2,5.1l-1.3,1.6
	C-125.6,291.8-130.4,291.4-132.3,288z"/>
<polygon id="XMLID_63_" class="st5" points="-127.4,308.5 -129.8,308.5 -128.6,265.2 "/>
<path id="XMLID_62_" class="st1" d="M-120.8,286.1l-3.4-5.9c-1.1-1.9-1.2-4.1-0.4-6.1l9-22.3l6.3,28.3c0.4,1.8,0,3.7-1.2,5.1
	l-1.3,1.6C-114.1,289.8-118.8,289.5-120.8,286.1z"/>
<polygon id="XMLID_61_" class="st5" points="-115.9,306.5 -118.2,306.5 -117,263.2 "/>
<rect id="XMLID_134_" x="-378.8" y="837.2" class="st5" width="810.9" height="210.8"/>
<ellipse id="XMLID_133_" class="st1" cx="-154.1" cy="959.1" rx="107.7" ry="61.8"/>
<ellipse id="XMLID_132_" class="st2" cx="200.7" cy="938.9" rx="107.7" ry="61.8"/>
<ellipse id="XMLID_131_" class="st1" cx="93" cy="959.1" rx="107.7" ry="61.8"/>
<ellipse id="XMLID_130_" class="st3" cx="-34.6" cy="986.2" rx="107.7" ry="61.8"/>
<path id="XMLID_125_" class="st0" d="M67.1,889.9l-4.1-7.2c-1.3-2.3-1.5-5-0.5-7.5l11-27.2l7.7,34.5c0.5,2.2,0,4.5-1.5,6.3l-1.5,1.9
	C75.3,894.5,69.5,894,67.1,889.9z"/>
<polygon id="XMLID_124_" class="st9" points="73.1,914.8 70.2,914.8 71.6,862 "/>
<path id="XMLID_121_" class="st0" d="M-132.3,893.9l-3.4-5.9c-1.1-1.9-1.2-4.1-0.4-6.1l9-22.3l6.3,28.3c0.4,1.8,0,3.7-1.2,5.1
	l-1.3,1.6C-125.6,897.7-130.4,897.3-132.3,893.9z"/>
<polygon id="XMLID_120_" class="st9" points="-127.4,914.3 -129.8,914.3 -128.6,871.1 "/>
<path id="XMLID_203_" class="st0" d="M179.7,883l-2.4-4.2c-0.8-1.3-0.9-2.9-0.3-4.3l6.4-15.8l4.5,20.1c0.3,1.3,0,2.6-0.8,3.6
	l-0.9,1.1C184.4,885.6,181,885.4,179.7,883z"/>
<polygon id="XMLID_202_" class="st9" points="183.1,897.5 181.4,897.5 182.3,866.8 "/>
<path id="XMLID_234_" class="st1" d="M192.4,266.6l-2.4-4.2c-0.8-1.3-0.9-2.9-0.3-4.3l6.4-15.8l4.5,20.1c0.3,1.3,0,2.6-0.8,3.6
	l-0.9,1.1C197.1,269.2,193.8,269,192.4,266.6z"/>
<path id="XMLID_240_" class="st1" d="M184.2,268l-2.4-4.2c-0.8-1.3-0.9-2.9-0.3-4.3l6.4-15.8l4.5,20.1c0.3,1.3,0,2.6-0.8,3.6
	l-0.9,1.1C188.9,270.7,185.6,270.4,184.2,268z"/>
<polygon id="XMLID_239_" class="st5" points="187.7,282.5 186,282.5 186.8,251.8 "/>
<polygon id="XMLID_237_" class="st5" points="195.9,281.1 194.2,281.1 195,250.4 "/>
<rect id="XMLID_508_" x="-469.4" y="1453.8" class="st8" width="887.4" height="219.7"/>
<ellipse id="XMLID_507_" class="st10" cx="-193.1" cy="1575.7" rx="107.7" ry="61.8"/>
<ellipse id="XMLID_506_" class="st11" cx="161.6" cy="1555.5" rx="107.7" ry="61.8"/>
<ellipse id="XMLID_505_" class="st10" cx="53.9" cy="1575.7" rx="107.7" ry="61.8"/>
<ellipse id="XMLID_504_" class="st12" cx="-85.4" cy="1598.5" rx="107.7" ry="61.8"/>
<path id="XMLID_503_" class="st1" d="M-93.9,1497.4l-5.8,10.1c-1.8,3.2-2.1,7.1-0.7,10.5l15.5,38.4l10.9-48.7c0.7-3.1-0.1-6.4-2-8.9
	l-2.2-2.7C-82.3,1490.9-90.5,1491.5-93.9,1497.4z"/>
<polygon id="XMLID_502_" class="st5" points="-85.4,1462.2 -89.5,1462.2 -87.5,1536.7 "/>
<path id="XMLID_499_" class="st1" d="M28,1527l-4.1,7.2c-1.3,2.3-1.5,5-0.5,7.5l11,27.2l7.7-34.5c0.5-2.2,0-4.5-1.5-6.3l-1.5-1.9
	C36.2,1522.4,30.4,1522.9,28,1527z"/>
<polygon id="XMLID_498_" class="st5" points="34,1502.1 31.1,1502.1 32.6,1554.9 "/>
<path id="XMLID_495_" class="st1" d="M-171.4,1510.5l-3.4-5.9c-1.1-1.9-1.2-4.1-0.4-6.1l9-22.3l6.3,28.3c0.4,1.8,0,3.7-1.2,5.1
	l-1.3,1.6C-164.7,1514.3-169.4,1513.9-171.4,1510.5z"/>
<polygon id="XMLID_306_" class="st5" points="-166.5,1502.6 -168.9,1502.6 -167.7,1545.8 "/>
<path id="XMLID_305_" class="st1" d="M-159.8,1525l-3.4,5.9c-1.1,1.9-1.2,4.1-0.4,6.1l9,22.3l6.3-28.3c0.4-1.8,0-3.7-1.2-5.1
	l-1.3-1.6C-153.1,1521.2-157.9,1521.6-159.8,1525z"/>
<polygon id="XMLID_304_" class="st5" points="-154.9,1504.5 -157.3,1504.5 -156.1,1547.8 "/>
<polygon id="XMLID_302_" class="st5" points="144.1,1514.1 142.4,1514.1 143.2,1483.4 "/>
<path id="XMLID_301_" class="st1" d="M148.8,1498.2l-2.4-4.2c-0.8-1.3-0.9-2.9-0.3-4.3l6.4-15.8l4.5,20.1c0.3,1.3,0,2.6-0.8,3.6
	l-0.9,1.1C153.5,1500.8,150.2,1500.6,148.8,1498.2z"/>
<polygon id="XMLID_298_" class="st5" points="144.1,1514.1 142.4,1514.1 143.2,1483.4 "/>
<path id="XMLID_297_" class="st1" d="M148.8,1498.2l-2.4-4.2c-0.8-1.3-0.9-2.9-0.3-4.3l6.4-15.8l4.5,20.1c0.3,1.3,0,2.6-0.8,3.6
	l-0.9,1.1C153.5,1500.8,150.2,1500.6,148.8,1498.2z"/>
<polygon id="XMLID_294_" class="st5" points="144.1,1514.1 142.4,1514.1 143.2,1483.4 "/>
<path id="XMLID_293_" class="st1" d="M148.8,1498.2l-2.4-4.2c-0.8-1.3-0.9-2.9-0.3-4.3l6.4-15.8l4.5,20.1c0.3,1.3,0,2.6-0.8,3.6
	l-0.9,1.1C153.5,1500.8,150.2,1500.6,148.8,1498.2z"/>
<polygon id="XMLID_290_" class="st5" points="144.1,1514.1 142.4,1514.1 143.2,1483.4 "/>
<path id="XMLID_289_" class="st1" d="M148.8,1498.2l-2.4-4.2c-0.8-1.3-0.9-2.9-0.3-4.3l6.4-15.8l4.5,20.1c0.3,1.3,0,2.6-0.8,3.6
	l-0.9,1.1C153.5,1500.8,150.2,1500.6,148.8,1498.2z"/>
<polygon id="XMLID_286_" class="st5" points="144.1,1514.1 142.4,1514.1 143.2,1483.4 "/>
<path id="XMLID_285_" class="st1" d="M148.8,1498.2l-2.4-4.2c-0.8-1.3-0.9-2.9-0.3-4.3l6.4-15.8l4.5,20.1c0.3,1.3,0,2.6-0.8,3.6
	l-0.9,1.1C153.5,1500.8,150.2,1500.6,148.8,1498.2z"/>
<g id="XMLID_204_">
	<g id="XMLID_404_">
		<g id="XMLID_408_">
			<g id="XMLID_409_">
				<g id="XMLID_410_">
					<path id="XMLID_520_" class="st9" d="M-46.9,944.1c-0.1,0.2,0.4,0.2,0.4,0.2C-46.5,943.9-47,944.1-46.9,944.1z"/>
					<polygon id="XMLID_519_" class="st9" points="-47.4,940.2 -47.2,940.3 -47.6,939.7 					"/>
					<path id="XMLID_518_" class="st9" d="M-46.7,936.8c-0.8,0.2-0.1,1.3-0.5,1.9l-0.2,0.1l0.5,0.4C-46.9,938.3-47,937.3-46.7,936.8
						z"/>
					<path id="XMLID_494_" class="st9" d="M-44.8,935.3c-0.3,0-0.1-0.4-0.2,0.4c0,0,0.1,0,0.1-0.1
						C-44.9,935.6-44.9,935.5-44.8,935.3z"/>
					<path id="XMLID_493_" class="st9" d="M-44.9,935.7C-45,936-44.6,935.5-44.9,935.7L-44.9,935.7z"/>
					<path id="XMLID_492_" class="st9" d="M-44.6,934l0.1,0.5c0.2-0.1,0.3-0.4,0.4-0.3C-44.1,933.8-44.3,933.8-44.6,934z"/>
					<path id="XMLID_491_" class="st9" d="M-45,933.4v0.3C-44.9,933.7-44.9,933.6-45,933.4z"/>
					<path id="XMLID_490_" class="st9" d="M-44.9,934.3l-0.1-0.6c-0.1,0-0.4,0,0,0.3C-45.2,933.8-45,934-44.9,934.3z"/>
					<path id="XMLID_489_" class="st9" d="M-45.1,934.5c-0.2,0.2-0.4,0.5-0.5,0C-45.8,935.4-45.2,935.4-45.1,934.5z"/>
					<path id="XMLID_488_" class="st9" d="M-47.4,936.4l-0.3,0.3l0.2,0.4C-47.6,936.9-47.2,936.5-47.4,936.4z"/>
					<path id="XMLID_487_" class="st9" d="M-43.4,931.3c-0.1-0.1-0.4,0-0.6,0v0.4C-43.8,931.5-43.6,931.2-43.4,931.3z"/>
					<path id="XMLID_486_" class="st9" d="M-44,931.3l-0.1-0.6C-44.3,931.1-44.2,931.2-44,931.3z"/>
					<polygon id="XMLID_485_" class="st9" points="-45.7,933.1 -45.5,934.1 -45.7,932.9 					"/>
					<polygon id="XMLID_484_" class="st9" points="-42.7,929.4 -42.4,929.8 -42.7,929.1 					"/>
					<path id="XMLID_483_" class="st9" d="M-42.2,928.2c0.2,0.3,0.6-0.1,0.6,0.2c0.1-0.3,0-0.7-0.1-1.1
						C-41.7,927.6-41.8,927.9-42.2,928.2z"/>
					<path id="XMLID_482_" class="st9" d="M-41.8,926.7c0,0.2,0.1,0.4,0.1,0.6C-41.7,927.1-41.7,926.9-41.8,926.7z"/>
					<path id="XMLID_481_" class="st9" d="M-43.7,929.9c0.1,0,0.3,0,0.6-0.2h-0.5C-43.6,929.7-43.7,929.8-43.7,929.9z"/>
					<path id="XMLID_480_" class="st9" d="M-43.6,929.7L-43.6,929.7c0.1-0.2,0.2-0.4,0.2-0.4C-43.5,929.3-43.5,929.4-43.6,929.7z"/>
					<path id="XMLID_479_" class="st9" d="M-43.7,929.9L-43.7,929.9C-43.7,929.9-43.8,929.9-43.7,929.9z"/>
					<path id="XMLID_478_" class="st9" d="M-44.9,931.9c-0.1-0.4-0.2-1.1-0.7-0.6C-45.5,931.6-45.1,931.3-44.9,931.9z"/>
					<path id="XMLID_477_" class="st9" d="M-44.3,930l-0.3,0.5c0.1,0,0.3,0,0.4,0.2L-44.3,930z"/>
					<polygon id="XMLID_476_" class="st9" points="-44.3,929.6 -44.3,930 -44.2,929.8 					"/>
					<path id="XMLID_475_" class="st9" d="M-42.5,927.4c-0.1-0.3,0-0.5,0.1-0.8c-0.2,0.3-0.4,0.5-0.5,0.8
						C-42.8,927.5-42.7,927.8-42.5,927.4z"/>
					<path id="XMLID_474_" class="st9" d="M-43.1,928.5L-43.1,928.5C-43.2,928.5-43.2,928.5-43.1,928.5z"/>
					<polygon id="XMLID_473_" class="st9" points="-41.1,923.9 -41.2,923.9 -41.1,924 					"/>
					<path id="XMLID_472_" class="st9" d="M-43,927.5c-0.2,0.2-0.1,0.4-0.1,0.5C-43.1,927.8-43,927.6-43,927.5
						C-43,927.4-43,927.4-43,927.5z"/>
					<path id="XMLID_471_" class="st9" d="M-41.6,925.9c-0.1,0.1-0.3,0.2-0.4,0.3C-41.8,926.1-41.5,926-41.6,925.9z"/>
					<path id="XMLID_470_" class="st9" d="M-43,928.4L-43,928.4C-42.9,928.4-42.9,928.4-43,928.4z"/>
					<path id="XMLID_469_" class="st9" d="M-43,928.4c0-0.1-0.1-0.3-0.1-0.4c0,0.2,0,0.3,0,0.4H-43z"/>
					<path id="XMLID_468_" class="st9" d="M-43.1,921.8c0.3,0.2,0.3,1-0.3,1.3c0,0.6,1.3,0.9,2.2,0.8c-0.1-0.1-0.3-0.2-0.2-0.8
						c-0.3,0.1-1,0.9-1.1,0.3c0.2-0.8,0.4-0.5,0.8-0.7c-0.6,0-0.2-1.2-0.9-1.4l-0.1,0.7C-42.9,922-42.9,921.7-43.1,921.8z"/>
					<path id="XMLID_467_" class="st9" d="M-41.7,924.9l-0.1,0.2c0.2-0.2,0.4-0.3,0.8-0.5c0-0.4-0.1-0.6-0.2-0.6
						c0,0-0.1,0.2-0.3,0.5C-41.6,924.7-41.7,925-41.7,924.9L-41.7,924.9z"/>
					<path id="XMLID_466_" class="st9" d="M-42.2,926c-0.3-0.3-0.2-0.9-0.8-0.8c-0.3,0.6,0.1,0.6,0.1,1
						C-42.6,925.2-42.8,926.6-42.2,926c-0.1,0.2-0.1,0.4-0.2,0.6c0.1-0.2,0.3-0.3,0.4-0.4l0,0l0,0l0,0c-0.1,0-0.1,0-0.1,0l0,0
						C-42.2,926.1-42.2,926.1-42.2,926c0.2-0.2,0.1,0,0.1,0.1c0,0,0,0,0.1,0l0,0l0.3-1.1C-41.9,925.3-42,925.5-42.2,926z"/>
					<path id="XMLID_465_" class="st9" d="M-46.3,930.4h0.1C-46.3,930.3-46.3,930.3-46.3,930.4z"/>
					<path id="XMLID_464_" class="st9" d="M-45.9,930.1c0,0.1,0.2,0.2,0,0.5c-0.2,0.2-0.2-0.1-0.3-0.1c0.1,0.2,0.1,0.6,0.5,0.2v-0.1
						c0.3-0.4,1-0.7,1-0.6C-45.2,929.9-45.5,929.9-45.9,930.1z"/>
					<path id="XMLID_463_" class="st9" d="M-44.2,927.9c0,0,0-0.2,0.1-0.5c0-0.2,0.1-0.5,0.1-0.5l-0.5,0.3l0.2,0.1
						C-44.6,927.8-44.3,927.8-44.2,927.9z"/>
					<polygon id="XMLID_462_" class="st9" points="-40.9,923.9 -40.5,924.3 -40.8,923.5 					"/>
					<polygon id="XMLID_461_" class="st9" points="-40.4,922.9 -40,923.1 -40.1,922.7 					"/>
					<path id="XMLID_460_" class="st9" d="M-17.6,865l-0.2-0.1C-17.7,865-17.6,865-17.6,865z"/>
					<path id="XMLID_459_" class="st9" d="M-16.6,866.4l0.2-0.1C-16.5,866.3-16.6,866.4-16.6,866.4z"/>
					<path id="XMLID_458_" class="st9" d="M-20.9,900.5c0.6-0.1,1.3,0,0.9-0.3l-0.4-0.2C-20.5,900.3-20.7,900.4-20.9,900.5z"/>
					<path id="XMLID_457_" class="st9" d="M-12.3,881.1c0,0-0.1,0.1-0.2,0.1c0.1,0.1,0.2,0.3,0.3,0.4
						C-12.1,881.4-12.2,881.2-12.3,881.1z"/>
					<path id="XMLID_456_" class="st9" d="M-14,880.4l0.4-0.4C-13.7,880.1-13.8,880.2-14,880.4z"/>
					<path id="XMLID_455_" class="st9" d="M-25.8,860.9l-0.4,0.4C-25.7,861.4-25.9,861.1-25.8,860.9z"/>
					<path id="XMLID_454_" class="st9" d="M-33.4,913c0.4-0.1,0.6-0.3,0.8-0.5C-33.1,912.7-33.6,912.7-33.4,913z"/>
					<path id="XMLID_453_" class="st9" d="M-13.5,862.8c-0.2-0.1-0.3-0.1-0.4-0.1C-13.7,862.8-13.5,862.9-13.5,862.8z"/>
					<path id="XMLID_452_" class="st9" d="M-31.9,911.8c-0.1,0-0.1,0-0.2,0.1c-0.1,0.2-0.2,0.5-0.5,0.7
						C-32.2,912.5-31.9,912.3-31.9,911.8z"/>
					<path id="XMLID_451_" class="st9" d="M-54.9,876.3C-54.9,876.3-55,876.3-54.9,876.3L-54.9,876.3z"/>
					<path id="XMLID_450_" class="st9" d="M-60,887.4c0-0.1-0.1-0.3-0.1-0.5C-60.2,887-60.1,887.1-60,887.4z"/>
					<path id="XMLID_449_" class="st9" d="M-37.7,919C-37.8,919.2-37.7,919-37.7,919L-37.7,919z"/>
					<path id="XMLID_448_" class="st9" d="M-39.8,919c0-0.1,0-0.1-0.1-0.2C-39.8,918.9-39.8,919-39.8,919z"/>
					<path id="XMLID_447_" class="st9" d="M-32.1,908.1L-32.1,908.1C-32.2,908.1-32.1,908.1-32.1,908.1z"/>
					<path id="XMLID_446_" class="st9" d="M-38.1,919.2c0.1,0,0.2-0.1,0.3-0.2C-37.8,919-37.9,919.1-38.1,919.2z"/>
					<path id="XMLID_445_" class="st9" d="M-37.9,919.2c-0.1,0.1-0.1,0.1-0.2,0.2C-38,919.5-37.9,919.5-37.9,919.2z"/>
					<path id="XMLID_444_" class="st9" d="M-37.5,918.7c-0.1,0.1-0.2,0.2-0.3,0.3c0.1,0,0.1,0,0.1,0
						C-37.6,918.9-37.6,918.8-37.5,918.7z"/>
					<path id="XMLID_443_" class="st9" d="M-43,861.3L-43,861.3C-43.2,861.6-43.1,861.5-43,861.3z"/>
					<path id="XMLID_442_" class="st9" d="M-19.9,892.3C-19.9,892.3-19.9,892.4-19.9,892.3L-19.9,892.3L-19.9,892.3z"/>
					<path id="XMLID_441_" class="st9" d="M-19.7,891.4c0.2,0.6,0,0.8-0.2,0.9l1.2,0.5L-19.7,891.4z"/>
					<path id="XMLID_434_" class="st9" d="M-20.7,862.5l0.2,0.6c-0.9,0.2-1.2-0.2-1,0.5c0.4-0.6,0.8-0.3,1.3-0.1
						c0.4,0.3,0.9,0.6,1.3,0.1l0.1,0.5c-0.1-0.1-0.1,0-0.2-0.1c0,1,1.1-0.4,1.6,0.5c0.1,0.3,0.1,0.6-0.1,0.6l0.7,0.4
						c0.1,0.2-0.1,0.3-0.2,0.1c0,0,0.2,0.2,0.4,0.4s0.4,0.4,0.4,0.4l0,0c0.3,0,0.7,0.2,1,0.2c0,0.4-0.2-0.1-0.3,0.1l0.6,0.4
						c-0.2,0.4-0.7,0.1-0.9-0.3c-0.4,0.6-0.3,0.7-0.1,0.8s0.6,0.3,0.5,1l-0.4-0.5c-0.5,0.7-0.1,0.9-0.3,1.7c0.2-0.2,0.6-1.6,1.2-1.2
						c0,0.2,0,0.5,0.4,0.7c-0.5,0.2-0.2,0.5-0.1,0.9l-0.6,0.2c0.3,0.4,0.6,0.3,1,0.5c0.1,0.5-0.4,0.8-0.8,1c0.1,0.9,0.7-0.8,1,0.2
						c0,0.4,0,0.7,0.1,1s0.3,0.6,0.6,1.1c-0.2,0.5-0.4-0.1-0.6,0.1l0.5,0.4c0,0.1-0.2,0.1-0.2,0.1c0.2,0.4,0.6,0,0.8,0.6
						c0.4,0.1,0.1,0.4-0.1,0.8c-0.3,0.4-0.5,0.8-0.1,1.3c-0.2,0.2-0.4-0.1-0.6-0.1c0.4,1.1,0.3,0.9,0.9,1.9c0,0-0.1,0.2-0.3,0.3
						c-0.1,0.2-0.3,0.3-0.3,0.3c0.6-0.5,1,0.3,1.3,1.1c0.3-0.2,0.5-0.3,0.6-0.4c0,0,0,0.3,0,0.6s0,0.6,0,0.6
						c-0.1,0.1-0.3-0.1-0.5-0.3c0,0.1,0.1,0.2,0.1,0.2c-0.3,0.3-0.6,0-0.9-0.3c0.2-0.1,0.3-0.2,0.5-0.3c-0.3-0.3-0.7-0.7-1.1-0.7
						c0.1,0.1,0.1,0.2,0.1,0.4c-0.1-0.1-0.2-0.1-0.2-0.1c-0.1,0,0,0.1,0.2,0.3h-0.7l0.3,0.1c0,0-0.2,0.3-0.4,0.6s-0.4,0.5-0.4,0.5
						c0.4,1.1,1.1,2.2,0.8,3.8c-0.3-0.6-0.7-0.4-1.3-0.7c0.8-0.1,0.2-1.2,0.6-1.8c-0.2,0.3-0.5,0.2-0.5,0c0,0,0,0.4,0,0.7
						c0,0.4,0,0.7,0,0.7c-0.5-0.2-0.5,0.1-0.8,0.4c1,0.2,0.2,1.2,0.2,1.9c-0.3-0.1-0.6-0.4-0.2-1c-1,0.3,0.6,1.4-0.3,1.8
						c0.1-0.2,0.2-0.2,0-0.3c0.1,0.5-0.6,1.2-0.8,0.9l0.1-0.1c-0.6,0.9-1.8,2.9-1.2,3.5c-0.1-0.1-0.8-0.7-0.9-0.9
						c0,0,0.3,0.8,0.6,1.7c0.3,0.8,0.5,1.7,0.5,1.7c-0.5-0.6-2.3-1.1-2-2.1c-0.2,0.2-0.5,0.3-0.7,0.9c0.2-0.1,1.1,0.3,1,0.5
						c-1.1,0-0.6,0.1-1.7,0.3c0.3-0.1,1,0.8,0.7,1.2c-0.1-0.2-0.9-0.7-0.9-0.9l0.2,1.6c0-0.3-0.7-0.7-1.1-0.7c0.2,0.1-0.6,0.7-0.7,1
						l0.5-0.2c-0.9,0.8,0.4,2-0.5,2.8c-0.1-0.3-0.8-1.2-1.3-0.9c0.2,0.6,1.1,2.8,0.7,4l-0.4-0.1l-0.3,0.9c-0.2-1-0.5-3.3-0.5-4.4
						c-0.5,0.2-0.4-0.2-0.8,0.3c-0.4,0-0.1-0.6,0.1-0.8l-1.3,1c0.5,0.4-0.4,1.4,0,1.7l0.7-1.7c0.5,0.4,0.7,2.1-0.3,2.8
						c-0.4,0-0.7-1-0.9-1.1c0.1,0.3-0.5,1.1-0.7,1l0.1-0.6c-0.6,0.3-0.1,1.4-1.1,1.5c-0.2,0.2-1.2-0.1-0.9,0.3
						c0.9,0.2,2.6,1.9,2.8,2.5c-0.1,0-1.5,0.5-2,0.4c-0.7-0.1-0.5-1.5-1.2-1.6c0.1,0.1,0.1,0.5,0.1,0.6c-0.3,0.1-0.3-0.5-0.7,0
						c0.4,0.6-0.9,0.8,0.2,0.6c-0.3,0.6-0.6,0.4-1,0.9c0.5,0.2,0.6,1.5,0.3,2.1c-0.1-0.1-0.4-0.2-0.5-0.2c-0.9,0.8-1.6,1.1-2.4,1.9
						c-0.2,0-0.7,0.2-0.8-0.1c0,0.2,0,0.5-0.2,0.7c-0.9,0.1,0.5-0.7-0.4-0.7c0.3,0.3-0.2,1.1-0.4,1.6c0.6,0.3,0.9-0.8,1-1.3
						c0.6,0.6,0.7,1.8,0.2,3c-0.5,0.8-0.7,0-0.7,0.2c-1.3,1.3,0.2,2.1-1.2,2.8c-0.8,0.1-0.9-0.6-1.2-0.8c0.3-0.7,1-0.7,1.3-1.1
						l-0.6,0.3c0-0.3,0.2-0.8,0.5-0.9c-0.7,0.1-2,2.3-3.1,3.2c0,0.3-0.1,0.8,0.2,0.7l0.2-0.4c0.6-0.1,0,1,0.5,0.7
						c-0.1,0.7,0,1.4-0.7,2l-0.6-0.2c0.2,0.1,0.6-0.2,0.6-0.5c0.1,0.4-1.4,0.6-0.9,1.3l0.7-0.3c-0.1,0.6,0.2,1.6-0.4,2.1
						c0.7,0,0-0.2,0.9-0.2c-1-0.1,1-1.5-0.2-1.4c1,0,0.8-0.6,1.7-0.7c-0.2-0.1-0.5,0,0-0.4c0-0.1-0.1-0.1-0.1-0.2l0,0l0,0l0,0
						c-0.2,0.1-0.3,0.1-0.4,0.1c-0.2-0.5,0.3-1.3,0.3-1.7c0.3-0.2,0.1,0.3,0.4,0.2v-0.6c0.4,0.2,1.2-0.3,0.9,0.5l0.5-0.6
						c0.5-0.2,0.9-0.6,1-1c0.3-0.2,0.2-1,0.2-0.5l0.5-1.1l0.1,0.1c0.8-0.8,1-2.3,2.5-2.7c0.2-0.4,0.4-0.8,0.9-1.1l0.4,0.2
						c0.3-0.5,1.3-0.8,1.2-1.3c1.1,0.3,1.9-1.6,2.7-2.1l-0.3-0.4c0.5-0.4,0.8-0.9,1.2-1.6l-0.3-0.3c0.2-0.7,1.5-1,2.2-1.8
						c0.1,0.2-0.2,0.3-0.4,0.4c1.6-0.2,1.4-2.4,2.7-2.8c0.1-0.3,0.3-0.4,0.5-0.5c0,0,0,0,0,0.1l0.1-0.1c0.1,0,0.3-0.1,0.5-0.1
						c-0.2,0-0.3,0-0.4,0.1c0.1-0.2,0.3-0.5,0.5-0.8l0.5,0.2c0,0,0,0,0-0.1c0.4-0.1,0-0.4-0.4-0.5c0.1-0.2,0.1-0.4,0.1-0.5
						c0.8,0.3,0.4-0.8,1.3-0.6c-0.1-0.4,0.9-1.5,0.3-2.2c0.1,0.1,0.2,0,0.1,0.2c0.3-0.2,0.6-0.5,0.6-0.9l0.6,0.3l-0.2-1.2
						c0.6-0.2,0.9-0.2,1,0.5c0.1-1.4,0.4-1,0.4-2.2l0.3,0.3c0.2-0.3,0.1-1.1,0.5-1.1c1.1-0.3,2.3-3.3,3.7-5
						c-1.2-0.1,0.9-0.7,0.1-1.1c0.3,0,0.6-0.2,0.6,0.2c0.2-1.1,1-1.4,0.5-2.4c0.3,0,0.3,0.4,0.5,0.3c0-0.1-0.1-0.4,0.1-0.5
						c0.2-0.1,0.2,0.2,0.2,0.4c0.3-1.1-0.5-1.5-1.2-1.8c0.5-0.4,0.5-0.8,0.1-1.3c0.3-0.1,0.6-0.4,0.6,0.3c0.2-0.4,0.8-2.3,0.2-2.4
						c0.2-0.1,0.1-0.5,0-0.6c0.1-0.9,0.2-0.9,0.1-1.8l-0.1,0.2c-0.7-0.4-0.2-0.7-0.3-1.4h0.1c0.5-1.6-0.3-0.7,0.2-2.3l-0.5,0.1
						c-0.5,0-0.4-0.4-0.2-0.8c0.2-0.5,0.3-1.1,0.1-1.5l-0.2,0.4c-0.4-0.4,1-1.7,1-2.3c0.1-0.1,0.2,0.1,0.3,0.3
						c0.2-1.5-0.6,0-1.1-0.9c0.3-0.3,0.9-0.1,0.7-0.7c0.1-0.2-0.4-0.6-0.8-1c-0.4-0.5-0.9-0.9-0.9-1.5c-0.1,0.3-0.3,0.6-0.7,0.3
						c-0.2-0.3-0.3-0.8-0.4-1.3c-0.1-0.5-0.4-0.9-0.9-0.9c0-0.1,0-0.2,0.1-0.2c-0.5-0.3-1.5-1.2-2-1c0.4-0.8-0.4-1.3-1.2-1.5
						c-0.7-0.3-1.5-0.5-1.1-1.1l-1.5-0.8l0.1-0.1c-1-0.6-1.5-0.4-1.9-0.2c-0.2-0.2,0-0.3,0.1-0.3c-0.7-0.4-1.1-0.6-1.5-0.7
						c-0.4,0-0.8,0-1.5,0.3v-0.5c-0.4,0.2-2.1-1.2-3.7-0.8c0-0.1,0.1-0.1,0.2-0.2c-0.9,0.2-1.9-0.2-2.8-0.4
						c-0.9-0.2-1.7-0.2-1.9,0.7c0,0-0.3,0.1-0.5,0.3c-0.3,0.1-0.5,0.3-0.5,0.3c1.4,0-0.1,0.8,0.5,1c-0.5,0.2-1.4-0.4-0.8-0.6
						l0.1,0.1c0.1-1-1.8-0.1-1.8-0.8c-2.7,0.5-5.5,0.6-8,1.5l0.5,0.6l-0.9,0.3c-0.3-0.1-0.5-0.4,0.1-0.6c-0.5-0.3-0.9,0.7-0.9,0.9
						c-1.3,0.3,0.1-1-0.2-0.8l-0.5,0.3h0.1c-0.3,0.5-0.2,0.8-0.9,1.1c-0.5,0.1-0.4-0.3-0.6-0.2c0,0-0.1,0-0.3,0.1
						c0,0-0.3,0.1-0.5,0.3c-0.3,0.1-0.5,0.3-0.5,0.3l0.7,0.3c-0.3,0.5-1,0.5-0.2,0.8c-0.3-0.1-0.7,0-1.1,0.1
						c-0.4,0.2-0.9,0.5-1.3,0.8c-0.9,0.6-1.5,1.4-1.8,1.5c-0.3,0.8-0.7,1.3-1.4,1.9c0.3-0.1,0.8,0.2,0.3,0.8
						c-0.8-1.1-1.3,0.7-2.5,0.7c0.8-0.1-1.1,1.9,0.2,1.7c-0.4,0.5-0.5-0.2-1,0c-0.3,1.6-1.9,2.8-2.4,4.7c0.2,0.1,0.5-0.1,0.6,0.3
						c0,0-0.3,0.2-0.6,0.3c-0.3,0.2-0.6,0.3-0.6,0.3c0,0.4,0.9,0.6,0.1,1.1c0.2-0.1,0.4-0.1,0.4,0.1c-0.9,1.6-1.1,3.6-1.1,5.4
						c-0.1,1.9,0,3.7-0.7,5.7c0.3-0.6,0.4-0.2,0.4,0.2c0-0.3,0.4,0,0.7-0.1l-0.4,1.6c0.7,0.2,0.4,1.6,1,1.7l-0.2-0.5
						c0.9,0.4,1.4-1.2,2.4-1.3c-0.5-0.2-0.2-0.7,0-1.3c0.2-0.5,0.4-1.1-0.3-1.5c0.2-0.3,0.3,0.2,0.5,0c-0.4-0.2-0.6-0.6-0.4-1.2
						l0.1,0.1c-0.1-1.7,0.3-2.5,0.8-4.3l-0.5,0.1c0.1-0.4,0.3-0.5,0.4-0.6c-0.6-0.6-0.2,1.1-0.9,0.6c0.5-0.2,0.6-0.9,0.8-1.6
						c0.2-0.7,0.3-1.3,0.9-1.4c0.2-0.6-0.6,0-0.4-0.6l0.3-0.1l-0.3-0.3c0.2-0.4,0.6-0.5,0.8-0.4c-0.1,0.1,0,0.3,0,0.4
						c0.5-0.4,0.3-1.4,0.5-1.6l-0.4,0.5c0.3-1.7,1.5-3.4,1.9-5.1h-0.3c0.4-1.3,0.7-0.7,1.4-1.9v0.1c0-0.4,0.1-0.7,0.4-1
						c0,0.4,0.8-0.1,0.7,0.4c0.6-1.3,0.2-0.7,0.2-2l0.4,0.1c0-0.4-0.1-0.6,0.4-1.1c-0.2,0.6,0.7,0.1,0.5,0.9c0.8-0.2,1.1-0.6,1.3-1
						c0.3-0.4,0.5-0.7,1.1-0.4c0-0.6-0.3-0.6-0.7-0.4c-0.3,0.2-0.6,0.5-0.5,0.3c-0.5-0.1,0-1,0.5-1.1c0.4-0.2,1.4,0.7,2.4,0.1
						c-0.1,0-0.1,0.1-0.2,0.2c0.5,0,0.6-0.7,1.3-0.5c0-0.7,0.6-0.2,0.4-1c0,0-0.2,0.2-0.5,0.3c-0.2,0.2-0.5,0.3-0.5,0.3
						c0.5-0.4,0.6-1.5,1.8-1.5c0,0.2-0.2,0.5-0.4,0.7c0.4,0.1,0.5-0.4,0.9-0.2c0.2,0.8-1.2,0.6-1.5,1.5c0.4,0.2,0.9-1,0.9-0.1
						c0-1.2,1.1-0.3,1.6-1.3l0.1,0.5c0.1-0.1,0.3-0.4,0.5-0.5l-0.2,0.7c0.5-0.7,1.3,0.1,1.8-0.3c-1.2,0.4-0.4-0.5-1.1-0.7
						c1.4-1,1.2,0.9,2.9,0.3c-0.2,0.1-0.9-0.1-0.6-0.4c0.4,0,0.8,0.1,1.1,0.3c1.1-0.3-0.3-0.4,0.2-0.8c0.5,0.5,0.5-0.3,1-0.6
						l0.1,0.5c1.4,0.1,0.2-1.1,1.5-0.8l-0.4,0.7c0,0,0.2-0.1,0.3-0.1c0.2-0.1,0.3-0.1,0.3-0.1l-0.1,0.6c0.6-0.5,0.9-0.4,1.5-0.3
						c-0.2-0.3,0-0.9,0.6-0.9c0.4,0.3-0.2,0.5,0.6,0.4c-0.2,0.3-0.4,0.7-0.8,0.3c0,0.2-0.2,0.3-0.2,0.5c0.4,0.3,1.1,0,1.4,0
						c-0.1,0-0.3,0-0.3-0.1c0,0,0.3-0.2,0.6-0.3c0.3-0.2,0.6-0.3,0.6-0.3c0.2,0.2,0,0.3-0.1,0.5c0.2,0,0.4-0.3,0.8-0.3
						c-0.1,0.4-0.1,0.8-0.6,1c0,0,0.3-0.1,0.6-0.2c0.3-0.1,0.6-0.2,0.6-0.2c0.1,0.2,0.5,0.5,0.4,0.6c0.3,0.2,0.7,0,1.1-0.1
						c0.4-0.1,0.9-0.2,1.2,0c0.1-0.1,0.2-0.1,0.3-0.1c0.7,0.3,1.2,0.9,2.2,0.7l0.2,0.8c0.7,0.1-0.3-1.1,0.9-0.9c0.9,0.1,0,0.7,0.2,1
						c0.5-0.1,1.5-0.4,1.8,0.5C-20.4,862.8-20.5,862.6-20.7,862.5z M-15.1,868.6c-0.2-0.1-0.6-0.3-0.4-0.5
						C-14.9,868.1-15.1,868.3-15.1,868.6z M-13.5,882.2c-0.1-0.2,0-0.4,0.3-0.5C-13.3,881.9-13.3,882-13.5,882.2z M-36.4,916.5
						L-36.4,916.5C-36,916.3-36.1,916.4-36.4,916.5z M-37.1,917.1c0,0.1,0.1,0.1,0.1,0.2c-0.1-0.1,0-0.3,0.2-0.4
						C-36.9,916.8-37,916.8-37.1,917.1z M-46.9,859.6h0.2C-47,859.9-47,859.8-46.9,859.6z"/>
					<path id="XMLID_433_" class="st9" d="M-13.8,880.5c0.1,0,0.2,0,0.3,0C-13.5,880.4-13.6,880.4-13.8,880.5z"/>
					<path id="XMLID_432_" class="st9" d="M-25.7,860.9L-25.7,860.9C-25.8,860.9-25.8,860.9-25.7,860.9L-25.7,860.9z"/>
					<path id="XMLID_431_" class="st9" d="M-30.9,904.2c0.2-0.1,0.3-0.1,0.4-0.1C-30.5,904.1-30.7,904.1-30.9,904.2z"/>
					<path id="XMLID_430_" class="st9" d="M-38.9,921.2l0.2-0.5c-0.1,0.2-0.3,0.3-0.4,0.3C-39,921.1-38.8,921.1-38.9,921.2z"/>
					<path id="XMLID_429_" class="st9" d="M-43.8,924c0,0.1-0.1,0.2-0.1,0.3l0.2,0.1C-43.5,924-43.6,923.7-43.8,924z"/>
					<path id="XMLID_428_" class="st9" d="M-40.5,920.8c-0.4-0.2-0.4,0.2-0.6,0.6c0,0,0,0,0-0.1C-40.6,921.7-40.6,921.3-40.5,920.8z
						"/>
					<path id="XMLID_427_" class="st9" d="M-41.1,921.5c0,0.1-0.1,0.2-0.2,0.3C-41.1,922-41.2,921.7-41.1,921.5z"/>
					<path id="XMLID_426_" class="st9" d="M-37.5,918.1c-0.2,0.1,0.4,0.4,0.2,0.4C-37,918.9-37.1,917.2-37.5,918.1z"/>
					<polygon id="XMLID_425_" class="st9" points="-41.8,920.4 -41.3,920.6 -41.6,920.2 					"/>
					<path id="XMLID_424_" class="st9" d="M-39.9,918l-0.5,0.4c0.1,0,0.1,0.1,0.1,0.2C-40.1,918.3-39.7,918-39.9,918z"/>
					<path id="XMLID_423_" class="st9" d="M-40.3,918.7c-0.1,0.2-0.2,0.3-0.2,0.5C-40.4,919-40.3,918.8-40.3,918.7z"/>
					<polygon id="XMLID_422_" class="st9" points="-41.5,919.6 -41.3,919.5 -41.1,919.1 					"/>
					<path id="XMLID_421_" class="st9" d="M-35.6,912.7l0.3-0.6c-0.1-0.2-0.3-0.1-0.4,0.1C-35.7,912.4-35.8,912.6-35.6,912.7z"/>
					<path id="XMLID_420_" class="st9" d="M-38,913.4c0.2-0.1,0.3,0,0.5,0L-38,913V913.4z"/>
					<path id="XMLID_419_" class="st9" d="M-36.8,911.7c-0.1-0.2,0.3-1.1-0.3-0.4C-37,911.5-37.3,912.1-36.8,911.7z"/>
					<polygon id="XMLID_418_" class="st9" points="-28.9,904.7 -29.1,904.8 -28.3,905.5 					"/>
					<path id="XMLID_417_" class="st9" d="M-24.3,896.5c-0.7,0.4,0.3,0.6-0.4,0.9c0,0.3,0.6-0.3,0.6,0
						C-23.9,896.9-23.6,896.8-24.3,896.5z"/>
					<path id="XMLID_416_" class="st9" d="M-24.1,897.4c0,0.1,0,0.2-0.1,0.3C-24.1,897.5-24.1,897.4-24.1,897.4z"/>
					<polygon id="XMLID_415_" class="st9" points="-60.2,889.5 -60.3,890.2 -60,889.7 					"/>
					<path id="XMLID_414_" class="st9" d="M-59.2,890.4l-0.6,0.3l0.6,0.2C-59.2,890.8-59.3,890.6-59.2,890.4z"/>
					<path id="XMLID_413_" class="st9" d="M-15.9,870.3h0.2c0.1-0.1,0.1-0.2,0.1-0.4L-15.9,870.3z"/>
					<polygon id="XMLID_412_" class="st9" points="-18.4,865.1 -18.3,865.1 -18,864.6 					"/>
					<path id="XMLID_411_" class="st9" d="M-22.6,862.9c0.2,0.1,0.4,0.1,0.6,0.2C-22.5,863-22.4,862.2-22.6,862.9z"/>
				</g>
			</g>
		</g>
	</g>
</g>
<g id="XMLID_205_">
	<g id="XMLID_523_">
		<g id="XMLID_527_">
			<g id="XMLID_528_">
				<g id="XMLID_529_">
					<path id="XMLID_616_" class="st9" d="M-38.4,954.4l-0.1-0.4C-38.5,954.1-38.4,954.5-38.4,954.4z"/>
					<polygon id="XMLID_615_" class="st9" points="-38.4,955.4 -38.5,955.2 -38.4,955.7 					"/>
					<path id="XMLID_614_" class="st9" d="M-38.7,955.5c0.2,0.7,0.1-0.1,0.2,0.1l0.1,0.2l-0.1-0.6
						C-38.6,955.3-38.6,955.7-38.7,955.5z"/>
					<path id="XMLID_613_" class="st9" d="M-39.3,954.1C-39.2,954.3-39.3,954.3-39.3,954.1L-39.3,954.1L-39.3,954.1z"/>
					<path id="XMLID_612_" class="st9" d="M-39.3,954.1C-39.3,954-39.4,953.8-39.3,954.1L-39.3,954.1z"/>
					<path id="XMLID_611_" class="st9" d="M-39.4,954.3v-0.2c-0.1-0.2-0.1-0.2-0.1-0.3C-39.5,953.8-39.5,954-39.4,954.3z"/>
					<path id="XMLID_610_" class="st9" d="M-39.3,954.8L-39.3,954.8C-39.3,954.6-39.3,954.6-39.3,954.8z"/>
					<path id="XMLID_609_" class="st9" d="M-39.3,954.4v0.2c0,0.1,0.1,0.3,0-0.1C-39.2,954.8-39.3,954.6-39.3,954.4z"/>
					<path id="XMLID_608_" class="st9" d="M-39.2,954.5c0.1,0.1,0.1,0.2,0.2,0.5C-39,954.9-39.2,954.4-39.2,954.5z"/>
					<path id="XMLID_607_" class="st9" d="M-38.5,956.2l0.1,0.2L-38.5,956.2C-38.4,956.3-38.6,956-38.5,956.2z"/>
					<path id="XMLID_606_" class="st9" d="M-39.7,954c0,0.1,0.1,0.4,0.2,0.6v-0.2C-39.6,954.3-39.6,954.2-39.7,954z"/>
					<path id="XMLID_605_" class="st9" d="M-39.5,954.5v0.3C-39.4,954.8-39.5,954.7-39.5,954.5z"/>
					<path id="XMLID_604_" class="st9" d="M-39,955.5l-0.1-0.5L-39,955.5z"/>
					<polygon id="XMLID_603_" class="st9" points="-39.9,954 -39.9,953.6 -39.8,954.2 					"/>
					<path id="XMLID_602_" class="st9" d="M-40,954.1c-0.1-0.3-0.2-0.5-0.2-0.6C-40.2,953.6-40.2,953.8-40,954.1
						C-40.1,953.8-40,953.9-40,954.1z"/>
					<path id="XMLID_601_" class="st9" d="M-40,954.3c0-0.1,0-0.2,0-0.3C-40.1,954-40,954.1-40,954.3z"/>
					<path id="XMLID_600_" class="st9" d="M-39.6,954.7c0-0.1-0.1-0.3-0.2-0.4L-39.6,954.7L-39.6,954.7z"/>
					<path id="XMLID_599_" class="st9" d="M-39.6,954.8L-39.6,954.8C-39.6,954.7-39.6,954.7-39.6,954.8
						C-39.6,954.7-39.6,954.7-39.6,954.8z"/>
					<path id="XMLID_598_" class="st9" d="M-39.6,954.7L-39.6,954.7C-39.6,954.8-39.6,954.8-39.6,954.7z"/>
					<path id="XMLID_597_" class="st9" d="M-39.3,955.2c0,0.2,0.1,0.5,0.2,0.8C-39.1,955.7-39.2,955.5-39.3,955.2z"/>
					<path id="XMLID_596_" class="st9" d="M-39.4,955.3L-39.4,955.3c0,0,0-0.2,0-0.3V955.3z"/>
					<polygon id="XMLID_595_" class="st9" points="-39.4,955.4 -39.4,955.3 -39.4,955.2 					"/>
					<path id="XMLID_594_" class="st9" d="M-39.8,954.7c0,0.2,0,0.2,0,0.2c0,0.1,0.1,0.1,0.1,0.1C-39.8,954.9-39.8,954.6-39.8,954.7
						z"/>
					<path id="XMLID_593_" class="st9" d="M-39.7,954.7L-39.7,954.7C-39.7,954.8-39.7,954.8-39.7,954.7z"/>
					<path id="XMLID_592_" class="st9" d="M-40.1,955L-40.1,955L-40.1,955L-40.1,955z"/>
					<path id="XMLID_591_" class="st9" d="M-39.7,955.1c0,0.1,0,0,0-0.2C-39.7,955-39.7,955-39.7,955.1L-39.7,955.1z"/>
					<path id="XMLID_590_" class="st9" d="M-40,954.5c0,0.1,0.1,0.2,0.1,0.2C-40,954.6-40.1,954.4-40,954.5z"/>
					<path id="XMLID_589_" class="st9" d="M-39.7,954.7C-39.7,954.6-39.7,954.6-39.7,954.7C-39.8,954.5-39.8,954.6-39.7,954.7z"/>
					<path id="XMLID_588_" class="st9" d="M-39.7,954.7c0,0.1,0,0.2,0,0.3v-0.1C-39.7,954.7-39.7,954.7-39.7,954.7z"/>
					<path id="XMLID_587_" class="st9" d="M-39.5,957.6c-0.1-0.4-0.1-0.8,0-0.4c0-0.3-0.4-1.5-0.6-2.2c0,0.2,0.1,0.3,0.1,0.6
						c0.1,0.2,0.2,0.5,0.3,0.8c0,0.2-0.1-0.1-0.2-0.3c0.2,0.5,0.1,0.7,0.3,1.4v-0.3C-39.5,957.4-39.5,957.5-39.5,957.6z"/>
					<path id="XMLID_586_" class="st9" d="M-40,955L-40,955c0-0.1-0.1-0.3-0.2-0.6C-40.2,954.6-40.1,954.7-40,955L-40,955L-40,955z"
						/>
					<path id="XMLID_585_" class="st9" d="M-39.9,955c0.1,0.4,0.1,0.6,0.2,1.1c0,0-0.1-0.4-0.1-0.5C-39.8,955.6-39.7,955.2-39.9,955
						C-39.9,954.9-39.9,954.9-39.9,955c0-0.1,0-0.2-0.1-0.3l0,0l0,0l0,0c0,0.1,0,0.1,0,0.1l0,0C-39.9,954.9-39.9,954.9-39.9,955
						c0-0.1,0-0.1,0-0.2v-0.1l0,0V955L-39.9,955z"/>
					<path id="XMLID_584_" class="st9" d="M-38.8,956.9C-38.8,956.9-38.9,956.9-38.8,956.9C-38.9,956.9-38.9,956.9-38.8,956.9z"/>
					<path id="XMLID_583_" class="st9" d="M-38.9,956.7c0-0.1-0.1-0.2,0-0.2c0.1,0.1,0.1,0.2,0.1,0.3c0-0.1,0-0.3-0.1-0.5v0.1
						c-0.1-0.1-0.3-0.6-0.3-0.7C-39.2,956.1-39.1,956.3-38.9,956.7z"/>
					<path id="XMLID_582_" class="st9" d="M-39.4,955.9v0.2l0.1,0.3l-0.1-0.2C-39.3,956.4-39.3,956.1-39.4,955.9z"/>
					<polygon id="XMLID_581_" class="st9" points="-40.1,954.7 -40.2,954.3 -40.1,954.9 					"/>
					<polygon id="XMLID_580_" class="st9" points="-40.2,954.8 -40.3,954.4 -40.3,954.7 					"/>
					<path id="XMLID_579_" class="st9" d="M-45.2,960.6L-45.2,960.6C-45.3,960.7-45.2,960.7-45.2,960.6z"/>
					<path id="XMLID_578_" class="st9" d="M-45.1,960.7v-0.2C-45.1,960.6-45.1,960.6-45.1,960.7z"/>
					<path id="XMLID_577_" class="st9" d="M-42.6,955.4c-0.1-0.4-0.2-0.9-0.2-0.5L-42.6,955.4C-42.6,955.3-42.6,955.3-42.6,955.4z"
						/>
					<path id="XMLID_576_" class="st9" d="M-43.8,958.2L-43.8,958.2c0,0,0-0.2,0-0.3C-43.8,958-43.8,958.1-43.8,958.2z"/>
					<path id="XMLID_575_" class="st9" d="M-43.6,960l-0.1-0.3C-43.7,959.8-43.7,959.9-43.6,960z"/>
					<path id="XMLID_574_" class="st9" d="M-46.2,961.2v0.4C-46.2,961.6-46.2,961.4-46.2,961.2z"/>
					<path id="XMLID_573_" class="st9" d="M-41.2,955.2c-0.1-0.2-0.1-0.2-0.1-0.2C-41.2,955.2-41.1,955.6-41.2,955.2z"/>
					<path id="XMLID_572_" class="st9" d="M-45.6,956c0,0.1,0,0.2,0,0.3C-45.5,956.2-45.5,956.2-45.6,956z"/>
					<path id="XMLID_571_" class="st9" d="M-41.4,955C-41.3,955-41.3,955.1-41.4,955C-41.3,955-41.3,955-41.4,955
						C-41.3,954.8-41.4,954.7-41.4,955z"/>
					<path id="XMLID_570_" class="st9" d="M-49.9,960.8L-49.9,960.8L-49.9,960.8z"/>
					<path id="XMLID_569_" class="st9" d="M-50.6,956.4L-50.6,956.4C-50.6,956.3-50.6,956.3-50.6,956.4z"/>
					<path id="XMLID_568_" class="st9" d="M-40.6,954.7C-40.6,954.7-40.7,954.7-40.6,954.7L-40.6,954.7z"/>
					<path id="XMLID_567_" class="st9" d="M-40.1,956.4c0,0,0,0.1,0,0.2C-40.1,956.5-40.1,956.4-40.1,956.4z"/>
					<path id="XMLID_566_" class="st9" d="M-41,957.7L-41,957.7C-41,957.8-41,957.7-41,957.7z"/>
					<path id="XMLID_565_" class="st9" d="M-40.6,954.9c0,0,0-0.1-0.1-0.1C-40.6,954.8-40.6,954.9-40.6,954.9z"/>
					<path id="XMLID_564_" class="st9" d="M-40.6,954.7C-40.6,954.7-40.6,954.8-40.6,954.7C-40.6,954.7-40.6,954.6-40.6,954.7z"/>
					<path id="XMLID_563_" class="st9" d="M-40.7,954.8C-40.7,954.8-40.6,954.8-40.7,954.8C-40.6,954.8-40.6,954.8-40.7,954.8
						C-40.7,954.7-40.7,954.8-40.7,954.8z"/>
					<path id="XMLID_562_" class="st9" d="M-48,959.7L-48,959.7C-48,959.8-48,959.8-48,959.7z"/>
					<path id="XMLID_561_" class="st9" d="M-42.4,959.9L-42.4,959.9L-42.4,959.9L-42.4,959.9z"/>
					<path id="XMLID_560_" class="st9" d="M-42.4,960.3c-0.1-0.5,0-0.5,0-0.4l-0.2-1.2L-42.4,960.3z"/>
					<path id="XMLID_553_" class="st9" d="M-45.7,960.8l0.1,0.4c0,0.6-0.1,0.4,0,1c-0.1-1.4,0.2-0.2,0.1-1.5l0.1,0.3v0.1
						c0.1,0.6,0-1,0.1-0.8c0,0.1,0.1,0.3,0.1,0.5v-0.3c0,0,0,0.3,0,0.2l0.1-0.1l0,0c0-0.2,0-0.5,0-0.7c0,0.2,0,0.1,0,0.3v-0.3
						c0.1,0.3,0,0.7,0,0.6c0.2,1.3,0-0.3,0.2,0.4v0.2c0.1,0.8,0.1,0.5,0.3,1c0-0.2-0.3-1.2-0.2-1.5c0,0.1,0.1,0.1,0.1-0.1
						c0,0.5,0.1,0.4,0.1,0.3l0.1,0.6c0-0.2,0-0.5,0-0.8c0.1,0.1,0.1,0.5,0.2,1c0.1,0.1-0.1-0.8-0.1-0.9c0.1,0.2,0.1,0,0.2-0.4
						c0.1,0.2,0,0.4,0.1,0.6v-0.5v0.2c0-0.2-0.1-0.6,0-0.8c-0.1-0.7,0.2,1,0.2,0.2c0,0.2,0,0.4,0.1,0.6c0-0.5,0-0.4,0-1.1l0.1,0.4
						c-0.1-0.5-0.1-1-0.1-1.5c0-0.2-0.1-0.4-0.1-0.5v-0.4c0,0.1,0,0.3,0.1,0.6c0-0.1,0-0.1,0-0.2c0.1,0.2,0.1,0.6,0.1,1
						c0-0.1-0.1-0.3-0.1-0.4c0,0.4,0.1,0.8,0.1,1.2c0-0.1,0-0.1,0-0.2c0,0.1,0,0.2,0,0.3s0-0.1,0-0.2l0.1,0.7V960l0.2,0.4
						c0-0.7-0.1-1.8,0-2.1c0,0.5,0.1,0.8,0.2,1.5c-0.1-0.6-0.1,0.3-0.2,0.2c0,0.1,0.1,0.4,0.1,0.5v-0.6c0.1,0.5,0.1,0.4,0.1,0.6
						c-0.2-1,0-0.7,0-1c0.1,0.3,0.1,0.7,0,0.6c0.2,0.7-0.1-1.2,0.1-0.6c0,0,0,0,0,0.1c0-0.3,0.1-0.1,0.1,0.2l0,0
						c0.1,0.1,0.3,0,0.2-0.9c0,0.1,0.1,1,0.2,1.2l-0.3-2.9c0.1,0.7,0.4,2.4,0.4,2.9c0,0.1,0.1,0.2,0.1,0c0-0.1-0.2-1-0.2-1.1
						c0.2,0.8,0.1,0.4,0.3,1.1c-0.1-0.2-0.2-1.3-0.2-1.3c0,0.2,0.2,1.1,0.2,1.2l-0.1-1.1c0,0.2,0.2,0.9,0.2,1.2c0-0.2,0.1,0,0.1-0.1
						l-0.1-0.2c0.1,0.1-0.2-1.6-0.1-1.5c0,0.2,0.2,1.4,0.3,1.5c-0.1-0.6-0.4-2.7-0.4-3.2l0.1,0.3v-0.4c0.1,0.9,0.3,2.7,0.4,3.4
						c0.1,0.2,0.1,0.4,0.1,0.3c0.1,0.3,0.1,0.5,0,0.5l0.2,0.2c-0.1-0.7,0-0.7-0.1-1.2v0.7c-0.1-0.7-0.3-1.9-0.1-1.8
						c0.1,0.3,0.2,1.2,0.3,1.4c0-0.2,0-0.5,0.1-0.3v0.4c0.1,0.2-0.1-0.9,0.1-0.3c0,0,0.2,0.8,0.2,0.4c-0.2-0.7-0.7-3.1-0.8-3.6
						c0,0,0.3,0.7,0.4,1.1c0.2,0.6,0.2,1.4,0.4,1.9c0-0.2-0.1-0.4-0.1-0.5c0.1,0.1,0.1,0.6,0.1,0.5c-0.1-0.7,0.1,0-0.1-0.6
						c0-0.2,0.1,0.1,0.1,0.1c-0.1-0.4-0.3-1.5-0.2-1.7c0,0.2,0.1,0.4,0.1,0.5c0.1,0,0.2,0.3,0.3,0.3c0,0.2,0.1,0.3,0.2,0.6
						c0-0.1-0.1-0.3,0-0.4c0.2,0.6,0,0.1,0.2,0.8c-0.1-0.4,0-0.6-0.1-0.8c-0.1-0.6-0.1-0.1-0.1,0.2c-0.2-0.8-0.3-1.7-0.3-2.1
						c0-0.2,0.2,0.5,0.1,0.4c0.2,0.1-0.2-1.5,0-0.9c0.2,0.5,0.3,1,0.4,1.4c0,0.2-0.2-0.3-0.2-0.3l0.1,0.2c0,0.2,0,0.3,0,0.2
						c0.2,0.5,0.3,0,0.5,0.4c0-0.2,0-0.4-0.1-0.6v0.1c-0.1-0.4-0.1-0.6-0.2-0.8c0-0.3-0.1-0.8,0-0.6l0.2,0.6c0-0.2-0.1-0.3-0.1-0.2
						c0-0.3,0.3,0.8,0.1,0l-0.2-0.4c0-0.3-0.1-1,0-0.8c-0.2-0.6,0,0.1-0.2-0.6c0.3,0.8-0.2,0,0.1,0.9c-0.2-0.8-0.2-0.3-0.4-1
						c0.1,0.2,0.1,0.4,0,0.3c0,0.1,0,0.1,0,0.2l0,0l0,0l0,0c0,0.1,0.1,0.2,0.1,0.3c0.1,0.5,0,0.5,0,0.7c-0.1-0.1,0-0.2-0.1-0.4v0.4
						c-0.1-0.4-0.3-0.7-0.2-1h-0.1c-0.1-0.2-0.2-0.3-0.2-0.1c0-0.1,0,0.5,0,0.2v0.3v-0.1c-0.1,0,0,0.8-0.3,0c0,0.1,0,0.3-0.1,0.1
						l-0.1-0.4c0,0.1-0.2-0.4-0.1,0c-0.3-1-0.2-0.2-0.3-0.4l0.1,0.5c-0.1,0-0.1,0.1-0.1,0.3l0.1,0.4c0,0.4-0.2-0.3-0.3-0.2
						c0-0.2,0-0.1,0,0c-0.3-1-0.1,0.8-0.3,0.1c0,0.2,0,0.1-0.1,0l0,0l0,0c0-0.1-0.1-0.2-0.1-0.2c0,0.1,0.1,0.2,0.1,0.2s0,0.1,0,0.2
						l-0.1-0.5l0,0c-0.1-0.2,0,0.2,0.1,0.6c0,0.1,0,0.2,0,0.3c-0.2-0.8,0,0.3-0.2-0.5c0.1,0.4-0.1,0.3,0.1,1.2c0-0.1,0-0.2,0-0.2
						c0-0.1-0.1-0.2-0.1,0.1l-0.1-0.6l0.1,0.8c-0.1-0.4-0.2-0.6-0.2-1c0,0.7,0,0.3,0,1l-0.1-0.4c0,0,0,0.6-0.1,0.2
						c-0.2-0.7-0.3-0.1-0.6-0.7c0.2,1.1-0.1-0.5,0,0.4c0-0.3-0.1-0.4-0.1-0.7c0,0.3-0.2-0.4-0.1,0.3c0-0.3,0-0.4-0.1-0.6
						c0,0.1,0,0.2,0,0.1c0-0.2,0-0.2,0-0.4c-0.1,0.1,0,0.9,0.1,1.7c-0.1-0.4-0.1-0.3-0.1,0.2c0-0.3-0.1-0.5-0.1-0.6
						c0,0-0.2-0.4-0.2,0.3c0-0.2,0,0,0,0c-0.1,0-0.1-0.1-0.1,0v0.1c0.1,0.8,0,0.2-0.1,0.3v-0.1c-0.2-0.5,0,0.3-0.2-0.3l0.1,0.5
						c0.1,1-0.2-0.6-0.2-0.2l0.1,0.3c0,0.4-0.3-1.4-0.3-1.5s0-0.1,0-0.2c-0.2-0.6,0,0.6,0,0.8c0-0.3-0.1-0.9-0.1-0.9
						c0-0.3,0,1.1-0.2,0.5c0,0.3,0.1,0.5,0.1,0.7c0,0.1-0.2-1-0.2-0.1c0-0.1,0-0.1,0-0.2c0,0.2-0.1,0.4-0.1,0.8
						c-0.2-1.6-0.2,0.8-0.3-0.7l-0.1,0.1v-0.2c-0.1-0.1-0.1,0.3-0.1,0.6c0-0.1,0-0.2,0-0.3c-0.1-0.3-0.1-0.2-0.2,0.5v-0.5
						c0,0.3-0.2-0.8-0.3-0.2c0-0.1,0-0.2,0-0.2c-0.1,0.6-0.4-1.4-0.3,0.4l-0.1,0.4c0.1,0.1,0,0.8,0.1,1.1c0,0.1-0.1-0.5-0.1-0.6v0.1
						c0-0.9-0.2-0.3-0.2-1c-0.2,0.1-0.4-0.5-0.6-0.5v0.7h-0.1c0-0.2,0-0.6,0-0.5c0-0.4-0.1,0.3-0.1,0.5c-0.1-0.3,0-0.9,0-0.9v0.1
						v0.1c0,0.3,0,0.6-0.1,0.6c0-0.1,0-0.5,0-0.5c0-0.1,0-0.1,0,0l-0.1-0.1v0.6c0,0.3-0.1,0,0,0.6c-0.1-1-0.3-0.4-0.4-0.7
						c-0.1,0.4-0.1,0.4-0.2,0.4c0,0.1,0,0.8,0,0.7c0-1.3-0.1-0.6-0.1-1.5c0,0.6-0.2,0.2-0.1,1.1c0-0.1,0-0.5,0-0.8
						c-0.1,0.5-0.2-0.3-0.4-0.2c0,0.2,0,0.4,0,0.7v-0.9c0,0.1-0.1,1-0.1,0.4c0,0.1,0,0.4,0,0.4c-0.2-0.9-0.6,0.7-0.8-1
						c0,0.3,0,0.4,0,0.4c0,0.1,0,0.4,0,0.7l-0.1-0.7c-0.1,0.7-0.1,0-0.2,0.7v-0.1c-0.1,0.7-0.1,1.7-0.1,2.6c0.1-0.8,0.1,1.3,0.3,0.1
						c0,0.2,0,0.3,0,0.5c0.1-0.4,0.1-0.5,0.1-0.3v0.1c0.2-0.1,0.2,0.3,0.4,0.6v-0.5c0,0.1,0,0.2,0,0.3c0.1-0.7-0.1,0,0-0.8
						c0,1,0.3,0,0.3,1.1c0.1,0,0-0.5,0.1-0.5v0.3v-0.4c0,0.1,0,0.4,0,0.7v0.1c0,0.4,0.2-0.1,0.2,0l-0.1-0.2c0.2-0.3,0.4,0.1,0.5-0.5
						v-0.2c0.1-0.4,0.1,0.2,0.2,0.1v0.1c0-0.2,0.1-0.3,0.1-0.3c0,0.3,0.1,0.5,0,0.8c0.1-0.4,0.1-0.3,0.2-1.2v0.4
						c0-0.3,0-0.5,0.1-0.6c-0.1,0.3,0,0.6,0,1c0.1,0.8,0.2-0.8,0.3,0.4c0.1-1-0.1-0.6-0.1-0.8c0-0.3,0.1-0.8,0.1-0.7
						c0,0,0.1,1.3,0.2,1.3v0.1c0,0.3,0.1-0.4,0.1,0.1c0-0.6,0.1,0,0.1-0.8l-0.1,0.2c0.1-0.2,0.1-1.1,0.2-0.7c0,0.2,0,0.4-0.1,0.5
						c0,0.2,0.1-0.2,0.1,0.1c0,0.8-0.1,0.2-0.2,0.8c0,0.3,0.1-0.6,0.1,0.3c0-1.1,0.1,0.1,0.2-0.7v0.5c0-0.1,0-0.3,0.1-0.3v0.6
						c0.1-0.5,0.1,0.5,0.2,0.2c-0.1,0,0-0.6-0.1-0.9c0.1-0.6,0.1,1.2,0.3,1c0,0.1-0.1-0.3-0.1-0.5c0,0.1,0.1,0.3,0.1,0.5
						c0.1-0.1,0-0.5,0-0.8c0.1,0.6,0.1-0.2,0.1-0.4v0.5c0.1,0.3,0-1,0.1-0.6v0.7l0.1-0.2v0.5c0.1-0.4,0.1-0.3,0.1-0.2
						c0-0.3,0-0.9,0-0.9c0,0.3,0,0.5,0.1,0.4c0,0.3,0,0.7-0.1,0.2c0,0.2,0,0.3,0,0.5c0.1,0.3,0.1,0.1,0.1,0.1s0,0,0-0.1l0.1-0.7
						c0,0.2,0,0.3,0,0.5c0-0.1,0-0.3,0.1-0.3c0,0.4,0,0.8,0,1l0.1-0.4c0,0.2,0.1,0.5,0.1,0.6c0.1,0.2,0.1-0.8,0.2-0.5
						c0-0.1,0-0.1,0-0.2c0.1,0.1,0.2,0.6,0.2,0l0.1,0.7C-45.7,961.9-45.9,961.2-45.7,960.8c0-0.1,0,0.7,0,0.9
						C-45.8,960.9-45.7,960.1-45.7,960.8C-45.6,960.8-45.7,960.7-45.7,960.8z M-44.8,960.4c0,0.1,0,0.4-0.1,0.1
						C-44.9,960-44.8,960.3-44.8,960.4z M-43.6,959.1C-43.6,959.3-43.6,959.2-43.6,959.1C-43.7,959-43.6,959-43.6,959.1z
						 M-40.8,955.2L-40.8,955.2C-40.8,955-40.8,955.1-40.8,955.2z M-40.7,955.4c0-0.1,0-0.1,0-0.2
						C-40.7,955.3-40.7,955.3-40.7,955.4C-40.7,955.4-40.7,955.5-40.7,955.4z M-48.2,956.5L-48.2,956.5
						C-48.2,956.7-48.2,956.6-48.2,956.5z"/>
					<path id="XMLID_552_" class="st9" d="M-43.7,959.8c0-0.1,0-0.2,0-0.3C-43.7,959.6-43.7,959.7-43.7,959.8z"/>
					<polygon id="XMLID_551_" class="st9" points="-46.2,961.1 -46.2,961.1 -46.2,961.2 					"/>
					<path id="XMLID_550_" class="st9" d="M-40.9,959.6c0-0.1-0.1-0.1-0.1-0.2C-41,959.5-40.9,959.6-40.9,959.6z"/>
					<path id="XMLID_549_" class="st9" d="M-40.5,954.5L-40.5,954.5c0,0.1,0,0.2,0.1,0.2C-40.5,954.6-40.5,954.5-40.5,954.5z"/>
					<path id="XMLID_548_" class="st9" d="M-39.4,957.3C-39.4,957.2-39.3,957.3-39.4,957.3l-0.1-0.3
						C-39.4,957-39.4,957.2-39.4,957.3z"/>
					<path id="XMLID_547_" class="st9" d="M-40.1,956c0.1,0.4,0.1,0.3,0.1,0.2l0,0C-40.1,955.6-40.1,955.8-40.1,956z"/>
					<path id="XMLID_546_" class="st9" d="M-39.9,956.2C-39.9,956.2-39.9,956.1-39.9,956.2C-40,955.9-39.9,956.1-39.9,956.2z"/>
					<path id="XMLID_545_" class="st9" d="M-40.6,955.1c0,0.1-0.1-0.5-0.1-0.3C-40.8,954.2-40.6,955.4-40.6,955.1z"/>
					<polygon id="XMLID_544_" class="st9" points="-39.7,957.3 -39.8,956.8 -39.8,957.2 					"/>
					<path id="XMLID_543_" class="st9" d="M-40,957l0.1,0.1C-40,957.1-40,957-40,957S-40.1,956.9-40,957z"/>
					<path id="XMLID_542_" class="st9" d="M-40,957L-40,957C-40,956.9-40,956.9-40,957z"/>
					<polygon id="XMLID_541_" class="st9" points="-39.7,957.5 -39.8,957.4 -39.8,957.3 					"/>
					<path id="XMLID_540_" class="st9" d="M-40.6,957.1v0.2c0,0.2,0.1,0.3,0.1,0.2C-40.6,957.3-40.6,957.2-40.6,957.1z"/>
					<path id="XMLID_539_" class="st9" d="M-40.1,958.4c0-0.1-0.1-0.2-0.1-0.4l0.1,0.6V958.4z"/>
					<path id="XMLID_538_" class="st9" d="M-40.3,958.5c0,0.2,0,0.5,0.1,0.4C-40.2,958.8-40.2,958.7-40.3,958.5z"/>
					<polygon id="XMLID_537_" class="st9" points="-41.3,958 -41.3,957.9 -41.5,956.9 					"/>
					<path id="XMLID_536_" class="st9" d="M-41.7,960.5c0.1,0.2-0.1-0.6,0-0.3c0-0.2-0.1-0.2-0.1-0.4
						C-41.8,960-41.8,959.8-41.7,960.5z"/>
					<path id="XMLID_535_" class="st9" d="M-41.8,959.7c0,0,0-0.1,0-0.2C-41.8,959.6-41.8,959.7-41.8,959.7z"/>
					<polygon id="XMLID_534_" class="st9" points="-50.8,955.8 -50.8,955.6 -50.8,956 					"/>
					<path id="XMLID_533_" class="st9" d="M-50.9,956.6V956V956.6C-50.9,956.5-50.9,956.4-50.9,956.6z"/>
					<path id="XMLID_532_" class="st9" d="M-44.5,961.7v-0.2c0-0.2,0-0.2-0.1-0.2L-44.5,961.7z"/>
					<polygon id="XMLID_531_" class="st9" points="-45.3,961.3 -45.2,961.3 -45.3,960.7 					"/>
					<path id="XMLID_530_" class="st9" d="M-45.8,962.1C-45.7,962.1-45.7,962-45.8,962.1C-45.7,962.1-45.8,961.3-45.8,962.1z"/>
				</g>
			</g>
		</g>
	</g>
</g>
<rect id="XMLID_636_" x="853.5" y="241.8" class="st13" width="896.6" height="215.2"/>
<ellipse id="XMLID_635_" class="st14" cx="1121.7" cy="363.7" rx="107.7" ry="61.8"/>
<ellipse id="XMLID_634_" class="st15" cx="1476.4" cy="343.5" rx="107.7" ry="61.8"/>
<ellipse id="XMLID_633_" class="st14" cx="1368.7" cy="363.7" rx="107.7" ry="61.8"/>
<ellipse id="XMLID_632_" class="st16" cx="1229.4" cy="386.4" rx="107.7" ry="61.8"/>
<path id="XMLID_1_" class="st2" d="M1237.4,347c-6.9-0.2-5.1-27-5.1-27s-12.8-5.6-14.9-9.5c-2.5-4.5-10.2-21.4-3.4-22.7
	c7.1-1.4,8.5,13.7,8.5,13.7l9.8,4.8c0,0-2-32.8,7.4-32.6c5.5,0.1,2.9,32.1,2.9,32.1l7.4-4.6c0,0,2-15.5,8.8-15.2
	c6.7,0.3-3.1,21.3-3.1,21.3l-11.7,13.2C1244,320.5,1244.2,347.2,1237.4,347z"/>
<path id="XMLID_300_" class="st2" d="M1142,323.1c-5.3-0.2-4-20.9-4-20.9s-9.9-4.4-11.6-7.4c-1.9-3.5-7.9-16.7-2.7-17.7
	c5.5-1.1,6.6,10.6,6.6,10.6l7.6,3.8c0,0-1.5-25.5,5.7-25.3c4.3,0.1,2.2,24.9,2.2,24.9l5.7-3.5c0,0,1.6-12,6.9-11.8
	c5.2,0.2-2.4,16.6-2.4,16.6l-9,10.2C1147.1,302.5,1147.3,323.2,1142,323.1z"/>
<path id="XMLID_303_" class="st2" d="M1350.4,329.4c-5.3-0.2-4-20.9-4-20.9s-9.9-4.4-11.6-7.4c-1.9-3.5-7.9-16.7-2.7-17.7
	c5.5-1.1,6.6,10.6,6.6,10.6l7.6,3.8c0,0-1.5-25.5,5.7-25.3c4.3,0.1,2.2,24.9,2.2,24.9l5.7-3.5c0,0,1.6-12,6.9-11.8
	c5.2,0.2-2.4,16.6-2.4,16.6l-9,10.2C1355.5,308.8,1355.7,329.5,1350.4,329.4z"/>
<path id="XMLID_385_" class="st2" d="M1455.5,297c-2.6-0.1-2-10.3-2-10.3s-4.9-2.2-5.7-3.6c-0.9-1.7-3.9-8.2-1.3-8.7
	c2.7-0.5,3.3,5.2,3.3,5.2l3.7,1.9c0,0-0.7-12.6,2.8-12.5c2.1,0.1,1.1,12.3,1.1,12.3l2.8-1.7c0,0,0.8-5.9,3.4-5.8s-1.2,8.2-1.2,8.2
	l-4.4,5C1458,286.9,1458.1,297.1,1455.5,297z"/>
<rect id="XMLID_91_" x="847.7" y="1429.9" class="st0" width="919.8" height="230.4"/>
<ellipse id="XMLID_90_" class="st14" cx="1135.2" cy="1551.8" rx="107.7" ry="61.8"/>
<ellipse id="XMLID_89_" class="st15" cx="1490" cy="1531.6" rx="107.7" ry="61.8"/>
<ellipse id="XMLID_88_" class="st14" cx="1382.2" cy="1551.8" rx="107.7" ry="61.8"/>
<ellipse id="XMLID_87_" class="st16" cx="1242.9" cy="1574.6" rx="107.7" ry="61.8"/>
<polygon id="XMLID_84_" class="st5" points="1161.9,1507.1 1159.5,1507.1 1160.7,1463.8 "/>
<polygon id="XMLID_83_" class="st5" points="1472.4,1490.2 1470.7,1490.2 1471.5,1459.5 "/>
<polygon id="XMLID_82_" class="st5" points="1472.4,1490.2 1470.7,1490.2 1471.5,1459.5 "/>
<polygon id="XMLID_81_" class="st5" points="1472.4,1490.2 1470.7,1490.2 1471.5,1459.5 "/>
<polygon id="XMLID_80_" class="st5" points="1472.4,1490.2 1470.7,1490.2 1471.5,1459.5 "/>
<polygon id="XMLID_79_" class="st5" points="1472.4,1490.2 1470.7,1490.2 1471.5,1459.5 "/>
<polygon id="XMLID_77_" class="st5" points="1472.4,1490.2 1470.7,1490.2 1471.5,1459.5 "/>
<path id="XMLID_66_" class="st14" d="M1242.9,1543.4l-7.8,2c-3.6,1.3-22.5,4.5-25.5,2.2l0,0c-6.1-4.4-5.8-13.5,0.5-17.5l0,0
	c3.8-2.4,8.6-2.7,12.7-0.8l12.8,5.9c0,0-13.2-61.1,7.3-61.1c20.7,0,7.3,61.6,7.3,61.6l11.4-5.2c4.6-2.1,10-1.8,14.4,0.7l0,0
	c6.1,3.6,6.5,12.3,0.6,16.3l0,0c-3.3,2.2-19.8-0.3-23.5-1.7L1242.9,1543.4L1242.9,1543.4z"/>
<line id="XMLID_67_" class="st17" x1="1231.8" y1="1490.5" x2="1255.6" y2="1490.5"/>
<path id="XMLID_68_" class="st15" d="M1161.2,1508.4l-5.2,1.3c-2.4,0.8-15,3-17.1,1.5l0,0c-4.1-2.9-3.9-9,0.4-11.7l0,0
	c2.6-1.6,5.8-1.8,8.5-0.6l8.6,3.9c0,0-8.8-40.9,4.9-40.9c13.8,0,4.9,41.2,4.9,41.2l7.6-3.4c3.1-1.4,6.7-1.2,9.6,0.5l0,0
	c4.1,2.4,4.3,8.2,0.4,10.9l0,0c-2.2,1.5-13.3-0.2-15.7-1.1L1161.2,1508.4L1161.2,1508.4z"/>
<line id="XMLID_65_" class="st17" x1="1153.8" y1="1473" x2="1169.8" y2="1473"/>
<path id="XMLID_70_" class="st15" d="M1367,1512l-5.2,1.3c-2.4,0.8-15,3-17.1,1.5l0,0c-4.1-2.9-3.9-9,0.4-11.7l0,0
	c2.6-1.6,5.8-1.8,8.5-0.6l8.6,3.9c0,0-8.8-40.9,4.9-40.9c13.8,0,4.9,41.2,4.9,41.2l7.6-3.4c3.1-1.4,6.7-1.2,9.6,0.5l0,0
	c4.1,2.4,4.3,8.2,0.4,10.9l0,0c-2.2,1.5-13.3-0.2-15.7-1.1L1367,1512L1367,1512z"/>
<line id="XMLID_69_" class="st17" x1="1359.6" y1="1476.7" x2="1375.6" y2="1476.7"/>
<path id="XMLID_72_" class="st16" d="M1472.5,1491.4l-4,1c-1.8,0.7-11.5,2.3-13.1,1.2l0,0c-3.1-2.2-3-6.9,0.3-9l0,0
	c2-1.2,4.4-1.4,6.5-0.4l6.6,3c0,0-6.8-31.4,3.8-31.4c10.6,0,3.7,31.6,3.7,31.6l5.9-2.6c2.4-1.1,5.1-0.9,7.4,0.4l0,0
	c3.2,1.8,3.3,6.3,0.3,8.4l0,0c-1.7,1.2-10.2-0.1-12.1-0.9L1472.5,1491.4L1472.5,1491.4z"/>
<line id="XMLID_71_" class="st17" x1="1466.8" y1="1464.2" x2="1479.1" y2="1464.2"/>
<rect id="XMLID_246_" x="2034.8" y="263.9" class="st5" width="944.3" height="206.5"/>
<ellipse id="XMLID_245_" class="st18" cx="2344.7" cy="385.8" rx="107.7" ry="61.8"/>
<ellipse id="XMLID_244_" class="st19" cx="2699.4" cy="365.6" rx="107.7" ry="61.8"/>
<ellipse id="XMLID_243_" class="st18" cx="2591.7" cy="385.8" rx="107.7" ry="61.8"/>
<ellipse id="XMLID_242_" class="st20" cx="2452.4" cy="408.6" rx="107.7" ry="61.8"/>
<path id="XMLID_227_" class="st3" d="M2371.2,310.5l2.5,6.3c0.8,2,0.6,4.2-0.5,6.1l-6.7,10.3l-7.6-18.5c-0.1-1.8,0.6-3.7,1.9-4.9
	l1.5-1.4C2365.2,305.8,2369.8,306.8,2371.2,310.5z"/>
<polygon id="XMLID_226_" class="st15" points="2382.9,339.1 2380.5,339.1 2376.8,316.7 2367.9,305.9 2366.5,316.7 2367.3,304.3 
	2378.2,316.1 "/>
<path id="XMLID_223_" class="st3" d="M2579.3,308.9l2.5,6.3c0.8,2,0.6,4.2-0.5,6.1l-6.7,10.3l-7.6-18.5c-0.1-1.8,0.6-3.7,1.9-4.9
	l1.5-1.4C2573.2,304.2,2577.8,305.2,2579.3,308.9z"/>
<polygon id="XMLID_222_" class="st15" points="2590.9,337.5 2588.5,337.5 2584.8,315 2575.9,304.2 2574.6,315 2575.4,302.7 
	2586.3,314.5 "/>
<path id="XMLID_225_" class="st3" d="M2453,309.2l4,10.3c1.3,3.3,1,7-0.8,10l-10.9,16.8l-12.5-30.2c-0.2-3,0.9-6,3.2-8l2.4-2.2
	C2443.1,301.5,2450.7,303.3,2453,309.2z"/>
<polygon id="XMLID_224_" class="st15" points="2472,356 2468.1,356 2462.1,319.3 2447.6,301.7 2445.3,319.3 2446.6,299.1 
	2464.4,318.4 "/>
<path id="XMLID_229_" class="st3" d="M2679.4,295.3l1.6,4.2c0.5,1.3,0.4,2.8-0.3,4l-4.4,6.8l-5-12.2c-0.1-1.2,0.4-2.4,1.3-3.2l1-0.9
	C2675.4,292.2,2678.5,292.9,2679.4,295.3z"/>
<polygon id="XMLID_228_" class="st15" points="2687.1,314.1 2685.5,314.1 2683.1,299.3 2677.3,292.2 2676.3,299.3 2676.9,291.2 
	2684.1,299 "/>
<rect id="XMLID_259_" x="1099.3" y="835.6" class="st21" width="431.7" height="105.5"/>
<ellipse id="XMLID_258_" class="st22" cx="1149" cy="957.5" rx="107.7" ry="61.8"/>
<ellipse id="XMLID_257_" class="st23" cx="1503.8" cy="937.3" rx="107.7" ry="61.8"/>
<ellipse id="XMLID_256_" class="st22" cx="1396.1" cy="957.5" rx="107.7" ry="61.8"/>
<ellipse id="XMLID_255_" class="st24" cx="1256.8" cy="980.3" rx="107.7" ry="61.8"/>
<polygon id="XMLID_253_" class="st5" points="1267.8,457 1263.6,457 1265.7,382.5 "/>
<polygon id="XMLID_12_" class="st5" points="1376.2,913.3 1373.3,913.3 1374.7,860.5 "/>
<polygon id="XMLID_8_" class="st5" points="1175.7,912.8 1173.3,912.8 1174.5,869.5 "/>
<polygon id="XMLID_3_" class="st5" points="1490.8,886.8 1489.1,886.8 1489.9,856.1 "/>
<path id="XMLID_14_" class="st5" d="M1276.2,417.5"/>
<path id="XMLID_13_" class="st5" d="M1274.4,405.1"/>
<path id="XMLID_11_" class="st5" d="M1271.3,394.7"/>
<path id="XMLID_10_" class="st5" d="M1272.4,386.8"/>
<path id="XMLID_9_" class="st5" d="M1261.6,385.1"/>
<path id="XMLID_7_" class="st5" d="M1250.9,395.1"/>
<path id="XMLID_6_" class="st5" d="M1259.9,410.3"/>
<path id="XMLID_2_" class="st5" d="M1269.7,421"/>
</svg>
