<?xml version="1.0" encoding="utf-8"?>
<!-- Generator: Adobe Illustrator 19.0.0, SVG Export Plug-In . SVG Version: 6.00 Build 0)  -->
<svg version="1.1" id="Laag_1" xmlns="http://www.w3.org/2000/svg" xmlns:xlink="http://www.w3.org/1999/xlink" x="0px" y="0px"
	 viewBox="0 0 171.4 402.9" style="enable-background:new 0 0 171.4 402.9;" xml:space="preserve">
<style type="text/css">
	.st0{fill:#FFFFFF;}
	.st1{fill:none;}
	.st2{enable-background:new    ;}
	.st3{fill:#37509E;}
	.st4{fill:#E02F2F;}
	.st5{fill:#050607;}
	.st6{fill:#010202;}
	.st7{fill:#E73636;}
	.st8{font-family:'Avenir-Heavy';}
	.st9{font-size:72px;}
	.st10{fill:#4699D4;}
	.st11{fill:#020304;}
	.st12{fill:#05915F;}
</style>
<rect id="XMLID_216_" x="345.5" y="392.5" transform="matrix(-0.9975 7.098179e-02 -7.098179e-02 -0.9975 841.268 778.0892)" class="st0" width="122.7" height="22.9"/>
<rect id="XMLID_215_" x="345.5" y="394.4" transform="matrix(-0.997 7.791874e-02 -7.791874e-02 -0.997 845.9928 772.8115)" class="st1" width="124.9" height="17.1"/>
<text id="XMLID_214_" transform="matrix(0.9975 -7.098339e-02 7.098339e-02 0.9975 346.1367 413.8572)" class="st3" style="font-family:'SegoeUI-Bold'; font-size:21px;">Postkantoor</text>
<g id="XMLID_309_">
	
		<rect id="XMLID_463_" x="345.5" y="397.6" transform="matrix(-0.997 7.791874e-02 -7.791874e-02 -0.997 846.2462 779.2018)" class="st1" width="124.9" height="17.1"/>
	
		<text id="XMLID_461_" transform="matrix(0.9975 -7.098339e-02 7.098339e-02 0.9975 346.1367 417.0302)" class="st4" style="font-family:'SegoeUI-Bold'; font-size:21px;">Postkantoor</text>
</g>
<g id="XMLID_313_">
	
		<rect id="XMLID_466_" x="345.5" y="395.5" transform="matrix(-0.997 7.791874e-02 -7.791874e-02 -0.997 846.0837 775.0079)" class="st1" width="124.9" height="17.1"/>
	
		<text id="XMLID_464_" transform="matrix(0.9982 -7.103365e-02 7.098339e-02 0.9975 346.1361 414.9227)" class="st5" style="font-family:'SegoeUI-Bold'; font-size:21px;">Postkantoor</text>
</g>
<rect id="XMLID_213_" x="354.8" y="369.8" transform="matrix(-0.9926 -0.1218 0.1218 -0.9926 763.0062 809.2395)" class="st0" width="102.9" height="22.9"/>
<rect id="XMLID_212_" x="355.2" y="370.5" transform="matrix(-0.9934 -0.1149 0.1149 -0.9934 781.4113 803.2335)" class="st1" width="117.4" height="17.1"/>
<text id="XMLID_211_" transform="matrix(0.9926 0.1218 -0.1218 0.9926 354.7881 378.4447)" class="st3" style="font-family:'SegoeUI-Bold'; font-size:21.0009px;">Protserige </text>
<g id="XMLID_217_">
	
		<rect id="XMLID_469_" x="354.5" y="374.1" transform="matrix(-0.9934 -0.1149 0.1149 -0.9934 779.6078 810.3322)" class="st1" width="117.4" height="17.1"/>
	
		<text id="XMLID_467_" transform="matrix(0.9926 0.1218 -0.1218 0.9926 354.0785 382.0703)" class="st4" style="font-family:'SegoeUI-Bold'; font-size:21.0009px;">Protserige </text>
</g>
<g id="XMLID_222_">
	
		<rect id="XMLID_472_" x="354.8" y="372.1" transform="matrix(-0.9934 -0.1149 0.1149 -0.9934 780.4482 806.3621)" class="st1" width="117.4" height="17.1"/>
	
		<text id="XMLID_470_" transform="matrix(0.9933 0.1219 -0.1218 0.9926 354.4615 380.1148)" class="st5" style="font-family:'SegoeUI-Bold'; font-size:21.0009px;">Protserige </text>
</g>
<rect id="XMLID_304_" x="366.8" y="582" transform="matrix(-0.9647 -0.2634 0.2634 -0.9647 715.6339 1282.924)" class="st0" width="154.1" height="22.9"/>
<rect id="XMLID_303_" x="367.6" y="582.9" transform="matrix(-0.9665 -0.2566 0.2566 -0.9665 724.5448 1277.3872)" class="st1" width="156" height="17.1"/>
<text id="XMLID_293_" transform="matrix(0.9647 0.2634 -0.2634 0.9647 368.6653 577.1798)" class="st3" style="font-family:'SegoeUI-Bold'; font-size:21px;">Babyschoentjes</text>
<g id="XMLID_234_">
	
		<rect id="XMLID_478_" x="366.6" y="585.6" transform="matrix(-0.9664 -0.257 0.257 -0.9664 718.7679 1282.2421)" class="st1" width="153.2" height="17.1"/>
	
		<text id="XMLID_476_" transform="matrix(0.9654 0.2636 -0.2634 0.9647 367.5827 580.265)" class="st4" style="font-family:'SegoeUI-Bold'; font-size:21px;">Babyschoentjes</text>
</g>
<g id="XMLID_268_">
	
		<rect id="XMLID_494_" x="367.1" y="584" transform="matrix(-0.9665 -0.2566 0.2566 -0.9665 721.2316 1279.111)" class="st1" width="153.9" height="17.1"/>
	
		<text id="XMLID_492_" transform="matrix(0.9654 0.2636 -0.2634 0.9647 368.1802 578.5659)" class="st5" style="font-family:'SegoeUI-Bold'; font-size:21px;">Babyschoentjes</text>
</g>
<rect id="XMLID_288_" x="373.1" y="604.9" transform="matrix(-0.9999 -1.125435e-02 1.125435e-02 -0.9999 851.9438 1237.4464)" class="st0" width="112.8" height="22.9"/>
<g id="XMLID_276_">
	
		<rect id="XMLID_500_" x="373.1" y="605.5" transform="matrix(-1 -4.296304e-03 4.296304e-03 -1 877.9301 1230.0084)" class="st1" width="134.4" height="17.1"/>
	
		<text id="XMLID_498_" transform="matrix(0.9999 1.125436e-02 -1.125436e-02 0.9999 373.102 619.8015)" class="st3" style="font-family:'SegoeUI-Bold'; font-size:20.9992px;">Babywinkel</text>
</g>
<g id="XMLID_367_">
	
		<rect id="XMLID_511_" x="373" y="607.8" transform="matrix(-1 -4.296304e-03 4.296304e-03 -1 877.7203 1234.6089)" class="st1" width="134.4" height="17.1"/>
	
		<text id="XMLID_504_" transform="matrix(0.9999 1.125436e-02 -1.125436e-02 0.9999 372.912 622.0964)" class="st4" style="font-family:'SegoeUI-Bold'; font-size:20.9992px;">Babywinkel</text>
</g>
<g id="XMLID_369_">
	
		<rect id="XMLID_514_" x="373.1" y="606.6" transform="matrix(-1 -4.296304e-03 4.296304e-03 -1 877.9255 1232.2091)" class="st1" width="134.4" height="17.1"/>
	
		<text id="XMLID_512_" transform="matrix(1.0006 1.126233e-02 -1.125436e-02 0.9999 373.0074 620.9204)" class="st5" style="font-family:'SegoeUI-Bold'; font-size:20.9992px;">Babywinkel</text>
</g>
<rect id="XMLID_152_" x="68.5" y="725.4" transform="matrix(-0.9975 7.098179e-02 -7.098179e-02 -0.9975 288.5273 1463.4321)" class="st0" width="99.5" height="22.9"/>
<rect id="XMLID_151_" x="68.5" y="725.1" transform="matrix(-0.997 7.791874e-02 -7.791874e-02 -0.997 318.697 1454.86)" class="st1" width="124.9" height="17.1"/>
<text id="XMLID_150_" transform="matrix(0.9975 -7.098339e-02 7.098339e-02 0.9975 69.1856 744.6411)" class="st3" style="font-family:'SegoeUI-Bold'; font-size:21px;">Achter de </text>
<g id="XMLID_149_">
	
		<rect id="XMLID_451_" x="68.5" y="728.3" transform="matrix(-0.997 7.791874e-02 -7.791874e-02 -0.997 318.9431 1461.2506)" class="st1" width="124.9" height="17.1"/>
	
		<text id="XMLID_450_" transform="matrix(0.9982 -7.103365e-02 7.098339e-02 0.9975 69.1856 747.8632)" class="st4" style="font-family:'SegoeUI-Bold'; font-size:21px;">Achter de</text>
</g>
<g id="XMLID_148_">
	
		<rect id="XMLID_429_" x="68.5" y="726.6" transform="matrix(-0.997 7.791874e-02 -7.791874e-02 -0.997 318.821 1457.855)" class="st1" width="124.9" height="17.1"/>
	
		<text id="XMLID_426_" transform="matrix(0.9982 -7.103365e-02 7.098339e-02 0.9975 69.1855 746.0951)" class="st5" style="font-family:'SegoeUI-Bold'; font-size:21px;">Achter de</text>
</g>
<rect id="XMLID_147_" x="46.4" y="746.2" transform="matrix(-0.996 -8.953676e-02 8.953676e-02 -0.996 154.9367 1522.2499)" class="st0" width="130.4" height="22.9"/>
<g id="XMLID_146_">
	
		<rect id="XMLID_428_" x="46.8" y="747.2" transform="matrix(-0.9966 -8.260480e-02 8.260480e-02 -0.9966 165.1985 1518.3302)" class="st1" width="134.4" height="17.1"/>
	
		<text id="XMLID_427_" transform="matrix(0.996 8.953825e-02 -8.953825e-02 0.996 46.5157 756.1961)" class="st3" style="font-family:'SegoeUI-Bold'; font-size:21px;">Aardkleurige</text>
</g>
<g id="XMLID_145_">
	
		<rect id="XMLID_446_" x="46.4" y="749.4" transform="matrix(-0.9966 -8.260480e-02 8.260480e-02 -0.9966 164.2304 1522.6854)" class="st1" width="134.4" height="17.1"/>
	
		<text id="XMLID_440_" transform="matrix(0.996 8.953825e-02 -8.953825e-02 0.996 46.1481 758.4688)" class="st4" style="font-family:'SegoeUI-Bold'; font-size:21px;">Aardkleurige</text>
</g>
<g id="XMLID_144_">
	
		<rect id="XMLID_452_" x="46.6" y="748.3" transform="matrix(-0.9966 -8.260480e-02 8.260480e-02 -0.9966 164.7099 1520.5066)" class="st1" width="134.4" height="17.1"/>
	
		<text id="XMLID_447_" transform="matrix(0.9967 8.960168e-02 -8.953825e-02 0.996 46.3365 757.3038)" class="st5" style="font-family:'SegoeUI-Bold'; font-size:21px;">Aardkleurige</text>
</g>
<rect id="XMLID_399_" x="50.4" y="764.7" transform="matrix(-0.9975 7.098179e-02 -7.098179e-02 -0.9975 205.3782 1545.0404)" class="st0" width="49.6" height="22.9"/>
<g id="XMLID_392_">
	
		<rect id="XMLID_421_" x="50.5" y="765.7" transform="matrix(-0.997 7.791866e-02 -7.791866e-02 -0.997 210.6704 1540.3154)" class="st1" width="49.5" height="17.1"/>
	
		<text id="XMLID_418_" transform="matrix(0.9975 -7.098339e-02 7.098339e-02 0.9975 51.087 782.8443)" class="st3" style="font-family:'SegoeUI-Bold'; font-size:21px;">Auto</text>
</g>
<g id="XMLID_375_">
	
		<rect id="XMLID_435_" x="50.5" y="770.8" transform="matrix(-0.997 7.791866e-02 -7.791866e-02 -0.997 211.2715 1550.4983)" class="st1" width="49.7" height="17.1"/>
	
		<text id="XMLID_422_" transform="matrix(0.9975 -7.098339e-02 7.098339e-02 0.9975 51.0867 787.9295)" class="st4" style="font-family:'SegoeUI-Bold'; font-size:21px;">Auto</text>
</g>
<g id="XMLID_383_">
	
		<rect id="XMLID_438_" x="50.5" y="768.7" transform="matrix(-0.997 7.791866e-02 -7.791866e-02 -0.997 211.108 1546.3044)" class="st1" width="49.7" height="17.1"/>
	
		<text id="XMLID_436_" transform="matrix(0.9982 -7.103365e-02 7.098339e-02 0.9975 51.0867 785.8291)" class="st5" style="font-family:'SegoeUI-Bold'; font-size:21px;">Auto</text>
</g>
<rect id="XMLID_420_" x="112.1" y="766.8" transform="matrix(-0.9976 -6.872112e-02 6.872112e-02 -0.9976 210.8613 1563.7958)" class="st0" width="40.4" height="22.9"/>
<g id="XMLID_397_">
	
		<rect id="XMLID_442_" x="112.4" y="768.2" transform="matrix(-0.9981 -6.177514e-02 6.177514e-02 -0.9981 226.1167 1560.5332)" class="st1" width="49.5" height="17.1"/>
	
		<text id="XMLID_439_" transform="matrix(0.9976 6.872112e-02 -6.872112e-02 0.9976 112.0783 781.8624)" class="st3" style="font-family:'SegoeUI-Bold'; font-size:20.9992px;">Aan</text>
</g>
<g id="XMLID_378_">
	
		<rect id="XMLID_445_" x="111.7" y="773.2" transform="matrix(-0.9981 -6.177514e-02 6.177514e-02 -0.9981 224.6148 1570.4835)" class="st1" width="49.7" height="17.1"/>
	
		<text id="XMLID_443_" transform="matrix(0.9976 6.872112e-02 -6.872112e-02 0.9976 111.3692 786.8989)" class="st4" style="font-family:'SegoeUI-Bold'; font-size:20.9992px;">Aan</text>
</g>
<g id="XMLID_390_">
	
		<rect id="XMLID_449_" x="112.1" y="770.4" transform="matrix(-0.9981 -6.177514e-02 6.177514e-02 -0.9981 225.5795 1564.9126)" class="st1" width="49.7" height="17.1"/>
	
		<text id="XMLID_448_" transform="matrix(0.9983 6.876979e-02 -6.872112e-02 0.9976 111.7731 784.0379)" class="st5" style="font-family:'SegoeUI-Bold'; font-size:20.9992px;">Aan</text>
</g>
<rect id="XMLID_254_" x="558.3" y="741.6" transform="matrix(-0.9975 7.098179e-02 -7.098179e-02 -0.9975 1283.8073 1460.5232)" class="st0" width="115.3" height="22.9"/>
<rect id="XMLID_253_" x="558.3" y="742.7" transform="matrix(-0.997 7.791872e-02 -7.791872e-02 -0.997 1288.4073 1453.2789)" class="st1" width="115.1" height="18.1"/>
<text id="XMLID_252_" transform="matrix(0.9975 -7.098339e-02 7.098339e-02 0.9975 558.9214 761.9541)" class="st3" style="font-family:'SegoeUI-Bold'; font-size:21px;">Bibberende</text>
<rect id="XMLID_251_" x="558.4" y="745.9" transform="matrix(-0.997 7.791874e-02 -7.791874e-02 -0.997 1290.2812 1457.6088)" class="st1" width="116.6" height="16.1"/>
<text id="XMLID_250_" transform="matrix(0.9975 -7.098339e-02 7.098339e-02 0.9975 559.1334 765.1564)" class="st4" style="font-family:'SegoeUI-Bold'; font-size:21px;">Bibberende</text>
<rect id="XMLID_249_" x="558.3" y="744.2" transform="matrix(-0.997 7.791872e-02 -7.791872e-02 -0.997 1290.7926 1455.1887)" class="st1" width="117.4" height="17.1"/>
<text id="XMLID_248_" transform="matrix(0.9975 -7.098339e-02 7.098339e-02 0.9975 559.0007 763.469)" class="st5" style="font-family:'SegoeUI-Bold'; font-size:21px;">Bibberende</text>
<rect id="XMLID_218_" x="569.8" y="761.2" transform="matrix(-0.9945 -0.1043 0.1043 -0.9945 1170.8696 1606.5731)" class="st0" width="115.3" height="22.9"/>
<rect id="XMLID_210_" x="570.2" y="761.7" transform="matrix(-0.9952 -9.738448e-02 9.738448e-02 -0.9952 1179.7869 1598.1396)" class="st1" width="117.4" height="17.1"/>
<text id="XMLID_209_" transform="matrix(0.9945 0.1043 -0.1043 0.9945 569.8343 770.7219)" class="st3" style="font-family:'SegoeUI-Bold'; font-size:20.999px;">Bibliotheek</text>
<rect id="XMLID_243_" x="569.7" y="766" transform="matrix(-0.9952 -9.738448e-02 9.738448e-02 -0.9952 1178.375 1606.6613)" class="st1" width="117.4" height="17.1"/>
<text id="XMLID_237_" transform="matrix(0.9945 0.1043 -0.1043 0.9945 569.3815 775.0401)" class="st4" style="font-family:'SegoeUI-Bold'; font-size:20.999px;">Bibliotheek</text>
<g id="XMLID_244_">
	
		<rect id="XMLID_460_" x="569.9" y="764.2" transform="matrix(-0.9952 -9.738448e-02 9.738448e-02 -0.9952 1178.9443 1603.0907)" class="st1" width="117.4" height="17.1"/>
	
		<text id="XMLID_458_" transform="matrix(0.9945 0.1043 -0.1043 0.9945 569.5728 773.215)" class="st5" style="font-family:'SegoeUI-Bold'; font-size:20.999px;">Bibliotheek</text>
</g>
<rect id="XMLID_301_" x="597.2" y="441.3" transform="matrix(-0.9956 -9.323970e-02 9.323970e-02 -0.9956 1248.791 963.8525)" class="st0" width="99.5" height="22.9"/>
<rect id="XMLID_300_" x="597.5" y="443.1" transform="matrix(-0.9963 -8.630321e-02 8.630321e-02 -0.9963 1278.3964 958.5555)" class="st1" width="124.9" height="17.1"/>
<text id="XMLID_299_" transform="matrix(0.9956 9.323969e-02 -9.323969e-02 0.9956 597.2088 452.3826)" class="st3" style="font-family:'SegoeUI-Bold'; font-size:20.9991px;">Begeerde</text>
<g id="XMLID_296_">
	
		<rect id="XMLID_298_" x="597" y="446.3" transform="matrix(-0.9963 -8.630321e-02 8.630321e-02 -0.9963 1277.1178 964.905)" class="st1" width="124.9" height="17.1"/>
	
		<text id="XMLID_297_" transform="matrix(0.9963 9.330573e-02 -9.323969e-02 0.9956 596.68 455.5616)" class="st4" style="font-family:'SegoeUI-Bold'; font-size:20.9991px;">Begeerde</text>
</g>
<g id="XMLID_292_">
	
		<rect id="XMLID_295_" x="597.4" y="443.3" transform="matrix(-0.9963 -8.630323e-02 8.630323e-02 -0.9963 1249.9313 957.7455)" class="st1" width="96.6" height="17.1"/>
	
		<text id="XMLID_294_" transform="matrix(0.9963 9.330573e-02 -9.323969e-02 0.9956 596.9533 454.0145)" class="st5" style="font-family:'SegoeUI-Bold'; font-size:20.9991px;">Begeerde</text>
</g>
<rect id="XMLID_291_" x="592.7" y="462.9" transform="matrix(-0.9826 0.1858 -0.1858 -0.9826 1392.4242 818.1816)" class="st0" width="130.4" height="22.9"/>
<g id="XMLID_287_">
	
		<rect id="XMLID_290_" x="592.4" y="463.2" transform="matrix(-0.9813 0.1926 -0.1926 -0.9813 1397.6356 807.6573)" class="st1" width="134.4" height="17.1"/>
	
		<text id="XMLID_289_" transform="matrix(0.9826 -0.1858 0.1858 0.9826 594.8278 490.6819)" class="st3" style="font-family:'SegoeUI-Bold'; font-size:21px;">Boekwerk</text>
</g>
<g id="XMLID_284_">
	
		<rect id="XMLID_286_" x="592.7" y="465.5" transform="matrix(-0.9813 0.1926 -0.1926 -0.9813 1398.6752 812.1429)" class="st1" width="134.4" height="17.1"/>
	
		<text id="XMLID_285_" transform="matrix(0.9826 -0.1858 0.1858 0.9826 595.095 492.969)" class="st4" style="font-family:'SegoeUI-Bold'; font-size:21px;">Boekwerk</text>
</g>
<g id="XMLID_281_">
	
		<rect id="XMLID_283_" x="592.6" y="464.4" transform="matrix(-0.9813 0.1926 -0.1926 -0.9813 1398.2898 809.9634)" class="st1" width="134.4" height="17.1"/>
	
		<text id="XMLID_282_" transform="matrix(0.9833 -0.1859 0.1858 0.9826 594.9587 491.796)" class="st5" style="font-family:'SegoeUI-Bold'; font-size:21px;">Boekwerk</text>
</g>
<path id="XMLID_326_" class="st6" d="M125.2,13.1"/>
<polyline id="XMLID_325_" class="st0" points="0.3,65.7 86.1,5.9 103.4,30.2 122.2,5.9 131.2,5.9 131.2,48.8 153.1,57 116.4,78 
	116.6,112.7 110.3,117.9 145.1,117.9 145.3,126.2 120.6,135.2 120.6,138.4 144.1,146.7 120.6,157.1 120.6,168.1 146.7,169 
	139.9,174 161.9,225 120.7,264.2 120.4,280.9 104.4,292.2 104.4,294.4 78.9,307.4 78.9,307.4 102.9,314.9 77.9,328.9 76.6,333.3 
	92.8,331.1 105.6,336.9 0,402.9 0.3,326.4 "/>
<rect id="XMLID_324_" x="70.3" y="2.6" class="st1" width="98.4" height="394.3"/>
<text id="XMLID_350_" transform="matrix(1 0 0 1 70.3112 57.0557)" class="st7 st8 st9">AL</text>
<text id="XMLID_349_" transform="matrix(1 0 0 1 70.3112 113.0557)" class="st7 st8 st9">LI</text>
<text id="XMLID_348_" transform="matrix(1 0 0 1 70.3112 169.0557)" class="st7 st8 st9">TE</text>
<text id="XMLID_347_" transform="matrix(1 0 0 1 70.3112 225.0557)" class="st7 st8 st9">RA</text>
<text id="XMLID_346_" transform="matrix(1 0 0 1 70.3112 281.0557)" class="st7 st8 st9">TI</text>
<text id="XMLID_345_" transform="matrix(1 0 0 1 70.3112 337.0557)" class="st7 st8 st9">E</text>
<rect id="XMLID_322_" x="61.2" y="2.6" class="st1" width="98.3" height="394.3"/>
<text id="XMLID_342_" transform="matrix(1 0 0 1 61.1846 57.0557)" class="st10 st8 st9">AL</text>
<text id="XMLID_341_" transform="matrix(1 0 0 1 61.1846 113.0557)" class="st10 st8 st9">LI</text>
<text id="XMLID_340_" transform="matrix(1 0 0 1 61.1846 169.0557)" class="st10 st8 st9">TE</text>
<text id="XMLID_339_" transform="matrix(1 0 0 1 61.1846 225.0557)" class="st10 st8 st9">RA</text>
<text id="XMLID_338_" transform="matrix(1 0 0 1 61.1846 281.0557)" class="st10 st8 st9">TI</text>
<text id="XMLID_337_" transform="matrix(1 0 0 1 61.1846 337.0557)" class="st10 st8 st9">E</text>
<rect id="XMLID_320_" x="64.8" y="2.6" class="st1" width="98.6" height="394.3"/>
<text id="XMLID_334_" transform="matrix(1 0 0 1 64.7987 57.0557)" class="st11 st8 st9">AL</text>
<text id="XMLID_333_" transform="matrix(1 0 0 1 64.7987 113.0557)" class="st11 st8 st9">LI</text>
<text id="XMLID_332_" transform="matrix(1 0 0 1 64.7987 169.0557)" class="st11 st8 st9">TE</text>
<text id="XMLID_331_" transform="matrix(1 0 0 1 64.7987 225.0557)" class="st11 st8 st9">RA</text>
<text id="XMLID_330_" transform="matrix(1 0 0 1 64.7987 281.0557)" class="st11 st8 st9">TI</text>
<text id="XMLID_329_" transform="matrix(1 0 0 1 64.7987 337.0557)" class="st11 st8 st9">E</text>
<rect id="XMLID_373_" x="-165.7" y="124.7" class="st12" width="89.3" height="85.3"/>
</svg>
