<?xml version="1.0" encoding="utf-8"?>
<!-- Generator: Adobe Illustrator 19.0.0, SVG Export Plug-In . SVG Version: 6.00 Build 0)  -->
<svg version="1.1" id="Laag_1" xmlns="http://www.w3.org/2000/svg" xmlns:xlink="http://www.w3.org/1999/xlink" x="0px" y="0px"
	 viewBox="0 0 203.3 85.4" style="enable-background:new 0 0 203.3 85.4;" xml:space="preserve">
<style type="text/css">
	.st0{fill:#FFFFFF;}
	.st1{fill:none;}
	.st2{enable-background:new    ;}
	.st3{fill:#37509E;}
	.st4{fill:#E02F2F;}
	.st5{fill:#050607;}
	.st6{font-family:'SegoeUI-Bold';}
	.st7{font-size:21px;}
	.st8{font-size:20.9992px;}
</style>
<rect id="XMLID_216_" x="13" y="-158.6" transform="matrix(-0.9975 7.098179e-02 -7.098179e-02 -0.9975 138.0249 -299.2812)" class="st0" width="122.7" height="22.9"/>
<rect id="XMLID_215_" x="13" y="-156.8" transform="matrix(-0.997 7.791874e-02 -7.791874e-02 -0.997 139.0984 -301.9671)" class="st1" width="124.9" height="17.1"/>
<text id="XMLID_214_" transform="matrix(0.9975 -7.098339e-02 7.098339e-02 0.9975 13.6577 -137.3231)" class="st3 st6 st7">Postkantoor</text>
<g id="XMLID_309_">
	
		<rect id="XMLID_463_" x="13" y="-153.6" transform="matrix(-0.997 7.791874e-02 -7.791874e-02 -0.997 139.3519 -295.5767)" class="st1" width="124.9" height="17.1"/>
	<text id="XMLID_461_" transform="matrix(0.9975 -7.098339e-02 7.098339e-02 0.9975 13.6577 -134.1502)" class="st4 st6 st7">Postkantoor</text>
</g>
<g id="XMLID_313_">
	
		<rect id="XMLID_466_" x="13" y="-155.7" transform="matrix(-0.997 7.791874e-02 -7.791874e-02 -0.997 139.1893 -299.7708)" class="st1" width="124.9" height="17.1"/>
	<text id="XMLID_464_" transform="matrix(0.9982 -7.103365e-02 7.098339e-02 0.9975 13.6572 -136.2576)" class="st5 st6 st7">Postkantoor</text>
</g>
<rect id="XMLID_213_" x="22.3" y="-181.3" transform="matrix(-0.9926 -0.1218 0.1218 -0.9926 167.6542 -329.5119)" class="st0" width="102.9" height="22.9"/>
<rect id="XMLID_212_" x="22.7" y="-180.6" transform="matrix(-0.9934 -0.1149 0.1149 -0.9934 181.9844 -333.6779)" class="st1" width="117.4" height="17.1"/>
<text id="XMLID_211_" transform="matrix(0.9926 0.1218 -0.1218 0.9926 22.3091 -172.7356)" class="st3 st6" style="font-size:21.0009px;">Protserige </text>
<g id="XMLID_217_">
	
		<rect id="XMLID_469_" x="22" y="-177" transform="matrix(-0.9934 -0.1149 0.1149 -0.9934 180.181 -326.5793)" class="st1" width="117.4" height="17.1"/>
	
		<text id="XMLID_467_" transform="matrix(0.9926 0.1218 -0.1218 0.9926 21.5995 -169.11)" class="st4 st6" style="font-size:21.0009px;">Protserige </text>
</g>
<g id="XMLID_222_">
	
		<rect id="XMLID_472_" x="22.3" y="-179" transform="matrix(-0.9934 -0.1149 0.1149 -0.9934 181.0213 -330.5493)" class="st1" width="117.4" height="17.1"/>
	
		<text id="XMLID_470_" transform="matrix(0.9933 0.1219 -0.1218 0.9926 21.9825 -171.0656)" class="st5 st6" style="font-size:21.0009px;">Protserige </text>
</g>
<rect id="XMLID_304_" x="34.3" y="30.9" transform="matrix(-0.9647 -0.2634 0.2634 -0.9647 207.5956 112.4529)" class="st0" width="154.1" height="22.9"/>
<rect id="XMLID_303_" x="35.1" y="31.7" transform="matrix(-0.9665 -0.2566 0.2566 -0.9665 212.1547 108.1664)" class="st1" width="156" height="17.1"/>
<text id="XMLID_293_" transform="matrix(0.9647 0.2634 -0.2634 0.9647 36.1863 25.9994)" class="st3 st6 st7">Babyschoentjes</text>
<g id="XMLID_234_">
	
		<rect id="XMLID_478_" x="34.1" y="34.4" transform="matrix(-0.9664 -0.257 0.257 -0.9664 206.6327 112.9471)" class="st1" width="153.2" height="17.1"/>
	<text id="XMLID_476_" transform="matrix(0.9654 0.2636 -0.2634 0.9647 35.1038 29.0846)" class="st4 st6 st7">Babyschoentjes</text>
</g>
<g id="XMLID_268_">
	
		<rect id="XMLID_494_" x="34.6" y="32.8" transform="matrix(-0.9665 -0.2566 0.2566 -0.9665 208.8415 109.8901)" class="st1" width="153.9" height="17.1"/>
	<text id="XMLID_492_" transform="matrix(0.9654 0.2636 -0.2634 0.9647 35.7013 27.3856)" class="st5 st6 st7">Babyschoentjes</text>
</g>
<rect id="XMLID_288_" x="40.6" y="53.7" transform="matrix(-0.9999 -1.125435e-02 1.125435e-02 -0.9999 193.2101 131.3787)" class="st0" width="112.8" height="22.9"/>
<g id="XMLID_276_">
	
		<rect id="XMLID_500_" x="40.6" y="54.3" transform="matrix(-1 -4.296304e-03 4.296304e-03 -1 215.3433 126.2244)" class="st1" width="134.4" height="17.1"/>
	<text id="XMLID_498_" transform="matrix(0.9999 1.125436e-02 -1.125436e-02 0.9999 40.623 68.6212)" class="st3 st6 st8">Babywinkel</text>
</g>
<g id="XMLID_367_">
	
		<rect id="XMLID_511_" x="40.5" y="56.6" transform="matrix(-1 -4.296304e-03 4.296304e-03 -1 215.1335 130.8248)" class="st1" width="134.4" height="17.1"/>
	<text id="XMLID_504_" transform="matrix(0.9999 1.125436e-02 -1.125436e-02 0.9999 40.4331 70.916)" class="st4 st6 st8">Babywinkel</text>
</g>
<g id="XMLID_369_">
	
		<rect id="XMLID_514_" x="40.6" y="55.4" transform="matrix(-1 -4.296304e-03 4.296304e-03 -1 215.3387 128.4251)" class="st1" width="134.4" height="17.1"/>
	<text id="XMLID_512_" transform="matrix(1.0006 1.126233e-02 -1.125436e-02 0.9999 40.5284 69.7401)" class="st5 st6 st8">Babywinkel</text>
</g>
<rect id="XMLID_152_" x="-264" y="174.2" transform="matrix(-0.9975 7.098179e-02 -7.098179e-02 -0.9975 -414.7158 386.0617)" class="st0" width="99.5" height="22.9"/>
<rect id="XMLID_151_" x="-264" y="173.9" transform="matrix(-0.997 7.791874e-02 -7.791874e-02 -0.997 -388.1974 380.0814)" class="st1" width="124.9" height="17.1"/>
<text id="XMLID_150_" transform="matrix(0.9975 -7.098339e-02 7.098339e-02 0.9975 -263.2933 193.4607)" class="st3 st6 st7">Achter de </text>
<g id="XMLID_149_">
	
		<rect id="XMLID_451_" x="-264" y="177.1" transform="matrix(-0.997 7.791874e-02 -7.791874e-02 -0.997 -387.9513 386.472)" class="st1" width="124.9" height="17.1"/>
	<text id="XMLID_450_" transform="matrix(0.9982 -7.103365e-02 7.098339e-02 0.9975 -263.2934 196.6829)" class="st4 st6 st7">Achter de</text>
</g>
<g id="XMLID_148_">
	
		<rect id="XMLID_429_" x="-264" y="175.4" transform="matrix(-0.997 7.791874e-02 -7.791874e-02 -0.997 -388.0733 383.0764)" class="st1" width="124.9" height="17.1"/>
	<text id="XMLID_426_" transform="matrix(0.9982 -7.103365e-02 7.098339e-02 0.9975 -263.2934 194.9147)" class="st5 st6 st7">Achter de</text>
</g>
<rect id="XMLID_147_" x="-286.1" y="195" transform="matrix(-0.996 -8.953676e-02 8.953676e-02 -0.996 -459.335 392.3339)" class="st0" width="130.4" height="22.9"/>
<g id="XMLID_146_">
	
		<rect id="XMLID_428_" x="-285.7" y="196" transform="matrix(-0.9966 -8.260480e-02 8.260480e-02 -0.9966 -453.093 390.3889)" class="st1" width="134.4" height="17.1"/>
	<text id="XMLID_427_" transform="matrix(0.996 8.953825e-02 -8.953825e-02 0.996 -285.9633 205.0158)" class="st3 st6 st7">Aardkleurige</text>
</g>
<g id="XMLID_145_">
	
		<rect id="XMLID_446_" x="-286.1" y="198.2" transform="matrix(-0.9966 -8.260480e-02 8.260480e-02 -0.9966 -454.0611 394.7442)" class="st1" width="134.4" height="17.1"/>
	<text id="XMLID_440_" transform="matrix(0.996 8.953825e-02 -8.953825e-02 0.996 -286.3308 207.2885)" class="st4 st6 st7">Aardkleurige</text>
</g>
<g id="XMLID_144_">
	
		<rect id="XMLID_452_" x="-285.9" y="197.1" transform="matrix(-0.9966 -8.260480e-02 8.260480e-02 -0.9966 -453.5816 392.5653)" class="st1" width="134.4" height="17.1"/>
	<text id="XMLID_447_" transform="matrix(0.9967 8.960168e-02 -8.953825e-02 0.996 -286.1425 206.1234)" class="st5 st6 st7">Aardkleurige</text>
</g>
<rect id="XMLID_399_" x="-282" y="213.5" transform="matrix(-0.9975 7.098179e-02 -7.098179e-02 -0.9975 -497.8649 467.67)" class="st0" width="49.6" height="22.9"/>
<g id="XMLID_392_">
	
		<rect id="XMLID_421_" x="-281.9" y="214.5" transform="matrix(-0.997 7.791866e-02 -7.791866e-02 -0.997 -496.2239 465.5369)" class="st1" width="49.5" height="17.1"/>
	<text id="XMLID_418_" transform="matrix(0.9975 -7.098339e-02 7.098339e-02 0.9975 -281.392 231.664)" class="st3 st6 st7">Auto</text>
</g>
<g id="XMLID_375_">
	
		<rect id="XMLID_435_" x="-281.9" y="219.6" transform="matrix(-0.997 7.791866e-02 -7.791866e-02 -0.997 -495.6228 475.7196)" class="st1" width="49.7" height="17.1"/>
	<text id="XMLID_422_" transform="matrix(0.9975 -7.098339e-02 7.098339e-02 0.9975 -281.3922 236.7491)" class="st4 st6 st7">Auto</text>
</g>
<g id="XMLID_383_">
	
		<rect id="XMLID_438_" x="-281.9" y="217.5" transform="matrix(-0.997 7.791866e-02 -7.791866e-02 -0.997 -495.7863 471.5258)" class="st1" width="49.7" height="17.1"/>
	<text id="XMLID_436_" transform="matrix(0.9982 -7.103365e-02 7.098339e-02 0.9975 -281.3922 234.6488)" class="st5 st6 st7">Auto</text>
</g>
<rect id="XMLID_420_" x="-220.3" y="215.6" transform="matrix(-0.9976 -6.872112e-02 6.872112e-02 -0.9976 -415.4329 439.8899)" class="st0" width="40.4" height="22.9"/>
<g id="XMLID_397_">
	
		<rect id="XMLID_442_" x="-220" y="217" transform="matrix(-0.9981 -6.177514e-02 6.177514e-02 -0.9981 -404.157 438.6863)" class="st1" width="49.5" height="17.1"/>
	<text id="XMLID_439_" transform="matrix(0.9976 6.872112e-02 -6.872112e-02 0.9976 -220.4007 230.6821)" class="st3 st6 st8">Aan</text>
</g>
<g id="XMLID_378_">
	
		<rect id="XMLID_445_" x="-220.7" y="222" transform="matrix(-0.9981 -6.177514e-02 6.177514e-02 -0.9981 -405.6589 448.6365)" class="st1" width="49.7" height="17.1"/>
	<text id="XMLID_443_" transform="matrix(0.9976 6.872112e-02 -6.872112e-02 0.9976 -221.1098 235.7185)" class="st4 st6 st8">Aan</text>
</g>
<g id="XMLID_390_">
	
		<rect id="XMLID_449_" x="-220.3" y="219.2" transform="matrix(-0.9981 -6.177514e-02 6.177514e-02 -0.9981 -404.6942 443.0656)" class="st1" width="49.7" height="17.1"/>
	<text id="XMLID_448_" transform="matrix(0.9983 6.876979e-02 -6.872112e-02 0.9976 -220.7059 232.8576)" class="st5 st6 st8">Aan</text>
</g>
<rect id="XMLID_254_" x="225.8" y="190.4" transform="matrix(-0.9975 7.098179e-02 -7.098179e-02 -0.9975 580.5641 383.1528)" class="st0" width="115.3" height="22.9"/>
<rect id="XMLID_253_" x="225.8" y="191.5" transform="matrix(-0.997 7.791872e-02 -7.791872e-02 -0.997 581.513 378.5004)" class="st1" width="115.1" height="18.1"/>
<text id="XMLID_252_" transform="matrix(0.9975 -7.098339e-02 7.098339e-02 0.9975 226.4424 210.7738)" class="st3 st6 st7">Bibberende</text>
<rect id="XMLID_251_" x="225.9" y="194.7" transform="matrix(-0.997 7.791874e-02 -7.791874e-02 -0.997 583.3869 382.8302)" class="st1" width="116.6" height="16.1"/>
<text id="XMLID_250_" transform="matrix(0.9975 -7.098339e-02 7.098339e-02 0.9975 226.6544 213.9761)" class="st4 st6 st7">Bibberende</text>
<rect id="XMLID_249_" x="225.8" y="193" transform="matrix(-0.997 7.791872e-02 -7.791872e-02 -0.997 583.8983 380.4101)" class="st1" width="117.4" height="17.1"/>
<text id="XMLID_248_" transform="matrix(0.9975 -7.098339e-02 7.098339e-02 0.9975 226.5217 212.2887)" class="st5 st6 st7">Bibberende</text>
<rect id="XMLID_218_" x="237.3" y="210" transform="matrix(-0.9945 -0.1043 0.1043 -0.9945 565.2159 472.5398)" class="st0" width="115.3" height="22.9"/>
<rect id="XMLID_210_" x="237.7" y="210.5" transform="matrix(-0.9952 -9.738448e-02 9.738448e-02 -0.9952 570.0856 466.0205)" class="st1" width="117.4" height="17.1"/>
<text id="XMLID_209_" transform="matrix(0.9945 0.1043 -0.1043 0.9945 237.3553 219.5415)" class="st3 st6" style="font-size:20.999px;">Bibliotheek</text>
<rect id="XMLID_243_" x="237.2" y="214.8" transform="matrix(-0.9952 -9.738448e-02 9.738448e-02 -0.9952 568.6738 474.5421)" class="st1" width="117.4" height="17.1"/>
<text id="XMLID_237_" transform="matrix(0.9945 0.1043 -0.1043 0.9945 236.9025 223.8597)" class="st4 st6" style="font-size:20.999px;">Bibliotheek</text>
<g id="XMLID_244_">
	
		<rect id="XMLID_460_" x="237.4" y="213" transform="matrix(-0.9952 -9.738448e-02 9.738448e-02 -0.9952 569.2432 470.9715)" class="st1" width="117.4" height="17.1"/>
	
		<text id="XMLID_458_" transform="matrix(0.9945 0.1043 -0.1043 0.9945 237.0939 222.0347)" class="st5 st6" style="font-size:20.999px;">Bibliotheek</text>
</g>
</svg>
