<?xml version="1.0" encoding="utf-8"?>
<!-- Generator: Adobe Illustrator 19.0.0, SVG Export Plug-In . SVG Version: 6.00 Build 0)  -->
<svg version="1.1" id="Laag_1" xmlns="http://www.w3.org/2000/svg" xmlns:xlink="http://www.w3.org/1999/xlink" x="0px" y="0px"
	 viewBox="0 0 135.8 69.9" style="enable-background:new 0 0 135.8 69.9;" xml:space="preserve">
<style type="text/css">
	.st0{fill:#FFFFFF;}
	.st1{fill:none;}
	.st2{enable-background:new    ;}
	.st3{fill:#37509E;}
	.st4{fill:#E02F2F;}
	.st5{fill:#050607;}
	.st6{font-family:'SegoeUI-Bold';}
	.st7{font-size:20.9991px;}
	.st8{font-size:21px;}
</style>
<rect id="XMLID_216_" x="-246.2" y="-33" transform="matrix(-0.9975 7.098179e-02 -7.098179e-02 -0.9975 -370.8069 -29.896)" class="st0" width="122.7" height="22.9"/>
<rect id="XMLID_215_" x="-246.2" y="-31.2" transform="matrix(-0.997 7.791874e-02 -7.791874e-02 -0.997 -368.7276 -30.8488)" class="st1" width="124.9" height="17.1"/>
<text id="XMLID_214_" transform="matrix(0.9975 -7.098339e-02 7.098339e-02 0.9975 -245.5446 -11.6713)" class="st3 st6 st8">Postkantoor</text>
<g id="XMLID_309_">
	
		<rect id="XMLID_463_" x="-246.2" y="-28" transform="matrix(-0.997 7.791874e-02 -7.791874e-02 -0.997 -368.4741 -24.4585)" class="st1" width="124.9" height="17.1"/>
	<text id="XMLID_461_" transform="matrix(0.9975 -7.098339e-02 7.098339e-02 0.9975 -245.5446 -8.4984)" class="st4 st6 st8">Postkantoor</text>
</g>
<g id="XMLID_313_">
	
		<rect id="XMLID_466_" x="-246.2" y="-30.1" transform="matrix(-0.997 7.791874e-02 -7.791874e-02 -0.997 -368.6366 -28.6525)" class="st1" width="124.9" height="17.1"/>
	<text id="XMLID_464_" transform="matrix(0.9982 -7.103365e-02 7.098339e-02 0.9975 -245.5451 -10.6059)" class="st5 st6 st8">Postkantoor</text>
</g>
<rect id="XMLID_213_" x="-236.9" y="-55.7" transform="matrix(-0.9926 -0.1218 0.1218 -0.9926 -364.1244 -110.7132)" class="st0" width="102.9" height="22.9"/>
<rect id="XMLID_212_" x="-236.5" y="-55" transform="matrix(-0.9934 -0.1149 0.1149 -0.9934 -349.1407 -112.9881)" class="st1" width="117.4" height="17.1"/>
<text id="XMLID_211_" transform="matrix(0.9926 0.1218 -0.1218 0.9926 -236.8932 -47.0839)" class="st3 st6" style="font-size:21.0009px;">Protserige </text>
<g id="XMLID_217_">
	
		<rect id="XMLID_469_" x="-237.2" y="-51.4" transform="matrix(-0.9934 -0.1149 0.1149 -0.9934 -350.9441 -105.8895)" class="st1" width="117.4" height="17.1"/>
	
		<text id="XMLID_467_" transform="matrix(0.9926 0.1218 -0.1218 0.9926 -237.6028 -43.4582)" class="st4 st6" style="font-size:21.0009px;">Protserige </text>
</g>
<g id="XMLID_222_">
	
		<rect id="XMLID_472_" x="-236.9" y="-53.4" transform="matrix(-0.9934 -0.1149 0.1149 -0.9934 -350.1038 -109.8595)" class="st1" width="117.4" height="17.1"/>
	
		<text id="XMLID_470_" transform="matrix(0.9933 0.1219 -0.1218 0.9926 -237.2198 -45.4138)" class="st5 st6" style="font-size:21.0009px;">Protserige </text>
</g>
<rect id="XMLID_304_" x="-224.9" y="156.5" transform="matrix(-0.9647 -0.2634 0.2634 -0.9647 -334.7523 291.0464)" class="st0" width="154.1" height="22.9"/>
<rect id="XMLID_303_" x="-224.1" y="157.3" transform="matrix(-0.9665 -0.2566 0.2566 -0.9665 -329.8137 288.7502)" class="st1" width="156" height="17.1"/>
<text id="XMLID_293_" transform="matrix(0.9647 0.2634 -0.2634 0.9647 -223.016 151.6512)" class="st3 st6 st8">Babyschoentjes</text>
<g id="XMLID_234_">
	
		<rect id="XMLID_478_" x="-225.1" y="160.1" transform="matrix(-0.9664 -0.257 0.257 -0.9664 -335.3584 293.4143)" class="st1" width="153.2" height="17.1"/>
	<text id="XMLID_476_" transform="matrix(0.9654 0.2636 -0.2634 0.9647 -224.0986 154.7364)" class="st4 st6 st8">Babyschoentjes</text>
</g>
<g id="XMLID_268_">
	
		<rect id="XMLID_494_" x="-224.6" y="158.4" transform="matrix(-0.9665 -0.2566 0.2566 -0.9665 -333.127 290.474)" class="st1" width="153.9" height="17.1"/>
	<text id="XMLID_492_" transform="matrix(0.9654 0.2636 -0.2634 0.9647 -223.501 153.0374)" class="st5 st6 st8">Babyschoentjes</text>
</g>
<rect id="XMLID_288_" x="-218.6" y="179.3" transform="matrix(-0.9999 -1.125435e-02 1.125435e-02 -0.9999 -326.5923 379.7572)" class="st0" width="112.8" height="22.9"/>
<g id="XMLID_276_">
	
		<rect id="XMLID_500_" x="-218.6" y="180" transform="matrix(-1 -4.296304e-03 4.296304e-03 -1 -303.5988 376.4131)" class="st1" width="134.4" height="17.1"/>
	
		<text id="XMLID_498_" transform="matrix(0.9999 1.125436e-02 -1.125436e-02 0.9999 -218.5793 194.2729)" class="st3 st6" style="font-size:20.9992px;">Babywinkel</text>
</g>
<g id="XMLID_367_">
	
		<rect id="XMLID_511_" x="-218.7" y="182.3" transform="matrix(-1 -4.296304e-03 4.296304e-03 -1 -303.8086 381.0136)" class="st1" width="134.4" height="17.1"/>
	
		<text id="XMLID_504_" transform="matrix(0.9999 1.125436e-02 -1.125436e-02 0.9999 -218.7692 196.5678)" class="st4 st6" style="font-size:20.9992px;">Babywinkel</text>
</g>
<g id="XMLID_369_">
	
		<rect id="XMLID_514_" x="-218.6" y="181.1" transform="matrix(-1 -4.296304e-03 4.296304e-03 -1 -303.6034 378.6139)" class="st1" width="134.4" height="17.1"/>
	
		<text id="XMLID_512_" transform="matrix(1.0006 1.126233e-02 -1.125436e-02 0.9999 -218.6739 195.3918)" class="st5 st6" style="font-size:20.9992px;">Babywinkel</text>
</g>
<rect id="XMLID_152_" x="-523.2" y="299.9" transform="matrix(-0.9975 7.098179e-02 -7.098179e-02 -0.9975 -923.5476 655.447)" class="st0" width="99.5" height="22.9"/>
<rect id="XMLID_151_" x="-523.2" y="299.6" transform="matrix(-0.997 7.791874e-02 -7.791874e-02 -0.997 -896.0233 651.1996)" class="st1" width="124.9" height="17.1"/>
<text id="XMLID_150_" transform="matrix(0.9975 -7.098339e-02 7.098339e-02 0.9975 -522.4957 319.1125)" class="st3 st6 st8">Achter de </text>
<g id="XMLID_149_">
	
		<rect id="XMLID_451_" x="-523.2" y="302.8" transform="matrix(-0.997 7.791874e-02 -7.791874e-02 -0.997 -895.7773 657.5902)" class="st1" width="124.9" height="17.1"/>
	<text id="XMLID_450_" transform="matrix(0.9982 -7.103365e-02 7.098339e-02 0.9975 -522.4957 322.3347)" class="st4 st6 st8">Achter de</text>
</g>
<g id="XMLID_148_">
	
		<rect id="XMLID_429_" x="-523.2" y="301.1" transform="matrix(-0.997 7.791874e-02 -7.791874e-02 -0.997 -895.8993 654.1946)" class="st1" width="124.9" height="17.1"/>
	<text id="XMLID_426_" transform="matrix(0.9982 -7.103365e-02 7.098339e-02 0.9975 -522.4957 320.5665)" class="st5 st6 st8">Achter de</text>
</g>
<rect id="XMLID_147_" x="-545.3" y="320.7" transform="matrix(-0.996 -8.953676e-02 8.953676e-02 -0.996 -987.949 619.9246)" class="st0" width="130.4" height="22.9"/>
<g id="XMLID_146_">
	
		<rect id="XMLID_428_" x="-544.9" y="321.7" transform="matrix(-0.9966 -8.260480e-02 8.260480e-02 -0.9966 -980.9912 619.8516)" class="st1" width="134.4" height="17.1"/>
	<text id="XMLID_427_" transform="matrix(0.996 8.953825e-02 -8.953825e-02 0.996 -545.1656 330.6675)" class="st3 st6 st8">Aardkleurige</text>
</g>
<g id="XMLID_145_">
	
		<rect id="XMLID_446_" x="-545.3" y="323.9" transform="matrix(-0.9966 -8.260480e-02 8.260480e-02 -0.9966 -981.9594 624.2069)" class="st1" width="134.4" height="17.1"/>
	<text id="XMLID_440_" transform="matrix(0.996 8.953825e-02 -8.953825e-02 0.996 -545.5331 332.9402)" class="st4 st6 st8">Aardkleurige</text>
</g>
<g id="XMLID_144_">
	
		<rect id="XMLID_452_" x="-545.1" y="322.8" transform="matrix(-0.9966 -8.260480e-02 8.260480e-02 -0.9966 -981.4798 622.0281)" class="st1" width="134.4" height="17.1"/>
	<text id="XMLID_447_" transform="matrix(0.9967 8.960168e-02 -8.953825e-02 0.996 -545.3448 331.7752)" class="st5 st6 st8">Aardkleurige</text>
</g>
<rect id="XMLID_399_" x="-541.2" y="339.2" transform="matrix(-0.9975 7.098179e-02 -7.098179e-02 -0.9975 -1006.6968 737.0552)" class="st0" width="49.6" height="22.9"/>
<g id="XMLID_392_">
	
		<rect id="XMLID_421_" x="-541.1" y="340.2" transform="matrix(-0.997 7.791866e-02 -7.791866e-02 -0.997 -1004.0499 736.6551)" class="st1" width="49.5" height="17.1"/>
	<text id="XMLID_418_" transform="matrix(0.9975 -7.098339e-02 7.098339e-02 0.9975 -540.5943 357.3157)" class="st3 st6 st8">Auto</text>
</g>
<g id="XMLID_375_">
	
		<rect id="XMLID_435_" x="-541.1" y="345.3" transform="matrix(-0.997 7.791866e-02 -7.791866e-02 -0.997 -1003.4488 746.8378)" class="st1" width="49.7" height="17.1"/>
	<text id="XMLID_422_" transform="matrix(0.9975 -7.098339e-02 7.098339e-02 0.9975 -540.5945 362.4009)" class="st4 st6 st8">Auto</text>
</g>
<g id="XMLID_383_">
	
		<rect id="XMLID_438_" x="-541.1" y="343.2" transform="matrix(-0.997 7.791866e-02 -7.791866e-02 -0.997 -1003.6123 742.644)" class="st1" width="49.7" height="17.1"/>
	<text id="XMLID_436_" transform="matrix(0.9982 -7.103365e-02 7.098339e-02 0.9975 -540.5945 360.3006)" class="st5 st6 st8">Auto</text>
</g>
<rect id="XMLID_420_" x="-479.6" y="341.3" transform="matrix(-0.9976 -6.872112e-02 6.872112e-02 -0.9976 -941.8597 673.0837)" class="st0" width="40.4" height="22.9"/>
<g id="XMLID_397_">
	
		<rect id="XMLID_442_" x="-479.2" y="342.7" transform="matrix(-0.9981 -6.177514e-02 6.177514e-02 -0.9981 -929.8287 673.7376)" class="st1" width="49.5" height="17.1"/>
	
		<text id="XMLID_439_" transform="matrix(0.9976 6.872112e-02 -6.872112e-02 0.9976 -479.603 356.3339)" class="st3 st6" style="font-size:20.9992px;">Aan</text>
</g>
<g id="XMLID_378_">
	
		<rect id="XMLID_445_" x="-479.9" y="347.7" transform="matrix(-0.9981 -6.177514e-02 6.177514e-02 -0.9981 -931.3306 683.6879)" class="st1" width="49.7" height="17.1"/>
	
		<text id="XMLID_443_" transform="matrix(0.9976 6.872112e-02 -6.872112e-02 0.9976 -480.3121 361.3703)" class="st4 st6" style="font-size:20.9992px;">Aan</text>
</g>
<g id="XMLID_390_">
	
		<rect id="XMLID_449_" x="-479.6" y="344.9" transform="matrix(-0.9981 -6.177514e-02 6.177514e-02 -0.9981 -930.366 678.1169)" class="st1" width="49.7" height="17.1"/>
	
		<text id="XMLID_448_" transform="matrix(0.9983 6.876979e-02 -6.872112e-02 0.9976 -479.9082 358.5094)" class="st5 st6" style="font-size:20.9992px;">Aan</text>
</g>
<rect id="XMLID_254_" x="-33.4" y="316.1" transform="matrix(-0.9975 7.098179e-02 -7.098179e-02 -0.9975 71.7323 652.538)" class="st0" width="115.3" height="22.9"/>
<rect id="XMLID_253_" x="-33.4" y="317.2" transform="matrix(-0.997 7.791872e-02 -7.791872e-02 -0.997 73.687 649.6186)" class="st1" width="115.1" height="18.1"/>
<text id="XMLID_252_" transform="matrix(0.9975 -7.098339e-02 7.098339e-02 0.9975 -32.7599 336.4256)" class="st3 st6 st8">Bibberende</text>
<rect id="XMLID_251_" x="-33.3" y="320.4" transform="matrix(-0.997 7.791874e-02 -7.791874e-02 -0.997 75.5609 653.9484)" class="st1" width="116.6" height="16.1"/>
<text id="XMLID_250_" transform="matrix(0.9975 -7.098339e-02 7.098339e-02 0.9975 -32.5479 339.6279)" class="st4 st6 st8">Bibberende</text>
<rect id="XMLID_249_" x="-33.4" y="318.7" transform="matrix(-0.997 7.791872e-02 -7.791872e-02 -0.997 76.0723 651.5283)" class="st1" width="117.4" height="17.1"/>
<text id="XMLID_248_" transform="matrix(0.9975 -7.098339e-02 7.098339e-02 0.9975 -32.6806 337.9405)" class="st5 st6 st8">Bibberende</text>
<rect id="XMLID_218_" x="-21.9" y="335.7" transform="matrix(-0.9945 -0.1043 0.1043 -0.9945 35.1191 696.1219)" class="st0" width="115.3" height="22.9"/>
<rect id="XMLID_210_" x="-21.5" y="336.2" transform="matrix(-0.9952 -9.738448e-02 9.738448e-02 -0.9952 40.6765 691.4845)" class="st1" width="117.4" height="17.1"/>
<text id="XMLID_209_" transform="matrix(0.9945 0.1043 -0.1043 0.9945 -21.847 345.1933)" class="st3 st6" style="font-size:20.999px;">Bibliotheek</text>
<rect id="XMLID_243_" x="-22" y="340.5" transform="matrix(-0.9952 -9.738448e-02 9.738448e-02 -0.9952 39.2647 700.0061)" class="st1" width="117.4" height="17.1"/>
<text id="XMLID_237_" transform="matrix(0.9945 0.1043 -0.1043 0.9945 -22.2998 349.5115)" class="st4 st6" style="font-size:20.999px;">Bibliotheek</text>
<g id="XMLID_244_">
	
		<rect id="XMLID_460_" x="-21.8" y="338.7" transform="matrix(-0.9952 -9.738448e-02 9.738448e-02 -0.9952 39.834 696.4355)" class="st1" width="117.4" height="17.1"/>
	
		<text id="XMLID_458_" transform="matrix(0.9945 0.1043 -0.1043 0.9945 -22.1085 347.6864)" class="st5 st6" style="font-size:20.999px;">Bibliotheek</text>
</g>
<rect id="XMLID_301_" x="5.5" y="15.8" transform="matrix(-0.9956 -9.323970e-02 9.323970e-02 -0.9956 107.6822 59.4809)" class="st0" width="99.5" height="22.9"/>
<rect id="XMLID_300_" x="5.8" y="17.6" transform="matrix(-0.9963 -8.630321e-02 8.630321e-02 -0.9963 133.9659 58.0221)" class="st1" width="124.9" height="17.1"/>
<text id="XMLID_299_" transform="matrix(0.9956 9.323969e-02 -9.323969e-02 0.9956 5.5275 26.854)" class="st3 st6 st7">Begeerde</text>
<g id="XMLID_296_">
	
		<rect id="XMLID_298_" x="5.3" y="20.8" transform="matrix(-0.9963 -8.630321e-02 8.630321e-02 -0.9963 132.6873 64.3716)" class="st1" width="124.9" height="17.1"/>
	<text id="XMLID_297_" transform="matrix(0.9963 9.330573e-02 -9.323969e-02 0.9956 4.9987 30.0331)" class="st4 st6 st7">Begeerde</text>
</g>
<g id="XMLID_292_">
	
		<rect id="XMLID_295_" x="5.7" y="17.8" transform="matrix(-0.9963 -8.630323e-02 8.630323e-02 -0.9963 105.5008 57.2121)" class="st1" width="96.6" height="17.1"/>
	<text id="XMLID_294_" transform="matrix(0.9963 9.330573e-02 -9.323969e-02 0.9956 5.272 28.4859)" class="st5 st6 st7">Begeerde</text>
</g>
<rect id="XMLID_291_" x="1" y="37.4" transform="matrix(-0.9826 0.1858 -0.1858 -0.9826 140.3017 84.4668)" class="st0" width="130.4" height="22.9"/>
<g id="XMLID_287_">
	
		<rect id="XMLID_290_" x="0.7" y="37.7" transform="matrix(-0.9813 0.1926 -0.1926 -0.9813 143.3954 78.5222)" class="st1" width="134.4" height="17.1"/>
	<text id="XMLID_289_" transform="matrix(0.9826 -0.1858 0.1858 0.9826 3.1465 65.1533)" class="st3 st6 st8">Boekwerk</text>
</g>
<g id="XMLID_284_">
	
		<rect id="XMLID_286_" x="1" y="40" transform="matrix(-0.9813 0.1926 -0.1926 -0.9813 144.435 83.0077)" class="st1" width="134.4" height="17.1"/>
	<text id="XMLID_285_" transform="matrix(0.9826 -0.1858 0.1858 0.9826 3.4137 67.4404)" class="st4 st6 st8">Boekwerk</text>
</g>
<g id="XMLID_281_">
	
		<rect id="XMLID_283_" x="0.9" y="38.9" transform="matrix(-0.9813 0.1926 -0.1926 -0.9813 144.0495 80.8283)" class="st1" width="134.4" height="17.1"/>
	<text id="XMLID_282_" transform="matrix(0.9833 -0.1859 0.1858 0.9826 3.2774 66.2675)" class="st5 st6 st8">Boekwerk</text>
</g>
</svg>
