<?xml version="1.0" encoding="utf-8"?>
<!-- Generator: Adobe Illustrator 19.0.0, SVG Export Plug-In . SVG Version: 6.00 Build 0)  -->
<svg version="1.1" id="Laag_1" xmlns="http://www.w3.org/2000/svg" xmlns:xlink="http://www.w3.org/1999/xlink" x="0px" y="0px"
	 viewBox="0 0 432 134" style="enable-background:new 0 0 432 134;" xml:space="preserve">
<style type="text/css">
	.st0{fill:#5F94CF;}
	.st1{fill:#5DA47C;}
	.st2{fill:#05915F;}
	.st3{fill:#8EB99B;}
	.st4{fill:#4CB8A4;}
	.st5{fill:#0F2E45;}
	.st6{fill:#D13981;}
	.st7{fill:#005184;}
	.st8{fill:#C5426E;}
	.st9{fill:#FFFFFF;}
	.st10{fill:#869CBC;}
	.st11{fill:#587FA7;}
	.st12{fill:#AFBBD2;}
	.st13{fill:#E1B470;}
	.st14{fill:#B2976E;}
	.st15{fill:#8E7B5D;}
	.st16{fill:#C4AF8F;}
	.st17{fill:#0F2E45;stroke:#0F2E45;stroke-miterlimit:10;}
	.st18{fill:#8B8C8C;}
	.st19{fill:#5F5F5E;}
	.st20{fill:#AFAFAF;}
	.st21{fill:#009FE3;}
	.st22{fill:#3AAA35;}
	.st23{fill:#009640;}
	.st24{fill:#7FC07B;}
</style>
<rect id="XMLID_52_" x="-439.1" y="-1222.5" class="st0" width="1341.7" height="206.5"/>
<ellipse id="XMLID_40_" class="st1" cx="89" cy="-1100.6" rx="107.7" ry="61.8"/>
<ellipse id="XMLID_43_" class="st2" cx="443.8" cy="-1120.8" rx="107.7" ry="61.8"/>
<ellipse id="XMLID_42_" class="st1" cx="336" cy="-1100.6" rx="107.7" ry="61.8"/>
<rect id="XMLID_46_" x="-68.8" y="-1491.3" class="st1" width="89.3" height="85.3"/>
<ellipse id="XMLID_41_" class="st3" cx="196.7" cy="-1077.8" rx="107.7" ry="61.8"/>
<rect id="XMLID_45_" x="39.3" y="-1394.8" class="st4" width="89.3" height="85.3"/>
<rect id="XMLID_44_" x="265" y="-1394.8" class="st5" width="89.3" height="85.3"/>
<rect id="XMLID_78_" x="384.8" y="-1394.8" class="st6" width="89.3" height="85.3"/>
<rect id="XMLID_47_" x="-68.8" y="-1394.8" class="st3" width="89.3" height="85.3"/>
<rect id="XMLID_48_" x="39.3" y="-1491.3" class="st2" width="89.3" height="85.3"/>
<rect id="XMLID_49_" x="267.4" y="-1491.3" class="st7" width="89.3" height="85.3"/>
<rect id="XMLID_50_" x="152.1" y="-1491.3" class="st0" width="89.3" height="85.3"/>
<rect id="XMLID_51_" x="147.9" y="-1394.8" class="st8" width="89.3" height="85.3"/>
<path id="XMLID_54_" class="st1" d="M188.3-1140.2l-5.8-10.1c-1.8-3.2-2.1-7.1-0.7-10.5l15.5-38.4l10.9,48.7c0.7,3.1-0.1,6.4-2,8.9
	l-2.2,2.7C199.8-1133.7,191.6-1134.3,188.3-1140.2z"/>
<polygon id="XMLID_53_" class="st5" points="196.7,-1105 192.6,-1105 194.7,-1179.5 "/>
<path id="XMLID_56_" class="st1" d="M208.1-1143.6l-5.8-10.1c-1.8-3.2-2.1-7.1-0.7-10.5l15.5-38.4l10.9,48.7c0.7,3.1-0.1,6.4-2,8.9
	l-2.2,2.7C219.7-1137.1,211.5-1137.7,208.1-1143.6z"/>
<polygon id="XMLID_55_" class="st5" points="216.6,-1108.4 212.5,-1108.4 214.5,-1182.9 "/>
<path id="XMLID_60_" class="st1" d="M310.1-1169.8l-4.1-7.2c-1.3-2.3-1.5-5-0.5-7.5l11-27.2l7.7,34.5c0.5,2.2,0,4.5-1.5,6.3
	l-1.5,1.9C318.3-1165.2,312.5-1165.6,310.1-1169.8z"/>
<polygon id="XMLID_59_" class="st5" points="316.1,-1144.8 313.2,-1144.8 314.7,-1197.7 "/>
<path id="XMLID_58_" class="st1" d="M324.2-1172.2l-4.1-7.2c-1.3-2.3-1.5-5-0.5-7.5l11-27.2l7.7,34.5c0.5,2.2,0,4.5-1.5,6.3
	l-1.5,1.9C332.4-1167.6,326.6-1168.1,324.2-1172.2z"/>
<polygon id="XMLID_57_" class="st5" points="330.3,-1147.3 327.3,-1147.3 328.8,-1200.1 "/>
<path id="XMLID_64_" class="st1" d="M110.7-1165.8l-3.4-5.9c-1.1-1.9-1.2-4.1-0.4-6.1l9-22.3l6.3,28.3c0.4,1.8,0,3.7-1.2,5.1
	l-1.3,1.6C117.4-1162,112.7-1162.4,110.7-1165.8z"/>
<polygon id="XMLID_63_" class="st5" points="115.7,-1145.3 113.3,-1145.3 114.5,-1188.6 "/>
<path id="XMLID_62_" class="st1" d="M122.3-1167.7l-3.4-5.9c-1.1-1.9-1.2-4.1-0.4-6.1l9-22.3l6.3,28.3c0.4,1.8,0,3.7-1.2,5.1
	l-1.3,1.6C129-1164,124.2-1164.3,122.3-1167.7z"/>
<polygon id="XMLID_61_" class="st5" points="127.2,-1147.3 124.8,-1147.3 126,-1190.6 "/>
<rect id="XMLID_134_" x="-439.1" y="-616.6" class="st5" width="1373.5" height="210.8"/>
<ellipse id="XMLID_133_" class="st1" cx="89" cy="-494.7" rx="107.7" ry="61.8"/>
<ellipse id="XMLID_132_" class="st2" cx="443.8" cy="-514.9" rx="107.7" ry="61.8"/>
<ellipse id="XMLID_131_" class="st1" cx="336" cy="-494.7" rx="107.7" ry="61.8"/>
<ellipse id="XMLID_130_" class="st3" cx="208.4" cy="-467.6" rx="107.7" ry="61.8"/>
<path id="XMLID_125_" class="st0" d="M310.1-563.9l-4.1-7.2c-1.3-2.3-1.5-5-0.5-7.5l11-27.2l7.7,34.5c0.5,2.2,0,4.5-1.5,6.3
	l-1.5,1.9C318.3-559.3,312.5-559.8,310.1-563.9z"/>
<polygon id="XMLID_124_" class="st9" points="316.1,-539 313.2,-539 314.7,-591.8 "/>
<path id="XMLID_121_" class="st0" d="M110.7-559.9l-3.4-5.9c-1.1-1.9-1.2-4.1-0.4-6.1l9-22.3l6.3,28.3c0.4,1.8,0,3.7-1.2,5.1
	l-1.3,1.6C117.4-556.1,112.7-556.5,110.7-559.9z"/>
<polygon id="XMLID_120_" class="st9" points="115.7,-539.5 113.3,-539.5 114.5,-582.7 "/>
<path id="XMLID_203_" class="st0" d="M422.7-570.8l-2.4-4.2c-0.8-1.3-0.9-2.9-0.3-4.3l6.4-15.8l4.5,20.1c0.3,1.3,0,2.6-0.8,3.6
	l-0.9,1.1C427.5-568.2,424.1-568.4,422.7-570.8z"/>
<polygon id="XMLID_202_" class="st9" points="426.2,-556.3 424.5,-556.3 425.4,-587 "/>
<path id="XMLID_234_" class="st1" d="M435.4-1187.2l-2.4-4.2c-0.8-1.3-0.9-2.9-0.3-4.3l6.4-15.8l4.5,20.1c0.3,1.3,0,2.6-0.8,3.6
	l-0.9,1.1C440.2-1184.6,436.8-1184.8,435.4-1187.2z"/>
<path id="XMLID_240_" class="st1" d="M427.3-1185.8l-2.4-4.2c-0.8-1.3-0.9-2.9-0.3-4.3l6.4-15.8l4.5,20.1c0.3,1.3,0,2.6-0.8,3.6
	l-0.9,1.1C432-1183.1,428.6-1183.4,427.3-1185.8z"/>
<polygon id="XMLID_239_" class="st5" points="430.7,-1171.3 429,-1171.3 429.9,-1202 "/>
<polygon id="XMLID_237_" class="st5" points="438.9,-1172.7 437.2,-1172.7 438.1,-1203.4 "/>
<rect id="XMLID_508_" x="-439.1" y="0" class="st8" width="1328" height="219.7"/>
<ellipse id="XMLID_507_" class="st10" cx="49.9" cy="121.9" rx="107.7" ry="61.8"/>
<ellipse id="XMLID_506_" class="st11" cx="404.7" cy="101.7" rx="107.7" ry="61.8"/>
<ellipse id="XMLID_505_" class="st10" cx="297" cy="121.9" rx="107.7" ry="61.8"/>
<ellipse id="XMLID_504_" class="st12" cx="157.7" cy="144.7" rx="107.7" ry="61.8"/>
<path id="XMLID_503_" class="st1" d="M149.2,43.6l-5.8,10.1c-1.8,3.2-2.1,7.1-0.7,10.5l15.5,38.4l10.9-48.7c0.7-3.1-0.1-6.4-2-8.9
	l-2.2-2.7C160.7,37.1,152.5,37.7,149.2,43.6z"/>
<polygon id="XMLID_502_" class="st5" points="157.7,8.4 153.5,8.4 155.6,82.9 "/>
<path id="XMLID_499_" class="st1" d="M271.1,73.2l-4.1,7.2c-1.3,2.3-1.5,5-0.5,7.5l11,27.2l7.7-34.5c0.5-2.2,0-4.5-1.5-6.3l-1.5-1.9
	C279.3,68.6,273.5,69.1,271.1,73.2z"/>
<polygon id="XMLID_498_" class="st5" points="277.1,48.3 274.2,48.3 275.6,101.1 "/>
<path id="XMLID_495_" class="st1" d="M71.7,56.7l-3.4-5.9c-1.1-1.9-1.2-4.1-0.4-6.1l9-22.3l6.3,28.3c0.4,1.8,0,3.7-1.2,5.1l-1.3,1.6
	C78.4,60.5,73.6,60.1,71.7,56.7z"/>
<polygon id="XMLID_306_" class="st5" points="76.6,48.8 74.2,48.8 75.4,92 "/>
<path id="XMLID_305_" class="st1" d="M83.2,71.2l-3.4,5.9c-1.1,1.9-1.2,4.1-0.4,6.1l9,22.3l6.3-28.3c0.4-1.8,0-3.7-1.2-5.1l-1.3-1.6
	C89.9,67.4,85.2,67.8,83.2,71.2z"/>
<polygon id="XMLID_304_" class="st5" points="88.1,50.7 85.8,50.7 87,94 "/>
<polygon id="XMLID_302_" class="st5" points="387.1,60.3 385.4,60.3 386.3,29.6 "/>
<path id="XMLID_301_" class="st1" d="M391.9,44.4l-2.4-4.2c-0.8-1.3-0.9-2.9-0.3-4.3l6.4-15.8l4.5,20.1c0.3,1.3,0,2.6-0.8,3.6
	l-0.9,1.1C396.6,47,393.2,46.8,391.9,44.4z"/>
<polygon id="XMLID_298_" class="st5" points="387.1,60.3 385.4,60.3 386.3,29.6 "/>
<path id="XMLID_297_" class="st1" d="M391.9,44.4l-2.4-4.2c-0.8-1.3-0.9-2.9-0.3-4.3l6.4-15.8l4.5,20.1c0.3,1.3,0,2.6-0.8,3.6
	l-0.9,1.1C396.6,47,393.2,46.8,391.9,44.4z"/>
<polygon id="XMLID_294_" class="st5" points="387.1,60.3 385.4,60.3 386.3,29.6 "/>
<path id="XMLID_293_" class="st1" d="M391.9,44.4l-2.4-4.2c-0.8-1.3-0.9-2.9-0.3-4.3l6.4-15.8l4.5,20.1c0.3,1.3,0,2.6-0.8,3.6
	l-0.9,1.1C396.6,47,393.2,46.8,391.9,44.4z"/>
<polygon id="XMLID_290_" class="st5" points="387.1,60.3 385.4,60.3 386.3,29.6 "/>
<path id="XMLID_289_" class="st1" d="M391.9,44.4l-2.4-4.2c-0.8-1.3-0.9-2.9-0.3-4.3l6.4-15.8l4.5,20.1c0.3,1.3,0,2.6-0.8,3.6
	l-0.9,1.1C396.6,47,393.2,46.8,391.9,44.4z"/>
<polygon id="XMLID_286_" class="st5" points="387.1,60.3 385.4,60.3 386.3,29.6 "/>
<path id="XMLID_285_" class="st1" d="M391.9,44.4l-2.4-4.2c-0.8-1.3-0.9-2.9-0.3-4.3l6.4-15.8l4.5,20.1c0.3,1.3,0,2.6-0.8,3.6
	l-0.9,1.1C396.6,47,393.2,46.8,391.9,44.4z"/>
<g id="XMLID_204_">
	<g id="XMLID_404_">
		<g id="XMLID_408_">
			<g id="XMLID_409_">
				<g id="XMLID_410_">
					<path id="XMLID_520_" class="st9" d="M196.2-509.7c-0.1,0.2,0.4,0.2,0.4,0.2C196.6-509.9,196.1-509.7,196.2-509.7z"/>
					<polygon id="XMLID_519_" class="st9" points="195.7,-513.6 195.8,-513.5 195.5,-514.1 					"/>
					<path id="XMLID_518_" class="st9" d="M196.3-517c-0.8,0.2-0.1,1.3-0.5,1.9l-0.2,0.1l0.5,0.4C196.2-515.5,196-516.5,196.3-517z"
						/>
					<path id="XMLID_494_" class="st9" d="M198.2-518.5c-0.3,0-0.1-0.4-0.2,0.4c0,0,0.1,0,0.1-0.1
						C198.2-518.2,198.2-518.3,198.2-518.5z"/>
					<path id="XMLID_493_" class="st9" d="M198.1-518.1C198.1-517.8,198.4-518.3,198.1-518.1L198.1-518.1z"/>
					<path id="XMLID_492_" class="st9" d="M198.4-519.8l0.1,0.5c0.2-0.1,0.3-0.4,0.4-0.3C198.9-520,198.8-520,198.4-519.8z"/>
					<path id="XMLID_491_" class="st9" d="M198.1-520.4l0,0.3C198.2-520.1,198.2-520.2,198.1-520.4z"/>
					<path id="XMLID_490_" class="st9" d="M198.2-519.5l-0.1-0.6c-0.1,0-0.4,0,0,0.3C197.9-520,198.1-519.8,198.2-519.5z"/>
					<path id="XMLID_489_" class="st9" d="M198-519.3c-0.2,0.2-0.4,0.5-0.5,0C197.3-518.4,197.8-518.4,198-519.3z"/>
					<path id="XMLID_488_" class="st9" d="M195.6-517.4l-0.3,0.3l0.2,0.4C195.4-516.9,195.8-517.3,195.6-517.4z"/>
					<path id="XMLID_487_" class="st9" d="M199.7-522.5c-0.1-0.1-0.4,0-0.6,0l0,0.4C199.2-522.3,199.5-522.6,199.7-522.5z"/>
					<path id="XMLID_486_" class="st9" d="M199-522.5l-0.1-0.6C198.8-522.7,198.9-522.6,199-522.5z"/>
					<polygon id="XMLID_485_" class="st9" points="197.3,-520.7 197.6,-519.7 197.4,-520.9 					"/>
					<polygon id="XMLID_484_" class="st9" points="200.4,-524.4 200.6,-524 200.3,-524.7 					"/>
					<path id="XMLID_483_" class="st9" d="M200.8-525.6c0.2,0.3,0.6-0.1,0.6,0.2c0.1-0.3,0-0.7-0.1-1.1
						C201.4-526.2,201.2-525.9,200.8-525.6z"/>
					<path id="XMLID_482_" class="st9" d="M201.3-527.1c0,0.2,0.1,0.4,0.1,0.6C201.4-526.7,201.4-526.9,201.3-527.1z"/>
					<path id="XMLID_481_" class="st9" d="M199.4-523.9c0.1,0,0.3,0,0.6-0.2l-0.5,0C199.4-524.1,199.4-524,199.4-523.9z"/>
					<path id="XMLID_480_" class="st9" d="M199.4-524.1L199.4-524.1c0.1-0.2,0.2-0.4,0.2-0.4C199.6-524.5,199.5-524.4,199.4-524.1z"
						/>
					<path id="XMLID_479_" class="st9" d="M199.3-523.9C199.3-523.9,199.4-523.9,199.3-523.9C199.3-523.9,199.3-523.9,199.3-523.9z"
						/>
					<path id="XMLID_478_" class="st9" d="M198.1-521.9c-0.1-0.4-0.2-1.1-0.7-0.6C197.6-522.2,197.9-522.5,198.1-521.9z"/>
					<path id="XMLID_477_" class="st9" d="M198.8-523.8l-0.3,0.5c0.1,0,0.3,0,0.4,0.2L198.8-523.8z"/>
					<polygon id="XMLID_476_" class="st9" points="198.7,-524.2 198.8,-523.8 198.9,-524 					"/>
					<path id="XMLID_475_" class="st9" d="M200.5-526.4c-0.1-0.3,0-0.5,0.1-0.8c-0.2,0.3-0.4,0.5-0.5,0.8
						C200.2-526.3,200.4-526,200.5-526.4z"/>
					<path id="XMLID_474_" class="st9" d="M199.9-525.3L199.9-525.3C199.9-525.3,199.9-525.3,199.9-525.3z"/>
					<polygon id="XMLID_473_" class="st9" points="202,-529.9 201.9,-529.9 201.9,-529.8 					"/>
					<path id="XMLID_472_" class="st9" d="M200-526.3c-0.2,0.2-0.1,0.4-0.1,0.5C200-526,200-526.2,200-526.3
						C200.1-526.4,200-526.4,200-526.3z"/>
					<path id="XMLID_471_" class="st9" d="M201.4-527.9c-0.1,0.1-0.3,0.2-0.4,0.3C201.2-527.7,201.5-527.8,201.4-527.9z"/>
					<path id="XMLID_470_" class="st9" d="M200.1-525.4C200.1-525.4,200.1-525.4,200.1-525.4C200.2-525.4,200.2-525.4,200.1-525.4z"
						/>
					<path id="XMLID_469_" class="st9" d="M200.1-525.4c0-0.1-0.1-0.3-0.1-0.4c0,0.2,0,0.3,0,0.4C200-525.4,200-525.4,200.1-525.4z"
						/>
					<path id="XMLID_468_" class="st9" d="M200-532c0.3,0.2,0.3,1-0.3,1.3c0,0.6,1.3,0.9,2.2,0.8c-0.1-0.1-0.3-0.2-0.2-0.8
						c-0.3,0.1-1,0.9-1.1,0.3c0.2-0.8,0.4-0.5,0.8-0.7c-0.6,0-0.2-1.2-0.9-1.4l-0.1,0.7C200.2-531.8,200.2-532.1,200-532z"/>
					<path id="XMLID_467_" class="st9" d="M201.3-528.9l-0.1,0.2c0.2-0.2,0.4-0.3,0.8-0.5c0-0.4-0.1-0.6-0.2-0.6
						c0,0-0.1,0.2-0.3,0.5C201.5-529.1,201.4-528.8,201.3-528.9L201.3-528.9z"/>
					<path id="XMLID_466_" class="st9" d="M200.8-527.8c-0.3-0.3-0.2-0.9-0.8-0.8c-0.3,0.6,0.1,0.6,0.1,1
						C200.5-528.6,200.2-527.2,200.8-527.8c-0.1,0.2-0.1,0.4-0.2,0.6c0.1-0.2,0.3-0.3,0.4-0.4l0,0l0,0l0,0c-0.1,0-0.1,0-0.1,0
						c0,0,0,0,0,0C200.9-527.7,200.9-527.7,200.8-527.8c0.2-0.2,0.1,0,0.1,0.1c0,0,0,0,0.1,0l0,0l0.3-1.1
						C201.1-528.5,201-528.3,200.8-527.8z"/>
					<path id="XMLID_465_" class="st9" d="M196.7-523.4c0,0,0.1,0,0.1,0C196.8-523.5,196.8-523.5,196.7-523.4z"/>
					<path id="XMLID_464_" class="st9" d="M197.1-523.7c0,0.1,0.2,0.2,0,0.5c-0.2,0.2-0.2-0.1-0.3-0.1c0.1,0.2,0.1,0.6,0.5,0.2
						l0-0.1c0.3-0.4,1-0.7,1-0.6C197.9-523.9,197.6-523.9,197.1-523.7z"/>
					<path id="XMLID_463_" class="st9" d="M198.8-525.9c0,0,0-0.2,0.1-0.5c0-0.2,0.1-0.5,0.1-0.5l-0.5,0.3l0.2,0.1
						C198.4-526,198.7-526,198.8-525.9z"/>
					<polygon id="XMLID_462_" class="st9" points="202.2,-529.9 202.5,-529.5 202.2,-530.3 					"/>
					<polygon id="XMLID_461_" class="st9" points="202.7,-530.9 203,-530.7 203,-531.1 					"/>
					<path id="XMLID_460_" class="st9" d="M225.5-588.8l-0.2-0.1C225.4-588.8,225.4-588.8,225.5-588.8z"/>
					<path id="XMLID_459_" class="st9" d="M226.5-587.4l0.2-0.1C226.6-587.5,226.5-587.4,226.5-587.4z"/>
					<path id="XMLID_458_" class="st9" d="M222.2-553.3c0.6-0.1,1.3,0,0.9-0.3l-0.4-0.2C222.6-553.5,222.4-553.4,222.2-553.3z"/>
					<path id="XMLID_457_" class="st9" d="M230.8-572.7c0,0-0.1,0.1-0.2,0.1c0.1,0.1,0.2,0.3,0.3,0.4
						C230.9-572.4,230.9-572.6,230.8-572.7z"/>
					<path id="XMLID_456_" class="st9" d="M229.1-573.4l0.4-0.4C229.4-573.7,229.2-573.6,229.1-573.4z"/>
					<path id="XMLID_455_" class="st9" d="M217.3-592.9l-0.4,0.4C217.3-592.4,217.2-592.7,217.3-592.9z"/>
					<path id="XMLID_454_" class="st9" d="M209.7-540.8c0.4-0.1,0.6-0.3,0.8-0.5C210-541.1,209.5-541.1,209.7-540.8z"/>
					<path id="XMLID_453_" class="st9" d="M229.6-591c-0.2-0.1-0.3-0.1-0.4-0.1C229.4-591,229.5-590.9,229.6-591z"/>
					<path id="XMLID_452_" class="st9" d="M211.1-542c-0.1,0-0.1,0-0.2,0.1c-0.1,0.2-0.2,0.5-0.5,0.7
						C210.8-541.3,211.1-541.5,211.1-542z"/>
					<path id="XMLID_451_" class="st9" d="M188.1-577.5C188.1-577.5,188.1-577.5,188.1-577.5C188.1-577.5,188.1-577.5,188.1-577.5z"
						/>
					<path id="XMLID_450_" class="st9" d="M183-566.4c0-0.1-0.1-0.3-0.1-0.5C182.9-566.8,182.9-566.7,183-566.4z"/>
					<path id="XMLID_449_" class="st9" d="M205.4-534.8C205.3-534.6,205.4-534.8,205.4-534.8L205.4-534.8z"/>
					<path id="XMLID_448_" class="st9" d="M203.3-534.8c0-0.1,0-0.1-0.1-0.2C203.2-534.9,203.3-534.8,203.3-534.8z"/>
					<path id="XMLID_447_" class="st9" d="M211-545.7L211-545.7C210.9-545.7,210.9-545.7,211-545.7z"/>
					<path id="XMLID_446_" class="st9" d="M205-534.6c0.1,0,0.2-0.1,0.3-0.2C205.2-534.8,205.1-534.7,205-534.6z"/>
					<path id="XMLID_445_" class="st9" d="M205.2-534.6c-0.1,0.1-0.1,0.1-0.2,0.2C205.1-534.3,205.1-534.3,205.2-534.6z"/>
					<path id="XMLID_444_" class="st9" d="M205.6-535.1c-0.1,0.1-0.2,0.2-0.3,0.3c0.1,0,0.1,0,0.1,0
						C205.4-534.9,205.5-535,205.6-535.1z"/>
					<path id="XMLID_443_" class="st9" d="M200.1-592.5C200.1-592.5,200-592.5,200.1-592.5C199.8-592.2,199.9-592.3,200.1-592.5z"/>
					<path id="XMLID_442_" class="st9" d="M223.1-561.5C223.1-561.5,223.1-561.4,223.1-561.5L223.1-561.5L223.1-561.5z"/>
					<path id="XMLID_441_" class="st9" d="M223.4-562.4c0.2,0.6,0,0.8-0.2,0.9l1.2,0.5L223.4-562.4z"/>
					<path id="XMLID_434_" class="st9" d="M222.3-591.3l0.2,0.6c-0.9,0.2-1.2-0.2-1,0.5c0.4-0.6,0.8-0.3,1.3-0.1
						c0.4,0.3,0.9,0.6,1.3,0.1l0.1,0.5c-0.1-0.1-0.1,0-0.2-0.1c0,1,1.1-0.4,1.6,0.5c0.1,0.3,0.1,0.6-0.1,0.6c0,0,0.7,0.4,0.7,0.4
						c0.1,0.2-0.1,0.3-0.2,0.1c0,0,0.2,0.2,0.4,0.4c0.2,0.2,0.4,0.4,0.4,0.4l0,0c0.3,0,0.7,0.2,1,0.2c0,0.4-0.2-0.1-0.3,0.1
						c0,0,0.6,0.4,0.6,0.4c-0.2,0.4-0.7,0.1-0.9-0.3c-0.4,0.6-0.3,0.7-0.1,0.8c0.2,0.1,0.6,0.3,0.5,1c0,0-0.4-0.5-0.4-0.5
						c-0.5,0.7-0.1,0.9-0.3,1.7c0.2-0.2,0.6-1.6,1.2-1.2c0,0.2,0,0.5,0.4,0.7c-0.5,0.2-0.2,0.5-0.1,0.9l-0.6,0.2
						c0.3,0.4,0.6,0.3,1,0.5c0.1,0.5-0.4,0.8-0.8,1c0.1,0.9,0.7-0.8,1,0.2c0,0.4,0,0.7,0.1,1c0.1,0.3,0.3,0.6,0.6,1.1
						c-0.2,0.5-0.4-0.1-0.6,0.1l0.5,0.4c0,0.1-0.2,0.1-0.2,0.1c0.2,0.4,0.6,0,0.8,0.6c0.4,0.1,0.1,0.4-0.1,0.8
						c-0.3,0.4-0.5,0.8-0.1,1.3c-0.2,0.2-0.4-0.1-0.6-0.1c0.4,1.1,0.3,0.9,0.9,1.9c0,0-0.1,0.2-0.3,0.3c-0.1,0.2-0.3,0.3-0.3,0.3
						c0.6-0.5,1,0.3,1.3,1.1c0.3-0.2,0.5-0.3,0.6-0.4c0,0,0,0.3,0,0.6c0,0.3,0,0.6,0,0.6c-0.1,0.1-0.3-0.1-0.5-0.3
						c0,0.1,0.1,0.2,0.1,0.2c-0.3,0.3-0.6,0-0.9-0.3c0.2-0.1,0.3-0.2,0.5-0.3c-0.3-0.3-0.7-0.7-1.1-0.7c0.1,0.1,0.1,0.2,0.1,0.4
						c-0.1-0.1-0.2-0.1-0.2-0.1c-0.1,0,0,0.1,0.2,0.3l-0.7,0l0.3,0.1c0,0-0.2,0.3-0.4,0.6c-0.2,0.3-0.4,0.5-0.4,0.5
						c0.4,1.1,1.1,2.2,0.8,3.8c-0.3-0.6-0.7-0.4-1.3-0.7c0.8-0.1,0.2-1.2,0.6-1.8c-0.2,0.3-0.5,0.2-0.5,0c0,0,0,0.4,0,0.7
						c0,0.4,0,0.7,0,0.7c-0.5-0.2-0.5,0.1-0.8,0.4c1,0.2,0.2,1.2,0.2,1.9c-0.3-0.1-0.6-0.4-0.2-1c-1,0.3,0.6,1.4-0.3,1.8
						c0.1-0.2,0.2-0.2,0-0.3c0.1,0.5-0.6,1.2-0.8,0.9l0.1-0.1c-0.6,0.9-1.8,2.9-1.2,3.5c-0.1-0.1-0.8-0.7-0.9-0.9
						c0,0,0.3,0.8,0.6,1.7c0.3,0.8,0.5,1.7,0.5,1.7c-0.5-0.6-2.3-1.1-2-2.1c-0.2,0.2-0.5,0.3-0.7,0.9c0.2-0.1,1.1,0.3,1,0.5
						c-1.1,0-0.6,0.1-1.7,0.3c0.3-0.1,1,0.8,0.7,1.2c-0.1-0.2-0.9-0.7-0.9-0.9l0.2,1.6c0-0.3-0.7-0.7-1.1-0.7c0.2,0.1-0.6,0.7-0.7,1
						l0.5-0.2c-0.9,0.8,0.4,2-0.5,2.8c-0.1-0.3-0.8-1.2-1.3-0.9c0.2,0.6,1.1,2.8,0.7,4l-0.4-0.1l-0.3,0.9c-0.2-1-0.5-3.3-0.5-4.4
						c-0.5,0.2-0.4-0.2-0.8,0.3c-0.4,0-0.1-0.6,0.1-0.8l-1.3,1c0.5,0.4-0.4,1.4,0,1.7l0.7-1.7c0.5,0.4,0.7,2.1-0.3,2.8
						c-0.4,0-0.7-1-0.9-1.1c0.1,0.3-0.5,1.1-0.7,1l0.1-0.6c-0.6,0.3-0.1,1.4-1.1,1.5c-0.2,0.2-1.2-0.1-0.9,0.3
						c0.9,0.2,2.6,1.9,2.8,2.5c-0.1,0-1.5,0.5-2,0.4c-0.7-0.1-0.5-1.5-1.2-1.6c0.1,0.1,0.1,0.5,0.1,0.6c-0.3,0.1-0.3-0.5-0.7,0
						c0.4,0.6-0.9,0.8,0.2,0.6c-0.3,0.6-0.6,0.4-1,0.9c0.5,0.2,0.6,1.5,0.3,2.1c-0.1-0.1-0.4-0.2-0.5-0.2c-0.9,0.8-1.6,1.1-2.4,1.9
						c-0.2,0-0.7,0.2-0.8-0.1c0,0.2,0,0.5-0.2,0.7c-0.9,0.1,0.5-0.7-0.4-0.7c0.3,0.3-0.2,1.1-0.4,1.6c0.6,0.3,0.9-0.8,1-1.3
						c0.6,0.6,0.7,1.8,0.2,3c-0.5,0.8-0.7,0-0.7,0.2c-1.3,1.3,0.2,2.1-1.2,2.8c-0.8,0.1-0.9-0.6-1.2-0.8c0.3-0.7,1-0.7,1.3-1.1
						l-0.6,0.3c0-0.3,0.2-0.8,0.5-0.9c-0.7,0.1-2,2.3-3.1,3.2c0,0.3-0.1,0.8,0.2,0.7l0.2-0.4c0.6-0.1,0,1,0.5,0.7
						c-0.1,0.7,0,1.4-0.7,2l-0.6-0.2c0.2,0.1,0.6-0.2,0.6-0.5c0.1,0.4-1.4,0.6-0.9,1.3l0.7-0.3c-0.1,0.6,0.2,1.6-0.4,2.1
						c0.7,0,0-0.2,0.9-0.2c-1-0.1,1-1.5-0.2-1.4c1,0,0.8-0.6,1.7-0.7c-0.2-0.1-0.5,0,0-0.4c0-0.1-0.1-0.1-0.1-0.2c0,0,0,0,0,0l0,0
						c0,0,0,0,0,0c-0.2,0.1-0.3,0.1-0.4,0.1c-0.2-0.5,0.3-1.3,0.3-1.7c0.3-0.2,0.1,0.3,0.4,0.2l0-0.6c0.4,0.2,1.2-0.3,0.9,0.5
						l0.5-0.6c0.5-0.2,0.9-0.6,1-1c0.3-0.2,0.2-1,0.2-0.5l0.5-1.1l0.1,0.1c0.8-0.8,1-2.3,2.5-2.7c0.2-0.4,0.4-0.8,0.9-1.1l0.4,0.2
						c0.3-0.5,1.3-0.8,1.2-1.3c1.1,0.3,1.9-1.6,2.7-2.1l-0.3-0.4c0.5-0.4,0.8-0.9,1.2-1.6l-0.3-0.3c0.2-0.7,1.5-1,2.2-1.8
						c0.1,0.2-0.2,0.3-0.4,0.4c1.6-0.2,1.4-2.4,2.7-2.8c0.1-0.3,0.3-0.4,0.5-0.5c0,0,0,0,0,0.1c0,0,0.1-0.1,0.1-0.1
						c0.1,0,0.3-0.1,0.5-0.1c-0.2,0-0.3,0-0.4,0.1c0.1-0.2,0.3-0.5,0.5-0.8l0.5,0.2c0,0,0,0,0-0.1c0.4-0.1,0-0.4-0.4-0.5
						c0.1-0.2,0.1-0.4,0.1-0.5c0.8,0.3,0.4-0.8,1.3-0.6c-0.1-0.4,0.9-1.5,0.3-2.2c0.1,0.1,0.2,0,0.1,0.2c0.3-0.2,0.6-0.5,0.6-0.9
						l0.6,0.3l-0.2-1.2c0.6-0.2,0.9-0.2,1,0.5c0.1-1.4,0.4-1,0.4-2.2l0.3,0.3c0.2-0.3,0.1-1.1,0.5-1.1c1.1-0.3,2.3-3.3,3.7-5
						c-1.2-0.1,0.9-0.7,0.1-1.1c0.3,0,0.6-0.2,0.6,0.2c0.2-1.1,1-1.4,0.5-2.4c0.3,0,0.3,0.4,0.5,0.3c0-0.1-0.1-0.4,0.1-0.5
						c0.2-0.1,0.2,0.2,0.2,0.4c0.3-1.1-0.5-1.5-1.2-1.8c0.5-0.4,0.5-0.8,0.1-1.3c0.3-0.1,0.6-0.4,0.6,0.3c0.2-0.4,0.8-2.3,0.2-2.4
						c0.2-0.1,0.1-0.5,0-0.6c0.1-0.9,0.2-0.9,0.1-1.8l-0.1,0.2c-0.7-0.4-0.2-0.7-0.3-1.4l0.1,0c0.5-1.6-0.3-0.7,0.2-2.3l-0.5,0.1
						c-0.5,0-0.4-0.4-0.2-0.8c0.2-0.5,0.3-1.1,0.1-1.5l-0.2,0.4c-0.4-0.4,1-1.7,1-2.3c0.1-0.1,0.2,0.1,0.3,0.3
						c0.2-1.5-0.6,0-1.1-0.9c0.3-0.3,0.9-0.1,0.7-0.7c0.1-0.2-0.4-0.6-0.8-1c-0.4-0.5-0.9-0.9-0.9-1.5c-0.1,0.3-0.3,0.6-0.7,0.3
						c-0.2-0.3-0.3-0.8-0.4-1.3c-0.1-0.5-0.4-0.9-0.9-0.9c0-0.1,0-0.2,0.1-0.2c-0.5-0.3-1.5-1.2-2-1c0.4-0.8-0.4-1.3-1.2-1.5
						c-0.7-0.3-1.5-0.5-1.1-1.1c0,0-1.5-0.8-1.5-0.8l0.1-0.1c-1-0.6-1.5-0.4-1.9-0.2c-0.2-0.2,0-0.3,0.1-0.3
						c-0.7-0.4-1.1-0.6-1.5-0.7c-0.4,0-0.8,0-1.5,0.3l0-0.5c-0.4,0.2-2.1-1.2-3.7-0.8c0-0.1,0.1-0.1,0.2-0.2
						c-0.9,0.2-1.9-0.2-2.8-0.4c-0.9-0.2-1.7-0.2-1.9,0.7c0,0-0.3,0.1-0.5,0.3c-0.3,0.1-0.5,0.3-0.5,0.3c1.4,0-0.1,0.8,0.5,1
						c-0.5,0.2-1.4-0.4-0.8-0.6l0.1,0.1c0.1-1-1.8-0.1-1.8-0.8c-2.7,0.5-5.5,0.6-8,1.5l0.5,0.6L199-595c-0.3-0.1-0.5-0.4,0.1-0.6
						c-0.5-0.3-0.9,0.7-0.9,0.9c-1.3,0.3,0.1-1-0.2-0.8l-0.5,0.3l0.1,0c-0.3,0.5-0.2,0.8-0.9,1.1c-0.5,0.1-0.4-0.3-0.6-0.2
						c0,0-0.1,0-0.3,0.1c0,0-0.3,0.1-0.5,0.3c-0.3,0.1-0.5,0.3-0.5,0.3l0.7,0.3c-0.3,0.5-1,0.5-0.2,0.8c-0.3-0.1-0.7,0-1.1,0.1
						c-0.4,0.2-0.9,0.5-1.3,0.8c-0.9,0.6-1.5,1.4-1.8,1.5c-0.3,0.8-0.7,1.3-1.4,1.9c0.3-0.1,0.8,0.2,0.3,0.8
						c-0.8-1.1-1.3,0.7-2.5,0.7c0.8-0.1-1.1,1.9,0.2,1.7c-0.4,0.5-0.5-0.2-1,0c-0.3,1.6-1.9,2.8-2.4,4.7c0.2,0.1,0.5-0.1,0.6,0.3
						c0,0-0.3,0.2-0.6,0.3c-0.3,0.2-0.6,0.3-0.6,0.3c0,0.4,0.9,0.6,0.1,1.1c0.2-0.1,0.4-0.1,0.4,0.1c-0.9,1.6-1.1,3.6-1.1,5.4
						c-0.1,1.9,0,3.7-0.7,5.7c0.3-0.6,0.4-0.2,0.4,0.2c0-0.3,0.4,0,0.7-0.1l-0.4,1.6c0.7,0.2,0.4,1.6,1,1.7l-0.2-0.5
						c0.9,0.4,1.4-1.2,2.4-1.3c-0.5-0.2-0.2-0.7,0-1.3c0.2-0.5,0.4-1.1-0.3-1.5c0.2-0.3,0.3,0.2,0.5,0c-0.4-0.2-0.6-0.6-0.4-1.2
						l0.1,0.1c-0.1-1.7,0.3-2.5,0.8-4.3l-0.5,0.1c0.1-0.4,0.3-0.5,0.4-0.6c-0.6-0.6-0.2,1.1-0.9,0.6c0.5-0.2,0.6-0.9,0.8-1.6
						c0.2-0.7,0.3-1.3,0.9-1.4c0.2-0.6-0.6,0-0.4-0.6l0.3-0.1l-0.3-0.3c0.2-0.4,0.6-0.5,0.8-0.4c-0.1,0.1,0,0.3,0,0.4
						c0.5-0.4,0.3-1.4,0.5-1.6l-0.4,0.5c0.3-1.7,1.5-3.4,1.9-5.1l-0.3,0c0.4-1.3,0.7-0.7,1.4-1.9l0,0.1c0-0.4,0.1-0.7,0.4-1
						c0,0.4,0.8-0.1,0.7,0.4c0.6-1.3,0.2-0.7,0.2-2l0.4,0.1c0-0.4-0.1-0.6,0.4-1.1c-0.2,0.6,0.7,0.1,0.5,0.9c0.8-0.2,1.1-0.6,1.3-1
						c0.3-0.4,0.5-0.7,1.1-0.4c0-0.6-0.3-0.6-0.7-0.4c-0.3,0.2-0.6,0.5-0.5,0.3c-0.5-0.1,0-1,0.5-1.1c0.4-0.2,1.4,0.7,2.4,0.1
						c-0.1,0-0.1,0.1-0.2,0.2c0.5,0,0.6-0.7,1.3-0.5c0-0.7,0.6-0.2,0.4-1c0,0-0.2,0.2-0.5,0.3c-0.2,0.2-0.5,0.3-0.5,0.3
						c0.5-0.4,0.6-1.5,1.8-1.5c0,0.2-0.2,0.5-0.4,0.7c0.4,0.1,0.5-0.4,0.9-0.2c0.2,0.8-1.2,0.6-1.5,1.5c0.4,0.2,0.9-1,0.9-0.1
						c0-1.2,1.1-0.3,1.6-1.3l0.1,0.5c0.1-0.1,0.3-0.4,0.5-0.5l-0.2,0.7c0.5-0.7,1.3,0.1,1.8-0.3c-1.2,0.4-0.4-0.5-1.1-0.7
						c1.4-1,1.2,0.9,2.9,0.3c-0.2,0.1-0.9-0.1-0.6-0.4c0.4,0,0.8,0.1,1.1,0.3c1.1-0.3-0.3-0.4,0.2-0.8c0.5,0.5,0.5-0.3,1-0.6
						l0.1,0.5c1.4,0.1,0.2-1.1,1.5-0.8l-0.4,0.7c0,0,0.2-0.1,0.3-0.1c0.2-0.1,0.3-0.1,0.3-0.1l-0.1,0.6c0.6-0.5,0.9-0.4,1.5-0.3
						c-0.2-0.3,0-0.9,0.6-0.9c0.4,0.3-0.2,0.5,0.6,0.4c-0.2,0.3-0.4,0.7-0.8,0.3c0,0.2-0.2,0.3-0.2,0.5c0.4,0.3,1.1,0,1.4,0
						c-0.1,0-0.3,0-0.3-0.1c0,0,0.3-0.2,0.6-0.3c0.3-0.2,0.6-0.3,0.6-0.3c0.2,0.2,0,0.3-0.1,0.5c0.2,0,0.4-0.3,0.8-0.3
						c-0.1,0.4-0.1,0.8-0.6,1c0,0,0.3-0.1,0.6-0.2c0.3-0.1,0.6-0.2,0.6-0.2c0.1,0.2,0.5,0.5,0.4,0.6c0.3,0.2,0.7,0,1.1-0.1
						c0.4-0.1,0.9-0.2,1.2,0c0.1-0.1,0.2-0.1,0.3-0.1c0.7,0.3,1.2,0.9,2.2,0.7l0.2,0.8c0.7,0.1-0.3-1.1,0.9-0.9c0.9,0.1,0,0.7,0.2,1
						c0.5-0.1,1.5-0.4,1.8,0.5C222.7-591,222.6-591.2,222.3-591.3z M227.9-585.2c-0.2-0.1-0.6-0.3-0.4-0.5
						C228.1-585.7,227.9-585.5,227.9-585.2z M229.5-571.6c-0.1-0.2,0-0.4,0.3-0.5C229.8-571.9,229.7-571.8,229.5-571.6z
						 M206.7-537.3C206.7-537.3,206.7-537.3,206.7-537.3C207.1-537.5,206.9-537.4,206.7-537.3z M206-536.7c0,0.1,0.1,0.1,0.1,0.2
						c-0.1-0.1,0-0.3,0.2-0.4C206.2-537,206.1-537,206-536.7z M196.1-594.2l0.2,0C196.1-593.9,196.1-594,196.1-594.2z"/>
					<path id="XMLID_433_" class="st9" d="M229.3-573.3c0.1,0,0.2,0,0.3,0C229.5-573.4,229.4-573.4,229.3-573.3z"/>
					<path id="XMLID_432_" class="st9" d="M217.3-592.9L217.3-592.9C217.3-592.9,217.3-592.9,217.3-592.9L217.3-592.9z"/>
					<path id="XMLID_431_" class="st9" d="M212.2-549.6c0.2-0.1,0.3-0.1,0.4-0.1C212.5-549.7,212.4-549.7,212.2-549.6z"/>
					<path id="XMLID_430_" class="st9" d="M204.2-532.6l0.2-0.5c-0.1,0.2-0.3,0.3-0.4,0.3C204-532.7,204.2-532.7,204.2-532.6z"/>
					<path id="XMLID_429_" class="st9" d="M199.2-529.8c0,0.1-0.1,0.2-0.1,0.3l0.2,0.1C199.5-529.8,199.5-530.1,199.2-529.8z"/>
					<path id="XMLID_428_" class="st9" d="M202.5-533c-0.4-0.2-0.4,0.2-0.6,0.6c0,0,0,0,0-0.1C202.4-532.1,202.5-532.5,202.5-533z"
						/>
					<path id="XMLID_427_" class="st9" d="M201.9-532.3c0,0.1-0.1,0.2-0.2,0.3C201.9-531.8,201.9-532.1,201.9-532.3z"/>
					<path id="XMLID_426_" class="st9" d="M205.6-535.7c-0.2,0.1,0.4,0.4,0.2,0.4C206-534.9,205.9-536.6,205.6-535.7z"/>
					<polygon id="XMLID_425_" class="st9" points="201.2,-533.4 201.7,-533.2 201.5,-533.6 					"/>
					<path id="XMLID_424_" class="st9" d="M203.2-535.8l-0.5,0.4c0.1,0,0.1,0.1,0.1,0.2C203-535.5,203.3-535.8,203.2-535.8z"/>
					<path id="XMLID_423_" class="st9" d="M202.8-535.1c-0.1,0.2-0.2,0.3-0.2,0.5C202.6-534.8,202.7-535,202.8-535.1z"/>
					<polygon id="XMLID_422_" class="st9" points="201.5,-534.2 201.7,-534.3 202,-534.7 					"/>
					<path id="XMLID_421_" class="st9" d="M207.4-541.1l0.3-0.6c-0.1-0.2-0.3-0.1-0.4,0.1C207.4-541.4,207.3-541.2,207.4-541.1z"/>
					<path id="XMLID_420_" class="st9" d="M205-540.4c0.2-0.1,0.3,0,0.5,0l-0.5-0.4L205-540.4z"/>
					<path id="XMLID_419_" class="st9" d="M206.3-542.1c-0.1-0.2,0.3-1.1-0.3-0.4C206.1-542.3,205.7-541.7,206.3-542.1z"/>
					<polygon id="XMLID_418_" class="st9" points="214.1,-549.1 214,-549 214.7,-548.3 					"/>
					<path id="XMLID_417_" class="st9" d="M218.8-557.3c-0.7,0.4,0.3,0.6-0.4,0.9c0,0.3,0.6-0.3,0.6,0
						C219.1-556.9,219.4-557,218.8-557.3z"/>
					<path id="XMLID_416_" class="st9" d="M219-556.4c0,0.1,0,0.2-0.1,0.3C219-556.3,219-556.4,219-556.4z"/>
					<polygon id="XMLID_415_" class="st9" points="182.8,-564.3 182.8,-563.6 183,-564.1 					"/>
					<path id="XMLID_414_" class="st9" d="M183.8-563.4l-0.6,0.3l0.6,0.2C183.8-563,183.7-563.2,183.8-563.4z"/>
					<path id="XMLID_413_" class="st9" d="M227.1-583.5l0.2,0c0.1-0.1,0.1-0.2,0.1-0.4L227.1-583.5z"/>
					<polygon id="XMLID_412_" class="st9" points="224.7,-588.7 224.7,-588.7 225,-589.2 					"/>
					<path id="XMLID_411_" class="st9" d="M220.4-590.9c0.2,0.1,0.4,0.1,0.6,0.2C220.6-590.8,220.7-591.6,220.4-590.9z"/>
				</g>
			</g>
		</g>
	</g>
</g>
<g id="XMLID_205_">
	<g id="XMLID_523_">
		<g id="XMLID_527_">
			<g id="XMLID_528_">
				<g id="XMLID_529_">
					<path id="XMLID_616_" class="st9" d="M204.6-499.4c0,0-0.1-0.4-0.1-0.4C204.5-499.7,204.7-499.3,204.6-499.4z"/>
					<polygon id="XMLID_615_" class="st9" points="204.6,-498.4 204.6,-498.6 204.7,-498.1 					"/>
					<path id="XMLID_614_" class="st9" d="M204.3-498.3c0.2,0.7,0.1-0.1,0.2,0.1l0.1,0.2l-0.1-0.6
						C204.4-498.5,204.4-498.1,204.3-498.3z"/>
					<path id="XMLID_613_" class="st9" d="M203.8-499.7C203.8-499.5,203.8-499.5,203.8-499.7C203.8-499.7,203.8-499.7,203.8-499.7
						C203.8-499.7,203.8-499.7,203.8-499.7z"/>
					<path id="XMLID_612_" class="st9" d="M203.8-499.7C203.8-499.8,203.7-500,203.8-499.7L203.8-499.7z"/>
					<path id="XMLID_611_" class="st9" d="M203.7-499.5l0-0.2c-0.1-0.2-0.1-0.2-0.1-0.3C203.5-500,203.6-499.8,203.7-499.5z"/>
					<path id="XMLID_610_" class="st9" d="M203.8-499l0-0.1C203.8-499.2,203.8-499.2,203.8-499z"/>
					<path id="XMLID_609_" class="st9" d="M203.8-499.4l0,0.2c0,0.1,0.1,0.3,0-0.1C203.9-499,203.8-499.2,203.8-499.4z"/>
					<path id="XMLID_608_" class="st9" d="M203.8-499.3c0.1,0.1,0.1,0.2,0.2,0.5C204-498.9,203.9-499.4,203.8-499.3z"/>
					<path id="XMLID_607_" class="st9" d="M204.5-497.6l0.1,0.2L204.5-497.6C204.6-497.5,204.5-497.8,204.5-497.6z"/>
					<path id="XMLID_606_" class="st9" d="M203.4-499.8c0,0.1,0.1,0.4,0.2,0.6l0-0.2C203.5-499.5,203.4-499.6,203.4-499.8z"/>
					<path id="XMLID_605_" class="st9" d="M203.5-499.3l0,0.3C203.6-499,203.6-499.1,203.5-499.3z"/>
					<polygon id="XMLID_604_" class="st9" points="204,-498.3 203.9,-498.8 204,-498.3 					"/>
					<polygon id="XMLID_603_" class="st9" points="203.2,-499.8 203.1,-500.2 203.2,-499.6 					"/>
					<path id="XMLID_602_" class="st9" d="M203.1-499.7c-0.1-0.3-0.2-0.5-0.2-0.6c0,0.1,0,0.3,0.1,0.5
						C203-500,203-499.9,203.1-499.7z"/>
					<path id="XMLID_601_" class="st9" d="M203-499.5c0-0.1,0-0.2,0-0.3C203-499.8,203-499.7,203-499.5z"/>
					<path id="XMLID_600_" class="st9" d="M203.5-499.1c0-0.1-0.1-0.3-0.2-0.4L203.5-499.1L203.5-499.1z"/>
					<path id="XMLID_599_" class="st9" d="M203.5-499L203.5-499C203.4-499.1,203.4-499.1,203.5-499
						C203.4-499.1,203.4-499.1,203.5-499z"/>
					<path id="XMLID_598_" class="st9" d="M203.5-499.1L203.5-499.1C203.5-499,203.5-499,203.5-499.1z"/>
					<path id="XMLID_597_" class="st9" d="M203.8-498.6c0,0.2,0.1,0.5,0.2,0.8C204-498.1,203.9-498.3,203.8-498.6z"/>
					<path id="XMLID_596_" class="st9" d="M203.6-498.5L203.6-498.5c0,0,0-0.2,0-0.3L203.6-498.5z"/>
					<polygon id="XMLID_595_" class="st9" points="203.7,-498.4 203.6,-498.5 203.6,-498.6 					"/>
					<path id="XMLID_594_" class="st9" d="M203.2-499.1c0,0.2,0,0.2,0,0.2c0,0.1,0.1,0.1,0.1,0.1
						C203.3-498.9,203.2-499.2,203.2-499.1z"/>
					<path id="XMLID_593_" class="st9" d="M203.3-499.1L203.3-499.1C203.4-499,203.4-499,203.3-499.1z"/>
					<path id="XMLID_592_" class="st9" d="M203-498.8C203-498.8,203-498.8,203-498.8L203-498.8L203-498.8z"/>
					<path id="XMLID_591_" class="st9" d="M203.4-498.7c0,0.1,0,0,0-0.2C203.4-498.8,203.3-498.8,203.4-498.7
						C203.3-498.7,203.4-498.7,203.4-498.7z"/>
					<path id="XMLID_590_" class="st9" d="M203-499.3c0,0.1,0.1,0.2,0.1,0.2C203.1-499.2,203-499.4,203-499.3z"/>
					<path id="XMLID_589_" class="st9" d="M203.3-499.1C203.3-499.2,203.3-499.2,203.3-499.1C203.3-499.3,203.3-499.2,203.3-499.1z"
						/>
					<path id="XMLID_588_" class="st9" d="M203.3-499.1c0,0.1,0,0.2,0,0.3c0,0,0-0.1,0-0.1C203.3-499.1,203.3-499.1,203.3-499.1z"/>
					<path id="XMLID_587_" class="st9" d="M203.6-496.2c-0.1-0.4-0.1-0.8,0-0.4c0-0.3-0.4-1.5-0.6-2.2c0,0.2,0.1,0.3,0.1,0.6
						c0.1,0.2,0.2,0.5,0.3,0.8c0,0.2-0.1-0.1-0.2-0.3c0.2,0.5,0.1,0.7,0.3,1.4l0-0.3C203.5-496.4,203.6-496.3,203.6-496.2z"/>
					<path id="XMLID_586_" class="st9" d="M203.1-498.8L203.1-498.8c0-0.1-0.1-0.3-0.2-0.6c0,0.2,0.1,0.3,0.1,0.5L203.1-498.8
						L203.1-498.8z"/>
					<path id="XMLID_585_" class="st9" d="M203.2-498.8c0.1,0.4,0.1,0.6,0.2,1.1c0,0-0.1-0.4-0.1-0.5
						C203.3-498.2,203.3-498.6,203.2-498.8C203.2-498.9,203.2-498.9,203.2-498.8c0-0.1,0-0.2-0.1-0.3l0,0l0,0l0,0c0,0.1,0,0.1,0,0.1
						c0,0,0,0,0,0C203.2-498.9,203.2-498.9,203.2-498.8c0-0.1,0-0.1,0-0.2l0-0.1l0,0L203.2-498.8
						C203.1-498.8,203.2-498.8,203.2-498.8z"/>
					<path id="XMLID_584_" class="st9" d="M204.2-496.9C204.2-496.9,204.2-496.9,204.2-496.9C204.2-496.9,204.2-496.9,204.2-496.9z"
						/>
					<path id="XMLID_583_" class="st9" d="M204.1-497.1c0-0.1-0.1-0.2,0-0.2c0.1,0.1,0.1,0.2,0.1,0.3c0-0.1,0-0.3-0.1-0.5l0,0.1
						c-0.1-0.1-0.3-0.6-0.3-0.7C203.9-497.7,204-497.5,204.1-497.1z"/>
					<path id="XMLID_582_" class="st9" d="M203.7-497.9l0,0.2l0.1,0.3l-0.1-0.2C203.8-497.4,203.7-497.7,203.7-497.9z"/>
					<polygon id="XMLID_581_" class="st9" points="202.9,-499.1 202.8,-499.5 202.9,-498.9 					"/>
					<polygon id="XMLID_580_" class="st9" points="202.8,-499 202.7,-499.4 202.8,-499.1 					"/>
					<path id="XMLID_579_" class="st9" d="M197.8-493.2l0,0.1C197.8-493.1,197.8-493.1,197.8-493.2z"/>
					<path id="XMLID_578_" class="st9" d="M198-493.1l0-0.2C198-493.2,198-493.2,198-493.1z"/>
					<path id="XMLID_577_" class="st9" d="M200.5-498.4c-0.1-0.4-0.2-0.9-0.2-0.5L200.5-498.4C200.4-498.5,200.5-498.5,200.5-498.4z
						"/>
					<path id="XMLID_576_" class="st9" d="M199.2-495.6c0,0,0,0.1,0,0.1c0-0.1,0-0.3,0-0.4C199.2-495.8,199.2-495.7,199.2-495.6z"/>
					<path id="XMLID_575_" class="st9" d="M199.4-493.8l-0.1-0.3C199.4-494,199.4-493.9,199.4-493.8z"/>
					<path id="XMLID_574_" class="st9" d="M196.8-492.6l0,0.4C196.9-492.2,196.8-492.4,196.8-492.6z"/>
					<path id="XMLID_573_" class="st9" d="M201.9-498.6c-0.1-0.2-0.1-0.2-0.1-0.2C201.9-498.6,202-498.2,201.9-498.6z"/>
					<path id="XMLID_572_" class="st9" d="M197.5-497.8c0,0.1,0,0.2,0,0.3C197.5-497.6,197.5-497.6,197.5-497.8z"/>
					<path id="XMLID_571_" class="st9" d="M201.7-498.8C201.7-498.8,201.7-498.7,201.7-498.8C201.7-498.8,201.7-498.8,201.7-498.8
						C201.7-499,201.7-499.1,201.7-498.8z"/>
					<path id="XMLID_570_" class="st9" d="M193.2-493C193.2-493,193.2-493,193.2-493C193.1-493,193.2-493,193.2-493z"/>
					<path id="XMLID_569_" class="st9" d="M192.4-497.4C192.4-497.4,192.4-497.4,192.4-497.4C192.5-497.5,192.4-497.5,192.4-497.4z"
						/>
					<path id="XMLID_568_" class="st9" d="M202.4-499.1C202.4-499.1,202.4-499.1,202.4-499.1L202.4-499.1z"/>
					<path id="XMLID_567_" class="st9" d="M202.9-497.4c0,0,0,0.1,0,0.2C202.9-497.3,202.9-497.4,202.9-497.4z"/>
					<path id="XMLID_566_" class="st9" d="M202.1-496.1L202.1-496.1C202.1-496,202.1-496.1,202.1-496.1z"/>
					<path id="XMLID_565_" class="st9" d="M202.5-498.9c0,0,0-0.1-0.1-0.1C202.4-499,202.5-498.9,202.5-498.9z"/>
					<path id="XMLID_564_" class="st9" d="M202.4-499.1C202.4-499.1,202.5-499,202.4-499.1C202.4-499.1,202.4-499.2,202.4-499.1z"/>
					<path id="XMLID_563_" class="st9" d="M202.4-499C202.4-499,202.4-499,202.4-499C202.4-499,202.4-499,202.4-499
						C202.4-499.1,202.4-499,202.4-499z"/>
					<path id="XMLID_562_" class="st9" d="M195.1-494.1C195.1-494.1,195.1-494.1,195.1-494.1C195.1-494,195.1-494,195.1-494.1z"/>
					<path id="XMLID_561_" class="st9" d="M200.7-493.9C200.7-493.9,200.7-493.9,200.7-493.9C200.7-493.9,200.7-493.9,200.7-493.9
						L200.7-493.9z"/>
					<path id="XMLID_560_" class="st9" d="M200.7-493.5c-0.1-0.5,0-0.5,0-0.4l-0.2-1.2L200.7-493.5z"/>
					<path id="XMLID_553_" class="st9" d="M197.4-493l0.1,0.4c0,0.6-0.1,0.4,0,1c-0.1-1.4,0.2-0.2,0.1-1.5l0.1,0.3c0,0,0,0.1,0,0.1
						c0.1,0.6,0-1,0.1-0.8c0,0.1,0.1,0.3,0.1,0.5l0-0.3c0,0,0,0.3,0,0.2l0.1-0.1l0,0c0-0.2,0-0.5,0-0.7c0,0.2,0,0.1,0,0.3l0-0.3
						c0.1,0.3,0,0.7,0,0.6c0.2,1.3,0-0.3,0.2,0.4l0,0.2c0.1,0.8,0.1,0.5,0.3,1c0-0.2-0.3-1.2-0.2-1.5c0,0.1,0.1,0.1,0.1-0.1
						c0,0.5,0.1,0.4,0.1,0.3l0.1,0.6c0-0.2,0-0.5,0-0.8c0.1,0.1,0.1,0.5,0.2,1c0.1,0.1-0.1-0.8-0.1-0.9c0.1,0.2,0.1,0,0.2-0.4
						c0.1,0.2,0,0.4,0.1,0.6l0-0.5c0,0,0,0.2,0,0.2c0-0.2-0.1-0.6,0-0.8c-0.1-0.7,0.2,1,0.2,0.2c0,0.2,0,0.4,0.1,0.6
						c0-0.5,0-0.4,0-1.1l0.1,0.4c-0.1-0.5-0.1-1-0.1-1.5c0-0.2-0.1-0.4-0.1-0.5l0-0.4c0,0.1,0,0.3,0.1,0.6c0-0.1,0-0.1,0-0.2
						c0.1,0.2,0.1,0.6,0.1,1c0-0.1-0.1-0.3-0.1-0.4c0,0.4,0.1,0.8,0.1,1.2c0-0.1,0-0.1,0-0.2c0,0.1,0,0.2,0,0.3c0,0.1,0-0.1,0-0.2
						l0.1,0.7l0-0.3l0.2,0.4c0-0.7-0.1-1.8,0-2.1c0,0.5,0.1,0.8,0.2,1.5c-0.1-0.6-0.1,0.3-0.2,0.2c0,0.1,0.1,0.4,0.1,0.5l0-0.6
						c0.1,0.5,0.1,0.4,0.1,0.6c-0.2-1,0-0.7,0-1c0.1,0.3,0.1,0.7,0,0.6c0.2,0.7-0.1-1.2,0.1-0.6c0,0,0,0,0,0.1
						c0-0.3,0.1-0.1,0.1,0.2l0,0c0.1,0.1,0.3,0,0.2-0.9c0,0.1,0.1,1,0.2,1.2l-0.3-2.9c0.1,0.7,0.4,2.4,0.4,2.9c0,0.1,0.1,0.2,0.1,0
						c0-0.1-0.2-1-0.2-1.1c0.2,0.8,0.1,0.4,0.3,1.1c-0.1-0.2-0.2-1.3-0.2-1.3c0,0.2,0.2,1.1,0.2,1.2l-0.1-1.1c0,0.2,0.2,0.9,0.2,1.2
						c0-0.2,0.1,0,0.1-0.1l-0.1-0.2c0.1,0.1-0.2-1.6-0.1-1.5c0,0.2,0.2,1.4,0.3,1.5c-0.1-0.6-0.4-2.7-0.4-3.2l0.1,0.3l0-0.4
						c0.1,0.9,0.3,2.7,0.4,3.4c0.1,0.2,0.1,0.4,0.1,0.3c0.1,0.3,0.1,0.5,0,0.5l0.2,0.2c-0.1-0.7,0-0.7-0.1-1.2l0,0.7
						c-0.1-0.7-0.3-1.9-0.1-1.8c0.1,0.3,0.2,1.2,0.3,1.4c0-0.2,0-0.5,0.1-0.3l0,0.4c0.1,0.2-0.1-0.9,0.1-0.3c0,0,0.2,0.8,0.2,0.4
						c-0.2-0.7-0.7-3.1-0.8-3.6c0,0,0.3,0.7,0.4,1.1c0.2,0.6,0.2,1.4,0.4,1.9c0-0.2-0.1-0.4-0.1-0.5c0.1,0.1,0.1,0.6,0.1,0.5
						c-0.1-0.7,0.1,0-0.1-0.6c0-0.2,0.1,0.1,0.1,0.1c-0.1-0.4-0.3-1.5-0.2-1.7c0,0.2,0.1,0.4,0.1,0.5c0.1,0,0.2,0.3,0.3,0.3
						c0,0.2,0.1,0.3,0.2,0.6c0-0.1-0.1-0.3,0-0.4c0.2,0.6,0,0.1,0.2,0.8c-0.1-0.4,0-0.6-0.1-0.8c-0.1-0.6-0.1-0.1-0.1,0.2
						c-0.2-0.8-0.3-1.7-0.3-2.1c0-0.2,0.2,0.5,0.1,0.4c0.2,0.1-0.2-1.5,0-0.9c0.2,0.5,0.3,1,0.4,1.4c0,0.2-0.2-0.3-0.2-0.3l0.1,0.2
						c0,0.2,0,0.3,0,0.2c0.2,0.5,0.3,0,0.5,0.4c0-0.2,0-0.4-0.1-0.6l0,0.1c-0.1-0.4-0.1-0.6-0.2-0.8c0-0.3-0.1-0.8,0-0.6l0.2,0.6
						c0-0.2-0.1-0.3-0.1-0.2c0-0.3,0.3,0.8,0.1,0l-0.2-0.4c0-0.3-0.1-1,0-0.8c-0.2-0.6,0,0.1-0.2-0.6c0.3,0.8-0.2,0,0.1,0.9
						c-0.2-0.8-0.2-0.3-0.4-1c0.1,0.2,0.1,0.4,0,0.3c0,0.1,0,0.1,0,0.2l0,0l0,0c0,0,0,0,0,0c0,0.1,0.1,0.2,0.1,0.3
						c0.1,0.5,0,0.5,0,0.7c-0.1-0.1,0-0.2-0.1-0.4l0,0.4c-0.1-0.4-0.3-0.7-0.2-1l-0.1,0c-0.1-0.2-0.2-0.3-0.2-0.1c0-0.1,0,0.5,0,0.2
						l0,0.3l0-0.1c-0.1,0,0,0.8-0.3,0c0,0.1,0,0.3-0.1,0.1l-0.1-0.4c0,0.1-0.2-0.4-0.1,0c-0.3-1-0.2-0.2-0.3-0.4l0.1,0.5
						c-0.1,0-0.1,0.1-0.1,0.3l0.1,0.4c0,0.4-0.2-0.3-0.3-0.2c0-0.2,0-0.1,0,0c-0.3-1-0.1,0.8-0.3,0.1c0,0.2,0,0.1-0.1,0c0,0,0,0,0,0
						c0,0,0,0,0,0c0-0.1-0.1-0.2-0.1-0.2c0,0.1,0.1,0.2,0.1,0.2c0,0,0,0.1,0,0.2l-0.1-0.5c0,0,0,0,0,0c-0.1-0.2,0,0.2,0.1,0.6
						c0,0.1,0,0.2,0,0.3c-0.2-0.8,0,0.3-0.2-0.5c0.1,0.4-0.1,0.3,0.1,1.2c0-0.1,0-0.2,0-0.2c0-0.1-0.1-0.2-0.1,0.1l-0.1-0.6l0.1,0.8
						c-0.1-0.4-0.2-0.6-0.2-1c0,0.7,0,0.3,0,1l-0.1-0.4c0,0,0,0.6-0.1,0.2c-0.2-0.7-0.3-0.1-0.6-0.7c0.2,1.1-0.1-0.5,0,0.4
						c0-0.3-0.1-0.4-0.1-0.7c0,0.3-0.2-0.4-0.1,0.3c0-0.3,0-0.4-0.1-0.6c0,0.1,0,0.2,0,0.1c0-0.2,0-0.2,0-0.4
						c-0.1,0.1,0,0.9,0.1,1.7c-0.1-0.4-0.1-0.3-0.1,0.2c0-0.3-0.1-0.5-0.1-0.6c0,0-0.2-0.4-0.2,0.3c0-0.2,0,0,0,0
						c-0.1,0-0.1-0.1-0.1,0l0,0.1c0.1,0.8,0,0.2-0.1,0.3l0-0.1c-0.2-0.5,0,0.3-0.2-0.3l0.1,0.5c0.1,1-0.2-0.6-0.2-0.2l0.1,0.3
						c0,0.4-0.3-1.4-0.3-1.5c0-0.1,0-0.1,0-0.2c-0.2-0.6,0,0.6,0,0.8c0-0.3-0.1-0.9-0.1-0.9c0-0.3,0,1.1-0.2,0.5
						c0,0.3,0.1,0.5,0.1,0.7c0,0.1-0.2-1-0.2-0.1c0-0.1,0-0.1,0-0.2c0,0.2-0.1,0.4-0.1,0.8c-0.2-1.6-0.2,0.8-0.3-0.7l-0.1,0.1l0-0.2
						c-0.1-0.1-0.1,0.3-0.1,0.6c0-0.1,0-0.2,0-0.3c-0.1-0.3-0.1-0.2-0.2,0.5l0-0.5c0,0.3-0.2-0.8-0.3-0.2c0-0.1,0-0.2,0-0.2
						c-0.1,0.6-0.4-1.4-0.3,0.4l-0.1,0.4c0.1,0.1,0,0.8,0.1,1.1c0,0.1-0.1-0.5-0.1-0.6l0,0.1c0-0.9-0.2-0.3-0.2-1
						c-0.2,0.1-0.4-0.5-0.6-0.5l0,0.7l-0.1,0c0-0.2,0-0.6,0-0.5c0-0.4-0.1,0.3-0.1,0.5c-0.1-0.3,0-0.9,0-0.9l0,0.1l0,0.1
						c0,0.3,0,0.6-0.1,0.6c0-0.1,0-0.5,0-0.5c0-0.1,0-0.1,0,0l-0.1-0.1l0,0.6c0,0.3-0.1,0,0,0.6c-0.1-1-0.3-0.4-0.4-0.7
						c-0.1,0.4-0.1,0.4-0.2,0.4c0,0.1,0,0.8,0,0.7c0-1.3-0.1-0.6-0.1-1.5c0,0.6-0.2,0.2-0.1,1.1c0-0.1,0-0.5,0-0.8
						c-0.1,0.5-0.2-0.3-0.4-0.2c0,0.2,0,0.4,0,0.7l0-0.9c0,0.1-0.1,1-0.1,0.4c0,0.1,0,0.4,0,0.4c-0.2-0.9-0.6,0.7-0.8-1
						c0,0.3,0,0.4,0,0.4c0,0.1,0,0.4,0,0.7l-0.1-0.7c-0.1,0.7-0.1,0-0.2,0.7l0-0.1c-0.1,0.7-0.1,1.7-0.1,2.6
						c0.1-0.8,0.1,1.3,0.3,0.1c0,0.2,0,0.3,0,0.5c0.1-0.4,0.1-0.5,0.1-0.3l0,0.1c0.2-0.1,0.2,0.3,0.4,0.6l0-0.5c0,0.1,0,0.2,0,0.3
						c0.1-0.7-0.1,0,0-0.8c0,1,0.3,0,0.3,1.1c0.1,0,0-0.5,0.1-0.5l0,0.3l0-0.4c0,0.1,0,0.4,0,0.7c0,0,0,0.1,0,0.1
						c0,0.4,0.2-0.1,0.2,0l-0.1-0.2c0.2-0.3,0.4,0.1,0.5-0.5l0-0.2c0.1-0.4,0.1,0.2,0.2,0.1l0,0.1c0-0.2,0.1-0.3,0.1-0.3
						c0,0.3,0.1,0.5,0,0.8c0.1-0.4,0.1-0.3,0.2-1.2l0,0.4c0-0.3,0-0.5,0.1-0.6c-0.1,0.3,0,0.6,0,1c0.1,0.8,0.2-0.8,0.3,0.4
						c0.1-1-0.1-0.6-0.1-0.8c0-0.3,0.1-0.8,0.1-0.7c0,0,0.1,1.3,0.2,1.3c0,0,0,0.1,0,0.1c0,0.3,0.1-0.4,0.1,0.1c0-0.6,0.1,0,0.1-0.8
						l-0.1,0.2c0.1-0.2,0.1-1.1,0.2-0.7c0,0.2,0,0.4-0.1,0.5c0,0.2,0.1-0.2,0.1,0.1c0,0.8-0.1,0.2-0.2,0.8c0,0.3,0.1-0.6,0.1,0.3
						c0-1.1,0.1,0.1,0.2-0.7l0,0.5c0-0.1,0-0.3,0.1-0.3l0,0.6c0.1-0.5,0.1,0.5,0.2,0.2c-0.1,0,0-0.6-0.1-0.9c0.1-0.6,0.1,1.2,0.3,1
						c0,0.1-0.1-0.3-0.1-0.5c0,0.1,0.1,0.3,0.1,0.5c0.1-0.1,0-0.5,0-0.8c0.1,0.6,0.1-0.2,0.1-0.4l0,0.5c0.1,0.3,0-1,0.1-0.6l0,0.7
						l0.1-0.2l0,0.5c0.1-0.4,0.1-0.3,0.1-0.2c0-0.3,0-0.9,0-0.9c0,0.3,0,0.5,0.1,0.4c0,0.3,0,0.7-0.1,0.2c0,0.2,0,0.3,0,0.5
						c0.1,0.3,0.1,0.1,0.1,0.1c0,0,0,0,0-0.1l0.1-0.7c0,0.2,0,0.3,0,0.5c0-0.1,0-0.3,0.1-0.3c0,0.4,0,0.8,0,1l0.1-0.4
						c0,0.2,0.1,0.5,0.1,0.6c0.1,0.2,0.1-0.8,0.2-0.5c0-0.1,0-0.1,0-0.2c0.1,0.1,0.2,0.6,0.2,0l0.1,0.7c0.1-0.2-0.1-0.9,0-1.2
						c0.1-0.2,0.1,0.6,0.1,0.8C197.3-492.9,197.3-493.7,197.4-493C197.4-493,197.4-493.1,197.4-493z M198.3-493.4
						c0,0.1,0,0.4-0.1,0.1C198.2-493.8,198.2-493.5,198.3-493.4z M199.5-494.7C199.5-494.5,199.4-494.6,199.5-494.7
						C199.4-494.8,199.4-494.8,199.5-494.7z M202.3-498.6C202.3-498.6,202.3-498.6,202.3-498.6C202.2-498.8,202.2-498.7,202.3-498.6
						z M202.4-498.4c0-0.1,0-0.1,0-0.2C202.4-498.5,202.4-498.5,202.4-498.4C202.4-498.4,202.4-498.3,202.4-498.4z M194.9-497.3
						l0,0.1C194.8-497.1,194.8-497.2,194.9-497.3z"/>
					<path id="XMLID_552_" class="st9" d="M199.4-494c0-0.1,0-0.2,0-0.3C199.4-494.2,199.4-494.1,199.4-494z"/>
					<polygon id="XMLID_551_" class="st9" points="196.8,-492.7 196.8,-492.7 196.8,-492.6 					"/>
					<path id="XMLID_550_" class="st9" d="M202.2-494.2c0-0.1-0.1-0.1-0.1-0.2C202.1-494.3,202.1-494.2,202.2-494.2z"/>
					<path id="XMLID_549_" class="st9" d="M202.6-499.3l0,0.1c0,0,0,0.1,0.1,0.1C202.6-499.2,202.6-499.3,202.6-499.3z"/>
					<path id="XMLID_548_" class="st9" d="M203.7-496.5C203.7-496.6,203.7-496.5,203.7-496.5l-0.1-0.3
						C203.6-496.8,203.7-496.6,203.7-496.5z"/>
					<path id="XMLID_547_" class="st9" d="M203-497.8c0.1,0.4,0.1,0.3,0.1,0.2c0,0,0,0,0,0C203-498.2,203-498,203-497.8z"/>
					<path id="XMLID_546_" class="st9" d="M203.1-497.6C203.1-497.6,203.1-497.7,203.1-497.6C203.1-497.9,203.1-497.7,203.1-497.6z"
						/>
					<path id="XMLID_545_" class="st9" d="M202.4-498.7c0,0.1-0.1-0.5-0.1-0.3C202.3-499.6,202.4-498.4,202.4-498.7z"/>
					<polygon id="XMLID_544_" class="st9" points="203.4,-496.5 203.2,-497 203.3,-496.6 					"/>
					<path id="XMLID_543_" class="st9" d="M203-496.8l0.1,0.1C203.1-496.7,203.1-496.8,203-496.8C203-496.8,203-496.9,203-496.8z"/>
					<path id="XMLID_542_" class="st9" d="M203.1-496.8C203.1-496.8,203.1-496.8,203.1-496.8C203.1-496.9,203.1-496.9,203.1-496.8z"
						/>
					<polygon id="XMLID_541_" class="st9" points="203.3,-496.3 203.3,-496.4 203.2,-496.5 					"/>
					<path id="XMLID_540_" class="st9" d="M202.4-496.7l0,0.2c0,0.2,0.1,0.3,0.1,0.2C202.5-496.5,202.5-496.6,202.4-496.7z"/>
					<path id="XMLID_539_" class="st9" d="M202.9-495.4c0-0.1-0.1-0.2-0.1-0.4l0.1,0.6L202.9-495.4z"/>
					<path id="XMLID_538_" class="st9" d="M202.8-495.3c0,0.2,0,0.5,0.1,0.4C202.8-495,202.9-495.1,202.8-495.3z"/>
					<polygon id="XMLID_537_" class="st9" points="201.7,-495.8 201.7,-495.9 201.5,-496.9 					"/>
					<path id="XMLID_536_" class="st9" d="M201.4-493.3c0.1,0.2-0.1-0.6,0-0.3c0-0.2-0.1-0.2-0.1-0.4
						C201.3-493.8,201.2-494,201.4-493.3z"/>
					<path id="XMLID_535_" class="st9" d="M201.3-494.1c0,0,0-0.1,0-0.2C201.3-494.2,201.3-494.1,201.3-494.1z"/>
					<polygon id="XMLID_534_" class="st9" points="192.3,-498 192.3,-498.2 192.3,-497.8 					"/>
					<path id="XMLID_533_" class="st9" d="M192.2-497.2l0-0.6L192.2-497.2C192.1-497.3,192.2-497.4,192.2-497.2z"/>
					<path id="XMLID_532_" class="st9" d="M198.5-492.1l0-0.2c0-0.2,0-0.2-0.1-0.2L198.5-492.1z"/>
					<polygon id="XMLID_531_" class="st9" points="197.8,-492.5 197.8,-492.5 197.8,-493.1 					"/>
					<path id="XMLID_530_" class="st9" d="M197.3-491.7C197.3-491.7,197.3-491.8,197.3-491.7C197.3-491.7,197.2-492.5,197.3-491.7z"
						/>
				</g>
			</g>
		</g>
	</g>
</g>
<rect id="XMLID_636_" x="1178.2" y="-1224.1" class="st13" width="1405.1" height="215.2"/>
<ellipse id="XMLID_635_" class="st14" cx="1710.3" cy="-1102.2" rx="107.7" ry="61.8"/>
<ellipse id="XMLID_634_" class="st15" cx="2065" cy="-1122.4" rx="107.7" ry="61.8"/>
<ellipse id="XMLID_633_" class="st14" cx="1957.3" cy="-1102.2" rx="107.7" ry="61.8"/>
<ellipse id="XMLID_632_" class="st16" cx="1818" cy="-1079.4" rx="107.7" ry="61.8"/>
<path id="XMLID_1_" class="st2" d="M1826-1118.9c-6.9-0.2-5.1-27-5.1-27s-12.8-5.6-14.9-9.5c-2.5-4.5-10.2-21.4-3.4-22.7
	c7.1-1.4,8.5,13.7,8.5,13.7l9.8,4.8c0,0-2-32.8,7.4-32.6c5.5,0.1,2.9,32.1,2.9,32.1l7.4-4.6c0,0,2-15.5,8.8-15.2
	c6.7,0.3-3.1,21.3-3.1,21.3l-11.6,13.1C1832.6-1145.3,1832.8-1118.7,1826-1118.9z"/>
<path id="XMLID_300_" class="st2" d="M1730.6-1142.8c-5.3-0.2-4-20.9-4-20.9s-9.9-4.4-11.6-7.4c-1.9-3.5-7.9-16.7-2.7-17.7
	c5.5-1.1,6.6,10.6,6.6,10.6l7.6,3.8c0,0-1.5-25.5,5.7-25.3c4.3,0.1,2.2,24.9,2.2,24.9l5.7-3.5c0,0,1.6-12,6.9-11.8
	c5.2,0.2-2.4,16.6-2.4,16.6l-9,10.2C1735.7-1163.3,1735.9-1142.6,1730.6-1142.8z"/>
<path id="XMLID_303_" class="st2" d="M1939-1136.5c-5.3-0.2-4-20.9-4-20.9s-9.9-4.4-11.6-7.4c-1.9-3.5-7.9-16.7-2.7-17.7
	c5.5-1.1,6.6,10.6,6.6,10.6l7.6,3.8c0,0-1.5-25.5,5.7-25.3c4.3,0.1,2.2,24.9,2.2,24.9l5.7-3.5c0,0,1.6-12,6.9-11.8
	c5.2,0.2-2.4,16.6-2.4,16.6l-9,10.2C1944.1-1157,1944.2-1136.3,1939-1136.5z"/>
<path id="XMLID_385_" class="st2" d="M2044.1-1168.8c-2.6-0.1-2-10.3-2-10.3s-4.9-2.2-5.7-3.6c-0.9-1.7-3.9-8.2-1.3-8.7
	c2.7-0.5,3.3,5.2,3.3,5.2l3.7,1.9c0,0-0.7-12.6,2.8-12.5c2.1,0.1,1.1,12.3,1.1,12.3l2.8-1.7c0,0,0.8-5.9,3.4-5.8
	c2.6,0.1-1.2,8.2-1.2,8.2l-4.4,5C2046.6-1179,2046.7-1168.8,2044.1-1168.8z"/>
<rect id="XMLID_91_" x="1248.1" y="-1.6" class="st0" width="1267.7" height="230.4"/>
<ellipse id="XMLID_90_" class="st14" cx="1709.5" cy="120.3" rx="107.7" ry="61.8"/>
<ellipse id="XMLID_89_" class="st15" cx="2064.3" cy="100.1" rx="107.7" ry="61.8"/>
<ellipse id="XMLID_88_" class="st14" cx="1956.6" cy="120.3" rx="107.7" ry="61.8"/>
<ellipse id="XMLID_87_" class="st16" cx="1817.2" cy="143.1" rx="107.7" ry="61.8"/>
<polygon id="XMLID_84_" class="st5" points="1736.2,75.6 1733.8,75.6 1735,32.4 "/>
<polygon id="XMLID_83_" class="st5" points="2046.7,58.7 2045,58.7 2045.9,28 "/>
<polygon id="XMLID_82_" class="st5" points="2046.7,58.7 2045,58.7 2045.9,28 "/>
<polygon id="XMLID_81_" class="st5" points="2046.7,58.7 2045,58.7 2045.9,28 "/>
<polygon id="XMLID_80_" class="st5" points="2046.7,58.7 2045,58.7 2045.9,28 "/>
<polygon id="XMLID_79_" class="st5" points="2046.7,58.7 2045,58.7 2045.9,28 "/>
<polygon id="XMLID_77_" class="st5" points="2046.7,58.7 2045,58.7 2045.9,28 "/>
<path id="XMLID_66_" class="st14" d="M1817.2,111.9l-7.8,2c-3.6,1.3-22.5,4.5-25.5,2.2l0,0c-6.1-4.4-5.8-13.5,0.5-17.5v0
	c3.8-2.4,8.6-2.7,12.7-0.8l12.8,5.9c0,0-13.2-61.1,7.3-61.1c20.7,0,7.3,61.6,7.3,61.6l11.4-5.1c4.6-2.1,10-1.8,14.4,0.7v0
	c6.1,3.6,6.5,12.3,0.6,16.3v0c-3.3,2.2-19.8-0.3-23.5-1.7L1817.2,111.9L1817.2,111.9z"/>
<line id="XMLID_67_" class="st17" x1="1806.1" y1="59.1" x2="1830" y2="59.1"/>
<path id="XMLID_68_" class="st15" d="M1735.5,76.9l-5.2,1.3c-2.4,0.8-15,3-17.1,1.5v0c-4.1-2.9-3.9-9,0.4-11.7v0
	c2.6-1.6,5.8-1.8,8.5-0.6l8.6,3.9c0,0-8.8-40.9,4.9-40.9c13.8,0,4.9,41.2,4.9,41.2l7.6-3.4c3.1-1.4,6.7-1.2,9.6,0.5v0
	c4.1,2.4,4.3,8.2,0.4,10.9v0c-2.2,1.5-13.3-0.2-15.7-1.1L1735.5,76.9L1735.5,76.9z"/>
<line id="XMLID_65_" class="st17" x1="1728.1" y1="41.6" x2="1744.1" y2="41.6"/>
<path id="XMLID_70_" class="st15" d="M1941.4,80.6l-5.2,1.3c-2.4,0.8-15,3-17.1,1.5v0c-4.1-2.9-3.9-9,0.4-11.7v0
	c2.6-1.6,5.8-1.8,8.5-0.6l8.6,3.9c0,0-8.8-40.9,4.9-40.9c13.8,0,4.9,41.2,4.9,41.2l7.6-3.4c3.1-1.4,6.7-1.2,9.6,0.5v0
	c4.1,2.4,4.3,8.2,0.4,10.9v0c-2.2,1.5-13.3-0.2-15.7-1.1L1941.4,80.6L1941.4,80.6z"/>
<line id="XMLID_69_" class="st17" x1="1933.9" y1="45.2" x2="1949.9" y2="45.2"/>
<path id="XMLID_72_" class="st16" d="M2046.8,59.9l-4,1c-1.8,0.7-11.5,2.3-13.1,1.2v0c-3.1-2.2-3-6.9,0.3-9v0c2-1.2,4.4-1.4,6.5-0.4
	l6.6,3c0,0-6.8-31.4,3.8-31.4c10.6,0,3.7,31.6,3.7,31.6l5.9-2.6c2.4-1.1,5.1-0.9,7.4,0.4v0c3.2,1.8,3.3,6.3,0.3,8.4v0
	c-1.7,1.2-10.2-0.1-12.1-0.9L2046.8,59.9L2046.8,59.9z"/>
<line id="XMLID_71_" class="st17" x1="2041.1" y1="32.7" x2="2053.4" y2="32.7"/>
<rect id="XMLID_246_" x="2608.8" y="-1210.4" class="st5" width="1389.7" height="213.6"/>
<ellipse id="XMLID_245_" class="st18" cx="3120.1" cy="-1088.5" rx="107.7" ry="61.8"/>
<ellipse id="XMLID_244_" class="st19" cx="3474.9" cy="-1108.8" rx="107.7" ry="61.8"/>
<ellipse id="XMLID_243_" class="st18" cx="3367.2" cy="-1088.5" rx="107.7" ry="61.8"/>
<ellipse id="XMLID_242_" class="st20" cx="3227.9" cy="-1065.8" rx="107.7" ry="61.8"/>
<path id="XMLID_227_" class="st3" d="M3146.7-1163.9l2.5,6.3c0.8,2,0.6,4.2-0.5,6.1l-6.7,10.3l-7.6-18.5c-0.1-1.8,0.6-3.7,1.9-4.9
	l1.5-1.4C3140.7-1168.6,3145.3-1167.5,3146.7-1163.9z"/>
<polygon id="XMLID_226_" class="st15" points="3158.3,-1135.3 3155.9,-1135.3 3152.3,-1157.7 3143.4,-1168.5 3142,-1157.7 
	3142.8,-1170.1 3153.7,-1158.3 "/>
<path id="XMLID_223_" class="st3" d="M3354.7-1165.5l2.5,6.3c0.8,2,0.6,4.2-0.5,6.1l-6.7,10.3l-7.6-18.5c-0.1-1.8,0.6-3.7,1.9-4.9
	l1.5-1.4C3348.7-1170.2,3353.3-1169.1,3354.7-1165.5z"/>
<polygon id="XMLID_222_" class="st15" points="3366.4,-1136.9 3364,-1136.9 3360.3,-1159.3 3351.4,-1170.1 3350,-1159.3 
	3350.8,-1171.7 3361.7,-1159.9 "/>
<path id="XMLID_225_" class="st3" d="M3228.5-1165.1l4,10.3c1.3,3.3,1,7-0.8,10l-10.9,16.8l-12.5-30.2c-0.2-3,0.9-6,3.2-8l2.4-2.2
	C3218.5-1172.8,3226.1-1171.1,3228.5-1165.1z"/>
<polygon id="XMLID_224_" class="st15" points="3247.5,-1118.3 3243.6,-1118.3 3237.5,-1155.1 3223,-1172.7 3220.8,-1155.1 
	3222.1,-1175.3 3239.9,-1156 "/>
<path id="XMLID_229_" class="st3" d="M3454.9-1179.1l1.6,4.2c0.5,1.3,0.4,2.8-0.3,4l-4.4,6.8l-5-12.2c-0.1-1.2,0.4-2.4,1.3-3.2
	l1-0.9C3450.9-1182.2,3454-1181.5,3454.9-1179.1z"/>
<polygon id="XMLID_228_" class="st15" points="3462.6,-1160.2 3461,-1160.2 3458.6,-1175 3452.7,-1182.1 3451.8,-1175 
	3452.3,-1183.2 3459.5,-1175.4 "/>
<rect id="XMLID_259_" x="1342.4" y="-618.2" class="st21" width="431.7" height="105.5"/>
<ellipse id="XMLID_258_" class="st22" cx="1392.1" cy="-496.3" rx="107.7" ry="61.8"/>
<ellipse id="XMLID_257_" class="st23" cx="1746.9" cy="-516.5" rx="107.7" ry="61.8"/>
<ellipse id="XMLID_256_" class="st22" cx="1639.1" cy="-496.3" rx="107.7" ry="61.8"/>
<ellipse id="XMLID_255_" class="st24" cx="1499.8" cy="-473.5" rx="107.7" ry="61.8"/>
<polygon id="XMLID_12_" class="st5" points="1619.2,-540.5 1616.3,-540.5 1617.8,-593.3 "/>
<polygon id="XMLID_8_" class="st5" points="1418.8,-541 1416.4,-541 1417.6,-584.3 "/>
<polygon id="XMLID_3_" class="st5" points="1733.8,-567 1732.1,-567 1733,-597.7 "/>
<path id="XMLID_14_" class="st5" d="M1519.2-1036.3"/>
<path id="XMLID_13_" class="st5" d="M1517.5-1048.7"/>
<path id="XMLID_11_" class="st5" d="M1514.4-1059.1"/>
<path id="XMLID_10_" class="st5" d="M1515.4-1067"/>
<path id="XMLID_9_" class="st5" d="M1504.7-1068.7"/>
<path id="XMLID_7_" class="st5" d="M1494-1058.7"/>
<path id="XMLID_6_" class="st5" d="M1503-1043.5"/>
<path id="XMLID_2_" class="st5" d="M1512.7-1032.8"/>
</svg>
