<?xml version="1.0" encoding="utf-8"?>
<!-- Generator: Adobe Illustrator 19.0.0, SVG Export Plug-In . SVG Version: 6.00 Build 0)  -->
<svg version="1.1" id="Laag_1" xmlns="http://www.w3.org/2000/svg" xmlns:xlink="http://www.w3.org/1999/xlink" x="0px" y="0px"
	 viewBox="0 0 432 134" style="enable-background:new 0 0 432 134;" xml:space="preserve">
<style type="text/css">
	.st0{fill:#5F94CF;}
	.st1{fill:#5DA47C;}
	.st2{fill:#05915F;}
	.st3{fill:#8EB99B;}
	.st4{fill:#4CB8A4;}
	.st5{fill:#0F2E45;}
	.st6{fill:#D13981;}
	.st7{fill:#005184;}
	.st8{fill:#C5426E;}
	.st9{fill:#FFFFFF;}
	.st10{fill:#869CBC;}
	.st11{fill:#587FA7;}
	.st12{fill:#AFBBD2;}
	.st13{fill:#E1B470;}
	.st14{fill:#B2976E;}
	.st15{fill:#8E7B5D;}
	.st16{fill:#C4AF8F;}
	.st17{fill:#0F2E45;stroke:#0F2E45;stroke-miterlimit:10;}
	.st18{fill:#8B8C8C;}
	.st19{fill:#5F5F5E;}
	.st20{fill:#AFAFAF;}
	.st21{fill:#009FE3;}
	.st22{fill:#3AAA35;}
	.st23{fill:#009640;}
	.st24{fill:#7FC07B;}
</style>
<rect id="XMLID_52_" x="-2099.6" y="-1222.5" class="st0" width="1341.7" height="206.5"/>
<ellipse id="XMLID_40_" class="st1" cx="-1571.6" cy="-1100.6" rx="107.7" ry="61.8"/>
<ellipse id="XMLID_43_" class="st2" cx="-1216.8" cy="-1120.8" rx="107.7" ry="61.8"/>
<ellipse id="XMLID_42_" class="st1" cx="-1324.5" cy="-1100.6" rx="107.7" ry="61.8"/>
<rect id="XMLID_46_" x="-1729.3" y="-1491.3" class="st1" width="89.3" height="85.3"/>
<ellipse id="XMLID_41_" class="st3" cx="-1463.8" cy="-1077.8" rx="107.7" ry="61.8"/>
<rect id="XMLID_45_" x="-1621.2" y="-1394.8" class="st4" width="89.3" height="85.3"/>
<rect id="XMLID_44_" x="-1395.5" y="-1394.8" class="st5" width="89.3" height="85.3"/>
<rect id="XMLID_78_" x="-1275.8" y="-1394.8" class="st6" width="89.3" height="85.3"/>
<rect id="XMLID_47_" x="-1729.3" y="-1394.8" class="st3" width="89.3" height="85.3"/>
<rect id="XMLID_48_" x="-1621.2" y="-1491.3" class="st2" width="89.3" height="85.3"/>
<rect id="XMLID_49_" x="-1393.2" y="-1491.3" class="st7" width="89.3" height="85.3"/>
<rect id="XMLID_50_" x="-1508.5" y="-1491.3" class="st0" width="89.3" height="85.3"/>
<rect id="XMLID_51_" x="-1512.6" y="-1394.8" class="st8" width="89.3" height="85.3"/>
<path id="XMLID_54_" class="st1" d="M-1472.3-1140.2l-5.8-10.1c-1.8-3.2-2.1-7.1-0.7-10.5l15.5-38.4l10.9,48.7
	c0.7,3.1-0.1,6.4-2,8.9l-2.2,2.7C-1460.8-1133.7-1469-1134.3-1472.3-1140.2z"/>
<polygon id="XMLID_53_" class="st5" points="-1463.8,-1105 -1468,-1105 -1465.9,-1179.5 "/>
<path id="XMLID_56_" class="st1" d="M-1452.4-1143.6l-5.8-10.1c-1.8-3.2-2.1-7.1-0.7-10.5l15.5-38.4l10.9,48.7
	c0.7,3.1-0.1,6.4-2,8.9l-2.2,2.7C-1440.9-1137.1-1449.1-1137.7-1452.4-1143.6z"/>
<polygon id="XMLID_55_" class="st5" points="-1443.9,-1108.4 -1448.1,-1108.4 -1446,-1182.9 "/>
<path id="XMLID_60_" class="st1" d="M-1350.4-1169.8l-4.1-7.2c-1.3-2.3-1.5-5-0.5-7.5l11-27.2l7.7,34.5c0.5,2.2,0,4.5-1.5,6.3
	l-1.5,1.9C-1342.2-1165.2-1348-1165.6-1350.4-1169.8z"/>
<polygon id="XMLID_59_" class="st5" points="-1344.4,-1144.8 -1347.3,-1144.8 -1345.9,-1197.7 "/>
<path id="XMLID_58_" class="st1" d="M-1336.3-1172.2l-4.1-7.2c-1.3-2.3-1.5-5-0.5-7.5l11-27.2l7.7,34.5c0.5,2.2,0,4.5-1.5,6.3
	l-1.5,1.9C-1328.1-1167.6-1333.9-1168.1-1336.3-1172.2z"/>
<polygon id="XMLID_57_" class="st5" points="-1330.3,-1147.3 -1333.2,-1147.3 -1331.8,-1200.1 "/>
<path id="XMLID_64_" class="st1" d="M-1549.8-1165.8l-3.4-5.9c-1.1-1.9-1.2-4.1-0.4-6.1l9-22.3l6.3,28.3c0.4,1.8,0,3.7-1.2,5.1
	l-1.3,1.6C-1543.1-1162-1547.9-1162.4-1549.8-1165.8z"/>
<polygon id="XMLID_63_" class="st5" points="-1544.9,-1145.3 -1547.3,-1145.3 -1546.1,-1188.6 "/>
<path id="XMLID_62_" class="st1" d="M-1538.3-1167.7l-3.4-5.9c-1.1-1.9-1.2-4.1-0.4-6.1l9-22.3l6.3,28.3c0.4,1.8,0,3.7-1.2,5.1
	l-1.3,1.6C-1531.6-1164-1536.3-1164.3-1538.3-1167.7z"/>
<polygon id="XMLID_61_" class="st5" points="-1533.3,-1147.3 -1535.7,-1147.3 -1534.5,-1190.6 "/>
<rect id="XMLID_134_" x="-2099.6" y="-616.6" class="st5" width="1373.5" height="210.8"/>
<ellipse id="XMLID_133_" class="st1" cx="-1571.6" cy="-494.7" rx="107.7" ry="61.8"/>
<ellipse id="XMLID_132_" class="st2" cx="-1216.8" cy="-514.9" rx="107.7" ry="61.8"/>
<ellipse id="XMLID_131_" class="st1" cx="-1324.5" cy="-494.7" rx="107.7" ry="61.8"/>
<ellipse id="XMLID_130_" class="st3" cx="-1452.1" cy="-467.6" rx="107.7" ry="61.8"/>
<path id="XMLID_125_" class="st0" d="M-1350.4-563.9l-4.1-7.2c-1.3-2.3-1.5-5-0.5-7.5l11-27.2l7.7,34.5c0.5,2.2,0,4.5-1.5,6.3
	l-1.5,1.9C-1342.2-559.3-1348-559.8-1350.4-563.9z"/>
<polygon id="XMLID_124_" class="st9" points="-1344.4,-539 -1347.3,-539 -1345.9,-591.8 "/>
<path id="XMLID_121_" class="st0" d="M-1549.8-559.9l-3.4-5.9c-1.1-1.9-1.2-4.1-0.4-6.1l9-22.3l6.3,28.3c0.4,1.8,0,3.7-1.2,5.1
	l-1.3,1.6C-1543.1-556.1-1547.9-556.5-1549.8-559.9z"/>
<polygon id="XMLID_120_" class="st9" points="-1544.9,-539.5 -1547.3,-539.5 -1546.1,-582.7 "/>
<path id="XMLID_203_" class="st0" d="M-1237.8-570.8l-2.4-4.2c-0.8-1.3-0.9-2.9-0.3-4.3l6.4-15.8l4.5,20.1c0.3,1.3,0,2.6-0.8,3.6
	l-0.9,1.1C-1233.1-568.2-1236.5-568.4-1237.8-570.8z"/>
<polygon id="XMLID_202_" class="st9" points="-1234.4,-556.3 -1236.1,-556.3 -1235.2,-587 "/>
<path id="XMLID_234_" class="st1" d="M-1225.1-1187.2l-2.4-4.2c-0.8-1.3-0.9-2.9-0.3-4.3l6.4-15.8l4.5,20.1c0.3,1.3,0,2.6-0.8,3.6
	l-0.9,1.1C-1220.4-1184.6-1223.7-1184.8-1225.1-1187.2z"/>
<path id="XMLID_240_" class="st1" d="M-1233.3-1185.8l-2.4-4.2c-0.8-1.3-0.9-2.9-0.3-4.3l6.4-15.8l4.5,20.1c0.3,1.3,0,2.6-0.8,3.6
	l-0.9,1.1C-1228.6-1183.1-1231.9-1183.4-1233.3-1185.8z"/>
<polygon id="XMLID_239_" class="st5" points="-1229.8,-1171.3 -1231.5,-1171.3 -1230.7,-1202 "/>
<polygon id="XMLID_237_" class="st5" points="-1221.6,-1172.7 -1223.3,-1172.7 -1222.5,-1203.4 "/>
<rect id="XMLID_508_" x="-2099.6" y="0" class="st8" width="1328" height="219.7"/>
<ellipse id="XMLID_507_" class="st10" cx="-1610.6" cy="121.9" rx="107.7" ry="61.8"/>
<ellipse id="XMLID_506_" class="st11" cx="-1255.9" cy="101.7" rx="107.7" ry="61.8"/>
<ellipse id="XMLID_505_" class="st10" cx="-1363.6" cy="121.9" rx="107.7" ry="61.8"/>
<ellipse id="XMLID_504_" class="st12" cx="-1502.9" cy="144.7" rx="107.7" ry="61.8"/>
<path id="XMLID_503_" class="st1" d="M-1511.4,43.6l-5.8,10.1c-1.8,3.2-2.1,7.1-0.7,10.5l15.5,38.4l10.9-48.7c0.7-3.1-0.1-6.4-2-8.9
	l-2.2-2.7C-1499.8,37.1-1508,37.7-1511.4,43.6z"/>
<polygon id="XMLID_502_" class="st5" points="-1502.9,8.4 -1507,8.4 -1505,82.9 "/>
<path id="XMLID_499_" class="st1" d="M-1389.5,73.2l-4.1,7.2c-1.3,2.3-1.5,5-0.5,7.5l11,27.2l7.7-34.5c0.5-2.2,0-4.5-1.5-6.3
	l-1.5-1.9C-1381.3,68.6-1387.1,69.1-1389.5,73.2z"/>
<polygon id="XMLID_498_" class="st5" points="-1383.5,48.3 -1386.4,48.3 -1384.9,101.1 "/>
<path id="XMLID_495_" class="st1" d="M-1588.9,56.7l-3.4-5.9c-1.1-1.9-1.2-4.1-0.4-6.1l9-22.3l6.3,28.3c0.4,1.8,0,3.7-1.2,5.1
	l-1.3,1.6C-1582.2,60.5-1586.9,60.1-1588.9,56.7z"/>
<polygon id="XMLID_306_" class="st5" points="-1584,48.8 -1586.4,48.8 -1585.2,92 "/>
<path id="XMLID_305_" class="st1" d="M-1577.3,71.2l-3.4,5.9c-1.1,1.9-1.2,4.1-0.4,6.1l9,22.3l6.3-28.3c0.4-1.8,0-3.7-1.2-5.1
	l-1.3-1.6C-1570.6,67.4-1575.4,67.8-1577.3,71.2z"/>
<polygon id="XMLID_304_" class="st5" points="-1572.4,50.7 -1574.8,50.7 -1573.6,94 "/>
<polygon id="XMLID_302_" class="st5" points="-1273.4,60.3 -1275.1,60.3 -1274.3,29.6 "/>
<path id="XMLID_301_" class="st1" d="M-1268.7,44.4l-2.4-4.2c-0.8-1.3-0.9-2.9-0.3-4.3l6.4-15.8l4.5,20.1c0.3,1.3,0,2.6-0.8,3.6
	l-0.9,1.1C-1264,47-1267.3,46.8-1268.7,44.4z"/>
<polygon id="XMLID_298_" class="st5" points="-1273.4,60.3 -1275.1,60.3 -1274.3,29.6 "/>
<path id="XMLID_297_" class="st1" d="M-1268.7,44.4l-2.4-4.2c-0.8-1.3-0.9-2.9-0.3-4.3l6.4-15.8l4.5,20.1c0.3,1.3,0,2.6-0.8,3.6
	l-0.9,1.1C-1264,47-1267.3,46.8-1268.7,44.4z"/>
<polygon id="XMLID_294_" class="st5" points="-1273.4,60.3 -1275.1,60.3 -1274.3,29.6 "/>
<path id="XMLID_293_" class="st1" d="M-1268.7,44.4l-2.4-4.2c-0.8-1.3-0.9-2.9-0.3-4.3l6.4-15.8l4.5,20.1c0.3,1.3,0,2.6-0.8,3.6
	l-0.9,1.1C-1264,47-1267.3,46.8-1268.7,44.4z"/>
<polygon id="XMLID_290_" class="st5" points="-1273.4,60.3 -1275.1,60.3 -1274.3,29.6 "/>
<path id="XMLID_289_" class="st1" d="M-1268.7,44.4l-2.4-4.2c-0.8-1.3-0.9-2.9-0.3-4.3l6.4-15.8l4.5,20.1c0.3,1.3,0,2.6-0.8,3.6
	l-0.9,1.1C-1264,47-1267.3,46.8-1268.7,44.4z"/>
<polygon id="XMLID_286_" class="st5" points="-1273.4,60.3 -1275.1,60.3 -1274.3,29.6 "/>
<path id="XMLID_285_" class="st1" d="M-1268.7,44.4l-2.4-4.2c-0.8-1.3-0.9-2.9-0.3-4.3l6.4-15.8l4.5,20.1c0.3,1.3,0,2.6-0.8,3.6
	l-0.9,1.1C-1264,47-1267.3,46.8-1268.7,44.4z"/>
<g id="XMLID_204_">
	<g id="XMLID_404_">
		<g id="XMLID_408_">
			<g id="XMLID_409_">
				<g id="XMLID_410_">
					<path id="XMLID_520_" class="st9" d="M-1464.4-509.7c-0.1,0.2,0.4,0.2,0.4,0.2C-1464-509.9-1464.5-509.7-1464.4-509.7z"/>
					<polygon id="XMLID_519_" class="st9" points="-1464.9,-513.6 -1464.7,-513.5 -1465.1,-514.1 					"/>
					<path id="XMLID_518_" class="st9" d="M-1464.2-517c-0.8,0.2-0.1,1.3-0.5,1.9l-0.2,0.1l0.5,0.4
						C-1464.4-515.5-1464.5-516.5-1464.2-517z"/>
					<path id="XMLID_494_" class="st9" d="M-1462.3-518.5c-0.3,0-0.1-0.4-0.2,0.4c0,0,0.1,0,0.1-0.1
						C-1462.4-518.2-1462.4-518.3-1462.3-518.5z"/>
					<path id="XMLID_493_" class="st9" d="M-1462.4-518.1C-1462.5-517.8-1462.1-518.3-1462.4-518.1L-1462.4-518.1z"/>
					<path id="XMLID_492_" class="st9" d="M-1462.1-519.8l0.1,0.5c0.2-0.1,0.3-0.4,0.4-0.3C-1461.6-520-1461.8-520-1462.1-519.8z"/>
					<path id="XMLID_491_" class="st9" d="M-1462.5-520.4l0,0.3C-1462.4-520.1-1462.4-520.2-1462.5-520.4z"/>
					<path id="XMLID_490_" class="st9" d="M-1462.4-519.5l-0.1-0.6c-0.1,0-0.4,0,0,0.3C-1462.7-520-1462.5-519.8-1462.4-519.5z"/>
					<path id="XMLID_489_" class="st9" d="M-1462.6-519.3c-0.2,0.2-0.4,0.5-0.5,0C-1463.3-518.4-1462.7-518.4-1462.6-519.3z"/>
					<path id="XMLID_488_" class="st9" d="M-1464.9-517.4l-0.3,0.3l0.2,0.4C-1465.1-516.9-1464.7-517.3-1464.9-517.4z"/>
					<path id="XMLID_487_" class="st9" d="M-1460.9-522.5c-0.1-0.1-0.4,0-0.6,0l0,0.4C-1461.3-522.3-1461.1-522.6-1460.9-522.5z"/>
					<path id="XMLID_486_" class="st9" d="M-1461.5-522.5l-0.1-0.6C-1461.8-522.7-1461.7-522.6-1461.5-522.5z"/>
					<polygon id="XMLID_485_" class="st9" points="-1463.2,-520.7 -1463,-519.7 -1463.2,-520.9 					"/>
					<polygon id="XMLID_484_" class="st9" points="-1460.2,-524.4 -1459.9,-524 -1460.2,-524.7 					"/>
					<path id="XMLID_483_" class="st9" d="M-1459.7-525.6c0.2,0.3,0.6-0.1,0.6,0.2c0.1-0.3,0-0.7-0.1-1.1
						C-1459.2-526.2-1459.3-525.9-1459.7-525.6z"/>
					<path id="XMLID_482_" class="st9" d="M-1459.3-527.1c0,0.2,0.1,0.4,0.1,0.6C-1459.2-526.7-1459.2-526.9-1459.3-527.1z"/>
					<path id="XMLID_481_" class="st9" d="M-1461.2-523.9c0.1,0,0.3,0,0.6-0.2l-0.5,0C-1461.1-524.1-1461.2-524-1461.2-523.9z"/>
					<path id="XMLID_480_" class="st9" d="M-1461.1-524.1L-1461.1-524.1c0.1-0.2,0.2-0.4,0.2-0.4
						C-1461-524.5-1461-524.4-1461.1-524.1z"/>
					<path id="XMLID_479_" class="st9" d="M-1461.2-523.9C-1461.2-523.9-1461.2-523.9-1461.2-523.9
						C-1461.2-523.9-1461.3-523.9-1461.2-523.9z"/>
					<path id="XMLID_478_" class="st9" d="M-1462.4-521.9c-0.1-0.4-0.2-1.1-0.7-0.6C-1462.9-522.2-1462.6-522.5-1462.4-521.9z"/>
					<path id="XMLID_477_" class="st9" d="M-1461.8-523.8l-0.3,0.5c0.1,0,0.3,0,0.4,0.2L-1461.8-523.8z"/>
					<polygon id="XMLID_476_" class="st9" points="-1461.8,-524.2 -1461.8,-523.8 -1461.7,-524 					"/>
					<path id="XMLID_475_" class="st9" d="M-1460-526.4c-0.1-0.3,0-0.5,0.1-0.8c-0.2,0.3-0.4,0.5-0.5,0.8
						C-1460.3-526.3-1460.2-526-1460-526.4z"/>
					<path id="XMLID_474_" class="st9" d="M-1460.6-525.3L-1460.6-525.3C-1460.7-525.3-1460.7-525.3-1460.6-525.3z"/>
					<polygon id="XMLID_473_" class="st9" points="-1458.6,-529.9 -1458.7,-529.9 -1458.6,-529.8 					"/>
					<path id="XMLID_472_" class="st9" d="M-1460.5-526.3c-0.2,0.2-0.1,0.4-0.1,0.5C-1460.6-526-1460.5-526.2-1460.5-526.3
						C-1460.5-526.4-1460.5-526.4-1460.5-526.3z"/>
					<path id="XMLID_471_" class="st9" d="M-1459.1-527.9c-0.1,0.1-0.3,0.2-0.4,0.3C-1459.3-527.7-1459-527.8-1459.1-527.9z"/>
					<path id="XMLID_470_" class="st9" d="M-1460.5-525.4C-1460.5-525.4-1460.5-525.4-1460.5-525.4
						C-1460.4-525.4-1460.4-525.4-1460.5-525.4z"/>
					<path id="XMLID_469_" class="st9" d="M-1460.5-525.4c0-0.1-0.1-0.3-0.1-0.4c0,0.2,0,0.3,0,0.4
						C-1460.6-525.4-1460.5-525.4-1460.5-525.4z"/>
					<path id="XMLID_468_" class="st9" d="M-1460.6-532c0.3,0.2,0.3,1-0.3,1.3c0,0.6,1.3,0.9,2.2,0.8c-0.1-0.1-0.3-0.2-0.2-0.8
						c-0.3,0.1-1,0.9-1.1,0.3c0.2-0.8,0.4-0.5,0.8-0.7c-0.6,0-0.2-1.2-0.9-1.4l-0.1,0.7C-1460.4-531.8-1460.4-532.1-1460.6-532z"/>
					<path id="XMLID_467_" class="st9" d="M-1459.2-528.9l-0.1,0.2c0.2-0.2,0.4-0.3,0.8-0.5c0-0.4-0.1-0.6-0.2-0.6
						c0,0-0.1,0.2-0.3,0.5C-1459.1-529.1-1459.2-528.8-1459.2-528.9L-1459.2-528.9z"/>
					<path id="XMLID_466_" class="st9" d="M-1459.7-527.8c-0.3-0.3-0.2-0.9-0.8-0.8c-0.3,0.6,0.1,0.6,0.1,1
						C-1460.1-528.6-1460.3-527.2-1459.7-527.8c-0.1,0.2-0.1,0.4-0.2,0.6c0.1-0.2,0.3-0.3,0.4-0.4l0,0l0,0l0,0c-0.1,0-0.1,0-0.1,0
						c0,0,0,0,0,0C-1459.7-527.7-1459.7-527.7-1459.7-527.8c0.2-0.2,0.1,0,0.1,0.1c0,0,0,0,0.1,0l0,0l0.3-1.1
						C-1459.4-528.5-1459.5-528.3-1459.7-527.8z"/>
					<path id="XMLID_465_" class="st9" d="M-1463.8-523.4c0,0,0.1,0,0.1,0C-1463.8-523.5-1463.8-523.5-1463.8-523.4z"/>
					<path id="XMLID_464_" class="st9" d="M-1463.4-523.7c0,0.1,0.2,0.2,0,0.5c-0.2,0.2-0.2-0.1-0.3-0.1c0.1,0.2,0.1,0.6,0.5,0.2
						l0-0.1c0.3-0.4,1-0.7,1-0.6C-1462.7-523.9-1463-523.9-1463.4-523.7z"/>
					<path id="XMLID_463_" class="st9" d="M-1461.7-525.9c0,0,0-0.2,0.1-0.5c0-0.2,0.1-0.5,0.1-0.5l-0.5,0.3l0.2,0.1
						C-1462.1-526-1461.8-526-1461.7-525.9z"/>
					<polygon id="XMLID_462_" class="st9" points="-1458.4,-529.9 -1458,-529.5 -1458.3,-530.3 					"/>
					<polygon id="XMLID_461_" class="st9" points="-1457.8,-530.9 -1457.5,-530.7 -1457.6,-531.1 					"/>
					<path id="XMLID_460_" class="st9" d="M-1435-588.8l-0.2-0.1C-1435.2-588.8-1435.1-588.8-1435-588.8z"/>
					<path id="XMLID_459_" class="st9" d="M-1434-587.4l0.2-0.1C-1434-587.5-1434.1-587.4-1434-587.4z"/>
					<path id="XMLID_458_" class="st9" d="M-1438.4-553.3c0.6-0.1,1.3,0,0.9-0.3l-0.4-0.2C-1438-553.5-1438.2-553.4-1438.4-553.3z"
						/>
					<path id="XMLID_457_" class="st9" d="M-1429.8-572.7c0,0-0.1,0.1-0.2,0.1c0.1,0.1,0.2,0.3,0.3,0.4
						C-1429.6-572.4-1429.7-572.6-1429.8-572.7z"/>
					<path id="XMLID_456_" class="st9" d="M-1431.4-573.4l0.4-0.4C-1431.2-573.7-1431.3-573.6-1431.4-573.4z"/>
					<path id="XMLID_455_" class="st9" d="M-1443.3-592.9l-0.4,0.4C-1443.2-592.4-1443.4-592.7-1443.3-592.9z"/>
					<path id="XMLID_454_" class="st9" d="M-1450.9-540.8c0.4-0.1,0.6-0.3,0.8-0.5C-1450.6-541.1-1451-541.1-1450.9-540.8z"/>
					<path id="XMLID_453_" class="st9" d="M-1431-591c-0.2-0.1-0.3-0.1-0.4-0.1C-1431.2-591-1431-590.9-1431-591z"/>
					<path id="XMLID_452_" class="st9" d="M-1449.4-542c-0.1,0-0.1,0-0.2,0.1c-0.1,0.2-0.2,0.5-0.5,0.7
						C-1449.7-541.3-1449.4-541.5-1449.4-542z"/>
					<path id="XMLID_451_" class="st9" d="M-1472.4-577.5C-1472.4-577.5-1472.5-577.5-1472.4-577.5
						C-1472.4-577.5-1472.4-577.5-1472.4-577.5z"/>
					<path id="XMLID_450_" class="st9" d="M-1477.5-566.4c0-0.1-0.1-0.3-0.1-0.5C-1477.7-566.8-1477.6-566.7-1477.5-566.4z"/>
					<path id="XMLID_449_" class="st9" d="M-1455.2-534.8C-1455.3-534.6-1455.2-534.8-1455.2-534.8L-1455.2-534.8z"/>
					<path id="XMLID_448_" class="st9" d="M-1457.3-534.8c0-0.1,0-0.1-0.1-0.2C-1457.3-534.9-1457.3-534.8-1457.3-534.8z"/>
					<path id="XMLID_447_" class="st9" d="M-1449.6-545.7L-1449.6-545.7C-1449.7-545.7-1449.6-545.7-1449.6-545.7z"/>
					<path id="XMLID_446_" class="st9" d="M-1455.6-534.6c0.1,0,0.2-0.1,0.3-0.2C-1455.3-534.8-1455.4-534.7-1455.6-534.6z"/>
					<path id="XMLID_445_" class="st9" d="M-1455.4-534.6c-0.1,0.1-0.1,0.1-0.2,0.2C-1455.5-534.3-1455.4-534.3-1455.4-534.6z"/>
					<path id="XMLID_444_" class="st9" d="M-1455-535.1c-0.1,0.1-0.2,0.2-0.3,0.3c0.1,0,0.1,0,0.1,0
						C-1455.1-534.9-1455.1-535-1455-535.1z"/>
					<path id="XMLID_443_" class="st9" d="M-1460.5-592.5C-1460.5-592.5-1460.5-592.5-1460.5-592.5
						C-1460.7-592.2-1460.6-592.3-1460.5-592.5z"/>
					<path id="XMLID_442_" class="st9" d="M-1437.4-561.5C-1437.4-561.5-1437.4-561.4-1437.4-561.5L-1437.4-561.5L-1437.4-561.5z"/>
					<path id="XMLID_441_" class="st9" d="M-1437.2-562.4c0.2,0.6,0,0.8-0.2,0.9l1.2,0.5L-1437.2-562.4z"/>
					<path id="XMLID_434_" class="st9" d="M-1438.2-591.3l0.2,0.6c-0.9,0.2-1.2-0.2-1,0.5c0.4-0.6,0.8-0.3,1.3-0.1
						c0.4,0.3,0.9,0.6,1.3,0.1l0.1,0.5c-0.1-0.1-0.1,0-0.2-0.1c0,1,1.1-0.4,1.6,0.5c0.1,0.3,0.1,0.6-0.1,0.6c0,0,0.7,0.4,0.7,0.4
						c0.1,0.2-0.1,0.3-0.2,0.1c0,0,0.2,0.2,0.4,0.4c0.2,0.2,0.4,0.4,0.4,0.4l0,0c0.3,0,0.7,0.2,1,0.2c0,0.4-0.2-0.1-0.3,0.1
						c0,0,0.6,0.4,0.6,0.4c-0.2,0.4-0.7,0.1-0.9-0.3c-0.4,0.6-0.3,0.7-0.1,0.8c0.2,0.1,0.6,0.3,0.5,1c0,0-0.4-0.5-0.4-0.5
						c-0.5,0.7-0.1,0.9-0.3,1.7c0.2-0.2,0.6-1.6,1.2-1.2c0,0.2,0,0.5,0.4,0.7c-0.5,0.2-0.2,0.5-0.1,0.9l-0.6,0.2
						c0.3,0.4,0.6,0.3,1,0.5c0.1,0.5-0.4,0.8-0.8,1c0.1,0.9,0.7-0.8,1,0.2c0,0.4,0,0.7,0.1,1c0.1,0.3,0.3,0.6,0.6,1.1
						c-0.2,0.5-0.4-0.1-0.6,0.1l0.5,0.4c0,0.1-0.2,0.1-0.2,0.1c0.2,0.4,0.6,0,0.8,0.6c0.4,0.1,0.1,0.4-0.1,0.8
						c-0.3,0.4-0.5,0.8-0.1,1.3c-0.2,0.2-0.4-0.1-0.6-0.1c0.4,1.1,0.3,0.9,0.9,1.9c0,0-0.1,0.2-0.3,0.3c-0.1,0.2-0.3,0.3-0.3,0.3
						c0.6-0.5,1,0.3,1.3,1.1c0.3-0.2,0.5-0.3,0.6-0.4c0,0,0,0.3,0,0.6c0,0.3,0,0.6,0,0.6c-0.1,0.1-0.3-0.1-0.5-0.3
						c0,0.1,0.1,0.2,0.1,0.2c-0.3,0.3-0.6,0-0.9-0.3c0.2-0.1,0.3-0.2,0.5-0.3c-0.3-0.3-0.7-0.7-1.1-0.7c0.1,0.1,0.1,0.2,0.1,0.4
						c-0.1-0.1-0.2-0.1-0.2-0.1c-0.1,0,0,0.1,0.2,0.3l-0.7,0l0.3,0.1c0,0-0.2,0.3-0.4,0.6c-0.2,0.3-0.4,0.5-0.4,0.5
						c0.4,1.1,1.1,2.2,0.8,3.8c-0.3-0.6-0.7-0.4-1.3-0.7c0.8-0.1,0.2-1.2,0.6-1.8c-0.2,0.3-0.5,0.2-0.5,0c0,0,0,0.4,0,0.7
						c0,0.4,0,0.7,0,0.7c-0.5-0.2-0.5,0.1-0.8,0.4c1,0.2,0.2,1.2,0.2,1.9c-0.3-0.1-0.5-0.4-0.2-1c-1,0.3,0.6,1.4-0.3,1.8
						c0.1-0.2,0.2-0.2,0-0.3c0.1,0.5-0.6,1.2-0.8,0.9l0.1-0.1c-0.6,0.9-1.8,2.9-1.2,3.5c-0.1-0.1-0.8-0.7-0.9-0.9
						c0,0,0.3,0.8,0.6,1.7c0.3,0.8,0.5,1.7,0.5,1.7c-0.5-0.6-2.3-1.1-2-2.1c-0.2,0.2-0.5,0.3-0.7,0.9c0.2-0.1,1.1,0.3,1,0.5
						c-1.1,0-0.6,0.1-1.7,0.3c0.3-0.1,1,0.8,0.7,1.2c-0.1-0.2-0.9-0.7-0.9-0.9l0.2,1.6c0-0.3-0.7-0.7-1.1-0.7c0.2,0.1-0.6,0.7-0.7,1
						l0.5-0.2c-0.9,0.8,0.4,2-0.5,2.8c-0.1-0.3-0.8-1.2-1.3-0.9c0.2,0.6,1.1,2.8,0.7,4l-0.4-0.1l-0.3,0.9c-0.2-1-0.5-3.3-0.5-4.4
						c-0.5,0.2-0.4-0.2-0.8,0.3c-0.4,0-0.1-0.6,0.1-0.8l-1.3,1c0.5,0.4-0.4,1.4,0,1.7l0.7-1.7c0.5,0.4,0.7,2.1-0.3,2.8
						c-0.4,0-0.7-1-0.9-1.1c0.1,0.3-0.5,1.1-0.7,1l0.1-0.6c-0.6,0.3-0.1,1.4-1.1,1.5c-0.2,0.2-1.2-0.1-0.9,0.3
						c0.9,0.2,2.6,1.9,2.8,2.5c-0.1,0-1.5,0.5-2,0.4c-0.7-0.1-0.5-1.5-1.2-1.6c0.1,0.1,0.1,0.5,0.1,0.6c-0.3,0.1-0.3-0.5-0.7,0
						c0.4,0.6-0.9,0.8,0.2,0.6c-0.3,0.6-0.6,0.4-1,0.9c0.5,0.2,0.6,1.5,0.3,2.1c-0.1-0.1-0.4-0.2-0.5-0.2c-0.9,0.8-1.6,1.1-2.4,1.9
						c-0.2,0-0.7,0.2-0.8-0.1c0,0.2,0,0.5-0.2,0.7c-0.9,0.1,0.5-0.7-0.4-0.7c0.3,0.3-0.2,1.1-0.4,1.6c0.6,0.3,0.9-0.8,1-1.3
						c0.6,0.6,0.7,1.8,0.2,3c-0.5,0.8-0.7,0-0.7,0.2c-1.3,1.3,0.2,2.1-1.2,2.8c-0.8,0.1-0.9-0.6-1.2-0.8c0.3-0.7,1-0.7,1.3-1.1
						l-0.6,0.3c0-0.3,0.2-0.8,0.5-0.9c-0.7,0.1-2,2.3-3.1,3.2c0,0.3-0.1,0.8,0.2,0.7l0.2-0.4c0.6-0.1,0,1,0.5,0.7
						c-0.1,0.7,0,1.4-0.7,2l-0.6-0.2c0.2,0.1,0.6-0.2,0.6-0.5c0.1,0.4-1.4,0.6-0.9,1.3l0.7-0.3c-0.1,0.6,0.2,1.6-0.4,2.1
						c0.7,0,0-0.2,0.9-0.2c-1-0.1,1-1.5-0.2-1.4c1,0,0.8-0.6,1.7-0.7c-0.2-0.1-0.5,0,0-0.4c0-0.1-0.1-0.1-0.1-0.2c0,0,0,0,0,0l0,0
						c0,0,0,0,0,0c-0.2,0.1-0.3,0.1-0.4,0.1c-0.2-0.5,0.3-1.3,0.3-1.7c0.3-0.2,0.1,0.3,0.4,0.2l0-0.6c0.4,0.2,1.2-0.3,0.9,0.5
						l0.5-0.6c0.5-0.2,0.9-0.6,1-1c0.3-0.2,0.2-1,0.2-0.5l0.5-1.1l0.1,0.1c0.8-0.8,1-2.3,2.5-2.7c0.2-0.4,0.4-0.8,0.9-1.1l0.4,0.2
						c0.3-0.5,1.3-0.8,1.2-1.3c1.1,0.3,1.9-1.6,2.7-2.1l-0.3-0.4c0.5-0.4,0.8-0.9,1.2-1.6l-0.3-0.3c0.2-0.7,1.5-1,2.2-1.8
						c0.1,0.2-0.2,0.3-0.4,0.4c1.6-0.2,1.4-2.4,2.7-2.8c0.1-0.3,0.3-0.4,0.5-0.5c0,0,0,0,0,0.1c0,0,0.1-0.1,0.1-0.1
						c0.1,0,0.3-0.1,0.5-0.1c-0.2,0-0.3,0-0.4,0.1c0.1-0.2,0.3-0.5,0.5-0.8l0.5,0.2c0,0,0,0,0-0.1c0.4-0.1,0-0.4-0.4-0.5
						c0.1-0.2,0.1-0.4,0.1-0.5c0.8,0.3,0.4-0.8,1.3-0.6c-0.1-0.4,0.9-1.5,0.3-2.2c0.1,0.1,0.2,0,0.1,0.2c0.3-0.2,0.6-0.5,0.6-0.9
						l0.6,0.3l-0.2-1.2c0.6-0.2,0.9-0.2,1,0.5c0.1-1.4,0.4-1,0.4-2.2l0.3,0.3c0.2-0.3,0.1-1.1,0.5-1.1c1.1-0.3,2.3-3.3,3.7-5
						c-1.2-0.1,0.9-0.7,0.1-1.1c0.3,0,0.6-0.2,0.6,0.2c0.2-1.1,1-1.4,0.5-2.4c0.3,0,0.3,0.4,0.5,0.3c0-0.1-0.1-0.4,0.1-0.5
						c0.2-0.1,0.2,0.2,0.2,0.4c0.3-1.1-0.5-1.5-1.2-1.8c0.5-0.4,0.5-0.8,0.1-1.3c0.3-0.1,0.6-0.4,0.6,0.3c0.2-0.4,0.8-2.3,0.2-2.4
						c0.2-0.1,0.1-0.5,0-0.6c0.1-0.9,0.2-0.9,0.1-1.8l-0.1,0.2c-0.7-0.4-0.2-0.7-0.3-1.4l0.1,0c0.5-1.6-0.3-0.7,0.2-2.3l-0.5,0.1
						c-0.5,0-0.4-0.4-0.2-0.8c0.2-0.5,0.3-1.1,0.1-1.5l-0.2,0.4c-0.4-0.4,1-1.7,1-2.3c0.1-0.1,0.2,0.1,0.3,0.3
						c0.2-1.5-0.6,0-1.1-0.9c0.3-0.3,0.9-0.1,0.7-0.7c0.1-0.2-0.4-0.6-0.8-1c-0.4-0.5-0.9-0.9-0.9-1.5c-0.1,0.3-0.3,0.6-0.7,0.3
						c-0.2-0.3-0.3-0.8-0.4-1.3c-0.1-0.5-0.4-0.9-0.9-0.9c0-0.1,0-0.2,0.1-0.2c-0.5-0.3-1.5-1.2-2-1c0.4-0.8-0.4-1.3-1.2-1.5
						c-0.7-0.3-1.5-0.5-1.1-1.1c0,0-1.5-0.8-1.5-0.8l0.1-0.1c-1-0.6-1.5-0.4-1.9-0.2c-0.2-0.2,0-0.3,0.1-0.3
						c-0.7-0.4-1.1-0.6-1.5-0.7c-0.4,0-0.8,0-1.5,0.3l0-0.5c-0.4,0.2-2.1-1.2-3.7-0.8c0-0.1,0.1-0.1,0.2-0.2
						c-0.9,0.2-1.9-0.2-2.8-0.4c-0.9-0.2-1.7-0.2-1.9,0.7c0,0-0.3,0.1-0.5,0.3c-0.3,0.1-0.5,0.3-0.5,0.3c1.4,0-0.1,0.8,0.5,1
						c-0.5,0.2-1.4-0.4-0.8-0.6l0.1,0.1c0.1-1-1.8-0.1-1.8-0.8c-2.7,0.5-5.5,0.6-8,1.5l0.5,0.6l-0.9,0.3c-0.3-0.1-0.5-0.4,0.1-0.6
						c-0.5-0.3-0.9,0.7-0.9,0.9c-1.3,0.3,0.1-1-0.2-0.8l-0.5,0.3l0.1,0c-0.3,0.5-0.2,0.8-0.9,1.1c-0.5,0.1-0.4-0.3-0.6-0.2
						c0,0-0.1,0-0.3,0.1c0,0-0.3,0.1-0.5,0.3c-0.3,0.1-0.5,0.3-0.5,0.3l0.7,0.3c-0.3,0.5-1,0.5-0.2,0.8c-0.3-0.1-0.7,0-1.1,0.1
						c-0.4,0.2-0.9,0.5-1.3,0.8c-0.9,0.6-1.5,1.4-1.8,1.5c-0.3,0.8-0.7,1.3-1.4,1.9c0.3-0.1,0.8,0.2,0.3,0.8
						c-0.8-1.1-1.3,0.7-2.5,0.7c0.8-0.1-1.1,1.9,0.2,1.7c-0.4,0.5-0.5-0.2-1,0c-0.3,1.6-1.9,2.8-2.4,4.7c0.2,0.1,0.5-0.1,0.6,0.3
						c0,0-0.3,0.2-0.6,0.3c-0.3,0.2-0.6,0.3-0.6,0.3c0,0.4,0.9,0.6,0.1,1.1c0.2-0.1,0.4-0.1,0.4,0.1c-0.9,1.6-1.1,3.6-1.1,5.4
						c-0.1,1.9,0,3.7-0.7,5.7c0.3-0.6,0.4-0.2,0.4,0.2c0-0.3,0.4,0,0.7-0.1l-0.4,1.6c0.7,0.2,0.4,1.6,1,1.7l-0.2-0.5
						c0.9,0.4,1.4-1.2,2.4-1.3c-0.5-0.2-0.2-0.7,0-1.3c0.2-0.5,0.4-1.1-0.3-1.5c0.2-0.3,0.3,0.2,0.5,0c-0.4-0.2-0.6-0.6-0.4-1.2
						l0.1,0.1c-0.1-1.7,0.3-2.5,0.8-4.3l-0.5,0.1c0.1-0.4,0.3-0.5,0.4-0.6c-0.6-0.6-0.2,1.1-0.9,0.6c0.5-0.2,0.6-0.9,0.8-1.6
						c0.2-0.7,0.3-1.3,0.9-1.4c0.2-0.6-0.6,0-0.4-0.6l0.3-0.1l-0.3-0.3c0.2-0.4,0.6-0.5,0.8-0.4c-0.1,0.1,0,0.3,0,0.4
						c0.5-0.4,0.3-1.4,0.5-1.6l-0.4,0.5c0.3-1.7,1.5-3.4,1.9-5.1l-0.3,0c0.4-1.3,0.7-0.7,1.4-1.9l0,0.1c0-0.4,0.1-0.7,0.4-1
						c0,0.4,0.8-0.1,0.7,0.4c0.6-1.3,0.2-0.7,0.2-2l0.4,0.1c0-0.4-0.1-0.6,0.4-1.1c-0.2,0.6,0.7,0.1,0.5,0.9c0.8-0.2,1.1-0.6,1.3-1
						c0.3-0.4,0.5-0.7,1.1-0.4c0-0.6-0.3-0.6-0.7-0.4c-0.3,0.2-0.6,0.5-0.5,0.3c-0.5-0.1,0-1,0.5-1.1c0.4-0.2,1.4,0.7,2.4,0.1
						c-0.1,0-0.1,0.1-0.2,0.2c0.5,0,0.6-0.7,1.3-0.5c0-0.7,0.6-0.2,0.4-1c0,0-0.2,0.2-0.5,0.3c-0.2,0.2-0.5,0.3-0.5,0.3
						c0.5-0.4,0.6-1.5,1.8-1.5c0,0.2-0.2,0.5-0.4,0.7c0.4,0.1,0.5-0.4,0.9-0.2c0.2,0.8-1.2,0.6-1.5,1.5c0.4,0.2,0.9-1,0.9-0.1
						c0-1.2,1.1-0.3,1.6-1.3l0.1,0.5c0.1-0.1,0.3-0.4,0.5-0.5l-0.2,0.7c0.5-0.7,1.3,0.1,1.8-0.3c-1.2,0.4-0.4-0.5-1.1-0.7
						c1.4-1,1.2,0.9,2.9,0.3c-0.2,0.1-0.9-0.1-0.6-0.4c0.4,0,0.8,0.1,1.1,0.3c1.1-0.3-0.3-0.4,0.2-0.8c0.5,0.5,0.5-0.3,1-0.6
						l0.1,0.5c1.4,0.1,0.2-1.1,1.5-0.8l-0.4,0.7c0,0,0.2-0.1,0.3-0.1c0.2-0.1,0.3-0.1,0.3-0.1l-0.1,0.6c0.6-0.5,0.9-0.4,1.5-0.3
						c-0.2-0.3,0-0.9,0.6-0.9c0.4,0.3-0.2,0.5,0.6,0.4c-0.2,0.3-0.4,0.7-0.8,0.3c0,0.2-0.2,0.3-0.2,0.5c0.4,0.3,1.1,0,1.4,0
						c-0.1,0-0.3,0-0.3-0.1c0,0,0.3-0.2,0.6-0.3c0.3-0.2,0.6-0.3,0.6-0.3c0.2,0.2,0,0.3-0.1,0.5c0.2,0,0.4-0.3,0.8-0.3
						c-0.1,0.4-0.1,0.8-0.6,1c0,0,0.3-0.1,0.6-0.2c0.3-0.1,0.6-0.2,0.6-0.2c0.1,0.2,0.5,0.5,0.4,0.6c0.3,0.2,0.7,0,1.1-0.1
						c0.4-0.1,0.9-0.2,1.2,0c0.1-0.1,0.2-0.1,0.3-0.1c0.7,0.3,1.2,0.9,2.2,0.7l0.2,0.8c0.7,0.1-0.3-1.1,0.9-0.9c0.9,0.1,0,0.7,0.2,1
						c0.5-0.1,1.5-0.4,1.8,0.5C-1437.9-591-1438-591.2-1438.2-591.3z M-1432.6-585.2c-0.2-0.1-0.6-0.3-0.4-0.5
						C-1432.4-585.7-1432.6-585.5-1432.6-585.2z M-1431-571.6c-0.1-0.2,0-0.4,0.3-0.5C-1430.8-571.9-1430.8-571.8-1431-571.6z
						 M-1453.9-537.3C-1453.9-537.3-1453.9-537.3-1453.9-537.3C-1453.5-537.5-1453.6-537.4-1453.9-537.3z M-1454.6-536.7
						c0,0.1,0.1,0.1,0.1,0.2c-0.1-0.1,0-0.3,0.2-0.4C-1454.4-537-1454.5-537-1454.6-536.7z M-1464.4-594.2l0.2,0
						C-1464.5-593.9-1464.5-594-1464.4-594.2z"/>
					<path id="XMLID_433_" class="st9" d="M-1431.3-573.3c0.1,0,0.2,0,0.3,0C-1431-573.4-1431.1-573.4-1431.3-573.3z"/>
					<path id="XMLID_432_" class="st9" d="M-1443.2-592.9L-1443.2-592.9C-1443.3-592.9-1443.3-592.9-1443.2-592.9L-1443.2-592.9z"/>
					<path id="XMLID_431_" class="st9" d="M-1448.4-549.6c0.2-0.1,0.3-0.1,0.4-0.1C-1448-549.7-1448.2-549.7-1448.4-549.6z"/>
					<path id="XMLID_430_" class="st9" d="M-1456.4-532.6l0.2-0.5c-0.1,0.2-0.3,0.3-0.4,0.3
						C-1456.5-532.7-1456.3-532.7-1456.4-532.6z"/>
					<path id="XMLID_429_" class="st9" d="M-1461.3-529.8c0,0.1-0.1,0.2-0.1,0.3l0.2,0.1C-1461-529.8-1461.1-530.1-1461.3-529.8z"/>
					<path id="XMLID_428_" class="st9" d="M-1458-533c-0.4-0.2-0.4,0.2-0.6,0.6c0,0,0,0,0-0.1C-1458.1-532.1-1458.1-532.5-1458-533z
						"/>
					<path id="XMLID_427_" class="st9" d="M-1458.6-532.3c0,0.1-0.1,0.2-0.2,0.3C-1458.6-531.8-1458.7-532.1-1458.6-532.3z"/>
					<path id="XMLID_426_" class="st9" d="M-1455-535.7c-0.2,0.1,0.4,0.4,0.2,0.4C-1454.5-534.9-1454.6-536.6-1455-535.7z"/>
					<polygon id="XMLID_425_" class="st9" points="-1459.3,-533.4 -1458.8,-533.2 -1459.1,-533.6 					"/>
					<path id="XMLID_424_" class="st9" d="M-1457.3-535.8l-0.5,0.4c0.1,0,0.1,0.1,0.1,0.2C-1457.5-535.5-1457.2-535.8-1457.3-535.8z
						"/>
					<path id="XMLID_423_" class="st9" d="M-1457.8-535.1c-0.1,0.2-0.2,0.3-0.2,0.5C-1457.9-534.8-1457.8-535-1457.8-535.1z"/>
					<polygon id="XMLID_422_" class="st9" points="-1459,-534.2 -1458.8,-534.3 -1458.6,-534.7 					"/>
					<path id="XMLID_421_" class="st9" d="M-1453.1-541.1l0.3-0.6c-0.1-0.2-0.3-0.1-0.4,0.1
						C-1453.2-541.4-1453.3-541.2-1453.1-541.1z"/>
					<path id="XMLID_420_" class="st9" d="M-1455.5-540.4c0.2-0.1,0.3,0,0.5,0l-0.5-0.4L-1455.5-540.4z"/>
					<path id="XMLID_419_" class="st9" d="M-1454.3-542.1c-0.1-0.2,0.3-1.1-0.3-0.4C-1454.5-542.3-1454.8-541.7-1454.3-542.1z"/>
					<polygon id="XMLID_418_" class="st9" points="-1446.4,-549.1 -1446.6,-549 -1445.8,-548.3 					"/>
					<path id="XMLID_417_" class="st9" d="M-1441.8-557.3c-0.7,0.4,0.3,0.6-0.4,0.9c0,0.3,0.6-0.3,0.6,0
						C-1441.4-556.9-1441.1-557-1441.8-557.3z"/>
					<path id="XMLID_416_" class="st9" d="M-1441.6-556.4c0,0.1,0,0.2-0.1,0.3C-1441.6-556.3-1441.6-556.4-1441.6-556.4z"/>
					<polygon id="XMLID_415_" class="st9" points="-1477.7,-564.3 -1477.8,-563.6 -1477.5,-564.1 					"/>
					<path id="XMLID_414_" class="st9" d="M-1476.7-563.4l-0.6,0.3l0.6,0.2C-1476.7-563-1476.8-563.2-1476.7-563.4z"/>
					<path id="XMLID_413_" class="st9" d="M-1433.4-583.5l0.2,0c0.1-0.1,0.1-0.2,0.1-0.4L-1433.4-583.5z"/>
					<polygon id="XMLID_412_" class="st9" points="-1435.9,-588.7 -1435.8,-588.7 -1435.5,-589.2 					"/>
					<path id="XMLID_411_" class="st9" d="M-1440.1-590.9c0.2,0.1,0.4,0.1,0.6,0.2C-1440-590.8-1439.9-591.6-1440.1-590.9z"/>
				</g>
			</g>
		</g>
	</g>
</g>
<g id="XMLID_205_">
	<g id="XMLID_523_">
		<g id="XMLID_527_">
			<g id="XMLID_528_">
				<g id="XMLID_529_">
					<path id="XMLID_616_" class="st9" d="M-1455.9-499.4c0,0-0.1-0.4-0.1-0.4C-1456-499.7-1455.9-499.3-1455.9-499.4z"/>
					<polygon id="XMLID_615_" class="st9" points="-1455.9,-498.4 -1456,-498.6 -1455.9,-498.1 					"/>
					<path id="XMLID_614_" class="st9" d="M-1456.2-498.3c0.2,0.7,0.1-0.1,0.2,0.1l0.1,0.2l-0.1-0.6
						C-1456.1-498.5-1456.1-498.1-1456.2-498.3z"/>
					<path id="XMLID_613_" class="st9" d="M-1456.8-499.7C-1456.7-499.5-1456.8-499.5-1456.8-499.7
						C-1456.8-499.7-1456.8-499.7-1456.8-499.7C-1456.8-499.7-1456.8-499.7-1456.8-499.7z"/>
					<path id="XMLID_612_" class="st9" d="M-1456.8-499.7C-1456.7-499.8-1456.9-500-1456.8-499.7L-1456.8-499.7z"/>
					<path id="XMLID_611_" class="st9" d="M-1456.9-499.5l0-0.2c-0.1-0.2-0.1-0.2-0.1-0.3C-1457-500-1457-499.8-1456.9-499.5z"/>
					<path id="XMLID_610_" class="st9" d="M-1456.7-499l0-0.1C-1456.8-499.2-1456.8-499.2-1456.7-499z"/>
					<path id="XMLID_609_" class="st9" d="M-1456.8-499.4l0,0.2c0,0.1,0.1,0.3,0-0.1C-1456.7-499-1456.8-499.2-1456.8-499.4z"/>
					<path id="XMLID_608_" class="st9" d="M-1456.7-499.3c0.1,0.1,0.1,0.2,0.2,0.5C-1456.5-498.9-1456.7-499.4-1456.7-499.3z"/>
					<path id="XMLID_607_" class="st9" d="M-1456-497.6l0.1,0.2L-1456-497.6C-1455.9-497.5-1456.1-497.8-1456-497.6z"/>
					<path id="XMLID_606_" class="st9" d="M-1457.2-499.8c0,0.1,0.1,0.4,0.2,0.6l0-0.2C-1457.1-499.5-1457.1-499.6-1457.2-499.8z"/>
					<path id="XMLID_605_" class="st9" d="M-1457-499.3l0,0.3C-1456.9-499-1457-499.1-1457-499.3z"/>
					<polygon id="XMLID_604_" class="st9" points="-1456.5,-498.3 -1456.6,-498.8 -1456.5,-498.3 					"/>
					<polygon id="XMLID_603_" class="st9" points="-1457.4,-499.8 -1457.4,-500.2 -1457.3,-499.6 					"/>
					<path id="XMLID_602_" class="st9" d="M-1457.4-499.7c-0.1-0.3-0.2-0.5-0.2-0.6c0,0.1,0,0.3,0.1,0.5
						C-1457.6-500-1457.5-499.9-1457.4-499.7z"/>
					<path id="XMLID_601_" class="st9" d="M-1457.5-499.5c0-0.1,0-0.2,0-0.3C-1457.6-499.8-1457.5-499.7-1457.5-499.5z"/>
					<path id="XMLID_600_" class="st9" d="M-1457.1-499.1c0-0.1-0.1-0.3-0.2-0.4L-1457.1-499.1L-1457.1-499.1z"/>
					<path id="XMLID_599_" class="st9" d="M-1457.1-499L-1457.1-499C-1457.1-499.1-1457.1-499.1-1457.1-499
						C-1457.1-499.1-1457.1-499.1-1457.1-499z"/>
					<path id="XMLID_598_" class="st9" d="M-1457.1-499.1L-1457.1-499.1C-1457.1-499-1457.1-499-1457.1-499.1z"/>
					<path id="XMLID_597_" class="st9" d="M-1456.8-498.6c0,0.2,0.1,0.5,0.2,0.8C-1456.6-498.1-1456.7-498.3-1456.8-498.6z"/>
					<path id="XMLID_596_" class="st9" d="M-1456.9-498.5L-1456.9-498.5c0,0,0-0.2,0-0.3L-1456.9-498.5z"/>
					<polygon id="XMLID_595_" class="st9" points="-1456.9,-498.4 -1456.9,-498.5 -1456.9,-498.6 					"/>
					<path id="XMLID_594_" class="st9" d="M-1457.3-499.1c0,0.2,0,0.2,0,0.2c0,0.1,0.1,0.1,0.1,0.1
						C-1457.3-498.9-1457.3-499.2-1457.3-499.1z"/>
					<path id="XMLID_593_" class="st9" d="M-1457.2-499.1L-1457.2-499.1C-1457.2-499-1457.2-499-1457.2-499.1z"/>
					<path id="XMLID_592_" class="st9" d="M-1457.6-498.8C-1457.6-498.8-1457.6-498.8-1457.6-498.8L-1457.6-498.8L-1457.6-498.8z"/>
					<path id="XMLID_591_" class="st9" d="M-1457.2-498.7c0,0.1,0,0,0-0.2C-1457.2-498.8-1457.2-498.8-1457.2-498.7
						C-1457.2-498.7-1457.2-498.7-1457.2-498.7z"/>
					<path id="XMLID_590_" class="st9" d="M-1457.5-499.3c0,0.1,0.1,0.2,0.1,0.2C-1457.5-499.2-1457.6-499.4-1457.5-499.3z"/>
					<path id="XMLID_589_" class="st9" d="M-1457.2-499.1C-1457.2-499.2-1457.2-499.2-1457.2-499.1
						C-1457.3-499.3-1457.3-499.2-1457.2-499.1z"/>
					<path id="XMLID_588_" class="st9" d="M-1457.2-499.1c0,0.1,0,0.2,0,0.3c0,0,0-0.1,0-0.1
						C-1457.2-499.1-1457.2-499.1-1457.2-499.1z"/>
					<path id="XMLID_587_" class="st9" d="M-1457-496.2c-0.1-0.4-0.1-0.8,0-0.4c0-0.3-0.4-1.5-0.6-2.2c0,0.2,0.1,0.3,0.1,0.6
						c0.1,0.2,0.2,0.5,0.3,0.8c0,0.2-0.1-0.1-0.2-0.3c0.2,0.5,0.1,0.7,0.3,1.4l0-0.3C-1457-496.4-1457-496.3-1457-496.2z"/>
					<path id="XMLID_586_" class="st9" d="M-1457.5-498.8L-1457.5-498.8c0-0.1-0.1-0.3-0.2-0.6c0,0.2,0.1,0.3,0.1,0.5L-1457.5-498.8
						L-1457.5-498.8z"/>
					<path id="XMLID_585_" class="st9" d="M-1457.4-498.8c0.1,0.4,0.1,0.6,0.2,1.1c0,0-0.1-0.4-0.1-0.5
						C-1457.2-498.2-1457.2-498.6-1457.4-498.8C-1457.4-498.9-1457.3-498.9-1457.4-498.8c0-0.1,0-0.2-0.1-0.3l0,0l0,0l0,0
						c0,0.1,0,0.1,0,0.1c0,0,0,0,0,0C-1457.4-498.9-1457.4-498.9-1457.4-498.8c0-0.1,0-0.1,0-0.2l0-0.1l0,0L-1457.4-498.8
						C-1457.4-498.8-1457.4-498.8-1457.4-498.8z"/>
					<path id="XMLID_584_" class="st9" d="M-1456.3-496.9C-1456.3-496.9-1456.4-496.9-1456.3-496.9
						C-1456.4-496.9-1456.3-496.9-1456.3-496.9z"/>
					<path id="XMLID_583_" class="st9" d="M-1456.4-497.1c0-0.1-0.1-0.2,0-0.2c0.1,0.1,0.1,0.2,0.1,0.3c0-0.1,0-0.3-0.1-0.5l0,0.1
						c-0.1-0.1-0.3-0.6-0.3-0.7C-1456.7-497.7-1456.6-497.5-1456.4-497.1z"/>
					<path id="XMLID_582_" class="st9" d="M-1456.9-497.9l0,0.2l0.1,0.3l-0.1-0.2C-1456.8-497.4-1456.8-497.7-1456.9-497.9z"/>
					<polygon id="XMLID_581_" class="st9" points="-1457.6,-499.1 -1457.7,-499.5 -1457.6,-498.9 					"/>
					<polygon id="XMLID_580_" class="st9" points="-1457.7,-499 -1457.8,-499.4 -1457.8,-499.1 					"/>
					<path id="XMLID_579_" class="st9" d="M-1462.7-493.2l0,0.1C-1462.7-493.1-1462.7-493.1-1462.7-493.2z"/>
					<path id="XMLID_578_" class="st9" d="M-1462.6-493.1l0-0.2C-1462.6-493.2-1462.6-493.2-1462.6-493.1z"/>
					<path id="XMLID_577_" class="st9" d="M-1460.1-498.4c-0.1-0.4-0.2-0.9-0.2-0.5L-1460.1-498.4
						C-1460.1-498.5-1460.1-498.5-1460.1-498.4z"/>
					<path id="XMLID_576_" class="st9" d="M-1461.3-495.6c0,0,0,0.1,0,0.1c0-0.1,0-0.3,0-0.4
						C-1461.3-495.8-1461.3-495.7-1461.3-495.6z"/>
					<path id="XMLID_575_" class="st9" d="M-1461.1-493.8l-0.1-0.3C-1461.2-494-1461.2-493.9-1461.1-493.8z"/>
					<path id="XMLID_574_" class="st9" d="M-1463.7-492.6l0,0.4C-1463.7-492.2-1463.7-492.4-1463.7-492.6z"/>
					<path id="XMLID_573_" class="st9" d="M-1458.7-498.6c-0.1-0.2-0.1-0.2-0.1-0.2C-1458.7-498.6-1458.6-498.2-1458.7-498.6z"/>
					<path id="XMLID_572_" class="st9" d="M-1463.1-497.8c0,0.1,0,0.2,0,0.3C-1463-497.6-1463-497.6-1463.1-497.8z"/>
					<path id="XMLID_571_" class="st9" d="M-1458.9-498.8C-1458.8-498.8-1458.8-498.7-1458.9-498.8
						C-1458.8-498.8-1458.8-498.8-1458.9-498.8C-1458.8-499-1458.9-499.1-1458.9-498.8z"/>
					<path id="XMLID_570_" class="st9" d="M-1467.4-493C-1467.4-493-1467.4-493-1467.4-493C-1467.4-493-1467.4-493-1467.4-493z"/>
					<path id="XMLID_569_" class="st9" d="M-1468.1-497.4C-1468.1-497.4-1468.1-497.4-1468.1-497.4
						C-1468.1-497.5-1468.1-497.5-1468.1-497.4z"/>
					<path id="XMLID_568_" class="st9" d="M-1458.1-499.1C-1458.1-499.1-1458.2-499.1-1458.1-499.1L-1458.1-499.1z"/>
					<path id="XMLID_567_" class="st9" d="M-1457.6-497.4c0,0,0,0.1,0,0.2C-1457.6-497.3-1457.6-497.4-1457.6-497.4z"/>
					<path id="XMLID_566_" class="st9" d="M-1458.5-496.1L-1458.5-496.1C-1458.5-496-1458.5-496.1-1458.5-496.1z"/>
					<path id="XMLID_565_" class="st9" d="M-1458.1-498.9c0,0,0-0.1-0.1-0.1C-1458.1-499-1458.1-498.9-1458.1-498.9z"/>
					<path id="XMLID_564_" class="st9" d="M-1458.1-499.1C-1458.1-499.1-1458.1-499-1458.1-499.1
						C-1458.1-499.1-1458.1-499.2-1458.1-499.1z"/>
					<path id="XMLID_563_" class="st9" d="M-1458.2-499C-1458.2-499-1458.1-499-1458.2-499C-1458.1-499-1458.1-499-1458.2-499
						C-1458.2-499.1-1458.2-499-1458.2-499z"/>
					<path id="XMLID_562_" class="st9" d="M-1465.4-494.1C-1465.4-494.1-1465.5-494.1-1465.4-494.1
						C-1465.5-494-1465.5-494-1465.4-494.1z"/>
					<path id="XMLID_561_" class="st9" d="M-1459.9-493.9C-1459.9-493.9-1459.9-493.9-1459.9-493.9
						C-1459.9-493.9-1459.9-493.9-1459.9-493.9L-1459.9-493.9z"/>
					<path id="XMLID_560_" class="st9" d="M-1459.9-493.5c-0.1-0.5,0-0.5,0-0.4l-0.2-1.2L-1459.9-493.5z"/>
					<path id="XMLID_553_" class="st9" d="M-1463.2-493l0.1,0.4c0,0.6-0.1,0.4,0,1c-0.1-1.4,0.2-0.2,0.1-1.5l0.1,0.3
						c0,0,0,0.1,0,0.1c0.1,0.6,0-1,0.1-0.8c0,0.1,0.1,0.3,0.1,0.5l0-0.3c0,0,0,0.3,0,0.2l0.1-0.1l0,0c0-0.2,0-0.5,0-0.7
						c0,0.2,0,0.1,0,0.3l0-0.3c0.1,0.3,0,0.7,0,0.6c0.2,1.3,0-0.3,0.2,0.4l0,0.2c0.1,0.8,0.1,0.5,0.3,1c0-0.2-0.3-1.2-0.2-1.5
						c0,0.1,0.1,0.1,0.1-0.1c0,0.5,0.1,0.4,0.1,0.3l0.1,0.6c0-0.2,0-0.5,0-0.8c0.1,0.1,0.1,0.5,0.2,1c0.1,0.1-0.1-0.8-0.1-0.9
						c0.1,0.2,0.1,0,0.2-0.4c0.1,0.2,0,0.4,0.1,0.6l0-0.5c0,0,0,0.2,0,0.2c0-0.2-0.1-0.6,0-0.8c-0.1-0.7,0.2,1,0.2,0.2
						c0,0.2,0,0.4,0.1,0.6c0-0.5,0-0.4,0-1.1l0.1,0.4c-0.1-0.5-0.1-1-0.1-1.5c0-0.2-0.1-0.4-0.1-0.5l0-0.4c0,0.1,0,0.3,0.1,0.6
						c0-0.1,0-0.1,0-0.2c0.1,0.2,0.1,0.6,0.1,1c0-0.1-0.1-0.3-0.1-0.4c0,0.4,0.1,0.8,0.1,1.2c0-0.1,0-0.1,0-0.2c0,0.1,0,0.2,0,0.3
						c0,0.1,0-0.1,0-0.2l0.1,0.7l0-0.3l0.2,0.4c0-0.7-0.1-1.8,0-2.1c0,0.5,0.1,0.8,0.2,1.5c-0.1-0.6-0.1,0.3-0.2,0.2
						c0,0.1,0.1,0.4,0.1,0.5l0-0.6c0.1,0.5,0.1,0.4,0.1,0.6c-0.2-1,0-0.7,0-1c0.1,0.3,0.1,0.7,0,0.6c0.2,0.7-0.1-1.2,0.1-0.6
						c0,0,0,0,0,0.1c0-0.3,0.1-0.1,0.1,0.2l0,0c0.1,0.1,0.3,0,0.2-0.9c0,0.1,0.1,1,0.2,1.2l-0.3-2.9c0.1,0.7,0.4,2.4,0.4,2.9
						c0,0.1,0.1,0.2,0.1,0c0-0.1-0.2-1-0.2-1.1c0.2,0.8,0.1,0.4,0.3,1.1c-0.1-0.2-0.2-1.3-0.2-1.3c0,0.2,0.2,1.1,0.2,1.2l-0.1-1.1
						c0,0.2,0.2,0.9,0.2,1.2c0-0.2,0.1,0,0.1-0.1l-0.1-0.2c0.1,0.1-0.2-1.6-0.1-1.5c0,0.2,0.2,1.4,0.3,1.5c-0.1-0.6-0.4-2.7-0.4-3.2
						l0.1,0.3l0-0.4c0.1,0.9,0.3,2.7,0.4,3.4c0.1,0.2,0.1,0.4,0.1,0.3c0.1,0.3,0.1,0.5,0,0.5l0.2,0.2c-0.1-0.7,0-0.7-0.1-1.2l0,0.7
						c-0.1-0.7-0.3-1.9-0.1-1.8c0.1,0.3,0.2,1.2,0.3,1.4c0-0.2,0-0.5,0.1-0.3l0,0.4c0.1,0.2-0.1-0.9,0.1-0.3c0,0,0.2,0.8,0.2,0.4
						c-0.2-0.7-0.7-3.1-0.8-3.6c0,0,0.3,0.7,0.4,1.1c0.2,0.6,0.2,1.4,0.4,1.9c0-0.2-0.1-0.4-0.1-0.5c0.1,0.1,0.1,0.6,0.1,0.5
						c-0.1-0.7,0.1,0-0.1-0.6c0-0.2,0.1,0.1,0.1,0.1c-0.1-0.4-0.3-1.5-0.2-1.7c0,0.2,0.1,0.4,0.1,0.5c0.1,0,0.2,0.3,0.3,0.3
						c0,0.2,0.1,0.3,0.2,0.6c0-0.1-0.1-0.3,0-0.4c0.2,0.6,0,0.1,0.2,0.8c-0.1-0.4,0-0.6-0.1-0.8c-0.1-0.6-0.1-0.1-0.1,0.2
						c-0.2-0.8-0.3-1.7-0.3-2.1c0-0.2,0.2,0.5,0.1,0.4c0.2,0.1-0.2-1.5,0-0.9c0.2,0.5,0.3,1,0.4,1.4c0,0.2-0.2-0.3-0.2-0.3l0.1,0.2
						c0,0.2,0,0.3,0,0.2c0.2,0.5,0.3,0,0.5,0.4c0-0.2,0-0.4-0.1-0.6l0,0.1c-0.1-0.4-0.1-0.6-0.2-0.8c0-0.3-0.1-0.8,0-0.6l0.2,0.6
						c0-0.2-0.1-0.3-0.1-0.2c0-0.3,0.3,0.8,0.1,0l-0.2-0.4c0-0.3-0.1-1,0-0.8c-0.2-0.6,0,0.1-0.2-0.6c0.3,0.8-0.2,0,0.1,0.9
						c-0.2-0.8-0.2-0.3-0.4-1c0.1,0.2,0.1,0.4,0,0.3c0,0.1,0,0.1,0,0.2l0,0l0,0c0,0,0,0,0,0c0,0.1,0.1,0.2,0.1,0.3
						c0.1,0.5,0,0.5,0,0.7c-0.1-0.1,0-0.2-0.1-0.4l0,0.4c-0.1-0.4-0.3-0.7-0.2-1l-0.1,0c-0.1-0.2-0.2-0.3-0.2-0.1c0-0.1,0,0.5,0,0.2
						l0,0.3l0-0.1c-0.1,0,0,0.8-0.3,0c0,0.1,0,0.3-0.1,0.1l-0.1-0.4c0,0.1-0.2-0.4-0.1,0c-0.3-1-0.2-0.2-0.3-0.4l0.1,0.5
						c-0.1,0-0.1,0.1-0.1,0.3l0.1,0.4c0,0.4-0.2-0.3-0.3-0.2c0-0.2,0-0.1,0,0c-0.3-1-0.1,0.8-0.3,0.1c0,0.2,0,0.1-0.1,0c0,0,0,0,0,0
						c0,0,0,0,0,0c0-0.1-0.1-0.2-0.1-0.2c0,0.1,0.1,0.2,0.1,0.2c0,0,0,0.1,0,0.2l-0.1-0.5c0,0,0,0,0,0c-0.1-0.2,0,0.2,0.1,0.6
						c0,0.1,0,0.2,0,0.3c-0.2-0.8,0,0.3-0.2-0.5c0.1,0.4-0.1,0.3,0.1,1.2c0-0.1,0-0.2,0-0.2c0-0.1-0.1-0.2-0.1,0.1l-0.1-0.6l0.1,0.8
						c-0.1-0.4-0.2-0.6-0.2-1c0,0.7,0,0.3,0,1l-0.1-0.4c0,0,0,0.6-0.1,0.2c-0.2-0.7-0.3-0.1-0.6-0.7c0.2,1.1-0.1-0.5,0,0.4
						c0-0.3-0.1-0.4-0.1-0.7c0,0.3-0.2-0.4-0.1,0.3c0-0.3,0-0.4-0.1-0.6c0,0.1,0,0.2,0,0.1c0-0.2,0-0.2,0-0.4
						c-0.1,0.1,0,0.9,0.1,1.7c-0.1-0.4-0.1-0.3-0.1,0.2c0-0.3-0.1-0.5-0.1-0.6c0,0-0.2-0.4-0.2,0.3c0-0.2,0,0,0,0
						c-0.1,0-0.1-0.1-0.1,0l0,0.1c0.1,0.8,0,0.2-0.1,0.3l0-0.1c-0.2-0.5,0,0.3-0.2-0.3l0.1,0.5c0.1,1-0.2-0.6-0.2-0.2l0.1,0.3
						c0,0.4-0.3-1.4-0.3-1.5c0-0.1,0-0.1,0-0.2c-0.2-0.6,0,0.6,0,0.8c0-0.3-0.1-0.9-0.1-0.9c0-0.3,0,1.1-0.2,0.5
						c0,0.3,0.1,0.5,0.1,0.7c0,0.1-0.2-1-0.2-0.1c0-0.1,0-0.1,0-0.2c0,0.2-0.1,0.4-0.1,0.8c-0.2-1.6-0.2,0.8-0.3-0.7l-0.1,0.1l0-0.2
						c-0.1-0.1-0.1,0.3-0.1,0.6c0-0.1,0-0.2,0-0.3c-0.1-0.3-0.1-0.2-0.2,0.5l0-0.5c0,0.3-0.2-0.8-0.3-0.2c0-0.1,0-0.2,0-0.2
						c-0.1,0.6-0.4-1.4-0.3,0.4l-0.1,0.4c0.1,0.1,0,0.8,0.1,1.1c0,0.1-0.1-0.5-0.1-0.6l0,0.1c0-0.9-0.2-0.3-0.2-1
						c-0.2,0.1-0.4-0.5-0.6-0.5l0,0.7l-0.1,0c0-0.2,0-0.6,0-0.5c0-0.4-0.1,0.3-0.1,0.5c-0.1-0.3,0-0.9,0-0.9l0,0.1l0,0.1
						c0,0.3,0,0.6-0.1,0.6c0-0.1,0-0.5,0-0.5c0-0.1,0-0.1,0,0l-0.1-0.1l0,0.6c0,0.3-0.1,0,0,0.6c-0.1-1-0.3-0.4-0.4-0.7
						c-0.1,0.4-0.1,0.4-0.2,0.4c0,0.1,0,0.8,0,0.7c0-1.3-0.1-0.6-0.1-1.5c0,0.6-0.2,0.2-0.1,1.1c0-0.1,0-0.5,0-0.8
						c-0.1,0.5-0.2-0.3-0.4-0.2c0,0.2,0,0.4,0,0.7l0-0.9c0,0.1-0.1,1-0.1,0.4c0,0.1,0,0.4,0,0.4c-0.2-0.9-0.6,0.7-0.8-1
						c0,0.3,0,0.4,0,0.4c0,0.1,0,0.4,0,0.7l-0.1-0.7c-0.1,0.7-0.1,0-0.2,0.7l0-0.1c-0.1,0.7-0.1,1.7-0.1,2.6
						c0.1-0.8,0.1,1.3,0.3,0.1c0,0.2,0,0.3,0,0.5c0.1-0.4,0.1-0.5,0.1-0.3l0,0.1c0.2-0.1,0.2,0.3,0.4,0.6l0-0.5c0,0.1,0,0.2,0,0.3
						c0.1-0.7-0.1,0,0-0.8c0,1,0.3,0,0.3,1.1c0.1,0,0-0.5,0.1-0.5l0,0.3l0-0.4c0,0.1,0,0.4,0,0.7c0,0,0,0.1,0,0.1
						c0,0.4,0.2-0.1,0.2,0l-0.1-0.2c0.2-0.3,0.4,0.1,0.5-0.5l0-0.2c0.1-0.4,0.1,0.2,0.2,0.1l0,0.1c0-0.2,0.1-0.3,0.1-0.3
						c0,0.3,0.1,0.5,0,0.8c0.1-0.4,0.1-0.3,0.2-1.2l0,0.4c0-0.3,0-0.5,0.1-0.6c-0.1,0.3,0,0.6,0,1c0.1,0.8,0.2-0.8,0.3,0.4
						c0.1-1-0.1-0.6-0.1-0.8c0-0.3,0.1-0.8,0.1-0.7c0,0,0.1,1.3,0.2,1.3c0,0,0,0.1,0,0.1c0,0.3,0.1-0.4,0.1,0.1c0-0.6,0.1,0,0.1-0.8
						l-0.1,0.2c0.1-0.2,0.1-1.1,0.2-0.7c0,0.2,0,0.4-0.1,0.5c0,0.2,0.1-0.2,0.1,0.1c0,0.8-0.1,0.2-0.2,0.8c0,0.3,0.1-0.6,0.1,0.3
						c0-1.1,0.1,0.1,0.2-0.7l0,0.5c0-0.1,0-0.3,0.1-0.3l0,0.6c0.1-0.5,0.1,0.5,0.2,0.2c-0.1,0,0-0.6-0.1-0.9c0.1-0.6,0.1,1.2,0.3,1
						c0,0.1-0.1-0.3-0.1-0.5c0,0.1,0.1,0.3,0.1,0.5c0.1-0.1,0-0.5,0-0.8c0.1,0.6,0.1-0.2,0.1-0.4l0,0.5c0.1,0.3,0-1,0.1-0.6l0,0.7
						l0.1-0.2l0,0.5c0.1-0.4,0.1-0.3,0.1-0.2c0-0.3,0-0.9,0-0.9c0,0.3,0,0.5,0.1,0.4c0,0.3,0,0.7-0.1,0.2c0,0.2,0,0.3,0,0.5
						c0.1,0.3,0.1,0.1,0.1,0.1c0,0,0,0,0-0.1l0.1-0.7c0,0.2,0,0.3,0,0.5c0-0.1,0-0.3,0.1-0.3c0,0.4,0,0.8,0,1l0.1-0.4
						c0,0.2,0.1,0.5,0.1,0.6c0.1,0.2,0.1-0.8,0.2-0.5c0-0.1,0-0.1,0-0.2c0.1,0.1,0.2,0.6,0.2,0l0.1,0.7c0.1-0.2-0.1-0.9,0-1.2
						c0.1-0.2,0.1,0.6,0.1,0.8C-1463.2-492.9-1463.2-493.7-1463.2-493C-1463.1-493-1463.2-493.1-1463.2-493z M-1462.3-493.4
						c0,0.1,0,0.4-0.1,0.1C-1462.4-493.8-1462.3-493.5-1462.3-493.4z M-1461.1-494.7C-1461.1-494.5-1461.1-494.6-1461.1-494.7
						C-1461.2-494.8-1461.1-494.8-1461.1-494.7z M-1458.3-498.6C-1458.3-498.6-1458.3-498.6-1458.3-498.6
						C-1458.3-498.8-1458.3-498.7-1458.3-498.6z M-1458.2-498.4c0-0.1,0-0.1,0-0.2C-1458.2-498.5-1458.2-498.5-1458.2-498.4
						C-1458.2-498.4-1458.2-498.3-1458.2-498.4z M-1465.7-497.3l0,0.1C-1465.7-497.1-1465.7-497.2-1465.7-497.3z"/>
					<path id="XMLID_552_" class="st9" d="M-1461.2-494c0-0.1,0-0.2,0-0.3C-1461.2-494.2-1461.2-494.1-1461.2-494z"/>
					<polygon id="XMLID_551_" class="st9" points="-1463.7,-492.7 -1463.7,-492.7 -1463.7,-492.6 					"/>
					<path id="XMLID_550_" class="st9" d="M-1458.4-494.2c0-0.1-0.1-0.1-0.1-0.2C-1458.5-494.3-1458.4-494.2-1458.4-494.2z"/>
					<path id="XMLID_549_" class="st9" d="M-1458-499.3l0,0.1c0,0,0,0.1,0.1,0.1C-1458-499.2-1458-499.3-1458-499.3z"/>
					<path id="XMLID_548_" class="st9" d="M-1456.8-496.5C-1456.9-496.6-1456.8-496.5-1456.8-496.5l-0.1-0.3
						C-1456.9-496.8-1456.9-496.6-1456.8-496.5z"/>
					<path id="XMLID_547_" class="st9" d="M-1457.6-497.8c0.1,0.4,0.1,0.3,0.1,0.2c0,0,0,0,0,0
						C-1457.6-498.2-1457.6-498-1457.6-497.8z"/>
					<path id="XMLID_546_" class="st9" d="M-1457.4-497.6C-1457.4-497.6-1457.4-497.7-1457.4-497.6
						C-1457.5-497.9-1457.4-497.7-1457.4-497.6z"/>
					<path id="XMLID_545_" class="st9" d="M-1458.1-498.7c0,0.1-0.1-0.5-0.1-0.3C-1458.3-499.6-1458.1-498.4-1458.1-498.7z"/>
					<polygon id="XMLID_544_" class="st9" points="-1457.2,-496.5 -1457.3,-497 -1457.3,-496.6 					"/>
					<path id="XMLID_543_" class="st9" d="M-1457.5-496.8l0.1,0.1C-1457.5-496.7-1457.5-496.8-1457.5-496.8
						C-1457.5-496.8-1457.6-496.9-1457.5-496.8z"/>
					<path id="XMLID_542_" class="st9" d="M-1457.5-496.8C-1457.5-496.8-1457.5-496.8-1457.5-496.8
						C-1457.5-496.9-1457.5-496.9-1457.5-496.8z"/>
					<polygon id="XMLID_541_" class="st9" points="-1457.2,-496.3 -1457.3,-496.4 -1457.3,-496.5 					"/>
					<path id="XMLID_540_" class="st9" d="M-1458.1-496.7l0,0.2c0,0.2,0.1,0.3,0.1,0.2C-1458.1-496.5-1458.1-496.6-1458.1-496.7z"/>
					<path id="XMLID_539_" class="st9" d="M-1457.6-495.4c0-0.1-0.1-0.2-0.1-0.4l0.1,0.6L-1457.6-495.4z"/>
					<path id="XMLID_538_" class="st9" d="M-1457.8-495.3c0,0.2,0,0.5,0.1,0.4C-1457.7-495-1457.7-495.1-1457.8-495.3z"/>
					<polygon id="XMLID_537_" class="st9" points="-1458.8,-495.8 -1458.8,-495.9 -1459,-496.9 					"/>
					<path id="XMLID_536_" class="st9" d="M-1459.2-493.3c0.1,0.2-0.1-0.6,0-0.3c0-0.2-0.1-0.2-0.1-0.4
						C-1459.3-493.8-1459.3-494-1459.2-493.3z"/>
					<path id="XMLID_535_" class="st9" d="M-1459.3-494.1c0,0,0-0.1,0-0.2C-1459.3-494.2-1459.3-494.1-1459.3-494.1z"/>
					<polygon id="XMLID_534_" class="st9" points="-1468.2,-498 -1468.3,-498.2 -1468.3,-497.8 					"/>
					<path id="XMLID_533_" class="st9" d="M-1468.4-497.2l0-0.6L-1468.4-497.2C-1468.4-497.3-1468.4-497.4-1468.4-497.2z"/>
					<path id="XMLID_532_" class="st9" d="M-1462-492.1l0-0.2c0-0.2,0-0.2-0.1-0.2L-1462-492.1z"/>
					<polygon id="XMLID_531_" class="st9" points="-1462.7,-492.5 -1462.7,-492.5 -1462.8,-493.1 					"/>
					<path id="XMLID_530_" class="st9" d="M-1463.3-491.7C-1463.2-491.7-1463.2-491.8-1463.3-491.7
						C-1463.2-491.7-1463.3-492.5-1463.3-491.7z"/>
				</g>
			</g>
		</g>
	</g>
</g>
<rect id="XMLID_636_" x="-482.3" y="-1224.1" class="st13" width="1405.1" height="215.2"/>
<ellipse id="XMLID_635_" class="st14" cx="49.7" cy="-1102.2" rx="107.7" ry="61.8"/>
<ellipse id="XMLID_634_" class="st15" cx="404.5" cy="-1122.4" rx="107.7" ry="61.8"/>
<ellipse id="XMLID_633_" class="st14" cx="296.8" cy="-1102.2" rx="107.7" ry="61.8"/>
<ellipse id="XMLID_632_" class="st16" cx="157.4" cy="-1079.4" rx="107.7" ry="61.8"/>
<path id="XMLID_1_" class="st2" d="M165.4-1118.9c-6.9-0.2-5.1-27-5.1-27s-12.8-5.6-14.9-9.5c-2.5-4.5-10.2-21.4-3.4-22.7
	c7.1-1.4,8.5,13.7,8.5,13.7l9.8,4.8c0,0-2-32.8,7.4-32.6c5.5,0.1,2.9,32.1,2.9,32.1l7.4-4.6c0,0,2-15.5,8.8-15.2
	c6.7,0.3-3.1,21.3-3.1,21.3l-11.6,13.1C172-1145.3,172.2-1118.7,165.4-1118.9z"/>
<path id="XMLID_300_" class="st2" d="M70-1142.8c-5.3-0.2-4-20.9-4-20.9s-9.9-4.4-11.6-7.4c-1.9-3.5-7.9-16.7-2.7-17.7
	c5.5-1.1,6.6,10.6,6.6,10.6l7.6,3.8c0,0-1.5-25.5,5.7-25.3c4.3,0.1,2.2,24.9,2.2,24.9l5.7-3.5c0,0,1.6-12,6.9-11.8
	c5.2,0.2-2.4,16.6-2.4,16.6l-9,10.2C75.2-1163.3,75.3-1142.6,70-1142.8z"/>
<path id="XMLID_303_" class="st2" d="M278.4-1136.5c-5.3-0.2-4-20.9-4-20.9s-9.9-4.4-11.6-7.4c-1.9-3.5-7.9-16.7-2.7-17.7
	c5.5-1.1,6.6,10.6,6.6,10.6l7.6,3.8c0,0-1.5-25.5,5.7-25.3c4.3,0.1,2.2,24.9,2.2,24.9l5.7-3.5c0,0,1.6-12,6.9-11.8
	c5.2,0.2-2.4,16.6-2.4,16.6l-9,10.2C283.5-1157,283.7-1136.3,278.4-1136.5z"/>
<path id="XMLID_385_" class="st2" d="M383.5-1168.8c-2.6-0.1-2-10.3-2-10.3s-4.9-2.2-5.7-3.6c-0.9-1.7-3.9-8.2-1.3-8.7
	c2.7-0.5,3.3,5.2,3.3,5.2l3.7,1.9c0,0-0.7-12.6,2.8-12.5c2.1,0.1,1.1,12.3,1.1,12.3l2.8-1.7c0,0,0.8-5.9,3.4-5.8
	c2.6,0.1-1.2,8.2-1.2,8.2l-4.4,5C386.1-1179,386.2-1168.8,383.5-1168.8z"/>
<rect id="XMLID_91_" x="-412.4" y="-1.6" class="st0" width="1267.7" height="230.4"/>
<ellipse id="XMLID_90_" class="st14" cx="49" cy="120.3" rx="107.7" ry="61.8"/>
<ellipse id="XMLID_89_" class="st15" cx="403.7" cy="100.1" rx="107.7" ry="61.8"/>
<ellipse id="XMLID_88_" class="st14" cx="296" cy="120.3" rx="107.7" ry="61.8"/>
<ellipse id="XMLID_87_" class="st16" cx="156.7" cy="143.1" rx="107.7" ry="61.8"/>
<polygon id="XMLID_84_" class="st5" points="75.6,75.6 73.2,75.6 74.4,32.4 "/>
<polygon id="XMLID_83_" class="st5" points="386.2,58.7 384.5,58.7 385.3,28 "/>
<polygon id="XMLID_82_" class="st5" points="386.2,58.7 384.5,58.7 385.3,28 "/>
<polygon id="XMLID_81_" class="st5" points="386.2,58.7 384.5,58.7 385.3,28 "/>
<polygon id="XMLID_80_" class="st5" points="386.2,58.7 384.5,58.7 385.3,28 "/>
<polygon id="XMLID_79_" class="st5" points="386.2,58.7 384.5,58.7 385.3,28 "/>
<polygon id="XMLID_77_" class="st5" points="386.2,58.7 384.5,58.7 385.3,28 "/>
<path id="XMLID_66_" class="st14" d="M156.6,111.9l-7.8,2c-3.6,1.3-22.5,4.5-25.5,2.2l0,0c-6.1-4.4-5.8-13.5,0.5-17.5l0,0
	c3.8-2.4,8.6-2.7,12.7-0.8l12.8,5.9c0,0-13.2-61.1,7.3-61.1c20.7,0,7.3,61.6,7.3,61.6l11.4-5.1c4.6-2.1,10-1.8,14.4,0.7l0,0
	c6.1,3.6,6.5,12.3,0.6,16.3l0,0c-3.3,2.2-19.8-0.3-23.5-1.7L156.6,111.9L156.6,111.9z"/>
<line id="XMLID_67_" class="st17" x1="145.5" y1="59.1" x2="169.4" y2="59.1"/>
<path id="XMLID_68_" class="st15" d="M75,76.9l-5.2,1.3c-2.4,0.8-15,3-17.1,1.5l0,0c-4.1-2.9-3.9-9,0.4-11.7l0,0
	c2.6-1.6,5.8-1.8,8.5-0.6l8.6,3.9c0,0-8.8-40.9,4.9-40.9c13.8,0,4.9,41.2,4.9,41.2l7.6-3.4c3.1-1.4,6.7-1.2,9.6,0.5l0,0
	c4.1,2.4,4.3,8.2,0.4,10.9l0,0c-2.2,1.5-13.3-0.2-15.7-1.1L75,76.9L75,76.9z"/>
<line id="XMLID_65_" class="st17" x1="67.6" y1="41.6" x2="83.5" y2="41.6"/>
<path id="XMLID_70_" class="st15" d="M280.8,80.6l-5.2,1.3c-2.4,0.8-15,3-17.1,1.5v0c-4.1-2.9-3.9-9,0.4-11.7v0
	c2.6-1.6,5.8-1.8,8.5-0.6l8.6,3.9c0,0-8.8-40.9,4.9-40.9c13.8,0,4.9,41.2,4.9,41.2l7.6-3.4c3.1-1.4,6.7-1.2,9.6,0.5v0
	c4.1,2.4,4.3,8.2,0.4,10.9l0,0c-2.2,1.5-13.3-0.2-15.7-1.1L280.8,80.6L280.8,80.6z"/>
<line id="XMLID_69_" class="st17" x1="273.4" y1="45.2" x2="289.3" y2="45.2"/>
<path id="XMLID_72_" class="st16" d="M386.3,59.9l-4,1c-1.8,0.7-11.5,2.3-13.1,1.2v0c-3.1-2.2-3-6.9,0.3-9l0,0
	c2-1.2,4.4-1.4,6.5-0.4l6.6,3c0,0-6.8-31.4,3.8-31.4c10.6,0,3.7,31.6,3.7,31.6l5.9-2.6c2.4-1.1,5.1-0.9,7.4,0.4v0
	c3.2,1.8,3.3,6.3,0.3,8.4v0c-1.7,1.2-10.2-0.1-12.1-0.9L386.3,59.9L386.3,59.9z"/>
<line id="XMLID_71_" class="st17" x1="380.6" y1="32.7" x2="392.8" y2="32.7"/>
<rect id="XMLID_246_" x="948.3" y="-1210.4" class="st5" width="1389.7" height="213.6"/>
<ellipse id="XMLID_245_" class="st18" cx="1459.6" cy="-1088.5" rx="107.7" ry="61.8"/>
<ellipse id="XMLID_244_" class="st19" cx="1814.3" cy="-1108.8" rx="107.7" ry="61.8"/>
<ellipse id="XMLID_243_" class="st18" cx="1706.6" cy="-1088.5" rx="107.7" ry="61.8"/>
<ellipse id="XMLID_242_" class="st20" cx="1567.3" cy="-1065.8" rx="107.7" ry="61.8"/>
<path id="XMLID_227_" class="st3" d="M1486.2-1163.9l2.5,6.3c0.8,2,0.6,4.2-0.5,6.1l-6.7,10.3l-7.6-18.5c-0.1-1.8,0.6-3.7,1.9-4.9
	l1.5-1.4C1480.1-1168.6,1484.7-1167.5,1486.2-1163.9z"/>
<polygon id="XMLID_226_" class="st15" points="1497.8,-1135.3 1495.4,-1135.3 1491.7,-1157.7 1482.9,-1168.5 1481.5,-1157.7 
	1482.3,-1170.1 1493.2,-1158.3 "/>
<path id="XMLID_223_" class="st3" d="M1694.2-1165.5l2.5,6.3c0.8,2,0.6,4.2-0.5,6.1l-6.7,10.3l-7.6-18.5c-0.1-1.8,0.6-3.7,1.9-4.9
	l1.5-1.4C1688.1-1170.2,1692.8-1169.1,1694.2-1165.5z"/>
<polygon id="XMLID_222_" class="st15" points="1705.8,-1136.9 1703.4,-1136.9 1699.7,-1159.3 1690.9,-1170.1 1689.5,-1159.3 
	1690.3,-1171.7 1701.2,-1159.9 "/>
<path id="XMLID_225_" class="st3" d="M1567.9-1165.1l4,10.3c1.3,3.3,1,7-0.8,10l-10.9,16.8l-12.5-30.2c-0.2-3,0.9-6,3.2-8l2.4-2.2
	C1558-1172.8,1565.6-1171.1,1567.9-1165.1z"/>
<polygon id="XMLID_224_" class="st15" points="1586.9,-1118.3 1583,-1118.3 1577,-1155.1 1562.5,-1172.7 1560.2,-1155.1 
	1561.5,-1175.3 1579.4,-1156 "/>
<path id="XMLID_229_" class="st3" d="M1794.3-1179.1l1.6,4.2c0.5,1.3,0.4,2.8-0.3,4l-4.4,6.8l-5-12.2c-0.1-1.2,0.4-2.4,1.3-3.2
	l1-0.9C1790.4-1182.2,1793.4-1181.5,1794.3-1179.1z"/>
<polygon id="XMLID_228_" class="st15" points="1802,-1160.2 1800.4,-1160.2 1798,-1175 1792.2,-1182.1 1791.2,-1175 1791.8,-1183.2 
	1799,-1175.4 "/>
<rect id="XMLID_259_" x="-318.1" y="-618.2" class="st21" width="431.7" height="105.5"/>
<ellipse id="XMLID_258_" class="st22" cx="-268.5" cy="-496.3" rx="107.7" ry="61.8"/>
<ellipse id="XMLID_257_" class="st23" cx="86.3" cy="-516.5" rx="107.7" ry="61.8"/>
<ellipse id="XMLID_256_" class="st22" cx="-21.4" cy="-496.3" rx="107.7" ry="61.8"/>
<ellipse id="XMLID_255_" class="st24" cx="-160.7" cy="-473.5" rx="107.7" ry="61.8"/>
<polygon id="XMLID_12_" class="st5" points="-41.3,-540.5 -44.2,-540.5 -42.8,-593.3 "/>
<polygon id="XMLID_8_" class="st5" points="-241.8,-541 -244.2,-541 -243,-584.3 "/>
<polygon id="XMLID_3_" class="st5" points="73.3,-567 71.6,-567 72.4,-597.7 "/>
<path id="XMLID_14_" class="st5" d="M-141.3-1036.3"/>
<path id="XMLID_13_" class="st5" d="M-143.1-1048.7"/>
<path id="XMLID_11_" class="st5" d="M-146.2-1059.1"/>
<path id="XMLID_10_" class="st5" d="M-145.1-1067"/>
<path id="XMLID_9_" class="st5" d="M-155.8-1068.7"/>
<path id="XMLID_7_" class="st5" d="M-166.6-1058.7"/>
<path id="XMLID_6_" class="st5" d="M-157.6-1043.5"/>
<path id="XMLID_2_" class="st5" d="M-147.8-1032.8"/>
</svg>
