<?xml version="1.0" encoding="utf-8"?>
<!-- Generator: Adobe Illustrator 19.0.0, SVG Export Plug-In . SVG Version: 6.00 Build 0)  -->
<svg version="1.1" id="Laag_1" xmlns="http://www.w3.org/2000/svg" xmlns:xlink="http://www.w3.org/1999/xlink" x="0px" y="0px"
	 viewBox="0 0 432 134" style="enable-background:new 0 0 432 134;" xml:space="preserve">
<style type="text/css">
	.st0{fill:#5F94CF;}
	.st1{fill:#5DA47C;}
	.st2{fill:#05915F;}
	.st3{fill:#8EB99B;}
	.st4{fill:#4CB8A4;}
	.st5{fill:#0F2E45;}
	.st6{fill:#D13981;}
	.st7{fill:#005184;}
	.st8{fill:#C5426E;}
	.st9{fill:#FFFFFF;}
	.st10{fill:#869CBC;}
	.st11{fill:#587FA7;}
	.st12{fill:#AFBBD2;}
	.st13{fill:#E1B470;}
	.st14{fill:#B2976E;}
	.st15{fill:#8E7B5D;}
	.st16{fill:#C4AF8F;}
	.st17{fill:#0F2E45;stroke:#0F2E45;stroke-miterlimit:10;}
	.st18{fill:#8B8C8C;}
	.st19{fill:#5F5F5E;}
	.st20{fill:#AFAFAF;}
	.st21{fill:#009FE3;}
	.st22{fill:#3AAA35;}
	.st23{fill:#009640;}
	.st24{fill:#7FC07B;}
</style>
<rect id="XMLID_52_" x="-3509.3" y="-12.1" class="st0" width="1341.7" height="206.5"/>
<ellipse id="XMLID_40_" class="st1" cx="-2981.2" cy="109.9" rx="107.7" ry="61.8"/>
<ellipse id="XMLID_43_" class="st2" cx="-2626.4" cy="89.6" rx="107.7" ry="61.8"/>
<ellipse id="XMLID_42_" class="st1" cx="-2734.1" cy="109.9" rx="107.7" ry="61.8"/>
<rect id="XMLID_46_" x="-3139" y="-280.8" class="st1" width="89.3" height="85.3"/>
<ellipse id="XMLID_41_" class="st3" cx="-2873.5" cy="132.6" rx="107.7" ry="61.8"/>
<rect id="XMLID_45_" x="-3030.9" y="-184.4" class="st4" width="89.3" height="85.3"/>
<rect id="XMLID_44_" x="-2805.2" y="-184.4" class="st5" width="89.3" height="85.3"/>
<rect id="XMLID_78_" x="-2685.4" y="-184.4" class="st6" width="89.3" height="85.3"/>
<rect id="XMLID_47_" x="-3139" y="-184.4" class="st3" width="89.3" height="85.3"/>
<rect id="XMLID_48_" x="-3030.9" y="-280.8" class="st2" width="89.3" height="85.3"/>
<rect id="XMLID_49_" x="-2802.8" y="-280.8" class="st7" width="89.3" height="85.3"/>
<rect id="XMLID_50_" x="-2918.1" y="-280.8" class="st0" width="89.3" height="85.3"/>
<rect id="XMLID_51_" x="-2922.3" y="-184.4" class="st8" width="89.3" height="85.3"/>
<path id="XMLID_54_" class="st1" d="M-2881.9,70.3l-5.8-10.1c-1.8-3.2-2.1-7.1-0.7-10.5l15.5-38.4L-2862,60c0.7,3.1-0.1,6.4-2,8.9
	l-2.2,2.7C-2870.4,76.8-2878.6,76.1-2881.9,70.3z"/>
<polygon id="XMLID_53_" class="st5" points="-2873.5,105.4 -2877.6,105.4 -2875.5,31 "/>
<path id="XMLID_56_" class="st1" d="M-2862,66.9l-5.8-10.1c-1.8-3.2-2.1-7.1-0.7-10.5l15.5-38.4l10.9,48.7c0.7,3.1-0.1,6.4-2,8.9
	l-2.2,2.7C-2850.5,73.4-2858.7,72.7-2862,66.9z"/>
<polygon id="XMLID_55_" class="st5" points="-2853.6,102 -2857.7,102 -2855.6,27.6 "/>
<path id="XMLID_60_" class="st1" d="M-2760,40.7l-4.1-7.2c-1.3-2.3-1.5-5-0.5-7.5l11-27.2l7.7,34.5c0.5,2.2,0,4.5-1.5,6.3l-1.5,1.9
	C-2751.9,45.3-2757.7,44.8-2760,40.7z"/>
<polygon id="XMLID_59_" class="st5" points="-2754,65.6 -2757,65.6 -2755.5,12.8 "/>
<path id="XMLID_58_" class="st1" d="M-2745.9,38.2l-4.1-7.2c-1.3-2.3-1.5-5-0.5-7.5l11-27.2l7.7,34.5c0.5,2.2,0,4.5-1.5,6.3
	l-1.5,1.9C-2737.8,42.8-2743.6,42.4-2745.9,38.2z"/>
<polygon id="XMLID_57_" class="st5" points="-2739.9,63.2 -2742.9,63.2 -2741.4,10.4 "/>
<path id="XMLID_64_" class="st1" d="M-2959.4,44.7l-3.4-5.9c-1.1-1.9-1.2-4.1-0.4-6.1l9-22.3l6.3,28.3c0.4,1.8,0,3.7-1.2,5.1
	l-1.3,1.6C-2952.8,48.5-2957.5,48.1-2959.4,44.7z"/>
<polygon id="XMLID_63_" class="st5" points="-2954.5,65.1 -2956.9,65.1 -2955.7,21.9 "/>
<path id="XMLID_62_" class="st1" d="M-2947.9,42.7l-3.4-5.9c-1.1-1.9-1.2-4.1-0.4-6.1l9-22.3l6.3,28.3c0.4,1.8,0,3.7-1.2,5.1
	l-1.3,1.6C-2941.2,46.5-2946,46.1-2947.9,42.7z"/>
<polygon id="XMLID_61_" class="st5" points="-2943,63.1 -2945.4,63.1 -2944.2,19.9 "/>
<rect id="XMLID_134_" x="-3509.3" y="593.8" class="st5" width="1373.5" height="210.8"/>
<ellipse id="XMLID_133_" class="st1" cx="-2981.2" cy="715.7" rx="107.7" ry="61.8"/>
<ellipse id="XMLID_132_" class="st2" cx="-2626.4" cy="695.5" rx="107.7" ry="61.8"/>
<ellipse id="XMLID_131_" class="st1" cx="-2734.1" cy="715.7" rx="107.7" ry="61.8"/>
<ellipse id="XMLID_130_" class="st3" cx="-2861.7" cy="742.8" rx="107.7" ry="61.8"/>
<path id="XMLID_125_" class="st0" d="M-2760,646.6l-4.1-7.2c-1.3-2.3-1.5-5-0.5-7.5l11-27.2l7.7,34.5c0.5,2.2,0,4.5-1.5,6.3
	l-1.5,1.9C-2751.9,651.1-2757.7,650.7-2760,646.6z"/>
<polygon id="XMLID_124_" class="st9" points="-2754,671.5 -2757,671.5 -2755.5,618.7 "/>
<path id="XMLID_121_" class="st0" d="M-2959.4,650.6l-3.4-5.9c-1.1-1.9-1.2-4.1-0.4-6.1l9-22.3l6.3,28.3c0.4,1.8,0,3.7-1.2,5.1
	l-1.3,1.6C-2952.8,654.3-2957.5,654-2959.4,650.6z"/>
<polygon id="XMLID_120_" class="st9" points="-2954.5,671 -2956.9,671 -2955.7,627.7 "/>
<path id="XMLID_203_" class="st0" d="M-2647.5,639.6l-2.4-4.2c-0.8-1.3-0.9-2.9-0.3-4.3l6.4-15.8l4.5,20.1c0.3,1.3,0,2.6-0.8,3.6
	l-0.9,1.1C-2642.7,642.3-2646.1,642-2647.5,639.6z"/>
<polygon id="XMLID_202_" class="st9" points="-2644,654.1 -2645.7,654.1 -2644.8,623.4 "/>
<path id="XMLID_234_" class="st1" d="M-2634.7,23.2l-2.4-4.2c-0.8-1.3-0.9-2.9-0.3-4.3l6.4-15.8l4.5,20.1c0.3,1.3,0,2.6-0.8,3.6
	l-0.9,1.1C-2630,25.9-2633.4,25.6-2634.7,23.2z"/>
<path id="XMLID_240_" class="st1" d="M-2642.9,24.6l-2.4-4.2c-0.8-1.3-0.9-2.9-0.3-4.3l6.4-15.8l4.5,20.1c0.3,1.3,0,2.6-0.8,3.6
	l-0.9,1.1C-2638.2,27.3-2641.6,27-2642.9,24.6z"/>
<polygon id="XMLID_239_" class="st5" points="-2639.5,39.1 -2641.2,39.1 -2640.3,8.4 "/>
<polygon id="XMLID_237_" class="st5" points="-2631.3,37.7 -2633,37.7 -2632.1,7 "/>
<rect id="XMLID_508_" x="-3509.3" y="1210.4" class="st8" width="1328" height="219.7"/>
<ellipse id="XMLID_507_" class="st10" cx="-3020.2" cy="1332.4" rx="107.7" ry="61.8"/>
<ellipse id="XMLID_506_" class="st11" cx="-2665.5" cy="1312.1" rx="107.7" ry="61.8"/>
<ellipse id="XMLID_505_" class="st10" cx="-2773.2" cy="1332.4" rx="107.7" ry="61.8"/>
<ellipse id="XMLID_504_" class="st12" cx="-2912.5" cy="1355.1" rx="107.7" ry="61.8"/>
<path id="XMLID_503_" class="st1" d="M-2921,1254l-5.8,10.1c-1.8,3.2-2.1,7.1-0.7,10.5l15.5,38.4l10.9-48.7c0.7-3.1-0.1-6.4-2-8.9
	l-2.2-2.7C-2909.5,1247.6-2917.7,1248.2-2921,1254z"/>
<polygon id="XMLID_502_" class="st5" points="-2912.5,1218.9 -2916.7,1218.9 -2914.6,1293.3 "/>
<path id="XMLID_499_" class="st1" d="M-2799.1,1283.7l-4.1,7.2c-1.3,2.3-1.5,5-0.5,7.5l11,27.2l7.7-34.5c0.5-2.2,0-4.5-1.5-6.3
	l-1.5-1.9C-2790.9,1279.1-2796.7,1279.5-2799.1,1283.7z"/>
<polygon id="XMLID_498_" class="st5" points="-2793.1,1258.7 -2796,1258.7 -2794.6,1311.5 "/>
<path id="XMLID_495_" class="st1" d="M-2998.5,1267.2l-3.4-5.9c-1.1-1.9-1.2-4.1-0.4-6.1l9-22.3l6.3,28.3c0.4,1.8,0,3.7-1.2,5.1
	l-1.3,1.6C-2991.8,1271-2996.6,1270.6-2998.5,1267.2z"/>
<polygon id="XMLID_306_" class="st5" points="-2993.6,1259.2 -2996,1259.2 -2994.8,1302.5 "/>
<path id="XMLID_305_" class="st1" d="M-2987,1281.6l-3.4,5.9c-1.1,1.9-1.2,4.1-0.4,6.1l9,22.3l6.3-28.3c0.4-1.8,0-3.7-1.2-5.1
	l-1.3-1.6C-2980.3,1277.9-2985,1278.2-2987,1281.6z"/>
<polygon id="XMLID_304_" class="st5" points="-2982,1261.2 -2984.4,1261.2 -2983.2,1304.4 "/>
<polygon id="XMLID_302_" class="st5" points="-2683,1270.7 -2684.7,1270.7 -2683.9,1240 "/>
<path id="XMLID_301_" class="st1" d="M-2678.3,1254.8l-2.4-4.2c-0.8-1.3-0.9-2.9-0.3-4.3l6.4-15.8l4.5,20.1c0.3,1.3,0,2.6-0.8,3.6
	l-0.9,1.1C-2673.6,1257.5-2677,1257.2-2678.3,1254.8z"/>
<polygon id="XMLID_298_" class="st5" points="-2683,1270.7 -2684.7,1270.7 -2683.9,1240 "/>
<path id="XMLID_297_" class="st1" d="M-2678.3,1254.8l-2.4-4.2c-0.8-1.3-0.9-2.9-0.3-4.3l6.4-15.8l4.5,20.1c0.3,1.3,0,2.6-0.8,3.6
	l-0.9,1.1C-2673.6,1257.5-2677,1257.2-2678.3,1254.8z"/>
<polygon id="XMLID_294_" class="st5" points="-2683,1270.7 -2684.7,1270.7 -2683.9,1240 "/>
<path id="XMLID_293_" class="st1" d="M-2678.3,1254.8l-2.4-4.2c-0.8-1.3-0.9-2.9-0.3-4.3l6.4-15.8l4.5,20.1c0.3,1.3,0,2.6-0.8,3.6
	l-0.9,1.1C-2673.6,1257.5-2677,1257.2-2678.3,1254.8z"/>
<polygon id="XMLID_290_" class="st5" points="-2683,1270.7 -2684.7,1270.7 -2683.9,1240 "/>
<path id="XMLID_289_" class="st1" d="M-2678.3,1254.8l-2.4-4.2c-0.8-1.3-0.9-2.9-0.3-4.3l6.4-15.8l4.5,20.1c0.3,1.3,0,2.6-0.8,3.6
	l-0.9,1.1C-2673.6,1257.5-2677,1257.2-2678.3,1254.8z"/>
<polygon id="XMLID_286_" class="st5" points="-2683,1270.7 -2684.7,1270.7 -2683.9,1240 "/>
<path id="XMLID_285_" class="st1" d="M-2678.3,1254.8l-2.4-4.2c-0.8-1.3-0.9-2.9-0.3-4.3l6.4-15.8l4.5,20.1c0.3,1.3,0,2.6-0.8,3.6
	l-0.9,1.1C-2673.6,1257.5-2677,1257.2-2678.3,1254.8z"/>
<g id="XMLID_204_">
	<g id="XMLID_404_">
		<g id="XMLID_408_">
			<g id="XMLID_409_">
				<g id="XMLID_410_">
					<path id="XMLID_520_" class="st9" d="M-2874,700.7c-0.1,0.2,0.4,0.2,0.4,0.2C-2873.6,700.6-2874.1,700.7-2874,700.7z"/>
					<polygon id="XMLID_519_" class="st9" points="-2874.5,696.9 -2874.4,697 -2874.7,696.4 					"/>
					<path id="XMLID_518_" class="st9" d="M-2873.9,693.4c-0.8,0.2-0.1,1.3-0.5,1.9l-0.2,0.1l0.5,0.4
						C-2874,695-2874.2,693.9-2873.9,693.4z"/>
					<path id="XMLID_494_" class="st9" d="M-2871.9,692c-0.3,0-0.1-0.4-0.2,0.4c0,0,0.1,0,0.1-0.1
						C-2872,692.2-2872,692.1-2871.9,692z"/>
					<path id="XMLID_493_" class="st9" d="M-2872,692.3C-2872.1,692.7-2871.8,692.1-2872,692.3L-2872,692.3z"/>
					<path id="XMLID_492_" class="st9" d="M-2871.8,690.6l0.1,0.5c0.2-0.1,0.3-0.4,0.4-0.3C-2871.2,690.4-2871.4,690.4-2871.8,690.6
						z"/>
					<path id="XMLID_491_" class="st9" d="M-2872.1,690.1l0,0.3C-2872,690.3-2872,690.2-2872.1,690.1z"/>
					<path id="XMLID_490_" class="st9" d="M-2872,690.9l-0.1-0.6c-0.1,0-0.4,0,0,0.3C-2872.3,690.5-2872.1,690.6-2872,690.9z"/>
					<path id="XMLID_489_" class="st9" d="M-2872.2,691.2c-0.2,0.2-0.4,0.5-0.5,0C-2872.9,692.1-2872.4,692.1-2872.2,691.2z"/>
					<path id="XMLID_488_" class="st9" d="M-2874.6,693.1l-0.3,0.3l0.2,0.4C-2874.8,693.6-2874.3,693.1-2874.6,693.1z"/>
					<path id="XMLID_487_" class="st9" d="M-2870.5,687.9c-0.1-0.1-0.4,0-0.6,0l0,0.4C-2870.9,688.2-2870.7,687.9-2870.5,687.9z"/>
					<path id="XMLID_486_" class="st9" d="M-2871.1,687.9l-0.1-0.6C-2871.4,687.8-2871.3,687.9-2871.1,687.9z"/>
					<polygon id="XMLID_485_" class="st9" points="-2872.9,689.8 -2872.6,690.8 -2872.8,689.6 					"/>
					<polygon id="XMLID_484_" class="st9" points="-2869.8,686.1 -2869.6,686.5 -2869.9,685.8 					"/>
					<path id="XMLID_483_" class="st9" d="M-2869.4,684.8c0.2,0.3,0.6-0.1,0.6,0.2c0.1-0.3,0-0.7-0.1-1.1
						C-2868.8,684.3-2869,684.5-2869.4,684.8z"/>
					<path id="XMLID_482_" class="st9" d="M-2868.9,683.4c0,0.2,0.1,0.4,0.1,0.6C-2868.8,683.8-2868.8,683.6-2868.9,683.4z"/>
					<path id="XMLID_481_" class="st9" d="M-2870.8,686.5c0.1,0,0.3,0,0.6-0.2l-0.5,0C-2870.8,686.4-2870.8,686.4-2870.8,686.5z"/>
					<path id="XMLID_480_" class="st9" d="M-2870.8,686.3L-2870.8,686.3c0.1-0.2,0.2-0.4,0.2-0.4
						C-2870.6,685.9-2870.6,686.1-2870.8,686.3z"/>
					<path id="XMLID_479_" class="st9" d="M-2870.8,686.5C-2870.8,686.5-2870.8,686.5-2870.8,686.5
						C-2870.9,686.5-2870.9,686.5-2870.8,686.5z"/>
					<path id="XMLID_478_" class="st9" d="M-2872.1,688.5c-0.1-0.4-0.2-1.1-0.7-0.6C-2872.6,688.2-2872.3,687.9-2872.1,688.5z"/>
					<path id="XMLID_477_" class="st9" d="M-2871.4,686.6l-0.3,0.5c0.1,0,0.3,0,0.4,0.2L-2871.4,686.6z"/>
					<polygon id="XMLID_476_" class="st9" points="-2871.5,686.3 -2871.4,686.6 -2871.3,686.4 					"/>
					<path id="XMLID_475_" class="st9" d="M-2869.7,684.1c-0.1-0.3,0-0.5,0.1-0.8c-0.2,0.3-0.4,0.5-0.5,0.8
						C-2870,684.2-2869.8,684.4-2869.7,684.1z"/>
					<path id="XMLID_474_" class="st9" d="M-2870.2,685.1L-2870.2,685.1C-2870.3,685.1-2870.3,685.1-2870.2,685.1z"/>
					<polygon id="XMLID_473_" class="st9" points="-2868.2,680.6 -2868.3,680.6 -2868.3,680.6 					"/>
					<path id="XMLID_472_" class="st9" d="M-2870.2,684.1c-0.2,0.2-0.1,0.4-0.1,0.5C-2870.2,684.5-2870.1,684.3-2870.2,684.1
						C-2870.1,684-2870.1,684-2870.2,684.1z"/>
					<path id="XMLID_471_" class="st9" d="M-2868.7,682.5c-0.1,0.1-0.3,0.2-0.4,0.3C-2869,682.8-2868.7,682.6-2868.7,682.5z"/>
					<path id="XMLID_470_" class="st9" d="M-2870.1,685.1C-2870.1,685.1-2870.1,685.1-2870.1,685.1
						C-2870,685.1-2870,685-2870.1,685.1z"/>
					<path id="XMLID_469_" class="st9" d="M-2870.1,685.1c0-0.1-0.1-0.3-0.1-0.4c0,0.2,0,0.3,0,0.4
						C-2870.2,685.1-2870.2,685.1-2870.1,685.1z"/>
					<path id="XMLID_468_" class="st9" d="M-2870.2,678.5c0.3,0.2,0.3,1-0.3,1.3c0,0.6,1.3,0.9,2.2,0.8c-0.1-0.1-0.3-0.2-0.2-0.8
						c-0.3,0.1-1,0.9-1.1,0.3c0.2-0.8,0.4-0.5,0.8-0.7c-0.6,0-0.2-1.2-0.9-1.4l-0.1,0.7C-2870,678.6-2870,678.3-2870.2,678.5z"/>
					<path id="XMLID_467_" class="st9" d="M-2868.8,681.5l-0.1,0.2c0.2-0.2,0.4-0.3,0.8-0.5c0-0.4-0.1-0.6-0.2-0.6
						c0,0-0.1,0.2-0.3,0.5C-2868.7,681.4-2868.8,681.6-2868.8,681.5L-2868.8,681.5z"/>
					<path id="XMLID_466_" class="st9" d="M-2869.4,682.7c-0.3-0.3-0.2-0.9-0.8-0.8c-0.3,0.6,0.1,0.6,0.1,1
						C-2869.7,681.8-2870,683.3-2869.4,682.7c-0.1,0.2-0.1,0.4-0.2,0.6c0.1-0.2,0.3-0.3,0.4-0.4l0,0l0,0l0,0c-0.1,0-0.1,0-0.1,0
						c0,0,0,0,0,0C-2869.3,682.8-2869.3,682.7-2869.4,682.7c0.2-0.2,0.1,0,0.1,0.1c0,0,0,0,0.1,0l0,0l0.3-1.1
						C-2869.1,681.9-2869.2,682.2-2869.4,682.7z"/>
					<path id="XMLID_465_" class="st9" d="M-2873.5,687.1c0,0,0.1,0,0.1,0C-2873.4,687-2873.4,686.9-2873.5,687.1z"/>
					<path id="XMLID_464_" class="st9" d="M-2873.1,686.7c0,0.1,0.2,0.2,0,0.5c-0.2,0.2-0.2-0.1-0.3-0.1c0.1,0.2,0.1,0.6,0.5,0.2
						l0-0.1c0.3-0.4,1-0.7,1-0.6C-2872.3,686.5-2872.6,686.5-2873.1,686.7z"/>
					<path id="XMLID_463_" class="st9" d="M-2871.3,684.5c0,0,0-0.2,0.1-0.5c0-0.2,0.1-0.5,0.1-0.5l-0.5,0.3l0.2,0.1
						C-2871.8,684.4-2871.5,684.4-2871.3,684.5z"/>
					<polygon id="XMLID_462_" class="st9" points="-2868,680.6 -2867.6,680.9 -2868,680.1 					"/>
					<polygon id="XMLID_461_" class="st9" points="-2867.5,679.5 -2867.2,679.8 -2867.2,679.4 					"/>
					<path id="XMLID_460_" class="st9" d="M-2844.7,621.7l-0.2-0.1C-2844.8,621.6-2844.7,621.7-2844.7,621.7z"/>
					<path id="XMLID_459_" class="st9" d="M-2843.7,623.1l0.2-0.1C-2843.6,623-2843.7,623-2843.7,623.1z"/>
					<path id="XMLID_458_" class="st9" d="M-2848,657.1c0.6-0.1,1.3,0,0.9-0.3l-0.4-0.2C-2847.6,656.9-2847.8,657-2848,657.1z"/>
					<path id="XMLID_457_" class="st9" d="M-2839.4,637.7c0,0-0.1,0.1-0.2,0.1c0.1,0.1,0.2,0.3,0.3,0.4
						C-2839.3,638-2839.3,637.9-2839.4,637.7z"/>
					<path id="XMLID_456_" class="st9" d="M-2841.1,637.1l0.4-0.4C-2840.8,636.7-2840.9,636.9-2841.1,637.1z"/>
					<path id="XMLID_455_" class="st9" d="M-2852.9,617.6l-0.4,0.4C-2852.8,618-2853,617.8-2852.9,617.6z"/>
					<path id="XMLID_454_" class="st9" d="M-2860.5,669.7c0.4-0.1,0.6-0.3,0.8-0.5C-2860.2,669.3-2860.7,669.3-2860.5,669.7z"/>
					<path id="XMLID_453_" class="st9" d="M-2840.6,619.4c-0.2-0.1-0.3-0.1-0.4-0.1C-2840.8,619.5-2840.7,619.5-2840.6,619.4z"/>
					<path id="XMLID_452_" class="st9" d="M-2859.1,668.5c-0.1,0-0.1,0-0.2,0.1c-0.1,0.2-0.2,0.5-0.5,0.7
						C-2859.4,669.1-2859.1,668.9-2859.1,668.5z"/>
					<path id="XMLID_451_" class="st9" d="M-2882,632.9C-2882.1,632.9-2882.1,632.9-2882,632.9C-2882.1,633-2882.1,633-2882,632.9z"
						/>
					<path id="XMLID_450_" class="st9" d="M-2887.2,644c0-0.1-0.1-0.3-0.1-0.5C-2887.3,643.6-2887.3,643.8-2887.2,644z"/>
					<path id="XMLID_449_" class="st9" d="M-2864.8,675.6C-2864.9,675.8-2864.8,675.7-2864.8,675.6L-2864.8,675.6z"/>
					<path id="XMLID_448_" class="st9" d="M-2866.9,675.7c0-0.1,0-0.1-0.1-0.2C-2867,675.5-2866.9,675.6-2866.9,675.7z"/>
					<path id="XMLID_447_" class="st9" d="M-2859.2,664.7L-2859.2,664.7C-2859.3,664.7-2859.3,664.7-2859.2,664.7z"/>
					<path id="XMLID_446_" class="st9" d="M-2865.2,675.8c0.1,0,0.2-0.1,0.3-0.2C-2865,675.6-2865,675.7-2865.2,675.8z"/>
					<path id="XMLID_445_" class="st9" d="M-2865,675.9c-0.1,0.1-0.1,0.1-0.2,0.2C-2865.1,676.1-2865.1,676.1-2865,675.9z"/>
					<path id="XMLID_444_" class="st9" d="M-2864.6,675.3c-0.1,0.1-0.2,0.2-0.3,0.3c0.1,0,0.1,0,0.1,0
						C-2864.8,675.6-2864.7,675.5-2864.6,675.3z"/>
					<path id="XMLID_443_" class="st9" d="M-2870.1,618C-2870.1,618-2870.2,618-2870.1,618C-2870.3,618.2-2870.3,618.2-2870.1,618z"
						/>
					<path id="XMLID_442_" class="st9" d="M-2847.1,649C-2847.1,649-2847.1,649-2847.1,649L-2847.1,649L-2847.1,649z"/>
					<path id="XMLID_441_" class="st9" d="M-2846.8,648.1c0.2,0.6,0,0.8-0.2,0.9l1.2,0.5L-2846.8,648.1z"/>
					<path id="XMLID_434_" class="st9" d="M-2847.9,619.2l0.2,0.6c-0.9,0.2-1.2-0.2-1,0.5c0.4-0.6,0.8-0.3,1.3-0.1
						c0.4,0.3,0.9,0.6,1.3,0.1l0.1,0.5c-0.1-0.1-0.1,0-0.2-0.1c0,1,1.1-0.4,1.6,0.5c0.1,0.3,0.1,0.6-0.1,0.6c0,0,0.7,0.4,0.7,0.4
						c0.1,0.2-0.1,0.3-0.2,0.1c0,0,0.2,0.2,0.4,0.4c0.2,0.2,0.4,0.4,0.4,0.4l0,0c0.3,0,0.7,0.2,1,0.2c0,0.4-0.2-0.1-0.3,0.1
						c0,0,0.6,0.4,0.6,0.4c-0.2,0.4-0.7,0.1-0.9-0.3c-0.4,0.6-0.3,0.7-0.1,0.8c0.2,0.1,0.6,0.3,0.5,1c0,0-0.4-0.5-0.4-0.5
						c-0.5,0.7-0.1,0.9-0.3,1.7c0.2-0.2,0.6-1.6,1.2-1.2c0,0.2,0,0.5,0.4,0.7c-0.5,0.2-0.2,0.5-0.1,0.9l-0.6,0.2
						c0.3,0.4,0.6,0.3,1,0.5c0.1,0.5-0.4,0.8-0.8,1c0.1,0.9,0.7-0.8,1,0.2c0,0.4,0,0.7,0.1,1c0.1,0.3,0.3,0.6,0.6,1.1
						c-0.2,0.5-0.4-0.1-0.6,0.1l0.5,0.4c0,0.1-0.2,0.1-0.2,0.1c0.2,0.4,0.6,0,0.8,0.6c0.4,0.1,0.1,0.4-0.1,0.8
						c-0.3,0.4-0.5,0.8-0.1,1.3c-0.2,0.2-0.4-0.1-0.6-0.1c0.4,1.1,0.3,0.9,0.9,1.9c0,0-0.1,0.2-0.3,0.3c-0.1,0.2-0.3,0.3-0.3,0.3
						c0.6-0.5,1,0.3,1.3,1.1c0.3-0.2,0.5-0.3,0.6-0.4c0,0,0,0.3,0.1,0.6c0,0.3,0,0.6,0,0.6c-0.1,0.1-0.3-0.1-0.5-0.3
						c0,0.1,0.1,0.2,0.1,0.2c-0.3,0.3-0.6,0-0.9-0.3c0.2-0.1,0.3-0.2,0.5-0.3c-0.3-0.3-0.7-0.7-1.1-0.7c0.1,0.1,0.1,0.2,0.1,0.4
						c-0.1-0.1-0.2-0.1-0.2-0.1c-0.1,0,0,0.1,0.2,0.3l-0.7,0l0.3,0.1c0,0-0.2,0.3-0.4,0.6c-0.2,0.3-0.4,0.5-0.4,0.5
						c0.4,1.1,1.1,2.2,0.8,3.8c-0.3-0.6-0.7-0.4-1.3-0.7c0.8-0.1,0.2-1.2,0.6-1.8c-0.2,0.3-0.5,0.2-0.5,0c0,0,0,0.4,0,0.7
						c0,0.4,0,0.7,0,0.7c-0.5-0.2-0.5,0.1-0.8,0.4c1,0.2,0.2,1.2,0.2,1.9c-0.3-0.1-0.6-0.4-0.2-1c-1,0.3,0.6,1.4-0.3,1.8
						c0.1-0.2,0.2-0.2,0-0.3c0.1,0.5-0.6,1.2-0.8,0.9l0.1-0.1c-0.6,0.9-1.8,2.9-1.2,3.5c-0.1-0.1-0.8-0.7-0.9-0.9
						c0,0,0.3,0.8,0.6,1.7c0.3,0.8,0.5,1.7,0.5,1.7c-0.5-0.6-2.3-1.1-2-2.1c-0.2,0.2-0.5,0.3-0.7,0.9c0.2-0.1,1.1,0.3,1,0.5
						c-1.1,0-0.6,0.1-1.7,0.3c0.3-0.1,1,0.8,0.7,1.2c-0.1-0.2-0.9-0.7-0.9-0.9l0.2,1.6c0-0.3-0.7-0.7-1.1-0.7c0.2,0.1-0.6,0.7-0.7,1
						l0.5-0.2c-0.9,0.8,0.4,2-0.5,2.8c-0.1-0.3-0.8-1.2-1.3-0.9c0.2,0.6,1.1,2.8,0.7,4l-0.4-0.1l-0.3,0.9c-0.2-1-0.5-3.3-0.5-4.4
						c-0.5,0.2-0.4-0.2-0.8,0.3c-0.4,0-0.1-0.6,0.1-0.8l-1.3,1c0.5,0.4-0.4,1.4,0,1.7l0.7-1.7c0.5,0.4,0.7,2.1-0.3,2.8
						c-0.4,0-0.7-1-0.9-1.1c0.1,0.3-0.5,1.1-0.7,1l0.1-0.6c-0.6,0.3-0.1,1.4-1.1,1.5c-0.2,0.2-1.2-0.1-0.9,0.3
						c0.9,0.2,2.6,1.9,2.8,2.5c-0.1,0-1.5,0.5-2,0.4c-0.7-0.1-0.5-1.5-1.2-1.6c0.1,0.1,0.1,0.5,0.1,0.6c-0.3,0.1-0.3-0.5-0.7,0
						c0.4,0.6-0.9,0.8,0.2,0.6c-0.3,0.6-0.6,0.4-1,0.9c0.5,0.2,0.6,1.5,0.3,2.1c-0.1-0.1-0.4-0.2-0.5-0.2c-0.9,0.8-1.6,1.1-2.4,1.9
						c-0.2,0-0.7,0.2-0.8-0.1c0,0.2,0,0.5-0.2,0.7c-0.9,0.1,0.5-0.7-0.4-0.7c0.3,0.3-0.2,1.1-0.4,1.6c0.6,0.3,0.9-0.8,1-1.3
						c0.6,0.6,0.7,1.8,0.2,3c-0.5,0.8-0.7,0-0.7,0.2c-1.3,1.3,0.2,2.1-1.2,2.8c-0.8,0.1-0.9-0.6-1.2-0.8c0.3-0.7,1-0.7,1.3-1.1
						l-0.6,0.3c0-0.3,0.2-0.8,0.5-0.9c-0.7,0.1-2,2.3-3.1,3.2c0,0.3-0.1,0.8,0.2,0.7l0.2-0.4c0.6-0.1,0,1,0.5,0.7
						c-0.1,0.7,0,1.4-0.7,2l-0.6-0.2c0.2,0.1,0.6-0.2,0.6-0.5c0.1,0.4-1.4,0.6-0.9,1.3l0.7-0.3c-0.1,0.6,0.2,1.6-0.4,2.1
						c0.7,0,0-0.2,0.9-0.2c-1-0.1,1-1.5-0.2-1.4c1,0,0.8-0.6,1.7-0.7c-0.2-0.1-0.5,0,0-0.4c0-0.1-0.1-0.1-0.1-0.2c0,0,0,0,0,0l0,0
						c0,0,0,0,0,0c-0.2,0.1-0.3,0.1-0.4,0.1c-0.2-0.5,0.3-1.3,0.3-1.7c0.3-0.2,0.1,0.3,0.4,0.2l0-0.6c0.4,0.2,1.2-0.3,0.9,0.5
						l0.5-0.6c0.5-0.2,0.9-0.6,1-1c0.3-0.2,0.2-1,0.2-0.5l0.5-1.1l0.1,0.1c0.8-0.8,1-2.3,2.5-2.7c0.2-0.4,0.4-0.8,0.9-1.1l0.4,0.2
						c0.3-0.5,1.3-0.8,1.2-1.3c1.1,0.3,1.9-1.6,2.7-2.1l-0.3-0.4c0.5-0.4,0.8-0.9,1.2-1.6l-0.3-0.3c0.2-0.7,1.5-1,2.2-1.8
						c0.1,0.2-0.2,0.3-0.4,0.4c1.6-0.2,1.4-2.4,2.7-2.8c0.1-0.3,0.3-0.4,0.5-0.5c0,0,0,0,0,0.1c0,0,0.1-0.1,0.1-0.1
						c0.1,0,0.3-0.1,0.5-0.1c-0.2,0-0.3,0-0.4,0.1c0.1-0.2,0.3-0.5,0.5-0.8l0.5,0.2c0,0,0,0,0-0.1c0.4-0.1,0-0.4-0.4-0.5
						c0.1-0.2,0.1-0.4,0.1-0.5c0.8,0.3,0.4-0.8,1.3-0.6c-0.1-0.4,0.9-1.5,0.3-2.2c0.1,0.1,0.2,0,0.1,0.2c0.3-0.2,0.6-0.5,0.6-0.9
						l0.6,0.3l-0.2-1.2c0.6-0.2,0.9-0.2,1,0.5c0.1-1.4,0.4-1,0.4-2.2l0.3,0.3c0.2-0.3,0.1-1.1,0.5-1.1c1.1-0.3,2.3-3.3,3.7-5
						c-1.2-0.1,0.9-0.7,0.1-1.1c0.3,0,0.6-0.2,0.6,0.2c0.2-1.1,1-1.4,0.5-2.4c0.3,0,0.3,0.4,0.5,0.3c0-0.1-0.1-0.4,0.1-0.5
						c0.2-0.1,0.2,0.2,0.2,0.4c0.3-1.1-0.5-1.5-1.2-1.8c0.5-0.4,0.5-0.8,0.1-1.3c0.3-0.1,0.6-0.4,0.6,0.3c0.2-0.4,0.8-2.3,0.2-2.4
						c0.2-0.1,0.1-0.5,0-0.6c0.1-0.9,0.2-0.9,0.1-1.8l-0.1,0.2c-0.7-0.4-0.2-0.7-0.3-1.4l0.1,0c0.5-1.6-0.3-0.7,0.2-2.3l-0.5,0.1
						c-0.5,0-0.4-0.4-0.2-0.8c0.2-0.5,0.3-1.1,0.1-1.5l-0.2,0.4c-0.4-0.4,1-1.7,1-2.3c0.1-0.1,0.2,0.1,0.3,0.3
						c0.2-1.5-0.6,0-1.1-0.9c0.3-0.3,0.9-0.1,0.7-0.7c0.1-0.2-0.4-0.6-0.8-1c-0.4-0.5-0.9-0.9-0.9-1.5c-0.1,0.3-0.3,0.6-0.7,0.3
						c-0.2-0.3-0.3-0.8-0.4-1.3c-0.1-0.5-0.4-0.9-0.9-0.9c0-0.1,0-0.2,0.1-0.2c-0.5-0.3-1.5-1.2-2-1c0.4-0.8-0.4-1.3-1.2-1.5
						c-0.7-0.3-1.5-0.5-1.1-1.1c0,0-1.5-0.8-1.5-0.8l0.1-0.1c-1-0.6-1.5-0.4-1.9-0.2c-0.2-0.2,0-0.3,0.1-0.3
						c-0.7-0.4-1.1-0.6-1.5-0.7c-0.4,0-0.8,0-1.5,0.3l0-0.5c-0.4,0.2-2.1-1.2-3.7-0.8c0-0.1,0.1-0.1,0.2-0.2
						c-0.9,0.2-1.9-0.2-2.8-0.4c-0.9-0.2-1.7-0.2-1.9,0.7c0,0-0.3,0.1-0.5,0.3c-0.3,0.1-0.5,0.3-0.5,0.3c1.4,0-0.1,0.8,0.5,1
						c-0.5,0.2-1.4-0.4-0.8-0.6l0.1,0.1c0.1-1-1.8-0.1-1.8-0.8c-2.7,0.5-5.5,0.6-8,1.5l0.5,0.6l-0.9,0.3c-0.3-0.1-0.5-0.4,0.1-0.6
						c-0.5-0.3-0.9,0.7-0.9,0.9c-1.3,0.3,0.1-1-0.2-0.8l-0.5,0.3l0.1,0c-0.3,0.5-0.2,0.8-0.9,1.1c-0.5,0.1-0.4-0.3-0.6-0.2
						c0,0-0.1,0-0.3,0.1c0,0-0.3,0.1-0.5,0.3c-0.3,0.1-0.5,0.3-0.5,0.3l0.7,0.3c-0.3,0.5-1,0.5-0.2,0.8c-0.3-0.1-0.7,0-1.1,0.1
						c-0.4,0.2-0.9,0.5-1.3,0.8c-0.9,0.6-1.5,1.4-1.8,1.5c-0.3,0.8-0.7,1.3-1.4,1.9c0.3-0.1,0.8,0.2,0.3,0.8
						c-0.8-1.1-1.3,0.7-2.5,0.7c0.8-0.1-1.1,1.9,0.2,1.7c-0.4,0.5-0.5-0.2-1,0c-0.3,1.6-1.9,2.8-2.4,4.7c0.2,0.1,0.5-0.1,0.6,0.3
						c0,0-0.3,0.2-0.6,0.3c-0.3,0.2-0.6,0.3-0.6,0.3c0,0.4,0.9,0.6,0.1,1.1c0.2-0.1,0.4-0.1,0.4,0.1c-0.9,1.6-1.1,3.6-1.1,5.4
						c-0.1,1.9,0,3.7-0.7,5.7c0.3-0.6,0.4-0.2,0.4,0.2c0-0.3,0.4,0,0.7-0.1l-0.4,1.6c0.7,0.2,0.4,1.6,1,1.7l-0.2-0.5
						c0.9,0.4,1.4-1.2,2.4-1.3c-0.5-0.2-0.2-0.7,0-1.3c0.2-0.5,0.4-1.1-0.3-1.5c0.2-0.3,0.3,0.2,0.5,0c-0.4-0.2-0.6-0.6-0.4-1.2
						l0.1,0.1c-0.1-1.7,0.3-2.5,0.8-4.3l-0.5,0.1c0.1-0.4,0.3-0.5,0.4-0.6c-0.6-0.6-0.2,1.1-0.9,0.6c0.5-0.2,0.6-0.9,0.8-1.6
						c0.2-0.7,0.3-1.3,0.9-1.4c0.2-0.6-0.6,0-0.4-0.6l0.3-0.1l-0.3-0.3c0.2-0.4,0.6-0.5,0.8-0.4c-0.1,0.1,0,0.3,0,0.4
						c0.5-0.4,0.3-1.4,0.5-1.6l-0.4,0.5c0.3-1.7,1.5-3.4,1.9-5.1l-0.3,0c0.4-1.3,0.7-0.7,1.4-1.9l0,0.1c0-0.4,0.1-0.7,0.4-1
						c0,0.4,0.8-0.1,0.7,0.4c0.6-1.3,0.2-0.7,0.2-2l0.4,0.1c0-0.4-0.1-0.6,0.4-1.1c-0.2,0.6,0.7,0.1,0.5,0.9c0.8-0.2,1.1-0.6,1.3-1
						c0.3-0.4,0.5-0.7,1.1-0.4c0-0.6-0.3-0.6-0.7-0.4c-0.3,0.2-0.6,0.5-0.5,0.3c-0.5-0.1,0-1,0.5-1.1c0.4-0.2,1.4,0.7,2.4,0.1
						c-0.1,0-0.1,0.1-0.2,0.2c0.5,0,0.6-0.7,1.3-0.5c0-0.7,0.6-0.2,0.4-1c0,0-0.2,0.2-0.5,0.3c-0.2,0.2-0.5,0.3-0.5,0.3
						c0.5-0.4,0.6-1.5,1.8-1.5c0,0.2-0.2,0.5-0.4,0.7c0.4,0.1,0.5-0.4,0.9-0.2c0.2,0.8-1.2,0.6-1.5,1.5c0.4,0.2,0.9-1,0.9-0.1
						c0-1.2,1.1-0.3,1.6-1.3l0.1,0.5c0.1-0.1,0.3-0.4,0.5-0.5l-0.2,0.7c0.5-0.7,1.3,0.1,1.8-0.3c-1.2,0.4-0.4-0.5-1.1-0.7
						c1.4-1,1.2,0.9,2.9,0.3c-0.2,0.1-0.9-0.1-0.6-0.4c0.4,0,0.8,0.1,1.1,0.3c1.1-0.3-0.3-0.4,0.2-0.8c0.5,0.5,0.5-0.3,1-0.6
						l0.1,0.5c1.4,0.1,0.2-1.1,1.5-0.8l-0.4,0.7c0,0,0.2-0.1,0.3-0.1c0.2-0.1,0.3-0.1,0.3-0.1l-0.1,0.6c0.6-0.5,0.9-0.4,1.5-0.3
						c-0.2-0.3,0-0.9,0.6-0.9c0.4,0.3-0.2,0.5,0.6,0.4c-0.2,0.3-0.4,0.7-0.8,0.3c0,0.2-0.2,0.3-0.2,0.5c0.4,0.3,1.1,0,1.4,0
						c-0.1,0-0.3,0-0.3-0.1c0,0,0.3-0.2,0.6-0.3c0.3-0.2,0.6-0.3,0.6-0.3c0.2,0.2,0,0.3-0.1,0.5c0.2,0,0.4-0.3,0.8-0.3
						c-0.1,0.4-0.1,0.8-0.6,1c0,0,0.3-0.1,0.6-0.2c0.3-0.1,0.6-0.2,0.6-0.2c0.1,0.2,0.5,0.5,0.4,0.6c0.3,0.2,0.7,0,1.1-0.1
						c0.4-0.1,0.9-0.2,1.2,0c0.1-0.1,0.2-0.1,0.3-0.1c0.7,0.3,1.2,0.9,2.2,0.7l0.2,0.8c0.7,0.1-0.3-1.1,0.9-0.9c0.9,0.1,0,0.7,0.2,1
						c0.5-0.1,1.5-0.4,1.8,0.5C-2847.5,619.4-2847.6,619.2-2847.9,619.2z M-2842.3,625.3c-0.2-0.1-0.6-0.3-0.4-0.5
						C-2842.1,624.7-2842.2,625-2842.3,625.3z M-2840.7,638.9c-0.1-0.2,0-0.4,0.3-0.5C-2840.4,638.5-2840.5,638.7-2840.7,638.9z
						 M-2863.5,673.2C-2863.5,673.2-2863.5,673.2-2863.5,673.2C-2863.1,672.9-2863.3,673-2863.5,673.2z M-2864.2,673.7
						c0,0.1,0.1,0.1,0.1,0.2c-0.1-0.1,0-0.3,0.2-0.4C-2864,673.4-2864.1,673.5-2864.2,673.7z M-2874.1,616.2l0.2,0
						C-2874.1,616.6-2874.1,616.4-2874.1,616.2z"/>
					<path id="XMLID_433_" class="st9" d="M-2840.9,637.1c0.1,0,0.2,0,0.3,0C-2840.7,637-2840.8,637-2840.9,637.1z"/>
					<path id="XMLID_432_" class="st9" d="M-2852.8,617.5L-2852.8,617.5C-2852.9,617.5-2852.9,617.5-2852.8,617.5L-2852.8,617.5z"/>
					<path id="XMLID_431_" class="st9" d="M-2858,660.9c0.2-0.1,0.3-0.1,0.4-0.1C-2857.7,660.7-2857.8,660.7-2858,660.9z"/>
					<path id="XMLID_430_" class="st9" d="M-2866,677.9l0.2-0.5c-0.1,0.2-0.3,0.3-0.4,0.3C-2866.1,677.7-2866,677.7-2866,677.9z"/>
					<path id="XMLID_429_" class="st9" d="M-2871,680.6c0,0.1-0.1,0.2-0.1,0.3l0.2,0.1C-2870.7,680.6-2870.7,680.3-2871,680.6z"/>
					<path id="XMLID_428_" class="st9" d="M-2867.7,677.5c-0.4-0.2-0.4,0.2-0.6,0.6c0,0,0,0,0-0.1
						C-2867.8,678.4-2867.7,677.9-2867.7,677.5z"/>
					<path id="XMLID_427_" class="st9" d="M-2868.3,678.1c0,0.1-0.1,0.2-0.2,0.3C-2868.3,678.6-2868.3,678.4-2868.3,678.1z"/>
					<path id="XMLID_426_" class="st9" d="M-2864.6,674.7c-0.2,0.1,0.4,0.4,0.2,0.4C-2864.2,675.6-2864.3,673.8-2864.6,674.7z"/>
					<polygon id="XMLID_425_" class="st9" points="-2869,677.1 -2868.5,677.2 -2868.7,676.8 					"/>
					<path id="XMLID_424_" class="st9" d="M-2867,674.6l-0.5,0.4c0.1,0,0.1,0.1,0.1,0.2C-2867.2,675-2866.8,674.7-2867,674.6z"/>
					<path id="XMLID_423_" class="st9" d="M-2867.4,675.3c-0.1,0.2-0.2,0.3-0.2,0.5C-2867.6,675.7-2867.4,675.5-2867.4,675.3z"/>
					<polygon id="XMLID_422_" class="st9" points="-2868.7,676.2 -2868.5,676.1 -2868.2,675.8 					"/>
					<path id="XMLID_421_" class="st9" d="M-2862.7,669.3l0.3-0.6c-0.1-0.2-0.3-0.1-0.4,0.1
						C-2862.8,669.1-2862.9,669.3-2862.7,669.3z"/>
					<path id="XMLID_420_" class="st9" d="M-2865.2,670c0.2-0.1,0.3,0,0.5,0l-0.5-0.4L-2865.2,670z"/>
					<path id="XMLID_419_" class="st9" d="M-2863.9,668.4c-0.1-0.2,0.3-1.1-0.3-0.4C-2864.1,668.1-2864.5,668.8-2863.9,668.4z"/>
					<polygon id="XMLID_418_" class="st9" points="-2856.1,661.3 -2856.2,661.5 -2855.5,662.2 					"/>
					<path id="XMLID_417_" class="st9" d="M-2851.4,653.1c-0.7,0.4,0.3,0.6-0.4,0.9c0,0.3,0.6-0.3,0.6,0
						C-2851,653.5-2850.8,653.4-2851.4,653.1z"/>
					<path id="XMLID_416_" class="st9" d="M-2851.2,654c0,0.1,0,0.2-0.1,0.3C-2851.2,654.2-2851.2,654.1-2851.2,654z"/>
					<polygon id="XMLID_415_" class="st9" points="-2887.3,646.2 -2887.4,646.8 -2887.2,646.4 					"/>
					<path id="XMLID_414_" class="st9" d="M-2886.4,647.1l-0.6,0.3l0.6,0.2C-2886.4,647.4-2886.5,647.2-2886.4,647.1z"/>
					<path id="XMLID_413_" class="st9" d="M-2843.1,626.9l0.2,0c0.1-0.1,0.1-0.2,0.1-0.4L-2843.1,626.9z"/>
					<polygon id="XMLID_412_" class="st9" points="-2845.5,621.7 -2845.5,621.8 -2845.2,621.2 					"/>
					<path id="XMLID_411_" class="st9" d="M-2849.8,619.6c0.2,0.1,0.4,0.1,0.6,0.2C-2849.6,619.7-2849.5,618.9-2849.8,619.6z"/>
				</g>
			</g>
		</g>
	</g>
</g>
<g id="XMLID_205_">
	<g id="XMLID_523_">
		<g id="XMLID_527_">
			<g id="XMLID_528_">
				<g id="XMLID_529_">
					<path id="XMLID_616_" class="st9" d="M-2865.6,711.1c0,0-0.1-0.4-0.1-0.4C-2865.7,710.7-2865.5,711.2-2865.6,711.1z"/>
					<polygon id="XMLID_615_" class="st9" points="-2865.6,712.1 -2865.6,711.9 -2865.5,712.3 					"/>
					<path id="XMLID_614_" class="st9" d="M-2865.8,712.1c0.2,0.7,0.1-0.1,0.2,0.1l0.1,0.2l-0.1-0.6
						C-2865.8,711.9-2865.7,712.3-2865.8,712.1z"/>
					<path id="XMLID_613_" class="st9" d="M-2866.4,710.7C-2866.3,711-2866.4,710.9-2866.4,710.7
						C-2866.4,710.7-2866.4,710.7-2866.4,710.7C-2866.4,710.7-2866.4,710.7-2866.4,710.7z"/>
					<path id="XMLID_612_" class="st9" d="M-2866.4,710.7C-2866.4,710.7-2866.5,710.5-2866.4,710.7L-2866.4,710.7z"/>
					<path id="XMLID_611_" class="st9" d="M-2866.5,710.9l0-0.2c-0.1-0.2-0.1-0.2-0.1-0.3C-2866.6,710.5-2866.6,710.6-2866.5,710.9z
						"/>
					<path id="XMLID_610_" class="st9" d="M-2866.4,711.4l0-0.1C-2866.4,711.2-2866.4,711.2-2866.4,711.4z"/>
					<path id="XMLID_609_" class="st9" d="M-2866.4,711.1l0,0.2c0,0.1,0.1,0.3,0-0.1C-2866.3,711.4-2866.4,711.2-2866.4,711.1z"/>
					<path id="XMLID_608_" class="st9" d="M-2866.4,711.2c0.1,0.1,0.1,0.2,0.2,0.5C-2866.2,711.5-2866.3,711.1-2866.4,711.2z"/>
					<path id="XMLID_607_" class="st9" d="M-2865.6,712.8l0.1,0.2L-2865.6,712.8C-2865.6,712.9-2865.7,712.6-2865.6,712.8z"/>
					<path id="XMLID_606_" class="st9" d="M-2866.8,710.6c0,0.1,0.1,0.4,0.2,0.6l0-0.2C-2866.7,710.9-2866.8,710.8-2866.8,710.6z"/>
					<path id="XMLID_605_" class="st9" d="M-2866.6,711.2l0,0.3C-2866.6,711.5-2866.6,711.3-2866.6,711.2z"/>
					<polygon id="XMLID_604_" class="st9" points="-2866.2,712.2 -2866.2,711.6 -2866.2,712.2 					"/>
					<polygon id="XMLID_603_" class="st9" points="-2867,710.6 -2867.1,710.3 -2867,710.8 					"/>
					<path id="XMLID_602_" class="st9" d="M-2867.1,710.7c-0.1-0.3-0.2-0.5-0.2-0.6c0,0.1,0,0.3,0.1,0.5
						C-2867.2,710.5-2867.2,710.5-2867.1,710.7z"/>
					<path id="XMLID_601_" class="st9" d="M-2867.2,710.9c0-0.1,0-0.2,0-0.3C-2867.2,710.7-2867.2,710.8-2867.2,710.9z"/>
					<path id="XMLID_600_" class="st9" d="M-2866.7,711.4c0-0.1-0.1-0.3-0.2-0.4L-2866.7,711.4L-2866.7,711.4z"/>
					<path id="XMLID_599_" class="st9" d="M-2866.7,711.4L-2866.7,711.4C-2866.8,711.4-2866.8,711.4-2866.7,711.4
						C-2866.8,711.4-2866.8,711.4-2866.7,711.4z"/>
					<path id="XMLID_598_" class="st9" d="M-2866.7,711.4L-2866.7,711.4C-2866.7,711.4-2866.7,711.4-2866.7,711.4z"/>
					<path id="XMLID_597_" class="st9" d="M-2866.4,711.8c0,0.2,0.1,0.5,0.2,0.8C-2866.2,712.4-2866.3,712.2-2866.4,711.8z"/>
					<path id="XMLID_596_" class="st9" d="M-2866.5,711.9L-2866.5,711.9c0,0,0-0.2,0-0.3L-2866.5,711.9z"/>
					<polygon id="XMLID_595_" class="st9" points="-2866.5,712 -2866.5,711.9 -2866.6,711.9 					"/>
					<path id="XMLID_594_" class="st9" d="M-2867,711.3c0,0.2,0,0.2,0,0.2c0,0.1,0.1,0.1,0.1,0.1
						C-2866.9,711.5-2866.9,711.3-2867,711.3z"/>
					<path id="XMLID_593_" class="st9" d="M-2866.8,711.4L-2866.8,711.4C-2866.8,711.4-2866.8,711.5-2866.8,711.4z"/>
					<path id="XMLID_592_" class="st9" d="M-2867.2,711.6C-2867.2,711.6-2867.2,711.7-2867.2,711.6L-2867.2,711.6L-2867.2,711.6z"/>
					<path id="XMLID_591_" class="st9" d="M-2866.8,711.7c0,0.1,0,0,0-0.2C-2866.8,711.6-2866.8,711.6-2866.8,711.7
						C-2866.8,711.7-2866.8,711.7-2866.8,711.7z"/>
					<path id="XMLID_590_" class="st9" d="M-2867.2,711.1c0,0.1,0.1,0.2,0.1,0.2C-2867.1,711.2-2867.2,711-2867.2,711.1z"/>
					<path id="XMLID_589_" class="st9" d="M-2866.9,711.3C-2866.9,711.3-2866.9,711.3-2866.9,711.3
						C-2866.9,711.2-2866.9,711.2-2866.9,711.3z"/>
					<path id="XMLID_588_" class="st9" d="M-2866.9,711.3c0,0.1,0,0.2,0,0.3c0,0,0-0.1,0-0.1
						C-2866.8,711.4-2866.9,711.3-2866.9,711.3z"/>
					<path id="XMLID_587_" class="st9" d="M-2866.6,714.3c-0.1-0.4-0.1-0.8,0-0.4c0-0.3-0.4-1.5-0.6-2.2c0,0.2,0.1,0.3,0.1,0.6
						c0.1,0.2,0.2,0.5,0.3,0.8c0,0.2-0.1-0.1-0.2-0.3c0.2,0.5,0.1,0.7,0.3,1.4l0-0.3C-2866.7,714-2866.6,714.2-2866.6,714.3z"/>
					<path id="XMLID_586_" class="st9" d="M-2867.1,711.7L-2867.1,711.7c0-0.1-0.1-0.3-0.2-0.6c0,0.2,0.1,0.3,0.1,0.5L-2867.1,711.7
						L-2867.1,711.7z"/>
					<path id="XMLID_585_" class="st9" d="M-2867,711.6c0.1,0.4,0.1,0.6,0.2,1.1c0,0-0.1-0.4-0.1-0.5
						C-2866.9,712.2-2866.9,711.9-2867,711.6C-2867,711.6-2867,711.6-2867,711.6c0-0.1,0-0.2-0.1-0.3l0,0v0l0,0c0,0.1,0,0.1,0,0.1
						c0,0,0,0,0,0C-2867,711.5-2867,711.6-2867,711.6c0-0.1,0-0.1,0-0.2l0-0.1l0,0L-2867,711.6C-2867.1,711.7-2867,711.7-2867,711.6
						z"/>
					<path id="XMLID_584_" class="st9" d="M-2866,713.6C-2866,713.5-2866,713.5-2866,713.6C-2866,713.5-2866,713.6-2866,713.6z"/>
					<path id="XMLID_583_" class="st9" d="M-2866.1,713.3c0-0.1-0.1-0.2,0-0.2c0.1,0.1,0.1,0.2,0.1,0.3c0-0.1,0-0.3-0.1-0.5l0,0.1
						c-0.1-0.1-0.3-0.6-0.3-0.7C-2866.3,712.7-2866.2,713-2866.1,713.3z"/>
					<path id="XMLID_582_" class="st9" d="M-2866.5,712.6l0,0.2l0.1,0.3l-0.1-0.2C-2866.4,713-2866.5,712.7-2866.5,712.6z"/>
					<polygon id="XMLID_581_" class="st9" points="-2867.3,711.4 -2867.4,711 -2867.3,711.6 					"/>
					<polygon id="XMLID_580_" class="st9" points="-2867.4,711.5 -2867.5,711.1 -2867.4,711.3 					"/>
					<path id="XMLID_579_" class="st9" d="M-2872.4,717.3l0,0.1C-2872.4,717.4-2872.4,717.3-2872.4,717.3z"/>
					<path id="XMLID_578_" class="st9" d="M-2872.2,717.3l0-0.2C-2872.2,717.2-2872.2,717.3-2872.2,717.3z"/>
					<path id="XMLID_577_" class="st9" d="M-2869.7,712c-0.1-0.4-0.2-0.9-0.2-0.5L-2869.7,712
						C-2869.7,711.9-2869.7,711.9-2869.7,712z"/>
					<path id="XMLID_576_" class="st9" d="M-2871,714.9c0,0,0,0.1,0,0.1c0-0.1,0-0.3,0-0.4C-2871,714.7-2871,714.8-2871,714.9z"/>
					<path id="XMLID_575_" class="st9" d="M-2870.8,716.6l-0.1-0.3C-2870.8,716.5-2870.8,716.6-2870.8,716.6z"/>
					<path id="XMLID_574_" class="st9" d="M-2873.4,717.8l0,0.4C-2873.3,718.3-2873.3,718-2873.4,717.8z"/>
					<path id="XMLID_573_" class="st9" d="M-2868.3,711.9c-0.1-0.2-0.1-0.2-0.1-0.2C-2868.3,711.9-2868.2,712.2-2868.3,711.9z"/>
					<path id="XMLID_572_" class="st9" d="M-2872.7,712.7c0,0.1,0,0.2,0,0.3C-2872.7,712.9-2872.7,712.8-2872.7,712.7z"/>
					<path id="XMLID_571_" class="st9" d="M-2868.5,711.6C-2868.5,711.7-2868.5,711.7-2868.5,711.6
						C-2868.5,711.7-2868.4,711.6-2868.5,711.6C-2868.5,711.5-2868.5,711.3-2868.5,711.6z"/>
					<path id="XMLID_570_" class="st9" d="M-2877,717.5C-2877,717.5-2877,717.4-2877,717.5C-2877,717.5-2877,717.5-2877,717.5z"/>
					<path id="XMLID_569_" class="st9" d="M-2877.8,713C-2877.8,713-2877.7,713-2877.8,713C-2877.7,713-2877.7,713-2877.8,713z"/>
					<path id="XMLID_568_" class="st9" d="M-2867.8,711.4C-2867.8,711.4-2867.8,711.3-2867.8,711.4L-2867.8,711.4z"/>
					<path id="XMLID_567_" class="st9" d="M-2867.3,713c0,0,0,0.1,0,0.2C-2867.2,713.1-2867.3,713.1-2867.3,713z"/>
					<path id="XMLID_566_" class="st9" d="M-2868.1,714.3L-2868.1,714.3C-2868.1,714.4-2868.1,714.4-2868.1,714.3z"/>
					<path id="XMLID_565_" class="st9" d="M-2867.7,711.6c0,0,0-0.1-0.1-0.1C-2867.7,711.5-2867.7,711.5-2867.7,711.6z"/>
					<path id="XMLID_564_" class="st9" d="M-2867.8,711.4C-2867.7,711.4-2867.7,711.4-2867.8,711.4
						C-2867.7,711.3-2867.8,711.3-2867.8,711.4z"/>
					<path id="XMLID_563_" class="st9" d="M-2867.8,711.4C-2867.8,711.4-2867.8,711.4-2867.8,711.4
						C-2867.8,711.4-2867.8,711.4-2867.8,711.4C-2867.8,711.4-2867.8,711.4-2867.8,711.4z"/>
					<path id="XMLID_562_" class="st9" d="M-2875.1,716.3C-2875.1,716.3-2875.1,716.3-2875.1,716.3
						C-2875.1,716.5-2875.1,716.5-2875.1,716.3z"/>
					<path id="XMLID_561_" class="st9" d="M-2869.5,716.6C-2869.5,716.6-2869.5,716.6-2869.5,716.6
						C-2869.5,716.6-2869.5,716.5-2869.5,716.6L-2869.5,716.6z"/>
					<path id="XMLID_560_" class="st9" d="M-2869.5,716.9c-0.1-0.5,0-0.5,0-0.4l-0.2-1.2L-2869.5,716.9z"/>
					<path id="XMLID_553_" class="st9" d="M-2872.8,717.4l0.1,0.4c0,0.6-0.1,0.4,0,1c-0.1-1.4,0.2-0.2,0.1-1.5l0.1,0.3
						c0,0,0,0.1,0,0.1c0.1,0.6,0-1,0.1-0.8c0,0.1,0.1,0.3,0.1,0.5l0-0.3c0,0,0,0.3,0,0.2l0.1-0.1l0,0c0-0.2,0-0.5,0-0.7
						c0,0.2,0,0.1,0,0.3l0-0.3c0.1,0.3,0,0.7,0,0.6c0.2,1.3,0-0.3,0.2,0.4l0,0.2c0.1,0.8,0.1,0.5,0.3,1c0-0.2-0.3-1.2-0.2-1.5
						c0,0.1,0.1,0.1,0.1-0.1c0,0.5,0.1,0.4,0.1,0.3l0.1,0.6c0-0.2,0-0.5,0-0.8c0.1,0.1,0.1,0.5,0.2,1c0.1,0.1-0.1-0.8-0.1-0.9
						c0.1,0.2,0.1,0,0.2-0.4c0.1,0.2,0,0.4,0.1,0.6l0-0.5c0,0,0,0.2,0,0.2c0-0.2-0.1-0.6,0-0.8c-0.1-0.7,0.2,1,0.2,0.2
						c0,0.2,0,0.4,0.1,0.6c0-0.5,0-0.4,0-1.1l0.1,0.4c-0.1-0.5-0.1-1-0.1-1.5c0-0.2-0.1-0.4-0.1-0.5l0-0.4c0,0.1,0,0.3,0.1,0.6
						c0-0.1,0-0.1,0-0.2c0.1,0.2,0.1,0.6,0.1,1c0-0.1-0.1-0.3-0.1-0.4c0,0.4,0.1,0.8,0.1,1.2c0-0.1,0-0.1,0-0.2c0,0.1,0,0.2,0,0.3
						c0,0.1,0-0.1,0-0.2l0.1,0.7l0-0.3l0.2,0.4c0-0.7-0.1-1.8,0-2.1c0,0.5,0.1,0.8,0.2,1.5c-0.1-0.6-0.1,0.3-0.2,0.2
						c0,0.1,0.1,0.4,0.1,0.5l0-0.6c0.1,0.5,0.1,0.4,0.1,0.6c-0.2-1,0-0.7,0-1c0.1,0.3,0.1,0.7,0,0.6c0.2,0.7-0.1-1.2,0.1-0.6
						c0,0,0,0,0,0.1c0-0.3,0.1-0.1,0.1,0.2l0,0c0.1,0.1,0.3,0,0.2-0.9c0,0.1,0.1,1,0.2,1.2l-0.3-2.9c0.1,0.7,0.4,2.4,0.4,2.9
						c0,0.1,0.1,0.2,0.1,0c0-0.1-0.2-1-0.2-1.1c0.2,0.8,0.1,0.4,0.3,1.1c-0.1-0.2-0.2-1.3-0.2-1.3c0,0.2,0.2,1.1,0.2,1.2l-0.1-1.1
						c0,0.2,0.2,0.9,0.2,1.2c0-0.2,0.1,0,0.1-0.1l-0.1-0.2c0.1,0.1-0.2-1.6-0.1-1.5c0,0.2,0.2,1.4,0.3,1.5c-0.1-0.6-0.4-2.7-0.4-3.2
						l0.1,0.3l0-0.4c0.1,0.9,0.3,2.7,0.4,3.4c0.1,0.2,0.1,0.4,0.1,0.3c0.1,0.3,0.1,0.5,0,0.5l0.2,0.2c-0.1-0.7,0-0.7-0.1-1.2l0,0.7
						c-0.1-0.7-0.3-1.9-0.1-1.8c0.1,0.3,0.2,1.2,0.3,1.4c0-0.2,0-0.5,0.1-0.3l0,0.4c0.1,0.2-0.1-0.9,0.1-0.3c0,0,0.2,0.8,0.2,0.4
						c-0.2-0.7-0.7-3.1-0.8-3.6c0,0,0.3,0.7,0.4,1.1c0.2,0.6,0.2,1.4,0.4,1.9c0-0.2-0.1-0.4-0.1-0.5c0.1,0.1,0.1,0.6,0.1,0.5
						c-0.1-0.7,0.1,0-0.1-0.6c0-0.2,0.1,0.1,0.1,0.1c-0.1-0.4-0.3-1.5-0.2-1.7c0,0.2,0.1,0.4,0.1,0.5c0.1,0,0.2,0.3,0.3,0.3
						c0,0.2,0.1,0.3,0.2,0.6c0-0.1-0.1-0.3,0-0.4c0.2,0.6,0,0.1,0.2,0.8c-0.1-0.4,0-0.6-0.1-0.8c-0.1-0.6-0.1-0.1-0.1,0.2
						c-0.2-0.8-0.3-1.7-0.3-2.1c0-0.2,0.2,0.5,0.1,0.4c0.2,0.1-0.2-1.5,0-0.9c0.2,0.5,0.3,1,0.4,1.4c0,0.2-0.2-0.3-0.2-0.3l0.1,0.2
						c0,0.2,0,0.3-0.1,0.2c0.2,0.5,0.3,0,0.5,0.4c0-0.2,0-0.4-0.1-0.6l0,0.1c-0.1-0.4-0.1-0.6-0.2-0.8c0-0.3-0.1-0.8,0-0.6l0.2,0.6
						c0-0.2-0.1-0.3-0.1-0.2c0-0.3,0.3,0.8,0.1,0l-0.2-0.4c0-0.3-0.1-1,0-0.8c-0.2-0.6,0,0.1-0.2-0.6c0.3,0.8-0.2,0,0.1,0.9
						c-0.2-0.8-0.2-0.3-0.4-1c0.1,0.2,0.1,0.4,0,0.3c0,0.1,0,0.1,0,0.2l0,0l0,0c0,0,0,0,0,0c0,0.1,0.1,0.2,0.1,0.3
						c0.1,0.5,0,0.5,0,0.7c-0.1-0.1,0-0.2-0.1-0.4l0,0.4c-0.1-0.4-0.3-0.7-0.2-1l-0.1,0c-0.1-0.2-0.2-0.3-0.2-0.1
						c-0.1-0.1,0,0.5,0,0.2l0,0.3l0-0.1c-0.1,0,0,0.8-0.3,0c0,0.1,0,0.3-0.1,0.1l-0.1-0.4c0,0.1-0.2-0.4-0.1,0
						c-0.3-1-0.2-0.2-0.3-0.4l0.1,0.5c-0.1,0-0.1,0.1-0.1,0.3l0.1,0.4c0,0.4-0.2-0.3-0.3-0.2c0-0.2,0-0.1,0,0
						c-0.3-1-0.1,0.8-0.3,0.1c0,0.2,0,0.1-0.1,0c0,0,0,0,0,0c0,0,0,0,0,0c0-0.1-0.1-0.2-0.1-0.2c0,0.1,0.1,0.2,0.1,0.2
						c0,0,0,0.1,0,0.2l-0.1-0.5c0,0,0,0,0,0c-0.1-0.2,0,0.2,0.1,0.6c0,0.1,0,0.2,0,0.3c-0.2-0.8,0,0.3-0.2-0.5
						c0.1,0.4-0.1,0.3,0.1,1.2c0-0.1,0-0.2,0-0.2c0-0.1-0.1-0.2-0.1,0.1l-0.1-0.6l0.1,0.8c-0.1-0.4-0.2-0.6-0.2-1c0,0.7,0,0.3,0,1
						l-0.1-0.4c0,0,0,0.6-0.1,0.2c-0.2-0.7-0.3-0.1-0.6-0.7c0.2,1.1-0.1-0.5,0,0.4c0-0.3-0.1-0.4-0.1-0.7c0,0.3-0.2-0.4-0.1,0.3
						c0-0.3,0-0.4-0.1-0.6c0,0.1,0,0.2,0,0.1c0-0.2,0-0.2,0-0.4c-0.1,0.1,0,0.9,0.1,1.7c-0.1-0.4-0.1-0.3-0.1,0.2
						c0-0.3-0.1-0.5-0.1-0.6c0,0-0.2-0.4-0.2,0.3c0-0.2,0,0,0,0c-0.1,0-0.1-0.1-0.1,0l0,0.1c0.1,0.8,0,0.2-0.1,0.3l0-0.1
						c-0.2-0.5,0,0.3-0.2-0.3l0.1,0.5c0.1,1-0.2-0.6-0.2-0.2l0.1,0.3c0,0.4-0.3-1.4-0.3-1.5c0-0.1,0-0.1,0-0.2c-0.2-0.6,0,0.6,0,0.8
						c0-0.3-0.1-0.9-0.1-0.9c0-0.3,0,1.1-0.2,0.5c0,0.3,0.1,0.5,0.1,0.7c0,0.1-0.2-1-0.2-0.1c0-0.1,0-0.1,0-0.2
						c0,0.2-0.1,0.4-0.1,0.8c-0.2-1.6-0.2,0.8-0.3-0.7l-0.1,0.1l0-0.2c-0.1-0.1-0.1,0.3-0.1,0.6c0-0.1,0-0.2,0-0.3
						c-0.1-0.3-0.1-0.2-0.2,0.5l0-0.5c0,0.3-0.2-0.8-0.3-0.2c0-0.1,0-0.2,0-0.2c-0.1,0.6-0.4-1.4-0.3,0.4l-0.1,0.4
						c0.1,0.1,0,0.8,0.1,1.1c0,0.1-0.1-0.5-0.1-0.6l0,0.1c0-0.9-0.2-0.3-0.2-1c-0.2,0.1-0.4-0.5-0.6-0.5l0,0.7l-0.1,0
						c0-0.2,0-0.6,0-0.5c0-0.4-0.1,0.3-0.1,0.5c-0.1-0.3,0-0.9,0-0.9l0,0.1l0,0.1c0,0.3,0,0.6-0.1,0.6c0-0.1,0-0.5,0-0.5
						c0-0.1,0-0.1,0,0l-0.1-0.1l0,0.6c0,0.3-0.1,0,0,0.6c-0.1-1-0.3-0.4-0.4-0.7c-0.1,0.4-0.1,0.4-0.2,0.4c0,0.1,0,0.8,0,0.7
						c0-1.3-0.1-0.6-0.1-1.5c0,0.6-0.2,0.2-0.1,1.1c0-0.1,0-0.5,0-0.8c-0.1,0.5-0.2-0.3-0.4-0.2c0,0.2,0,0.4,0,0.7l0-0.9
						c0,0.1-0.1,1-0.1,0.4c0,0.1,0,0.4,0,0.4c-0.2-0.9-0.6,0.7-0.8-1c0,0.3,0,0.4,0,0.4c0,0.1,0,0.4,0,0.7l-0.1-0.7
						c-0.1,0.7-0.1,0-0.2,0.7l0-0.1c-0.1,0.7-0.1,1.7-0.1,2.6c0.1-0.8,0.1,1.3,0.3,0.1c0,0.2,0,0.3,0,0.5c0.1-0.4,0.1-0.5,0.1-0.3
						l0,0.1c0.2-0.1,0.2,0.3,0.4,0.6l0-0.5c0,0.1,0,0.2,0,0.3c0.1-0.7-0.1,0,0-0.8c0,1,0.3,0,0.3,1.1c0.1,0,0-0.5,0.1-0.5l0,0.3
						l0-0.4c0,0.1,0,0.4,0,0.7c0,0,0,0.1,0,0.1c0,0.4,0.2-0.1,0.2,0l-0.1-0.2c0.2-0.3,0.4,0.1,0.5-0.5l0-0.2
						c0.1-0.4,0.1,0.2,0.2,0.1l0,0.1c0-0.2,0.1-0.3,0.1-0.3c0,0.3,0.1,0.5,0,0.8c0.1-0.4,0.1-0.3,0.2-1.2l0,0.4c0-0.3,0-0.5,0.1-0.6
						c-0.1,0.3,0,0.6,0,1c0.1,0.8,0.2-0.8,0.3,0.4c0.1-1-0.1-0.6-0.1-0.8c0-0.3,0.1-0.8,0.1-0.7c0,0,0.1,1.3,0.2,1.3
						c0,0,0,0.1,0,0.1c0,0.3,0.1-0.4,0.1,0.1c0-0.6,0.1,0,0.1-0.8l-0.1,0.2c0.1-0.2,0.1-1.1,0.2-0.7c0,0.2,0,0.4-0.1,0.5
						c0,0.2,0.1-0.2,0.1,0.1c0,0.8-0.1,0.2-0.2,0.8c0,0.3,0.1-0.6,0.1,0.3c0-1.1,0.1,0.1,0.2-0.7l0,0.5c0-0.1,0-0.3,0.1-0.3l0,0.6
						c0.1-0.5,0.1,0.5,0.2,0.2c-0.1,0,0-0.6-0.1-0.9c0.1-0.6,0.1,1.2,0.3,1c0,0.1-0.1-0.3-0.1-0.5c0,0.1,0.1,0.3,0.1,0.5
						c0.1-0.1,0-0.5,0-0.8c0.1,0.6,0.1-0.2,0.1-0.4l0,0.5c0.1,0.3,0-1,0.1-0.6l0,0.7l0.1-0.2l0,0.5c0.1-0.4,0.1-0.3,0.1-0.2
						c0-0.3,0-0.9,0-0.9c0,0.3,0,0.5,0.1,0.4c0,0.3,0,0.7-0.1,0.2c0,0.2,0,0.3,0,0.5c0.1,0.3,0.1,0.1,0.1,0.1c0,0,0,0,0-0.1l0.1-0.7
						c0,0.2,0,0.3,0,0.5c0-0.1,0-0.3,0.1-0.3c0,0.4,0,0.8,0,1l0.1-0.4c0,0.2,0.1,0.5,0.1,0.6c0.1,0.2,0.1-0.8,0.2-0.5
						c0-0.1,0-0.1,0-0.2c0.1,0.1,0.2,0.6,0.2,0l0.1,0.7c0.1-0.2-0.1-0.9,0-1.2c0.1-0.2,0.1,0.6,0.1,0.8
						C-2872.9,717.5-2872.9,716.8-2872.8,717.4C-2872.8,717.5-2872.8,717.4-2872.8,717.4z M-2871.9,717.1c0,0.1,0,0.4-0.1,0.1
						C-2872,716.6-2872,716.9-2871.9,717.1z M-2870.7,715.8C-2870.7,715.9-2870.8,715.8-2870.7,715.8
						C-2870.8,715.6-2870.8,715.6-2870.7,715.8z M-2867.9,711.8C-2867.9,711.8-2867.9,711.8-2867.9,711.8
						C-2868,711.7-2868,711.7-2867.9,711.8z M-2867.8,712c0-0.1,0-0.1,0-0.2C-2867.8,711.9-2867.8,711.9-2867.8,712
						C-2867.8,712-2867.8,712.1-2867.8,712z M-2875.3,713.1l0,0.1C-2875.3,713.4-2875.3,713.2-2875.3,713.1z"/>
					<path id="XMLID_552_" class="st9" d="M-2870.8,716.4c0-0.1,0-0.2,0-0.3C-2870.8,716.3-2870.8,716.3-2870.8,716.4z"/>
					<polygon id="XMLID_551_" class="st9" points="-2873.4,717.7 -2873.4,717.7 -2873.4,717.8 					"/>
					<path id="XMLID_550_" class="st9" d="M-2868,716.3c0-0.1-0.1-0.1-0.1-0.2C-2868.1,716.1-2868.1,716.2-2868,716.3z"/>
					<path id="XMLID_549_" class="st9" d="M-2867.6,711.1l0,0.1c0,0,0,0.1,0.1,0.1C-2867.6,711.3-2867.6,711.1-2867.6,711.1z"/>
					<path id="XMLID_548_" class="st9" d="M-2866.5,713.9C-2866.5,713.9-2866.5,713.9-2866.5,713.9l-0.1-0.3
						C-2866.6,713.6-2866.5,713.8-2866.5,713.9z"/>
					<path id="XMLID_547_" class="st9" d="M-2867.2,712.7c0.1,0.4,0.1,0.3,0.1,0.2c0,0,0,0,0,0
						C-2867.2,712.3-2867.2,712.5-2867.2,712.7z"/>
					<path id="XMLID_546_" class="st9" d="M-2867.1,712.8C-2867.1,712.8-2867.1,712.8-2867.1,712.8
						C-2867.1,712.6-2867.1,712.8-2867.1,712.8z"/>
					<path id="XMLID_545_" class="st9" d="M-2867.8,711.7c0,0.1-0.1-0.5-0.1-0.3C-2867.9,710.9-2867.8,712-2867.8,711.7z"/>
					<polygon id="XMLID_544_" class="st9" points="-2866.8,714 -2867,713.5 -2866.9,713.9 					"/>
					<path id="XMLID_543_" class="st9" d="M-2867.2,713.7l0.1,0.1C-2867.1,713.7-2867.1,713.7-2867.2,713.7
						C-2867.2,713.6-2867.2,713.5-2867.2,713.7z"/>
					<path id="XMLID_542_" class="st9" d="M-2867.1,713.6C-2867.1,713.6-2867.1,713.6-2867.1,713.6
						C-2867.1,713.5-2867.1,713.6-2867.1,713.6z"/>
					<polygon id="XMLID_541_" class="st9" points="-2866.9,714.1 -2866.9,714 -2867,714 					"/>
					<path id="XMLID_540_" class="st9" d="M-2867.8,713.7l0,0.2c0,0.2,0.1,0.3,0.1,0.2C-2867.7,713.9-2867.7,713.9-2867.8,713.7z"/>
					<path id="XMLID_539_" class="st9" d="M-2867.3,715c0-0.1-0.1-0.2-0.1-0.4l0.1,0.6L-2867.3,715z"/>
					<path id="XMLID_538_" class="st9" d="M-2867.4,715.2c0,0.2,0,0.5,0.1,0.4C-2867.4,715.5-2867.3,715.3-2867.4,715.2z"/>
					<polygon id="XMLID_537_" class="st9" points="-2868.5,714.6 -2868.5,714.6 -2868.7,713.6 					"/>
					<path id="XMLID_536_" class="st9" d="M-2868.8,717.2c0.1,0.2-0.1-0.6,0-0.3c0-0.2-0.1-0.2-0.1-0.4
						C-2868.9,716.6-2869,716.5-2868.8,717.2z"/>
					<path id="XMLID_535_" class="st9" d="M-2868.9,716.4c0,0,0-0.1,0-0.2C-2868.9,716.3-2868.9,716.3-2868.9,716.4z"/>
					<polygon id="XMLID_534_" class="st9" points="-2877.9,712.5 -2877.9,712.3 -2877.9,712.6 					"/>
					<path id="XMLID_533_" class="st9" d="M-2878,713.2l0-0.6L-2878,713.2C-2878,713.1-2878,713.1-2878,713.2z"/>
					<path id="XMLID_532_" class="st9" d="M-2871.7,718.4l0-0.2c0-0.2,0-0.2-0.1-0.2L-2871.7,718.4z"/>
					<polygon id="XMLID_531_" class="st9" points="-2872.4,717.9 -2872.4,717.9 -2872.4,717.4 					"/>
					<path id="XMLID_530_" class="st9" d="M-2872.9,718.7C-2872.9,718.7-2872.8,718.6-2872.9,718.7
						C-2872.9,718.7-2872.9,718-2872.9,718.7z"/>
				</g>
			</g>
		</g>
	</g>
</g>
<rect id="XMLID_636_" x="-1892" y="-13.6" class="st13" width="1405.1" height="215.2"/>
<ellipse id="XMLID_635_" class="st14" cx="-1359.9" cy="108.3" rx="107.7" ry="61.8"/>
<ellipse id="XMLID_634_" class="st15" cx="-1005.2" cy="88.1" rx="107.7" ry="61.8"/>
<ellipse id="XMLID_633_" class="st14" cx="-1112.9" cy="108.3" rx="107.7" ry="61.8"/>
<ellipse id="XMLID_632_" class="st16" cx="-1252.2" cy="131" rx="107.7" ry="61.8"/>
<path id="XMLID_1_" class="st2" d="M-1244.2,91.6c-6.9-0.2-5.1-27-5.1-27s-12.8-5.6-14.9-9.5c-2.5-4.5-10.2-21.4-3.4-22.7
	c7.1-1.4,8.5,13.7,8.5,13.7l9.8,4.8c0,0-2-32.8,7.4-32.6c5.5,0.1,2.9,32.1,2.9,32.1l7.4-4.6c0,0,2-15.5,8.8-15.2
	c6.7,0.3-3.1,21.3-3.1,21.3l-11.6,13.1C-1237.6,65.1-1237.4,91.8-1244.2,91.6z"/>
<path id="XMLID_300_" class="st2" d="M-1339.6,67.7c-5.3-0.2-4-20.9-4-20.9s-9.9-4.4-11.6-7.4c-1.9-3.5-7.9-16.7-2.7-17.7
	c5.5-1.1,6.6,10.6,6.6,10.6l7.6,3.8c0,0-1.5-25.5,5.7-25.3c4.3,0.1,2.2,24.9,2.2,24.9l5.7-3.5c0,0,1.6-12,6.9-11.8
	c5.2,0.2-2.4,16.6-2.4,16.6l-9,10.2C-1334.5,47.1-1334.3,67.8-1339.6,67.7z"/>
<path id="XMLID_303_" class="st2" d="M-1131.2,73.9c-5.3-0.2-4-20.9-4-20.9s-9.9-4.4-11.6-7.4c-1.9-3.5-7.9-16.7-2.7-17.7
	c5.5-1.1,6.6,10.6,6.6,10.6l7.6,3.8c0,0-1.5-25.5,5.7-25.3c4.3,0.1,2.2,24.9,2.2,24.9l5.7-3.5c0,0,1.6-12,6.9-11.8
	c5.2,0.2-2.4,16.6-2.4,16.6l-9,10.2C-1126.1,53.4-1125.9,74.1-1131.2,73.9z"/>
<path id="XMLID_385_" class="st2" d="M-1026.1,41.6c-2.6-0.1-2-10.3-2-10.3s-4.9-2.2-5.7-3.6c-0.9-1.7-3.9-8.2-1.3-8.7
	c2.7-0.5,3.3,5.2,3.3,5.2l3.7,1.9c0,0-0.7-12.6,2.8-12.5c2.1,0.1,1.1,12.3,1.1,12.3l2.8-1.7c0,0,0.8-5.9,3.4-5.8
	c2.6,0.1-1.2,8.2-1.2,8.2l-4.4,5C-1023.6,31.5-1023.5,41.7-1026.1,41.6z"/>
<rect id="XMLID_91_" x="-1822.1" y="1208.9" class="st0" width="1267.7" height="230.4"/>
<ellipse id="XMLID_90_" class="st14" cx="-1360.7" cy="1330.8" rx="107.7" ry="61.8"/>
<ellipse id="XMLID_89_" class="st15" cx="-1005.9" cy="1310.6" rx="107.7" ry="61.8"/>
<ellipse id="XMLID_88_" class="st14" cx="-1113.6" cy="1330.8" rx="107.7" ry="61.8"/>
<ellipse id="XMLID_87_" class="st16" cx="-1253" cy="1353.5" rx="107.7" ry="61.8"/>
<polygon id="XMLID_84_" class="st5" points="-1334,1286.1 -1336.4,1286.1 -1335.2,1242.8 "/>
<polygon id="XMLID_83_" class="st5" points="-1023.5,1269.2 -1025.2,1269.2 -1024.3,1238.5 "/>
<polygon id="XMLID_82_" class="st5" points="-1023.5,1269.2 -1025.2,1269.2 -1024.3,1238.5 "/>
<polygon id="XMLID_81_" class="st5" points="-1023.5,1269.2 -1025.2,1269.2 -1024.3,1238.5 "/>
<polygon id="XMLID_80_" class="st5" points="-1023.5,1269.2 -1025.2,1269.2 -1024.3,1238.5 "/>
<polygon id="XMLID_79_" class="st5" points="-1023.5,1269.2 -1025.2,1269.2 -1024.3,1238.5 "/>
<polygon id="XMLID_77_" class="st5" points="-1023.5,1269.2 -1025.2,1269.2 -1024.3,1238.5 "/>
<path id="XMLID_66_" class="st14" d="M-1253,1322.4l-7.8,2c-3.6,1.3-22.5,4.5-25.5,2.2l0,0c-6.1-4.4-5.8-13.5,0.5-17.5h0
	c3.8-2.4,8.6-2.7,12.7-0.8l12.8,5.9c0,0-13.2-61.1,7.3-61.1c20.7,0,7.3,61.6,7.3,61.6l11.4-5.2c4.6-2.1,10-1.8,14.4,0.7l0,0
	c6.1,3.6,6.5,12.3,0.6,16.3l0,0c-3.3,2.2-19.8-0.3-23.5-1.7L-1253,1322.4L-1253,1322.4z"/>
<line id="XMLID_67_" class="st17" x1="-1264.1" y1="1269.5" x2="-1240.2" y2="1269.5"/>
<path id="XMLID_68_" class="st15" d="M-1334.6,1287.3l-5.2,1.3c-2.4,0.8-15,3-17.1,1.5h0c-4.1-2.9-3.9-9,0.4-11.7l0,0
	c2.6-1.6,5.8-1.8,8.5-0.6l8.6,3.9c0,0-8.8-40.9,4.9-40.9c13.8,0,4.9,41.2,4.9,41.2l7.6-3.4c3.1-1.4,6.7-1.2,9.6,0.5l0,0
	c4.1,2.4,4.3,8.2,0.4,10.9l0,0c-2.2,1.5-13.3-0.2-15.7-1.1L-1334.6,1287.3L-1334.6,1287.3z"/>
<line id="XMLID_65_" class="st17" x1="-1342.1" y1="1252" x2="-1326.1" y2="1252"/>
<path id="XMLID_70_" class="st15" d="M-1128.8,1291l-5.2,1.3c-2.4,0.8-15,3-17.1,1.5l0,0c-4.1-2.9-3.9-9,0.4-11.7l0,0
	c2.6-1.6,5.8-1.8,8.5-0.6l8.6,3.9c0,0-8.8-40.9,4.9-40.9c13.8,0,4.9,41.2,4.9,41.2l7.6-3.4c3.1-1.4,6.7-1.2,9.6,0.5l0,0
	c4.1,2.4,4.3,8.2,0.4,10.9l0,0c-2.2,1.5-13.3-0.2-15.7-1.1L-1128.8,1291L-1128.8,1291z"/>
<line id="XMLID_69_" class="st17" x1="-1136.2" y1="1255.7" x2="-1120.3" y2="1255.7"/>
<path id="XMLID_72_" class="st16" d="M-1023.4,1270.3l-4,1c-1.8,0.7-11.5,2.3-13.1,1.2l0,0c-3.1-2.2-3-6.9,0.3-9h0
	c2-1.2,4.4-1.4,6.5-0.4l6.6,3c0,0-6.8-31.4,3.8-31.4c10.6,0,3.7,31.6,3.7,31.6l5.9-2.6c2.4-1.1,5.1-0.9,7.4,0.4l0,0
	c3.2,1.8,3.3,6.3,0.3,8.4l0,0c-1.7,1.2-10.2-0.1-12.1-0.9L-1023.4,1270.3L-1023.4,1270.3z"/>
<line id="XMLID_71_" class="st17" x1="-1029.1" y1="1243.2" x2="-1016.8" y2="1243.2"/>
<rect id="XMLID_246_" x="-461.4" y="0" class="st5" width="1389.7" height="213.6"/>
<ellipse id="XMLID_245_" class="st18" cx="49.9" cy="121.9" rx="107.7" ry="61.8"/>
<ellipse id="XMLID_244_" class="st19" cx="404.7" cy="101.7" rx="107.7" ry="61.8"/>
<ellipse id="XMLID_243_" class="st18" cx="297" cy="121.9" rx="107.7" ry="61.8"/>
<ellipse id="XMLID_242_" class="st20" cx="157.7" cy="144.7" rx="107.7" ry="61.8"/>
<path id="XMLID_227_" class="st3" d="M76.5,46.6l2.5,6.3c0.8,2,0.6,4.2-0.5,6.1l-6.7,10.3l-7.6-18.5c-0.1-1.8,0.6-3.7,1.9-4.9
	l1.5-1.4C70.5,41.9,75.1,42.9,76.5,46.6z"/>
<polygon id="XMLID_226_" class="st15" points="88.1,75.2 85.8,75.2 82.1,52.7 73.2,42 71.8,52.7 72.6,40.4 83.5,52.2 "/>
<path id="XMLID_223_" class="st3" d="M284.5,45l2.5,6.3c0.8,2,0.6,4.2-0.5,6.1l-6.7,10.3l-7.6-18.5c-0.1-1.8,0.6-3.7,1.9-4.9
	l1.5-1.4C278.5,40.2,283.1,41.3,284.5,45z"/>
<polygon id="XMLID_222_" class="st15" points="296.2,73.6 293.8,73.6 290.1,51.1 281.2,40.3 279.8,51.1 280.6,38.8 291.5,50.6 "/>
<path id="XMLID_225_" class="st3" d="M158.3,45.3l4,10.3c1.3,3.3,1,7-0.8,10l-10.9,16.8l-12.5-30.2c-0.2-3,0.9-6,3.2-8l2.4-2.2
	C148.3,37.6,155.9,39.3,158.3,45.3z"/>
<polygon id="XMLID_224_" class="st15" points="177.3,92.1 173.4,92.1 167.3,55.4 152.8,37.7 150.6,55.4 151.9,35.2 169.7,54.5 "/>
<path id="XMLID_229_" class="st3" d="M384.7,31.4l1.6,4.2c0.5,1.3,0.4,2.8-0.3,4l-4.4,6.8l-5-12.2c-0.1-1.2,0.4-2.4,1.3-3.2l1-0.9
	C380.7,28.3,383.8,29,384.7,31.4z"/>
<polygon id="XMLID_228_" class="st15" points="392.4,50.2 390.8,50.2 388.4,35.4 382.5,28.3 381.6,35.4 382.1,27.3 389.3,35.1 "/>
<rect id="XMLID_259_" x="-1727.8" y="592.3" class="st21" width="431.7" height="105.5"/>
<ellipse id="XMLID_258_" class="st22" cx="-1678.1" cy="714.2" rx="107.7" ry="61.8"/>
<ellipse id="XMLID_257_" class="st23" cx="-1323.3" cy="693.9" rx="107.7" ry="61.8"/>
<ellipse id="XMLID_256_" class="st22" cx="-1431" cy="714.2" rx="107.7" ry="61.8"/>
<ellipse id="XMLID_255_" class="st24" cx="-1570.4" cy="736.9" rx="107.7" ry="61.8"/>
<polygon id="XMLID_12_" class="st5" points="-1450.9,669.9 -1453.9,669.9 -1452.4,617.1 "/>
<polygon id="XMLID_8_" class="st5" points="-1651.4,669.4 -1653.8,669.4 -1652.6,626.2 "/>
<polygon id="XMLID_3_" class="st5" points="-1336.4,643.4 -1338.1,643.4 -1337.2,612.7 "/>
<path id="XMLID_14_" class="st5" d="M-1551,174.2"/>
<path id="XMLID_13_" class="st5" d="M-1552.7,161.7"/>
<path id="XMLID_11_" class="st5" d="M-1555.8,151.4"/>
<path id="XMLID_10_" class="st5" d="M-1554.8,143.4"/>
<path id="XMLID_9_" class="st5" d="M-1565.5,141.7"/>
<path id="XMLID_7_" class="st5" d="M-1576.2,151.7"/>
<path id="XMLID_6_" class="st5" d="M-1567.2,166.9"/>
<path id="XMLID_2_" class="st5" d="M-1557.5,177.6"/>
</svg>
