<?xml version="1.0" encoding="utf-8"?>
<!-- Generator: Adobe Illustrator 19.0.0, SVG Export Plug-In . SVG Version: 6.00 Build 0)  -->
<svg version="1.1" id="Laag_1" xmlns="http://www.w3.org/2000/svg" xmlns:xlink="http://www.w3.org/1999/xlink" x="0px" y="0px"
	 viewBox="-379 353.9 432 134" style="enable-background:new -379 353.9 432 134;" xml:space="preserve">
<style type="text/css">
	.st0{fill:#5F94CF;}
	.st1{fill:#5DA47C;}
	.st2{fill:#05915F;}
	.st3{fill:#8EB99B;}
	.st4{fill:#4CB8A4;}
	.st5{fill:#0F2E45;}
	.st6{fill:#C5426E;}
	.st7{fill:#005184;}
	.st8{fill:#C4AF8F;}
	.st9{fill:#FFFFFF;}
	.st10{fill:#869CBC;}
	.st11{fill:#587FA7;}
	.st12{fill:#AFBBD2;}
	.st13{fill:#E1B470;}
	.st14{fill:#B2976E;}
	.st15{fill:#8E7B5D;}
	.st16{fill:#5DA47C;stroke:#FFFFFF;stroke-miterlimit:10;}
	.st17{fill:none;stroke:#0F2E45;stroke-miterlimit:10;}
</style>
<rect id="XMLID_52_" x="-1058" y="108.7" class="st0" width="431.7" height="105.5"/>
<ellipse id="XMLID_40_" class="st1" cx="-1008.3" cy="230.6" rx="107.7" ry="61.8"/>
<ellipse id="XMLID_43_" class="st2" cx="-653.6" cy="210.4" rx="107.7" ry="61.8"/>
<ellipse id="XMLID_42_" class="st1" cx="-761.3" cy="230.6" rx="107.7" ry="61.8"/>
<rect id="XMLID_46_" x="-1166.1" y="-160.1" class="st1" width="89.3" height="85.3"/>
<ellipse id="XMLID_41_" class="st3" cx="-900.6" cy="253.3" rx="107.7" ry="61.8"/>
<rect id="XMLID_45_" x="-1058" y="-63.7" class="st4" width="89.3" height="85.3"/>
<rect id="XMLID_44_" x="-745.4" y="-160.1" class="st5" width="89.3" height="85.3"/>
<rect id="XMLID_78_" x="-745.4" y="-63.7" class="st6" width="89.3" height="85.3"/>
<rect id="XMLID_47_" x="-1166.1" y="-63.7" class="st3" width="89.3" height="85.3"/>
<rect id="XMLID_48_" x="-1058" y="-160.1" class="st2" width="89.3" height="85.3"/>
<rect id="XMLID_49_" x="-850.6" y="-160.1" class="st7" width="89.3" height="85.3"/>
<rect id="XMLID_50_" x="-953.8" y="-160.1" class="st0" width="89.3" height="85.3"/>
<rect id="XMLID_51_" x="-953.8" y="-63.7" class="st8" width="89.3" height="85.3"/>
<path id="XMLID_54_" class="st1" d="M-909.1,191l-5.8-10.1c-1.8-3.2-2.1-7.1-0.7-10.5l15.5-38.4l10.9,48.7c0.7,3.1-0.1,6.4-2,8.9
	l-2.2,2.7C-897.6,197.5-905.7,196.9-909.1,191z"/>
<polygon id="XMLID_53_" class="st5" points="-900.6,226.2 -904.7,226.2 -902.7,151.7 "/>
<path id="XMLID_56_" class="st1" d="M-889.2,187.6l-5.8-10.1c-1.8-3.2-2.1-7.1-0.7-10.5l15.5-38.4l10.9,48.7c0.7,3.1-0.1,6.4-2,8.9
	l-2.2,2.7C-877.7,194.1-885.9,193.4-889.2,187.6z"/>
<polygon id="XMLID_55_" class="st5" points="-880.7,222.8 -884.9,222.8 -882.8,148.3 "/>
<path id="XMLID_60_" class="st1" d="M-787.2,161.4l-4.1-7.2c-1.3-2.3-1.5-5-0.5-7.5l11-27.2l7.7,34.5c0.5,2.2,0,4.5-1.5,6.3
	l-1.5,1.9C-779,166-784.8,165.5-787.2,161.4z"/>
<polygon id="XMLID_59_" class="st5" points="-781.2,186.3 -784.1,186.3 -782.7,133.5 "/>
<path id="XMLID_58_" class="st1" d="M-773.1,159l-4.1-7.2c-1.3-2.3-1.5-5-0.5-7.5l11-27.2l7.7,34.5c0.5,2.2,0,4.5-1.5,6.3l-1.5,1.9
	C-764.9,163.6-770.7,163.1-773.1,159z"/>
<polygon id="XMLID_57_" class="st5" points="-767.1,183.9 -770,183.9 -768.5,131.1 "/>
<path id="XMLID_64_" class="st1" d="M-986.6,165.4l-3.4-5.9c-1.1-1.9-1.2-4.1-0.4-6.1l9-22.3l6.3,28.3c0.4,1.8,0,3.7-1.2,5.1
	l-1.3,1.6C-979.9,169.2-984.7,168.8-986.6,165.4z"/>
<polygon id="XMLID_63_" class="st5" points="-981.7,185.8 -984.1,185.8 -982.9,142.6 "/>
<path id="XMLID_62_" class="st1" d="M-975,163.4l-3.4-5.9c-1.1-1.9-1.2-4.1-0.4-6.1l9-22.3l6.3,28.3c0.4,1.8,0,3.7-1.2,5.1l-1.3,1.6
	C-968.4,167.2-973.1,166.8-975,163.4z"/>
<polygon id="XMLID_61_" class="st5" points="-970.1,183.9 -972.5,183.9 -971.3,140.6 "/>
<rect id="XMLID_134_" x="-1058" y="353.9" class="st5" width="431.7" height="105.5"/>
<ellipse id="XMLID_133_" class="st1" cx="-1008.3" cy="475.8" rx="107.7" ry="61.8"/>
<ellipse id="XMLID_132_" class="st2" cx="-653.6" cy="455.6" rx="107.7" ry="61.8"/>
<ellipse id="XMLID_131_" class="st1" cx="-761.3" cy="475.8" rx="107.7" ry="61.8"/>
<ellipse id="XMLID_130_" class="st3" cx="-888.9" cy="502.9" rx="107.7" ry="61.8"/>
<path id="XMLID_125_" class="st0" d="M-787.2,406.6l-4.1-7.2c-1.3-2.3-1.5-5-0.5-7.5l11-27.2l7.7,34.5c0.5,2.2,0,4.5-1.5,6.3
	l-1.5,1.9C-779,411.2-784.8,410.8-787.2,406.6z"/>
<polygon id="XMLID_124_" class="st9" points="-781.2,431.6 -784.1,431.6 -782.7,378.7 "/>
<path id="XMLID_121_" class="st0" d="M-986.6,410.6l-3.4-5.9c-1.1-1.9-1.2-4.1-0.4-6.1l9-22.3l6.3,28.3c0.4,1.8,0,3.7-1.2,5.1
	l-1.3,1.6C-979.9,414.4-984.7,414-986.6,410.6z"/>
<polygon id="XMLID_120_" class="st9" points="-981.7,431.1 -984.1,431.1 -982.9,387.8 "/>
<path id="XMLID_186_" class="st1" d="M-674.6,154.5l-2.4-4.2c-0.8-1.3-0.9-2.9-0.3-4.3l6.4-15.8l4.5,20.1c0.3,1.3,0,2.6-0.8,3.6
	l-0.9,1.1C-669.9,157.1-673.2,156.9-674.6,154.5z"/>
<polygon id="XMLID_185_" class="st5" points="-671.1,168.9 -672.8,168.9 -672,138.3 "/>
<path id="XMLID_184_" class="st1" d="M-666.4,153l-2.4-4.2c-0.8-1.3-0.9-2.9-0.3-4.3l6.4-15.8l4.5,20.1c0.3,1.3,0,2.6-0.8,3.6
	l-0.9,1.1C-661.7,155.7-665,155.5-666.4,153z"/>
<polygon id="XMLID_183_" class="st5" points="-662.9,167.5 -664.6,167.5 -663.8,136.8 "/>
<path id="XMLID_203_" class="st0" d="M-674.6,399.7l-2.4-4.2c-0.8-1.3-0.9-2.9-0.3-4.3l6.4-15.8l4.5,20.1c0.3,1.3,0,2.6-0.8,3.6
	l-0.9,1.1C-669.9,402.4-673.2,402.1-674.6,399.7z"/>
<polygon id="XMLID_202_" class="st9" points="-671.1,414.2 -672.8,414.2 -672,383.5 "/>
<path id="XMLID_224_" class="st1" d="M-674.6,154.5l-2.4-4.2c-0.8-1.3-0.9-2.9-0.3-4.3l6.4-15.8l4.5,20.1c0.3,1.3,0,2.6-0.8,3.6
	l-0.9,1.1C-669.9,157.1-673.2,156.9-674.6,154.5z"/>
<polygon id="XMLID_223_" class="st5" points="-671.1,168.9 -672.8,168.9 -672,138.3 "/>
<path id="XMLID_222_" class="st1" d="M-666.4,153l-2.4-4.2c-0.8-1.3-0.9-2.9-0.3-4.3l6.4-15.8l4.5,20.1c0.3,1.3,0,2.6-0.8,3.6
	l-0.9,1.1C-661.7,155.7-665,155.5-666.4,153z"/>
<polygon id="XMLID_221_" class="st5" points="-662.9,167.5 -664.6,167.5 -663.8,136.8 "/>
<path id="XMLID_228_" class="st1" d="M-674.6,154.5l-2.4-4.2c-0.8-1.3-0.9-2.9-0.3-4.3l6.4-15.8l4.5,20.1c0.3,1.3,0,2.6-0.8,3.6
	l-0.9,1.1C-669.9,157.1-673.2,156.9-674.6,154.5z"/>
<polygon id="XMLID_227_" class="st5" points="-671.1,168.9 -672.8,168.9 -672,138.3 "/>
<path id="XMLID_226_" class="st1" d="M-666.4,153l-2.4-4.2c-0.8-1.3-0.9-2.9-0.3-4.3l6.4-15.8l4.5,20.1c0.3,1.3,0,2.6-0.8,3.6
	l-0.9,1.1C-661.7,155.7-665,155.5-666.4,153z"/>
<polygon id="XMLID_225_" class="st5" points="-662.9,167.5 -664.6,167.5 -663.8,136.8 "/>
<path id="XMLID_232_" class="st1" d="M-674.6,154.5l-2.4-4.2c-0.8-1.3-0.9-2.9-0.3-4.3l6.4-15.8l4.5,20.1c0.3,1.3,0,2.6-0.8,3.6
	l-0.9,1.1C-669.9,157.1-673.2,156.9-674.6,154.5z"/>
<polygon id="XMLID_231_" class="st5" points="-671.1,168.9 -672.8,168.9 -672,138.3 "/>
<path id="XMLID_230_" class="st1" d="M-666.4,153l-2.4-4.2c-0.8-1.3-0.9-2.9-0.3-4.3l6.4-15.8l4.5,20.1c0.3,1.3,0,2.6-0.8,3.6
	l-0.9,1.1C-661.7,155.7-665,155.5-666.4,153z"/>
<polygon id="XMLID_229_" class="st5" points="-662.9,167.5 -664.6,167.5 -663.8,136.8 "/>
<path id="XMLID_236_" class="st1" d="M-674.6,154.5l-2.4-4.2c-0.8-1.3-0.9-2.9-0.3-4.3l6.4-15.8l4.5,20.1c0.3,1.3,0,2.6-0.8,3.6
	l-0.9,1.1C-669.9,157.1-673.2,156.9-674.6,154.5z"/>
<polygon id="XMLID_235_" class="st5" points="-671.1,168.9 -672.8,168.9 -672,138.3 "/>
<path id="XMLID_234_" class="st1" d="M-666.4,153l-2.4-4.2c-0.8-1.3-0.9-2.9-0.3-4.3l6.4-15.8l4.5,20.1c0.3,1.3,0,2.6-0.8,3.6
	l-0.9,1.1C-661.7,155.7-665,155.5-666.4,153z"/>
<polygon id="XMLID_233_" class="st5" points="-662.9,167.5 -664.6,167.5 -663.8,136.8 "/>
<path id="XMLID_240_" class="st1" d="M-674.6,154.5l-2.4-4.2c-0.8-1.3-0.9-2.9-0.3-4.3l6.4-15.8l4.5,20.1c0.3,1.3,0,2.6-0.8,3.6
	l-0.9,1.1C-669.9,157.1-673.2,156.9-674.6,154.5z"/>
<polygon id="XMLID_239_" class="st5" points="-671.1,168.9 -672.8,168.9 -672,138.3 "/>
<path id="XMLID_238_" class="st1" d="M-666.4,153l-2.4-4.2c-0.8-1.3-0.9-2.9-0.3-4.3l6.4-15.8l4.5,20.1c0.3,1.3,0,2.6-0.8,3.6
	l-0.9,1.1C-661.7,155.7-665,155.5-666.4,153z"/>
<polygon id="XMLID_237_" class="st5" points="-662.9,167.5 -664.6,167.5 -663.8,136.8 "/>
<rect id="XMLID_508_" x="-1059.6" y="654.4" class="st6" width="431.7" height="105.5"/>
<ellipse id="XMLID_507_" class="st10" cx="-1009.9" cy="776.3" rx="107.7" ry="61.8"/>
<ellipse id="XMLID_506_" class="st11" cx="-655.1" cy="756.1" rx="107.7" ry="61.8"/>
<ellipse id="XMLID_505_" class="st10" cx="-762.8" cy="776.3" rx="107.7" ry="61.8"/>
<ellipse id="XMLID_504_" class="st12" cx="-902.2" cy="799" rx="107.7" ry="61.8"/>
<path id="XMLID_503_" class="st1" d="M-910.6,698l-5.8,10.1c-1.8,3.2-2.1,7.1-0.7,10.5l15.5,38.4l10.9-48.7c0.7-3.1-0.1-6.4-2-8.9
	l-2.2-2.7C-899.1,691.5-907.3,692.1-910.6,698z"/>
<polygon id="XMLID_502_" class="st5" points="-902.2,662.8 -906.3,662.8 -904.2,737.3 "/>
<path id="XMLID_499_" class="st1" d="M-788.7,727.6l-4.1,7.2c-1.3,2.3-1.5,5-0.5,7.5l11,27.2l7.7-34.5c0.5-2.2,0-4.5-1.5-6.3
	l-1.5-1.9C-780.6,723-786.4,723.4-788.7,727.6z"/>
<polygon id="XMLID_498_" class="st5" points="-782.7,702.6 -785.7,702.6 -784.2,755.5 "/>
<path id="XMLID_495_" class="st1" d="M-988.1,711.1l-3.4-5.9c-1.1-1.9-1.2-4.1-0.4-6.1l9-22.3l6.3,28.3c0.4,1.8,0,3.7-1.2,5.1
	l-1.3,1.6C-981.5,714.9-986.2,714.5-988.1,711.1z"/>
<polygon id="XMLID_306_" class="st5" points="-983.2,703.1 -985.6,703.1 -984.4,746.4 "/>
<path id="XMLID_305_" class="st1" d="M-976.6,725.5l-3.4,5.9c-1.1,1.9-1.2,4.1-0.4,6.1l9,22.3l6.3-28.3c0.4-1.8,0-3.7-1.2-5.1
	l-1.3-1.6C-969.9,721.8-974.6,722.2-976.6,725.5z"/>
<polygon id="XMLID_304_" class="st5" points="-971.7,705.1 -974.1,705.1 -972.9,748.4 "/>
<polygon id="XMLID_302_" class="st5" points="-672.7,714.7 -674.4,714.7 -673.5,684 "/>
<path id="XMLID_301_" class="st1" d="M-668,698.8l-2.4-4.2c-0.8-1.3-0.9-2.9-0.3-4.3l6.4-15.8l4.5,20.1c0.3,1.3,0,2.6-0.8,3.6
	l-0.9,1.1C-663.2,701.4-666.6,701.2-668,698.8z"/>
<polygon id="XMLID_298_" class="st5" points="-672.7,714.7 -674.4,714.7 -673.5,684 "/>
<path id="XMLID_297_" class="st1" d="M-668,698.8l-2.4-4.2c-0.8-1.3-0.9-2.9-0.3-4.3l6.4-15.8l4.5,20.1c0.3,1.3,0,2.6-0.8,3.6
	l-0.9,1.1C-663.2,701.4-666.6,701.2-668,698.8z"/>
<polygon id="XMLID_294_" class="st5" points="-672.7,714.7 -674.4,714.7 -673.5,684 "/>
<path id="XMLID_293_" class="st1" d="M-668,698.8l-2.4-4.2c-0.8-1.3-0.9-2.9-0.3-4.3l6.4-15.8l4.5,20.1c0.3,1.3,0,2.6-0.8,3.6
	l-0.9,1.1C-663.2,701.4-666.6,701.2-668,698.8z"/>
<polygon id="XMLID_290_" class="st5" points="-672.7,714.7 -674.4,714.7 -673.5,684 "/>
<path id="XMLID_289_" class="st1" d="M-668,698.8l-2.4-4.2c-0.8-1.3-0.9-2.9-0.3-4.3l6.4-15.8l4.5,20.1c0.3,1.3,0,2.6-0.8,3.6
	l-0.9,1.1C-663.2,701.4-666.6,701.2-668,698.8z"/>
<polygon id="XMLID_286_" class="st5" points="-672.7,714.7 -674.4,714.7 -673.5,684 "/>
<path id="XMLID_285_" class="st1" d="M-668,698.8l-2.4-4.2c-0.8-1.3-0.9-2.9-0.3-4.3l6.4-15.8l4.5,20.1c0.3,1.3,0,2.6-0.8,3.6
	l-0.9,1.1C-663.2,701.4-666.6,701.2-668,698.8z"/>
<g id="XMLID_204_">
	<g id="XMLID_404_">
		<g id="XMLID_408_">
			<g id="XMLID_409_">
				<g id="XMLID_410_">
					<path id="XMLID_520_" class="st9" d="M-901.1,460.8c-0.1,0.2,0.4,0.2,0.4,0.2C-900.8,460.6-901.3,460.8-901.1,460.8z"/>
					<polygon id="XMLID_519_" class="st9" points="-901.7,457 -901.5,457.1 -901.8,456.4 					"/>
					<path id="XMLID_518_" class="st9" d="M-901,453.5c-0.8,0.2-0.1,1.3-0.5,1.9l-0.2,0.1l0.5,0.4C-901.2,455-901.3,454-901,453.5z"
						/>
					<path id="XMLID_494_" class="st9" d="M-899.1,452c-0.3,0-0.1-0.4-0.2,0.4c0,0,0.1,0,0.1-0.1
						C-899.2,452.3-899.1,452.2-899.1,452z"/>
					<path id="XMLID_493_" class="st9" d="M-899.2,452.4C-899.3,452.7-898.9,452.2-899.2,452.4L-899.2,452.4z"/>
					<path id="XMLID_492_" class="st9" d="M-898.9,450.7l0.1,0.5c0.2-0.1,0.3-0.4,0.4-0.3C-898.4,450.5-898.6,450.5-898.9,450.7z"/>
					<path id="XMLID_491_" class="st9" d="M-899.3,450.1v0.3C-899.2,450.4-899.1,450.3-899.3,450.1z"/>
					<path id="XMLID_490_" class="st9" d="M-899.2,451l-0.1-0.6c-0.1,0-0.4,0,0,0.3C-899.4,450.6-899.3,450.7-899.2,451z"/>
					<path id="XMLID_489_" class="st9" d="M-899.4,451.2c-0.2,0.2-0.4,0.5-0.5,0C-900,452.2-899.5,452.1-899.4,451.2z"/>
					<path id="XMLID_488_" class="st9" d="M-901.7,453.1l-0.3,0.3l0.2,0.4C-901.9,453.7-901.5,453.2-901.7,453.1z"/>
					<path id="XMLID_487_" class="st9" d="M-897.7,448c-0.1-0.1-0.4,0-0.6,0v0.4C-898.1,448.2-897.9,447.9-897.7,448z"/>
					<path id="XMLID_486_" class="st9" d="M-898.3,448l-0.1-0.6C-898.5,447.8-898.5,448-898.3,448z"/>
					<polygon id="XMLID_485_" class="st9" points="-900,449.8 -899.7,450.8 -900,449.7 					"/>
					<polygon id="XMLID_484_" class="st9" points="-896.9,446.1 -896.7,446.5 -897,445.8 					"/>
					<path id="XMLID_483_" class="st9" d="M-896.5,444.9c0.2,0.3,0.6-0.1,0.6,0.2c0.1-0.3,0-0.7-0.1-1.1
						C-896,444.3-896.1,444.6-896.5,444.9z"/>
					<path id="XMLID_482_" class="st9" d="M-896.1,443.4c0,0.2,0.1,0.4,0.1,0.6C-895.9,443.8-896,443.7-896.1,443.4z"/>
					<path id="XMLID_481_" class="st9" d="M-898,446.6c0.1,0,0.3,0,0.6-0.2h-0.5C-897.9,446.4-897.9,446.5-898,446.6z"/>
					<path id="XMLID_480_" class="st9" d="M-897.9,446.4L-897.9,446.4c0.1-0.2,0.2-0.4,0.2-0.4S-897.8,446.1-897.9,446.4z"/>
					<path id="XMLID_479_" class="st9" d="M-898,446.6L-898,446.6L-898,446.6z"/>
					<path id="XMLID_478_" class="st9" d="M-899.2,448.6c-0.1-0.4-0.2-1.1-0.7-0.6C-899.7,448.3-899.4,448-899.2,448.6z"/>
					<path id="XMLID_477_" class="st9" d="M-898.6,446.7l-0.3,0.5c0.1,0,0.3,0,0.4,0.2L-898.6,446.7z"/>
					<polygon id="XMLID_476_" class="st9" points="-898.6,446.4 -898.6,446.7 -898.5,446.5 					"/>
					<path id="XMLID_475_" class="st9" d="M-896.8,444.2c-0.1-0.3,0-0.5,0.1-0.8c-0.2,0.3-0.4,0.5-0.5,0.8
						C-897.1,444.3-896.9,444.5-896.8,444.2z"/>
					<path id="XMLID_474_" class="st9" d="M-897.4,445.2L-897.4,445.2C-897.4,445.2-897.5,445.2-897.4,445.2z"/>
					<path id="XMLID_473_" class="st9" d="M-895.4,440.7L-895.4,440.7L-895.4,440.7z"/>
					<path id="XMLID_472_" class="st9" d="M-897.3,444.2c-0.2,0.2-0.1,0.4-0.1,0.5C-897.3,444.5-897.3,444.4-897.3,444.2
						C-897.3,444.1-897.3,444.1-897.3,444.2z"/>
					<path id="XMLID_471_" class="st9" d="M-895.9,442.6c-0.1,0.1-0.3,0.2-0.4,0.3C-896.1,442.8-895.8,442.7-895.9,442.6z"/>
					<path id="XMLID_470_" class="st9" d="M-897.3,445.1C-897.3,445.1-897.2,445.2-897.3,445.1
						C-897.1,445.1-897.2,445.1-897.3,445.1z"/>
					<path id="XMLID_469_" class="st9" d="M-897.3,445.1c0-0.1-0.1-0.3-0.1-0.4C-897.4,444.9-897.4,445-897.3,445.1
						C-897.4,445.1-897.3,445.1-897.3,445.1z"/>
					<path id="XMLID_468_" class="st9" d="M-897.4,438.5c0.3,0.2,0.3,1-0.3,1.3c0,0.6,1.3,0.9,2.2,0.8c-0.1-0.1-0.3-0.2-0.2-0.8
						c-0.3,0.1-1,0.9-1.1,0.3c0.2-0.8,0.4-0.5,0.8-0.7c-0.6,0-0.2-1.2-0.9-1.4l-0.1,0.7C-897.1,438.7-897.2,438.4-897.4,438.5z"/>
					<path id="XMLID_467_" class="st9" d="M-896,441.6l-0.1,0.2c0.2-0.2,0.4-0.3,0.8-0.5c0-0.4-0.1-0.6-0.2-0.6c0,0-0.1,0.2-0.3,0.5
						C-895.8,441.4-896,441.7-896,441.6L-896,441.6z"/>
					<path id="XMLID_466_" class="st9" d="M-896.5,442.7c-0.3-0.3-0.2-0.9-0.8-0.8c-0.3,0.6,0.1,0.6,0.1,1
						C-896.8,441.9-897.1,443.4-896.5,442.7c-0.1,0.2-0.1,0.4-0.2,0.6c0.1-0.2,0.3-0.3,0.4-0.4l0,0l0,0l0,0c-0.1,0-0.1,0-0.1,0l0,0
						C-896.4,442.8-896.5,442.8-896.5,442.7c0.2-0.2,0.1,0,0.1,0.1c0,0,0,0,0.1,0l0,0l0.3-1.1C-896.2,442-896.3,442.3-896.5,442.7z"
						/>
					<path id="XMLID_465_" class="st9" d="M-900.6,447.1L-900.6,447.1C-900.5,447-900.6,447-900.6,447.1z"/>
					<path id="XMLID_464_" class="st9" d="M-900.2,446.8c0,0.1,0.2,0.2,0,0.5c-0.2,0.2-0.2-0.1-0.3-0.1c0.1,0.2,0.1,0.6,0.5,0.2
						v-0.1c0.3-0.4,1-0.7,1-0.6C-899.5,446.6-899.8,446.6-900.2,446.8z"/>
					<path id="XMLID_463_" class="st9" d="M-898.5,444.6c0,0,0-0.2,0.1-0.5c0-0.2,0.1-0.5,0.1-0.5l-0.5,0.3l0.2,0.1
						C-898.9,444.5-898.6,444.5-898.5,444.6z"/>
					<polygon id="XMLID_462_" class="st9" points="-895.1,440.7 -894.8,441 -895.1,440.2 					"/>
					<polygon id="XMLID_461_" class="st9" points="-894.6,439.6 -894.3,439.8 -894.4,439.4 					"/>
					<path id="XMLID_460_" class="st9" d="M-871.8,381.8l-0.2-0.1C-872,381.7-871.9,381.7-871.8,381.8z"/>
					<path id="XMLID_459_" class="st9" d="M-870.8,383.1l0.2-0.1C-870.8,383.1-870.9,383.1-870.8,383.1z"/>
					<path id="XMLID_458_" class="st9" d="M-875.2,417.2c0.6-0.1,1.3,0,0.9-0.3l-0.4-0.2C-874.8,417-875,417.1-875.2,417.2z"/>
					<path id="XMLID_457_" class="st9" d="M-866.5,397.8c0,0-0.1,0.1-0.2,0.1c0.1,0.1,0.2,0.3,0.3,0.4
						C-866.4,398.1-866.5,398-866.5,397.8z"/>
					<path id="XMLID_456_" class="st9" d="M-868.2,397.1l0.4-0.4C-868,396.8-868.1,396.9-868.2,397.1z"/>
					<path id="XMLID_455_" class="st9" d="M-880.1,377.6l-0.4,0.4C-880,378.1-880.1,377.9-880.1,377.6z"/>
					<path id="XMLID_454_" class="st9" d="M-887.6,429.7c0.4-0.1,0.6-0.3,0.8-0.5C-887.3,429.4-887.8,429.4-887.6,429.7z"/>
					<path id="XMLID_453_" class="st9" d="M-867.8,379.5c-0.2-0.1-0.3-0.1-0.4-0.1C-867.9,379.5-867.8,379.6-867.8,379.5z"/>
					<path id="XMLID_452_" class="st9" d="M-886.2,428.6c-0.1,0-0.1,0-0.2,0.1c-0.1,0.2-0.2,0.5-0.5,0.7
						C-886.5,429.2-886.2,429-886.2,428.6z"/>
					<path id="XMLID_451_" class="st9" d="M-909.2,393L-909.2,393C-909.2,393.1-909.2,393-909.2,393z"/>
					<path id="XMLID_450_" class="st9" d="M-914.3,404.1c0-0.1-0.1-0.3-0.1-0.5C-914.4,403.7-914.4,403.8-914.3,404.1z"/>
					<path id="XMLID_449_" class="st9" d="M-892,435.7C-892.1,435.9-891.9,435.7-892,435.7L-892,435.7z"/>
					<path id="XMLID_448_" class="st9" d="M-894.1,435.7c0-0.1,0-0.1-0.1-0.2C-894.1,435.6-894.1,435.7-894.1,435.7z"/>
					<path id="XMLID_447_" class="st9" d="M-886.3,424.8L-886.3,424.8C-886.4,424.8-886.4,424.8-886.3,424.8z"/>
					<path id="XMLID_446_" class="st9" d="M-892.3,435.9c0.1,0,0.2-0.1,0.3-0.2C-892.1,435.7-892.2,435.8-892.3,435.9z"/>
					<path id="XMLID_445_" class="st9" d="M-892.1,436c-0.1,0.1-0.1,0.1-0.2,0.2C-892.2,436.2-892.2,436.2-892.1,436z"/>
					<path id="XMLID_444_" class="st9" d="M-891.8,435.4c-0.1,0.1-0.2,0.2-0.3,0.3c0.1,0,0.1,0,0.1,0
						C-891.9,435.6-891.9,435.5-891.8,435.4z"/>
					<path id="XMLID_443_" class="st9" d="M-897.3,378.1C-897.3,378-897.3,378-897.3,378.1C-897.5,378.3-897.4,378.2-897.3,378.1z"
						/>
					<path id="XMLID_442_" class="st9" d="M-874.2,409.1L-874.2,409.1L-874.2,409.1L-874.2,409.1z"/>
					<path id="XMLID_441_" class="st9" d="M-873.9,408.1c0.2,0.6,0,0.8-0.2,0.9l1.2,0.5L-873.9,408.1z"/>
					<path id="XMLID_434_" class="st9" d="M-875,379.2l0.2,0.6c-0.9,0.2-1.2-0.2-1,0.5c0.4-0.6,0.8-0.3,1.3-0.1
						c0.4,0.3,0.9,0.6,1.3,0.1l0.1,0.5c-0.1-0.1-0.1,0-0.2-0.1c0,1,1.1-0.4,1.6,0.5c0.1,0.3,0.1,0.6-0.1,0.6l0.7,0.4
						c0.1,0.2-0.1,0.3-0.2,0.1c0,0,0.2,0.2,0.4,0.4c0.2,0.2,0.4,0.4,0.4,0.4l0,0c0.3,0,0.7,0.2,1,0.2c0,0.4-0.2-0.1-0.3,0.1l0.6,0.4
						c-0.2,0.4-0.7,0.1-0.9-0.3c-0.4,0.6-0.3,0.7-0.1,0.8s0.6,0.3,0.5,1l-0.4-0.5c-0.5,0.7-0.1,0.9-0.3,1.7c0.2-0.2,0.6-1.6,1.2-1.2
						c0,0.2,0,0.5,0.4,0.7c-0.5,0.2-0.2,0.5-0.1,0.9l-0.6,0.2c0.3,0.4,0.6,0.3,1,0.5c0.1,0.5-0.4,0.8-0.8,1c0.1,0.9,0.7-0.8,1,0.2
						c0,0.4,0,0.7,0.1,1c0.1,0.3,0.3,0.6,0.6,1.1c-0.2,0.5-0.4-0.1-0.6,0.1l0.5,0.4c0,0.1-0.2,0.1-0.2,0.1c0.2,0.4,0.6,0,0.8,0.6
						c0.4,0.1,0.1,0.4-0.1,0.8c-0.3,0.4-0.5,0.8-0.1,1.3c-0.2,0.2-0.4-0.1-0.6-0.1c0.4,1.1,0.3,0.9,0.9,1.9c0,0-0.1,0.2-0.3,0.3
						c-0.1,0.2-0.3,0.3-0.3,0.3c0.6-0.5,1,0.3,1.3,1.1c0.3-0.2,0.5-0.3,0.6-0.4c0,0,0,0.3,0,0.6c0,0.3,0,0.6,0,0.6
						c-0.1,0.1-0.3-0.1-0.5-0.3c0,0.1,0.1,0.2,0.1,0.2c-0.3,0.3-0.6,0-0.9-0.3c0.2-0.1,0.3-0.2,0.5-0.3c-0.3-0.3-0.7-0.7-1.1-0.7
						c0.1,0.1,0.1,0.2,0.1,0.4c-0.1-0.1-0.2-0.1-0.2-0.1c-0.1,0,0,0.1,0.2,0.3h-0.7l0.3,0.1c0,0-0.2,0.3-0.4,0.6
						c-0.2,0.3-0.4,0.5-0.4,0.5c0.4,1.1,1.1,2.2,0.8,3.8c-0.3-0.6-0.7-0.4-1.3-0.7c0.8-0.1,0.2-1.2,0.6-1.8c-0.2,0.3-0.5,0.2-0.5,0
						c0,0,0,0.4,0,0.7c0,0.4,0,0.7,0,0.7c-0.5-0.2-0.5,0.1-0.8,0.4c1,0.2,0.2,1.2,0.2,1.9c-0.3-0.1-0.5-0.4-0.2-1
						c-1,0.3,0.6,1.4-0.3,1.8c0.1-0.2,0.2-0.2,0-0.3c0.1,0.5-0.6,1.2-0.8,0.9l0.1-0.1c-0.6,0.9-1.8,2.9-1.2,3.5
						c-0.1-0.1-0.8-0.7-0.9-0.9c0,0,0.3,0.8,0.6,1.7c0.3,0.8,0.5,1.7,0.5,1.7c-0.5-0.6-2.3-1.1-2-2.1c-0.2,0.2-0.5,0.3-0.7,0.9
						c0.2-0.1,1.1,0.3,1,0.5c-1.1,0-0.6,0.1-1.7,0.3c0.3-0.1,1,0.8,0.7,1.2c-0.1-0.2-0.9-0.7-0.9-0.9l0.2,1.6c0-0.3-0.7-0.7-1.1-0.7
						c0.2,0.1-0.6,0.7-0.7,1l0.5-0.2c-0.9,0.8,0.4,2-0.5,2.8c-0.1-0.3-0.8-1.2-1.3-0.9c0.2,0.6,1.1,2.8,0.7,4l-0.4-0.1l-0.3,0.9
						c-0.2-1-0.5-3.3-0.5-4.4c-0.5,0.2-0.4-0.2-0.8,0.3c-0.4,0-0.1-0.6,0.1-0.8l-1.3,1c0.5,0.4-0.4,1.4,0,1.7l0.7-1.7
						c0.5,0.4,0.7,2.1-0.3,2.8c-0.4,0-0.7-1-0.9-1.1c0.1,0.3-0.5,1.1-0.7,1l0.1-0.6c-0.6,0.3-0.1,1.4-1.1,1.5
						c-0.2,0.2-1.2-0.1-0.9,0.3c0.9,0.2,2.6,1.9,2.8,2.5c-0.1,0-1.5,0.5-2,0.4c-0.7-0.1-0.5-1.5-1.2-1.6c0.1,0.1,0.1,0.5,0.1,0.6
						c-0.3,0.1-0.3-0.5-0.7,0c0.4,0.6-0.9,0.8,0.2,0.6c-0.3,0.6-0.6,0.4-1,0.9c0.5,0.2,0.6,1.5,0.3,2.1c-0.1-0.1-0.4-0.2-0.5-0.2
						c-0.9,0.8-1.6,1.1-2.4,1.9c-0.2,0-0.7,0.2-0.8-0.1c0,0.2,0,0.5-0.2,0.7c-0.9,0.1,0.5-0.7-0.4-0.7c0.3,0.3-0.2,1.1-0.4,1.6
						c0.6,0.3,0.9-0.8,1-1.3c0.6,0.6,0.7,1.8,0.2,3c-0.5,0.8-0.7,0-0.7,0.2c-1.3,1.3,0.2,2.1-1.2,2.8c-0.8,0.1-0.9-0.6-1.2-0.8
						c0.3-0.7,1-0.7,1.3-1.1l-0.6,0.3c0-0.3,0.2-0.8,0.5-0.9c-0.7,0.1-2,2.3-3.1,3.2c0,0.3-0.1,0.8,0.2,0.7l0.2-0.4
						c0.6-0.1,0,1,0.5,0.7c-0.1,0.7,0,1.4-0.7,2l-0.6-0.2c0.2,0.1,0.6-0.2,0.6-0.5c0.1,0.4-1.4,0.6-0.9,1.3l0.7-0.3
						c-0.1,0.6,0.2,1.6-0.4,2.1c0.7,0,0-0.2,0.9-0.2c-1-0.1,1-1.5-0.2-1.4c1,0,0.8-0.6,1.7-0.7c-0.2-0.1-0.5,0,0-0.4
						c0-0.1-0.1-0.1-0.1-0.2l0,0l0,0l0,0c-0.2,0.1-0.3,0.1-0.4,0.1c-0.2-0.5,0.3-1.3,0.3-1.7c0.3-0.2,0.1,0.3,0.4,0.2v-0.6
						c0.4,0.2,1.2-0.3,0.9,0.5l0.5-0.6c0.5-0.2,0.9-0.6,1-1c0.3-0.2,0.2-1,0.2-0.5l0.5-1.1l0.1,0.1c0.8-0.8,1-2.3,2.5-2.7
						c0.2-0.4,0.4-0.8,0.9-1.1l0.4,0.2c0.3-0.5,1.3-0.8,1.2-1.3c1.1,0.3,1.9-1.6,2.7-2.1l-0.3-0.4c0.5-0.4,0.8-0.9,1.2-1.6l-0.3-0.3
						c0.2-0.7,1.5-1,2.2-1.8c0.1,0.2-0.2,0.3-0.4,0.4c1.6-0.2,1.4-2.4,2.7-2.8c0.1-0.3,0.3-0.4,0.5-0.5c0,0,0,0,0,0.1l0.1-0.1
						c0.1,0,0.3-0.1,0.5-0.1c-0.2,0-0.3,0-0.4,0.1c0.1-0.2,0.3-0.5,0.5-0.8l0.5,0.2c0,0,0,0,0-0.1c0.4-0.1,0-0.4-0.4-0.5
						c0.1-0.2,0.1-0.4,0.1-0.5c0.8,0.3,0.4-0.8,1.3-0.6c-0.1-0.4,0.9-1.5,0.3-2.2c0.1,0.1,0.2,0,0.1,0.2c0.3-0.2,0.6-0.5,0.6-0.9
						l0.6,0.3l-0.2-1.2c0.6-0.2,0.9-0.2,1,0.5c0.1-1.4,0.4-1,0.4-2.2l0.3,0.3c0.2-0.3,0.1-1.1,0.5-1.1c1.1-0.3,2.3-3.3,3.7-5
						c-1.2-0.1,0.9-0.7,0.1-1.1c0.3,0,0.6-0.2,0.6,0.2c0.2-1.1,1-1.4,0.5-2.4c0.3,0,0.3,0.4,0.5,0.3c0-0.1-0.1-0.4,0.1-0.5
						c0.2-0.1,0.2,0.2,0.2,0.4c0.3-1.1-0.5-1.5-1.2-1.8c0.5-0.4,0.5-0.8,0.1-1.3c0.3-0.1,0.6-0.4,0.6,0.3c0.2-0.4,0.8-2.3,0.2-2.4
						c0.2-0.1,0.1-0.5,0-0.6c0.1-0.9,0.2-0.9,0.1-1.8l-0.1,0.2c-0.7-0.4-0.2-0.7-0.3-1.4h0.1c0.5-1.6-0.3-0.7,0.2-2.3l-0.5,0.1
						c-0.5,0-0.4-0.4-0.2-0.8c0.2-0.5,0.3-1.1,0.1-1.5l-0.2,0.4c-0.4-0.4,1-1.7,1-2.3c0.1-0.1,0.2,0.1,0.3,0.3
						c0.2-1.5-0.6,0-1.1-0.9c0.3-0.3,0.9-0.1,0.7-0.7c0.1-0.2-0.4-0.6-0.8-1c-0.4-0.5-0.9-0.9-0.9-1.5c-0.1,0.3-0.3,0.6-0.7,0.3
						c-0.2-0.3-0.3-0.8-0.4-1.3c-0.1-0.5-0.4-0.9-0.9-0.9c0-0.1,0-0.2,0.1-0.2c-0.5-0.3-1.5-1.2-2-1c0.4-0.8-0.4-1.3-1.2-1.5
						c-0.7-0.3-1.5-0.5-1.1-1.1l-1.5-0.8l0.1-0.1c-1-0.6-1.5-0.4-1.9-0.2c-0.2-0.2,0-0.3,0.1-0.3c-0.7-0.4-1.1-0.6-1.5-0.7
						c-0.4,0-0.8,0-1.5,0.3v-0.5c-0.4,0.2-2.1-1.2-3.7-0.8c0-0.1,0.1-0.1,0.2-0.2c-0.9,0.2-1.9-0.2-2.8-0.4
						c-0.9-0.2-1.7-0.2-1.9,0.7c0,0-0.3,0.1-0.5,0.3c-0.3,0.1-0.5,0.3-0.5,0.3c1.4,0-0.1,0.8,0.5,1c-0.5,0.2-1.4-0.4-0.8-0.6
						l0.1,0.1c0.1-1-1.8-0.1-1.8-0.8c-2.7,0.5-5.5,0.6-8,1.5l0.5,0.6l-0.9,0.3c-0.3-0.1-0.5-0.4,0.1-0.6c-0.5-0.3-0.9,0.7-0.9,0.9
						c-1.3,0.3,0.1-1-0.2-0.8l-0.5,0.3h0.1c-0.3,0.5-0.2,0.8-0.9,1.1c-0.5,0.1-0.4-0.3-0.6-0.2c0,0-0.1,0-0.3,0.1
						c0,0-0.3,0.1-0.5,0.3c-0.3,0.1-0.5,0.3-0.5,0.3l0.7,0.3c-0.3,0.5-1,0.5-0.2,0.8c-0.3-0.1-0.7,0-1.1,0.1
						c-0.4,0.2-0.9,0.5-1.3,0.8c-0.9,0.6-1.5,1.4-1.8,1.5c-0.3,0.8-0.7,1.3-1.4,1.9c0.3-0.1,0.8,0.2,0.3,0.8
						c-0.9-1.1-1.3,0.7-2.5,0.7c0.8-0.1-1.1,1.9,0.2,1.7c-0.4,0.5-0.5-0.2-1,0c-0.3,1.6-1.9,2.8-2.4,4.7c0.2,0.1,0.5-0.1,0.6,0.3
						c0,0-0.3,0.2-0.6,0.3c-0.3,0.2-0.6,0.3-0.6,0.3c0,0.4,0.9,0.6,0.1,1.1c0.2-0.1,0.4-0.1,0.4,0.1c-0.9,1.6-1.1,3.6-1.1,5.4
						c-0.1,1.9,0,3.7-0.7,5.7c0.3-0.6,0.4-0.2,0.4,0.2c0-0.3,0.4,0,0.7-0.1l-0.4,1.6c0.7,0.2,0.4,1.6,1,1.7l-0.2-0.5
						c0.9,0.4,1.4-1.2,2.4-1.3c-0.5-0.2-0.2-0.7,0-1.3c0.2-0.5,0.4-1.1-0.3-1.5c0.2-0.3,0.3,0.2,0.5,0c-0.4-0.2-0.6-0.6-0.4-1.2
						l0.1,0.1c-0.1-1.7,0.3-2.5,0.8-4.3l-0.5,0.1c0.1-0.4,0.3-0.5,0.4-0.6c-0.6-0.6-0.2,1.1-0.9,0.6c0.5-0.2,0.6-0.9,0.8-1.6
						s0.3-1.3,0.9-1.4c0.2-0.6-0.6,0-0.4-0.6l0.3-0.1l-0.3-0.3c0.2-0.4,0.6-0.5,0.8-0.4c-0.1,0.1,0,0.3,0,0.4
						c0.5-0.4,0.3-1.4,0.5-1.6l-0.4,0.5c0.3-1.7,1.5-3.4,1.9-5.1h-0.3c0.4-1.3,0.7-0.7,1.4-1.9v0.1c0-0.4,0.1-0.7,0.4-1
						c0,0.4,0.8-0.1,0.7,0.4c0.6-1.3,0.2-0.7,0.2-2l0.4,0.1c0-0.4-0.1-0.6,0.4-1.1c-0.2,0.6,0.7,0.1,0.5,0.9c0.8-0.2,1.1-0.6,1.3-1
						c0.3-0.4,0.5-0.7,1.1-0.4c0-0.6-0.3-0.6-0.7-0.4c-0.3,0.2-0.6,0.5-0.5,0.3c-0.5-0.1,0-1,0.5-1.1c0.4-0.2,1.4,0.7,2.4,0.1
						c-0.1,0-0.1,0.1-0.2,0.2c0.5,0,0.6-0.7,1.3-0.5c0-0.7,0.6-0.2,0.4-1c0,0-0.2,0.2-0.5,0.3c-0.2,0.2-0.5,0.3-0.5,0.3
						c0.5-0.4,0.6-1.5,1.8-1.5c0,0.2-0.2,0.5-0.4,0.7c0.4,0.1,0.5-0.4,0.9-0.2c0.2,0.8-1.2,0.6-1.5,1.5c0.4,0.2,0.9-1,0.9-0.1
						c0-1.2,1.1-0.3,1.6-1.3l0.1,0.5c0.1-0.1,0.3-0.4,0.5-0.5l-0.2,0.7c0.5-0.7,1.3,0.1,1.8-0.3c-1.2,0.4-0.4-0.5-1.1-0.7
						c1.4-1,1.2,0.9,2.9,0.3c-0.2,0.1-0.9-0.1-0.6-0.4c0.4,0,0.8,0.1,1.1,0.3c1.1-0.3-0.3-0.4,0.2-0.8c0.5,0.5,0.5-0.3,1-0.6
						l0.1,0.5c1.4,0.1,0.2-1.1,1.5-0.8l-0.4,0.7c0,0,0.2-0.1,0.3-0.1c0.2-0.1,0.3-0.1,0.3-0.1l-0.1,0.6c0.6-0.5,0.9-0.4,1.5-0.3
						c-0.2-0.3,0-0.9,0.6-0.9c0.4,0.3-0.2,0.5,0.6,0.4c-0.2,0.3-0.4,0.7-0.8,0.3c0,0.2-0.2,0.3-0.2,0.5c0.4,0.3,1.1,0,1.4,0
						c-0.1,0-0.3,0-0.3-0.1c0,0,0.3-0.2,0.6-0.3c0.3-0.2,0.6-0.3,0.6-0.3c0.2,0.2,0,0.3-0.1,0.5c0.2,0,0.4-0.3,0.8-0.3
						c-0.1,0.4-0.1,0.8-0.6,1c0,0,0.3-0.1,0.6-0.2c0.3-0.1,0.6-0.2,0.6-0.2c0.1,0.2,0.5,0.5,0.4,0.6c0.3,0.2,0.7,0,1.1-0.1
						c0.4-0.1,0.9-0.2,1.2,0c0.1-0.1,0.2-0.1,0.3-0.1c0.7,0.3,1.2,0.9,2.2,0.7l0.2,0.8c0.7,0.1-0.3-1.1,0.9-0.9c0.9,0.1,0,0.7,0.2,1
						c0.5-0.1,1.5-0.4,1.8,0.5C-874.7,379.5-874.8,379.3-875,379.2z M-869.4,385.4c-0.2-0.1-0.6-0.3-0.4-0.5
						C-869.2,384.8-869.4,385-869.4,385.4z M-867.8,398.9c-0.1-0.2,0-0.4,0.3-0.5C-867.5,398.6-867.6,398.8-867.8,398.9z
						 M-890.7,433.2L-890.7,433.2C-890.3,433-890.4,433.1-890.7,433.2z M-891.3,433.8c0,0.1,0.1,0.1,0.1,0.2c-0.1-0.1,0-0.3,0.2-0.4
						C-891.1,433.5-891.3,433.5-891.3,433.8z M-901.2,376.3h0.2C-901.3,376.6-901.2,376.5-901.2,376.3z"/>
					<path id="XMLID_433_" class="st9" d="M-868,397.2c0.1,0,0.2,0,0.3,0C-867.8,397.1-867.9,397.1-868,397.2z"/>
					<path id="XMLID_432_" class="st9" d="M-880,377.6L-880,377.6L-880,377.6L-880,377.6z"/>
					<path id="XMLID_431_" class="st9" d="M-885.2,421c0.2-0.1,0.3-0.1,0.4-0.1C-884.8,420.8-885,420.8-885.2,421z"/>
					<path id="XMLID_430_" class="st9" d="M-893.2,438l0.2-0.5c-0.1,0.2-0.3,0.3-0.4,0.3C-893.3,437.8-893.1,437.8-893.2,438z"/>
					<path id="XMLID_429_" class="st9" d="M-898.1,440.7c0,0.1-0.1,0.2-0.1,0.3l0.2,0.1C-897.8,440.7-897.9,440.4-898.1,440.7z"/>
					<path id="XMLID_428_" class="st9" d="M-894.8,437.6c-0.4-0.2-0.4,0.2-0.6,0.6c0,0,0,0,0-0.1
						C-894.9,438.5-894.9,438-894.8,437.6z"/>
					<path id="XMLID_427_" class="st9" d="M-895.4,438.2c0,0.1-0.1,0.2-0.2,0.3C-895.4,438.7-895.5,438.4-895.4,438.2z"/>
					<path id="XMLID_426_" class="st9" d="M-891.8,434.8c-0.2,0.1,0.4,0.4,0.2,0.4C-891.3,435.7-891.4,433.9-891.8,434.8z"/>
					<polygon id="XMLID_425_" class="st9" points="-896.1,437.1 -895.6,437.3 -895.9,436.9 					"/>
					<path id="XMLID_424_" class="st9" d="M-894.1,434.7l-0.5,0.4c0.1,0,0.1,0.1,0.1,0.2C-894.3,435.1-894,434.8-894.1,434.7z"/>
					<path id="XMLID_423_" class="st9" d="M-894.5,435.4c-0.1,0.2-0.2,0.3-0.2,0.5C-894.7,435.8-894.6,435.5-894.5,435.4z"/>
					<polygon id="XMLID_422_" class="st9" points="-895.8,436.3 -895.6,436.2 -895.3,435.9 					"/>
					<path id="XMLID_421_" class="st9" d="M-889.9,429.4l0.3-0.6c-0.1-0.2-0.3-0.1-0.4,0.1C-890,429.1-890.1,429.4-889.9,429.4z"/>
					<path id="XMLID_420_" class="st9" d="M-892.3,430.1c0.2-0.1,0.3,0,0.5,0l-0.5-0.4V430.1z"/>
					<path id="XMLID_419_" class="st9" d="M-891.1,428.5c-0.1-0.2,0.3-1.1-0.3-0.4C-891.3,428.2-891.6,428.8-891.1,428.5z"/>
					<polygon id="XMLID_418_" class="st9" points="-883.2,421.4 -883.3,421.5 -882.6,422.3 					"/>
					<path id="XMLID_417_" class="st9" d="M-878.6,413.2c-0.7,0.4,0.3,0.6-0.4,0.9c0,0.3,0.6-0.3,0.6,0
						C-878.2,413.6-877.9,413.5-878.6,413.2z"/>
					<path id="XMLID_416_" class="st9" d="M-878.3,414.1c0,0.1,0,0.2-0.1,0.3C-878.3,414.3-878.3,414.2-878.3,414.1z"/>
					<polygon id="XMLID_415_" class="st9" points="-914.5,406.3 -914.6,406.9 -914.3,406.4 					"/>
					<path id="XMLID_414_" class="st9" d="M-913.5,407.2l-0.6,0.3l0.6,0.2C-913.5,407.5-913.6,407.3-913.5,407.2z"/>
					<path id="XMLID_413_" class="st9" d="M-870.2,387h0.2c0.1-0.1,0.1-0.2,0.1-0.4L-870.2,387z"/>
					<polygon id="XMLID_412_" class="st9" points="-872.7,381.8 -872.6,381.9 -872.3,381.3 					"/>
					<path id="XMLID_411_" class="st9" d="M-876.9,379.6c0.2,0.1,0.4,0.1,0.6,0.2C-876.7,379.7-876.7,379-876.9,379.6z"/>
				</g>
			</g>
		</g>
	</g>
</g>
<g id="XMLID_205_">
	<g id="XMLID_523_">
		<g id="XMLID_527_">
			<g id="XMLID_528_">
				<g id="XMLID_529_">
					<path id="XMLID_616_" class="st9" d="M-892.7,471.1l-0.1-0.4C-892.8,470.8-892.7,471.2-892.7,471.1z"/>
					<polygon id="XMLID_615_" class="st9" points="-892.7,472.1 -892.7,472 -892.7,472.4 					"/>
					<path id="XMLID_614_" class="st9" d="M-893,472.2c0.2,0.7,0.1-0.1,0.2,0.1l0.1,0.2l-0.1-0.6C-892.9,472-892.9,472.4-893,472.2z
						"/>
					<path id="XMLID_613_" class="st9" d="M-893.6,470.8C-893.5,471-893.5,471-893.6,470.8C-893.5,470.8-893.5,470.8-893.6,470.8
						L-893.6,470.8z"/>
					<path id="XMLID_612_" class="st9" d="M-893.5,470.8C-893.5,470.8-893.6,470.6-893.5,470.8L-893.5,470.8z"/>
					<path id="XMLID_611_" class="st9" d="M-893.6,471v-0.2c-0.1-0.2-0.1-0.2-0.1-0.3C-893.8,470.6-893.7,470.7-893.6,471z"/>
					<path id="XMLID_610_" class="st9" d="M-893.5,471.5L-893.5,471.5C-893.6,471.3-893.6,471.3-893.5,471.5z"/>
					<path id="XMLID_609_" class="st9" d="M-893.6,471.2v0.2c0,0.1,0.1,0.3,0-0.1C-893.5,471.5-893.5,471.3-893.6,471.2z"/>
					<path id="XMLID_608_" class="st9" d="M-893.5,471.2c0.1,0.1,0.1,0.2,0.2,0.5C-893.3,471.6-893.5,471.1-893.5,471.2z"/>
					<path id="XMLID_607_" class="st9" d="M-892.8,472.9l0.1,0.2L-892.8,472.9C-892.7,473-892.9,472.7-892.8,472.9z"/>
					<path id="XMLID_606_" class="st9" d="M-894,470.7c0,0.1,0.1,0.4,0.2,0.6v-0.2C-893.9,471-893.9,470.9-894,470.7z"/>
					<path id="XMLID_605_" class="st9" d="M-893.8,471.3v0.3C-893.7,471.5-893.7,471.4-893.8,471.3z"/>
					<polygon id="XMLID_604_" class="st9" points="-893.3,472.2 -893.4,471.7 -893.3,472.3 					"/>
					<polygon id="XMLID_603_" class="st9" points="-894.1,470.7 -894.2,470.4 -894.1,470.9 					"/>
					<path id="XMLID_602_" class="st9" d="M-894.2,470.8c-0.1-0.3-0.2-0.5-0.2-0.6c0,0.1,0,0.3,0.1,0.5
						C-894.4,470.6-894.3,470.6-894.2,470.8z"/>
					<path id="XMLID_601_" class="st9" d="M-894.3,471c0-0.1,0-0.2,0-0.3C-894.3,470.8-894.3,470.8-894.3,471z"/>
					<path id="XMLID_600_" class="st9" d="M-893.9,471.5c0-0.1-0.1-0.3-0.2-0.4L-893.9,471.5L-893.9,471.5z"/>
					<path id="XMLID_599_" class="st9" d="M-893.9,471.5L-893.9,471.5L-893.9,471.5L-893.9,471.5z"/>
					<path id="XMLID_598_" class="st9" d="M-893.9,471.5L-893.9,471.5C-893.8,471.5-893.8,471.5-893.9,471.5z"/>
					<path id="XMLID_597_" class="st9" d="M-893.5,471.9c0,0.2,0.1,0.5,0.2,0.8C-893.4,472.5-893.5,472.3-893.5,471.9z"/>
					<path id="XMLID_596_" class="st9" d="M-893.7,472L-893.7,472c0,0,0-0.2,0-0.3V472z"/>
					<polygon id="XMLID_595_" class="st9" points="-893.7,472.1 -893.7,472 -893.7,471.9 					"/>
					<path id="XMLID_594_" class="st9" d="M-894.1,471.4c0,0.2,0,0.2,0,0.2c0,0.1,0.1,0.1,0.1,0.1
						C-894,471.6-894.1,471.3-894.1,471.4z"/>
					<path id="XMLID_593_" class="st9" d="M-894,471.5L-894,471.5L-894,471.5z"/>
					<path id="XMLID_592_" class="st9" d="M-894.4,471.7C-894.3,471.7-894.3,471.7-894.4,471.7L-894.4,471.7L-894.4,471.7z"/>
					<path id="XMLID_591_" class="st9" d="M-894,471.8c0,0.1,0,0,0-0.2C-894,471.7-894,471.7-894,471.8L-894,471.8z"/>
					<path id="XMLID_590_" class="st9" d="M-894.3,471.2c0,0.1,0.1,0.2,0.1,0.2C-894.3,471.3-894.3,471.1-894.3,471.2z"/>
					<path id="XMLID_589_" class="st9" d="M-894,471.4L-894,471.4C-894.1,471.3-894,471.3-894,471.4z"/>
					<path id="XMLID_588_" class="st9" d="M-894,471.4c0,0.1,0,0.2,0,0.3v-0.1C-894,471.5-894,471.4-894,471.4z"/>
					<path id="XMLID_587_" class="st9" d="M-893.7,474.3c-0.1-0.4-0.1-0.8,0-0.4c0-0.3-0.4-1.5-0.6-2.2c0,0.2,0.1,0.3,0.1,0.6
						c0.1,0.2,0.2,0.5,0.3,0.8c0,0.2-0.1-0.1-0.2-0.3c0.2,0.5,0.1,0.7,0.3,1.4v-0.3C-893.8,474.1-893.8,474.3-893.7,474.3z"/>
					<path id="XMLID_586_" class="st9" d="M-894.2,471.8L-894.2,471.8c0-0.1-0.1-0.3-0.2-0.6c0,0.2,0.1,0.3,0.1,0.5L-894.2,471.8
						L-894.2,471.8z"/>
					<path id="XMLID_585_" class="st9" d="M-894.1,471.7c0.1,0.4,0.1,0.6,0.2,1.1c0,0-0.1-0.4-0.1-0.5
						C-894,472.3-894,472-894.1,471.7C-894.1,471.7-894.1,471.6-894.1,471.7c0-0.1,0-0.2-0.1-0.3l0,0l0,0l0,0c0,0.1,0,0.1,0,0.1l0,0
						C-894.2,471.6-894.2,471.6-894.1,471.7c0-0.1,0-0.1,0-0.2v-0.1l0,0V471.7C-894.2,471.8-894.2,471.7-894.1,471.7z"/>
					<path id="XMLID_584_" class="st9" d="M-893.1,473.6L-893.1,473.6L-893.1,473.6z"/>
					<path id="XMLID_583_" class="st9" d="M-893.2,473.4c0-0.1-0.1-0.2,0-0.2c0.1,0.1,0.1,0.2,0.1,0.3c0-0.1,0-0.3-0.1-0.5v0.1
						c-0.1-0.1-0.3-0.6-0.3-0.7C-893.4,472.8-893.4,473-893.2,473.4z"/>
					<path id="XMLID_582_" class="st9" d="M-893.7,472.7v0.2l0.1,0.3l-0.1-0.2C-893.5,473.1-893.6,472.8-893.7,472.7z"/>
					<polygon id="XMLID_581_" class="st9" points="-894.4,471.5 -894.5,471 -894.4,471.7 					"/>
					<polygon id="XMLID_580_" class="st9" points="-894.5,471.5 -894.6,471.2 -894.6,471.4 					"/>
					<path id="XMLID_579_" class="st9" d="M-899.5,477.4L-899.5,477.4C-899.5,477.4-899.5,477.4-899.5,477.4z"/>
					<path id="XMLID_578_" class="st9" d="M-899.3,477.4v-0.2C-899.3,477.3-899.3,477.4-899.3,477.4z"/>
					<path id="XMLID_577_" class="st9" d="M-896.8,472.1c-0.1-0.4-0.2-0.9-0.2-0.5L-896.8,472.1C-896.9,472-896.9,472-896.8,472.1z"
						/>
					<path id="XMLID_576_" class="st9" d="M-898.1,474.9L-898.1,474.9c0,0,0-0.2,0-0.3C-898.1,474.7-898.1,474.8-898.1,474.9z"/>
					<path id="XMLID_575_" class="st9" d="M-897.9,476.7l-0.1-0.3C-898,476.5-898,476.6-897.9,476.7z"/>
					<path id="XMLID_574_" class="st9" d="M-900.5,477.9v0.4C-900.5,478.3-900.5,478.1-900.5,477.9z"/>
					<path id="XMLID_573_" class="st9" d="M-895.4,471.9c-0.1-0.2-0.1-0.2-0.1-0.2C-895.5,471.9-895.4,472.3-895.4,471.9z"/>
					<path id="XMLID_572_" class="st9" d="M-899.8,472.8c0,0.1,0,0.2,0,0.3C-899.8,473-899.8,472.9-899.8,472.8z"/>
					<path id="XMLID_571_" class="st9" d="M-895.6,471.7C-895.6,471.8-895.6,471.8-895.6,471.7L-895.6,471.7
						C-895.6,471.5-895.7,471.4-895.6,471.7z"/>
					<path id="XMLID_570_" class="st9" d="M-904.2,477.5L-904.2,477.5C-904.2,477.6-904.2,477.6-904.2,477.5z"/>
					<path id="XMLID_569_" class="st9" d="M-904.9,473.1L-904.9,473.1L-904.9,473.1z"/>
					<path id="XMLID_568_" class="st9" d="M-894.9,471.5C-894.9,471.4-894.9,471.4-894.9,471.5L-894.9,471.5z"/>
					<path id="XMLID_567_" class="st9" d="M-894.4,473.1c0,0,0,0.1,0,0.2C-894.4,473.2-894.4,473.1-894.4,473.1z"/>
					<path id="XMLID_566_" class="st9" d="M-895.3,474.4L-895.3,474.4C-895.2,474.5-895.2,474.5-895.3,474.4z"/>
					<path id="XMLID_565_" class="st9" d="M-894.8,471.6c0,0,0-0.1-0.1-0.1C-894.9,471.6-894.9,471.6-894.8,471.6z"/>
					<path id="XMLID_564_" class="st9" d="M-894.9,471.4C-894.9,471.5-894.9,471.5-894.9,471.4L-894.9,471.4z"/>
					<path id="XMLID_563_" class="st9" d="M-894.9,471.5L-894.9,471.5L-894.9,471.5L-894.9,471.5z"/>
					<path id="XMLID_562_" class="st9" d="M-902.2,476.4L-902.2,476.4C-902.3,476.6-902.2,476.5-902.2,476.4z"/>
					<path id="XMLID_561_" class="st9" d="M-896.6,476.6L-896.6,476.6L-896.6,476.6L-896.6,476.6z"/>
					<path id="XMLID_560_" class="st9" d="M-896.7,477c-0.1-0.5,0-0.5,0-0.4l-0.2-1.2L-896.7,477z"/>
					<path id="XMLID_553_" class="st9" d="M-899.9,477.5l0.1,0.4c0,0.6-0.1,0.4,0,1c-0.1-1.4,0.2-0.2,0.1-1.5l0.1,0.3v0.1
						c0.1,0.6,0-1,0.1-0.8c0,0.1,0.1,0.3,0.1,0.5v-0.3c0,0,0,0.3,0,0.2l0.1-0.1l0,0c0-0.2,0-0.5,0-0.7c0,0.2,0,0.1,0,0.3v-0.3
						c0.1,0.3,0,0.7,0,0.6c0.2,1.3,0-0.3,0.2,0.4v0.2c0.1,0.8,0.1,0.5,0.3,1c0-0.2-0.3-1.2-0.2-1.5c0,0.1,0.1,0.1,0.1-0.1
						c0,0.5,0.1,0.4,0.1,0.3l0.1,0.6c0-0.2,0-0.5,0-0.8c0.1,0.1,0.1,0.5,0.2,1c0.1,0.1-0.1-0.8,0-0.9c0.1,0.2,0.1,0,0.2-0.4
						c0.1,0.2,0,0.4,0.1,0.6v-0.5v0.2c0-0.2-0.1-0.6,0-0.8c-0.1-0.7,0.2,1,0.2,0.2c0,0.2,0,0.4,0.1,0.6c0-0.5,0-0.4,0-1.1l0.1,0.4
						c-0.1-0.5-0.1-1-0.1-1.5c0-0.2-0.1-0.4-0.1-0.5v-0.4c0,0.1,0,0.3,0.1,0.6c0-0.1,0-0.1,0-0.2c0.1,0.2,0.1,0.6,0.1,1
						c0-0.1-0.1-0.3-0.1-0.4c0,0.4,0.1,0.8,0.1,1.2c0-0.1,0-0.1,0-0.2c0,0.1,0,0.2,0,0.3s0-0.1,0-0.2l0.1,0.7v-0.3l0.2,0.4
						c0-0.7-0.1-1.8,0-2.1c0,0.5,0.1,0.8,0.2,1.5c-0.1-0.6-0.1,0.3-0.2,0.2c0,0.1,0.1,0.4,0.1,0.5v-0.6c0.1,0.5,0.1,0.4,0.1,0.6
						c-0.2-1,0-0.7,0-1c0.1,0.3,0.1,0.7,0,0.6c0.2,0.7-0.1-1.2,0.1-0.6c0,0,0,0,0,0.1c0-0.3,0.1-0.1,0.1,0.2l0,0
						c0.1,0.1,0.3,0,0.2-0.9c0,0.1,0.1,1,0.2,1.2l-0.3-2.9c0.1,0.7,0.4,2.4,0.4,2.9c0,0.1,0.1,0.2,0.1,0c0-0.1-0.2-1-0.2-1.1
						c0.2,0.8,0.1,0.4,0.3,1.1c-0.1-0.2-0.2-1.3-0.2-1.3c0,0.2,0.2,1.1,0.2,1.2l-0.1-1.1c0,0.2,0.2,0.9,0.2,1.2c0-0.2,0.1,0,0.1-0.1
						l-0.1-0.2c0.1,0.1-0.2-1.6-0.1-1.5c0,0.2,0.2,1.4,0.3,1.5c-0.1-0.6-0.4-2.7-0.4-3.2l0.1,0.3v-0.4c0.1,0.9,0.3,2.7,0.4,3.4
						c0.1,0.2,0.1,0.4,0.1,0.3c0.1,0.3,0.1,0.5,0,0.5l0.2,0.2c-0.1-0.7,0-0.7-0.1-1.2v0.7c-0.1-0.7-0.3-1.9-0.1-1.8
						c0.1,0.3,0.2,1.2,0.3,1.4c0-0.2,0-0.5,0.1-0.3v0.4c0.1,0.2-0.1-0.9,0.1-0.3c0,0,0.2,0.8,0.2,0.4c-0.2-0.7-0.7-3.1-0.8-3.6
						c0,0,0.3,0.7,0.4,1.1c0.2,0.6,0.2,1.4,0.4,1.9c0-0.2-0.1-0.4-0.1-0.5c0.1,0.1,0.1,0.6,0.1,0.5c-0.1-0.7,0.1,0-0.1-0.6
						c0-0.2,0.1,0.1,0.1,0.1c-0.1-0.4-0.3-1.5-0.2-1.7c0,0.2,0.1,0.4,0.1,0.5c0.1,0,0.2,0.3,0.3,0.3c0,0.2,0.1,0.3,0.2,0.6
						c0-0.1-0.1-0.3,0-0.4c0.2,0.6,0,0.1,0.2,0.8c-0.1-0.4,0-0.6-0.1-0.8c-0.1-0.6-0.1-0.1-0.1,0.2c-0.2-0.8-0.3-1.7-0.3-2.1
						c0-0.2,0.2,0.5,0.1,0.4c0.2,0.1-0.2-1.5,0-0.9c0.2,0.5,0.3,1,0.4,1.4c0,0.2-0.2-0.3-0.2-0.3l0.1,0.2c0,0.2,0,0.3,0,0.2
						c0.2,0.5,0.3,0,0.5,0.4c0-0.2,0-0.4-0.1-0.6v0.1c-0.1-0.4-0.1-0.6-0.2-0.8c0-0.3-0.1-0.8,0-0.6l0.2,0.6c0-0.2-0.1-0.3-0.1-0.2
						c0-0.3,0.3,0.8,0.1,0l-0.2-0.4c0-0.3-0.1-1,0-0.8c-0.2-0.6,0,0.1-0.2-0.6c0.3,0.8-0.2,0,0.1,0.9c-0.2-0.8-0.2-0.3-0.4-1
						c0.1,0.2,0.1,0.4,0,0.3c0,0.1,0,0.1,0,0.2l0,0l0,0l0,0c0,0.1,0.1,0.2,0.1,0.3c0.1,0.5,0,0.5,0,0.7c-0.1-0.1,0-0.2-0.1-0.4v0.4
						c-0.1-0.4-0.3-0.7-0.2-1h-0.1c-0.1-0.2-0.2-0.3-0.2-0.1c0-0.1,0,0.5,0,0.2v0.3V472c-0.1,0,0,0.8-0.3,0c0,0.1,0,0.3-0.1,0.1
						l-0.1-0.4c0,0.1-0.2-0.4-0.1,0c-0.3-1-0.2-0.2-0.3-0.4l0.1,0.5c-0.1,0-0.1,0.1-0.1,0.3l0.1,0.4c0,0.4-0.2-0.3-0.3-0.2
						c0-0.2,0-0.1,0,0c-0.3-1-0.1,0.8-0.3,0.1c0,0.2,0,0.1-0.1,0l0,0l0,0c0-0.1-0.1-0.2-0.1-0.2c0,0.1,0.1,0.2,0.1,0.2s0,0.1,0,0.2
						l-0.1-0.5l0,0c-0.1-0.2,0,0.2,0.1,0.6c0,0.1,0,0.2,0,0.3c-0.2-0.8,0,0.3-0.2-0.5c0.1,0.4-0.1,0.3,0.1,1.2c0-0.1,0-0.2,0-0.2
						c0-0.1-0.1-0.2-0.1,0.1l-0.1-0.6l0.1,0.8c-0.1-0.4-0.2-0.6-0.2-1c0,0.7,0,0.3,0,1l-0.1-0.4c0,0,0,0.6-0.1,0.2
						c-0.2-0.7-0.3-0.1-0.6-0.7c0.2,1.1-0.1-0.5,0,0.4c0-0.3-0.1-0.4-0.1-0.7c0,0.3-0.2-0.4-0.1,0.3c0-0.3,0-0.4-0.1-0.6
						c0,0.1,0,0.2,0,0.1c0-0.2,0-0.2,0-0.4c-0.1,0.1,0,0.9,0.1,1.7c-0.1-0.4-0.1-0.3-0.1,0.2c0-0.3-0.1-0.5-0.1-0.6
						c0,0-0.2-0.4-0.2,0.3c0-0.2,0,0,0,0c-0.1,0-0.1-0.1-0.1,0v0.1c0.1,0.8,0,0.2-0.1,0.3v-0.1c-0.2-0.5,0,0.3-0.2-0.3l0.1,0.5
						c0.1,1-0.2-0.6-0.2-0.2l0.1,0.3c0,0.4-0.3-1.4-0.3-1.5c0-0.1,0-0.1,0-0.2c-0.2-0.6,0,0.6,0,0.8c0-0.3-0.1-0.9-0.1-0.9
						c0-0.3,0,1.1-0.2,0.5c0,0.3,0.1,0.5,0.1,0.7c0,0.1-0.2-1-0.2-0.1c0-0.1,0-0.1,0-0.2c0,0.2-0.1,0.4-0.1,0.8
						c-0.2-1.6-0.2,0.8-0.3-0.7l-0.1,0.1v-0.2c-0.1-0.1-0.1,0.3-0.1,0.6c0-0.1,0-0.2,0-0.3c-0.1-0.3-0.1-0.2-0.2,0.5v-0.5
						c0,0.3-0.2-0.8-0.3-0.2c0-0.1,0-0.2,0-0.2c-0.1,0.6-0.4-1.4-0.3,0.4l-0.1,0.4c0.1,0.1,0,0.8,0.1,1.1c0,0.1-0.1-0.5-0.1-0.6v0.1
						c0-0.9-0.2-0.3-0.2-1c-0.2,0.1-0.4-0.5-0.6-0.5v0.7h-0.1c0-0.2,0-0.6,0-0.5c0-0.4-0.1,0.3-0.1,0.5c-0.1-0.3,0-0.9,0-0.9v0.1
						v0.1c0,0.3,0,0.6-0.1,0.6c0-0.1,0-0.5,0-0.5c0-0.1,0-0.1,0,0l-0.1-0.1v0.6c0,0.3-0.1,0,0,0.6c-0.1-1-0.3-0.4-0.4-0.7
						c-0.1,0.4-0.1,0.4-0.2,0.4c0,0.1,0,0.8,0,0.7c0-1.3-0.1-0.6-0.1-1.5c0,0.6-0.2,0.2-0.1,1.1c0-0.1,0-0.5,0-0.8
						c-0.1,0.5-0.2-0.3-0.4-0.2c0,0.2,0,0.4,0,0.7v-0.9c0,0.1-0.1,1-0.1,0.4c0,0.1,0,0.4,0,0.4c-0.2-0.9-0.6,0.7-0.8-1
						c0,0.3,0,0.4,0,0.4c0,0.1,0,0.4,0,0.7l-0.1-0.7c-0.1,0.7-0.1,0-0.2,0.7v-0.1c-0.1,0.7-0.1,1.7-0.1,2.6c0.1-0.8,0.1,1.3,0.3,0.1
						c0,0.2,0,0.3,0,0.5c0.1-0.4,0.1-0.5,0.1-0.3v0.1c0.2-0.1,0.2,0.3,0.4,0.6V477c0,0.1,0,0.2,0,0.3c0.1-0.7-0.1,0,0-0.8
						c0,1,0.3,0,0.3,1.1c0.1,0,0-0.5,0.1-0.5v0.3V477c0,0.1,0,0.4,0,0.7v0.1c0,0.4,0.2-0.1,0.2,0l-0.1-0.2c0.2-0.3,0.4,0.1,0.5-0.5
						v-0.2c0.1-0.4,0.1,0.2,0.2,0.1v0.1c0-0.2,0.1-0.3,0.1-0.3c0,0.3,0.1,0.5,0,0.8c0.1-0.4,0.1-0.3,0.2-1.2v0.4
						c0-0.3,0-0.5,0.1-0.6c-0.1,0.3,0,0.6,0,1c0.1,0.8,0.2-0.8,0.3,0.4c0.1-1-0.1-0.6-0.1-0.8c0-0.3,0.1-0.8,0.1-0.7
						c0,0,0.1,1.3,0.2,1.3v0.1c0,0.3,0.1-0.4,0.1,0.1c0-0.6,0.1,0,0.1-0.8l-0.1,0.2c0.1-0.2,0.1-1.1,0.2-0.7c0,0.2,0,0.4-0.1,0.5
						c0,0.2,0.1-0.2,0.1,0.1c0,0.8-0.1,0.2-0.2,0.8c0,0.3,0.1-0.6,0.1,0.3c0-1.1,0.1,0.1,0.2-0.7v0.5c0-0.1,0-0.3,0.1-0.3v0.6
						c0.1-0.5,0.1,0.5,0.2,0.2c-0.1,0,0-0.6-0.1-0.9c0.1-0.6,0.1,1.2,0.3,1c0,0.1-0.1-0.3-0.1-0.5c0,0.1,0.1,0.3,0.1,0.5
						c0.1-0.1,0-0.5,0-0.8c0.1,0.6,0.1-0.2,0.1-0.4v0.5c0.1,0.3,0-1,0.1-0.6v0.7l0.1-0.2v0.5c0.1-0.4,0.1-0.3,0.1-0.2
						c0-0.3,0-0.9,0-0.9c0,0.3,0,0.5,0.1,0.4c0,0.3,0,0.7-0.1,0.2c0,0.2,0,0.3,0,0.5c0.1,0.3,0.1,0.1,0.1,0.1s0,0,0-0.1l0.1-0.7
						c0,0.2,0,0.3,0,0.5c0-0.1,0-0.3,0.1-0.3c0,0.4,0,0.8,0,1l0.1-0.4c0,0.2,0.1,0.5,0.1,0.6c0.1,0.2,0.1-0.8,0.2-0.5
						c0-0.1,0-0.1,0-0.2c0.1,0.1,0.2,0.6,0.2,0l0.1,0.7C-899.8,478.6-900,477.9-899.9,477.5c0.1-0.1,0.1,0.7,0.1,0.9
						C-900,477.6-900,476.9-899.9,477.5C-899.9,477.6-899.9,477.5-899.9,477.5z M-899.1,477.1c0,0.1,0,0.4-0.1,0.1
						C-899.2,476.7-899.1,477-899.1,477.1z M-897.9,475.8C-897.9,476-897.9,475.9-897.9,475.8S-897.9,475.7-897.9,475.8z
						 M-895.1,471.9C-895,471.9-895,471.9-895.1,471.9C-895.1,471.7-895.1,471.8-895.1,471.9z M-894.9,472.1c0-0.1,0-0.1,0-0.2
						C-895,472-895,472-894.9,472.1C-895,472.1-894.9,472.2-894.9,472.1z M-902.5,473.2v0.1C-902.5,473.4-902.5,473.3-902.5,473.2z"
						/>
					<path id="XMLID_552_" class="st9" d="M-897.9,476.5c0-0.1,0-0.2,0-0.3C-898,476.3-898,476.4-897.9,476.5z"/>
					<polygon id="XMLID_551_" class="st9" points="-900.5,477.8 -900.5,477.8 -900.5,477.9 					"/>
					<path id="XMLID_550_" class="st9" d="M-895.2,476.3c0-0.1-0.1-0.1-0.1-0.2C-895.2,476.2-895.2,476.3-895.2,476.3z"/>
					<path id="XMLID_549_" class="st9" d="M-894.8,471.2v0.1c0,0,0,0.1,0.1,0.1L-894.8,471.2z"/>
					<path id="XMLID_548_" class="st9" d="M-893.6,474C-893.6,473.9-893.6,474-893.6,474l-0.1-0.3
						C-893.7,473.7-893.7,473.9-893.6,474z"/>
					<path id="XMLID_547_" class="st9" d="M-894.3,472.7c0.1,0.4,0.1,0.3,0.1,0.2l0,0C-894.4,472.4-894.3,472.5-894.3,472.7z"/>
					<path id="XMLID_546_" class="st9" d="M-894.2,472.9L-894.2,472.9C-894.2,472.7-894.2,472.8-894.2,472.9z"/>
					<path id="XMLID_545_" class="st9" d="M-894.9,471.8c0,0.1-0.1-0.5-0.1-0.3C-895.1,470.9-894.9,472.1-894.9,471.8z"/>
					<polygon id="XMLID_544_" class="st9" points="-894,474 -894.1,473.5 -894,473.9 					"/>
					<path id="XMLID_543_" class="st9" d="M-894.3,473.7l0.1,0.1C-894.3,473.8-894.3,473.7-894.3,473.7S-894.4,473.6-894.3,473.7z"
						/>
					<path id="XMLID_542_" class="st9" d="M-894.3,473.7C-894.2,473.7-894.2,473.7-894.3,473.7
						C-894.3,473.6-894.3,473.6-894.3,473.7z"/>
					<polygon id="XMLID_541_" class="st9" points="-894,474.2 -894.1,474.1 -894.1,474.1 					"/>
					<path id="XMLID_540_" class="st9" d="M-894.9,473.8v0.2c0,0.2,0.1,0.3,0.1,0.2C-894.9,474-894.9,473.9-894.9,473.8z"/>
					<path id="XMLID_539_" class="st9" d="M-894.4,475.1c0-0.1-0.1-0.2-0.1-0.4l0.1,0.6V475.1z"/>
					<path id="XMLID_538_" class="st9" d="M-894.6,475.3c0,0.2,0,0.5,0.1,0.4C-894.5,475.5-894.5,475.4-894.6,475.3z"/>
					<polygon id="XMLID_537_" class="st9" points="-895.6,474.7 -895.6,474.7 -895.8,473.7 					"/>
					<path id="XMLID_536_" class="st9" d="M-896,477.2c0.1,0.2-0.1-0.6,0-0.3c0-0.2-0.1-0.2-0.1-0.4
						C-896,476.7-896.1,476.6-896,477.2z"/>
					<path id="XMLID_535_" class="st9" d="M-896.1,476.4c0,0,0-0.1,0-0.2C-896.1,476.4-896.1,476.4-896.1,476.4z"/>
					<polygon id="XMLID_534_" class="st9" points="-905,472.6 -905.1,472.3 -905.1,472.7 					"/>
					<path id="XMLID_533_" class="st9" d="M-905.2,473.3v-0.6V473.3C-905.2,473.2-905.2,473.2-905.2,473.3z"/>
					<path id="XMLID_532_" class="st9" d="M-898.8,478.4v-0.2c0-0.2,0-0.2-0.1-0.2L-898.8,478.4z"/>
					<polygon id="XMLID_531_" class="st9" points="-899.5,478 -899.5,478 -899.6,477.4 					"/>
					<path id="XMLID_530_" class="st9" d="M-900,478.8C-900,478.8-900,478.7-900,478.8C-900,478.8-900.1,478.1-900,478.8z"/>
				</g>
			</g>
		</g>
	</g>
</g>
<rect id="XMLID_636_" x="-364.9" y="107.1" class="st13" width="431.7" height="105.5"/>
<ellipse id="XMLID_635_" class="st14" cx="-315.2" cy="229" rx="107.7" ry="61.8"/>
<ellipse id="XMLID_634_" class="st15" cx="39.5" cy="208.8" rx="107.7" ry="61.8"/>
<ellipse id="XMLID_633_" class="st14" cx="-68.2" cy="229" rx="107.7" ry="61.8"/>
<ellipse id="XMLID_632_" class="st8" cx="-207.5" cy="251.8" rx="107.7" ry="61.8"/>
<path id="XMLID_1_" class="st2" d="M-199.5,212.3c-6.9-0.2-5.1-27-5.1-27s-12.8-5.6-14.9-9.5c-2.5-4.5-10.2-21.4-3.4-22.7
	c7.1-1.4,8.5,13.7,8.5,13.7l9.8,4.8c0,0-2-32.8,7.4-32.6c5.5,0.1,2.9,32.1,2.9,32.1l7.4-4.6c0,0,2-15.5,8.8-15.2
	c6.7,0.3-3.1,21.3-3.1,21.3l-11.7,13.3C-192.9,185.9-192.7,212.5-199.5,212.3z"/>
<path id="XMLID_300_" class="st2" d="M-294.9,188.4c-5.3-0.2-4-20.9-4-20.9s-9.9-4.4-11.6-7.4c-1.9-3.5-7.9-16.7-2.7-17.7
	c5.5-1.1,6.6,10.6,6.6,10.6l7.6,3.8c0,0-1.5-25.5,5.7-25.3c4.3,0.1,2.2,24.9,2.2,24.9l5.7-3.5c0,0,1.6-12,6.9-11.8
	c5.2,0.2-2.4,16.6-2.4,16.6l-9,10.2C-289.8,167.8-289.6,188.5-294.9,188.4z"/>
<path id="XMLID_303_" class="st2" d="M-86.5,194.7c-5.3-0.2-4-20.9-4-20.9s-9.9-4.4-11.6-7.4c-1.9-3.5-7.9-16.7-2.7-17.7
	c5.5-1.1,6.6,10.6,6.6,10.6l7.6,3.8c0,0-1.5-25.5,5.7-25.3c4.3,0.1,2.2,24.9,2.2,24.9l5.7-3.5c0,0,1.6-12,6.9-11.8
	c5.2,0.2-2.4,16.6-2.4,16.6l-9,10.2C-81.4,174.1-81.2,194.8-86.5,194.7z"/>
<path id="XMLID_385_" class="st2" d="M18.6,162.3c-2.6-0.1-2-10.3-2-10.3s-4.9-2.2-5.7-3.6c-0.9-1.7-3.9-8.2-1.3-8.7
	c2.7-0.5,3.3,5.2,3.3,5.2l3.7,1.9c0,0-0.7-12.6,2.8-12.5c2.1,0.1,1.1,12.3,1.1,12.3l2.8-1.7c0,0,0.8-5.9,3.4-5.8
	c2.6,0.1-1.2,8.2-1.2,8.2l-4.4,5C21.1,152.2,21.2,162.4,18.6,162.3z"/>
<rect id="XMLID_677_" x="-379.7" y="352.3" class="st7" width="431.7" height="105.5"/>
<ellipse id="XMLID_676_" class="st1" cx="-330" cy="474.2" rx="107.7" ry="61.8"/>
<ellipse id="XMLID_675_" class="st2" cx="24.7" cy="454" rx="107.7" ry="61.8"/>
<ellipse id="XMLID_674_" class="st1" cx="-83" cy="474.2" rx="107.7" ry="61.8"/>
<ellipse id="XMLID_673_" class="st3" cx="-222.3" cy="497" rx="107.7" ry="61.8"/>
<polygon id="XMLID_671_" class="st5" points="-222.3,469.8 -226.4,469.8 -224.4,395.4 "/>
<polygon id="XMLID_667_" class="st5" points="-102.9,430 -105.8,430 -104.4,377.2 "/>
<polygon id="XMLID_663_" class="st5" points="-303.4,429.5 -305.8,429.5 -304.6,386.3 "/>
<polygon id="XMLID_659_" class="st5" points="7.2,412.6 5.5,412.6 6.3,381.9 "/>
<polygon id="XMLID_655_" class="st5" points="7.2,412.6 5.5,412.6 6.3,381.9 "/>
<polygon id="XMLID_651_" class="st5" points="7.2,412.6 5.5,412.6 6.3,381.9 "/>
<polygon id="XMLID_629_" class="st5" points="7.2,412.6 5.5,412.6 6.3,381.9 "/>
<polygon id="XMLID_625_" class="st5" points="7.2,412.6 5.5,412.6 6.3,381.9 "/>
<polygon id="XMLID_621_" class="st5" points="7.2,412.6 5.5,412.6 6.3,381.9 "/>
<path id="XMLID_619_" class="st0" d="M-275,409c0,0,40.9-23.2,56-22.6c12.6,0.5,45.2,22.6,45.2,22.6s-32.8,11.5-44.2,11.8
	C-232.5,421.2-275,409-275,409z"/>
<ellipse id="XMLID_620_" class="st16" cx="-221.5" cy="405" rx="18.8" ry="12.9"/>
<ellipse id="XMLID_623_" class="st5" cx="-222.2" cy="405.1" rx="11.2" ry="6"/>
<path id="XMLID_627_" class="st0" d="M-342.5,396.1c0,0,30.7-17.4,42-17c9.5,0.4,33.9,17,33.9,17s-24.6,8.6-33.2,8.8
	C-310.7,405.2-342.5,396.1-342.5,396.1z"/>
<ellipse id="XMLID_624_" class="st16" cx="-302.4" cy="393" rx="14.1" ry="9.7"/>
<ellipse id="XMLID_622_" class="st5" cx="-302.9" cy="393.1" rx="8.4" ry="4.5"/>
<path id="XMLID_650_" class="st0" d="M-142.3,392.7c0,0,30.7-17.4,42-17c9.5,0.4,33.9,17,33.9,17s-24.6,8.6-33.2,8.8
	C-110.5,401.8-142.3,392.7-142.3,392.7z"/>
<ellipse id="XMLID_631_" class="st16" cx="-102.2" cy="389.6" rx="14.1" ry="9.7"/>
<ellipse id="XMLID_628_" class="st5" cx="-102.7" cy="389.8" rx="8.4" ry="4.5"/>
<path id="XMLID_657_" class="st0" d="M-24.2,382.9c0,0,22.8-12.9,31.2-12.6c7,0.3,25.2,12.6,25.2,12.6s-18.3,6.4-24.6,6.6
	C-0.5,389.7-24.2,382.9-24.2,382.9z"/>
<ellipse id="XMLID_654_" class="st16" cx="5.7" cy="380.7" rx="10.5" ry="7.2"/>
<ellipse id="XMLID_653_" class="st5" cx="5.3" cy="380.8" rx="6.2" ry="3.4"/>
<rect id="XMLID_91_" x="-379.7" y="646" class="st0" width="431.7" height="105.5"/>
<ellipse id="XMLID_90_" class="st14" cx="-330" cy="767.9" rx="107.7" ry="61.8"/>
<ellipse id="XMLID_89_" class="st15" cx="24.7" cy="747.7" rx="107.7" ry="61.8"/>
<ellipse id="XMLID_88_" class="st14" cx="-83" cy="767.9" rx="107.7" ry="61.8"/>
<ellipse id="XMLID_87_" class="st8" cx="-222.3" cy="790.6" rx="107.7" ry="61.8"/>
<polygon id="XMLID_84_" class="st5" points="-303.4,723.2 -305.8,723.2 -304.6,679.9 "/>
<polygon id="XMLID_83_" class="st5" points="7.2,706.3 5.5,706.3 6.3,675.6 "/>
<polygon id="XMLID_82_" class="st5" points="7.2,706.3 5.5,706.3 6.3,675.6 "/>
<polygon id="XMLID_81_" class="st5" points="7.2,706.3 5.5,706.3 6.3,675.6 "/>
<polygon id="XMLID_80_" class="st5" points="7.2,706.3 5.5,706.3 6.3,675.6 "/>
<polygon id="XMLID_79_" class="st5" points="7.2,706.3 5.5,706.3 6.3,675.6 "/>
<polygon id="XMLID_77_" class="st5" points="7.2,706.3 5.5,706.3 6.3,675.6 "/>
<path id="XMLID_66_" class="st14" d="M-222.4,759.5l-7.8,2c-3.6,1.3-22.5,4.5-25.5,2.2l0,0c-6.1-4.4-5.8-13.5,0.5-17.5l0,0
	c3.8-2.4,8.6-2.7,12.7-0.8l12.8,5.9c0,0-13.2-61.1,7.3-61.1c20.7,0,7.3,61.6,7.3,61.6l11.4-5.1c4.6-2.1,10-1.8,14.4,0.7l0,0
	c6.1,3.6,6.5,12.3,0.6,16.3l0,0c-3.3,2.2-19.8-0.3-23.5-1.7L-222.4,759.5L-222.4,759.5z"/>
<line id="XMLID_67_" class="st17" x1="-233.5" y1="706.6" x2="-209.6" y2="706.6"/>
<path id="XMLID_68_" class="st15" d="M-304,724.4l-5.2,1.3c-2.4,0.8-15,3-17.1,1.5l0,0c-4.1-2.9-3.9-9,0.4-11.7l0,0
	c2.6-1.6,5.8-1.8,8.5-0.6l8.6,3.9c0,0-8.8-40.9,4.9-40.9c13.8,0,4.9,41.2,4.9,41.2l7.6-3.4c3.1-1.4,6.7-1.2,9.6,0.5l0,0
	c4.1,2.4,4.3,8.2,0.4,10.9l0,0c-2.2,1.5-13.3-0.2-15.7-1.1L-304,724.4L-304,724.4z"/>
<line id="XMLID_65_" class="st17" x1="-311.4" y1="689.1" x2="-295.5" y2="689.1"/>
<path id="XMLID_70_" class="st15" d="M-98.2,728.1l-5.2,1.3c-2.4,0.8-15,3-17.1,1.5l0,0c-4.1-2.9-3.9-9,0.4-11.7l0,0
	c2.6-1.6,5.8-1.8,8.5-0.6l8.6,3.9c0,0-8.8-40.9,4.9-40.9c13.8,0,4.9,41.2,4.9,41.2l7.6-3.4c3.1-1.4,6.7-1.2,9.6,0.5l0,0
	c4.1,2.4,4.3,8.2,0.4,10.9l0,0c-2.2,1.5-13.3-0.2-15.7-1.1L-98.2,728.1L-98.2,728.1z"/>
<line id="XMLID_69_" class="st17" x1="-105.6" y1="692.8" x2="-89.7" y2="692.8"/>
<path id="XMLID_72_" class="st8" d="M7.3,707.4l-4,1c-1.8,0.7-11.5,2.3-13.1,1.2l0,0c-3.1-2.2-3-6.9,0.3-9l0,0
	c2-1.2,4.4-1.4,6.5-0.4l6.6,3c0,0-6.8-31.4,3.8-31.4c10.6,0,3.7,31.6,3.7,31.6l5.9-2.6c2.4-1.1,5.1-0.9,7.4,0.4l0,0
	c3.2,1.8,3.3,6.3,0.3,8.4l0,0c-1.7,1.2-10.2-0.1-12.1-0.9L7.3,707.4L7.3,707.4z"/>
<line id="XMLID_71_" class="st17" x1="1.6" y1="680.3" x2="13.8" y2="680.3"/>
<rect id="XMLID_2_" x="-850.6" y="-63.7" class="st13" width="89.3" height="85.3"/>
</svg>
