<?xml version="1.0" encoding="utf-8"?>
<!-- Generator: Adobe Illustrator 19.0.0, SVG Export Plug-In . SVG Version: 6.00 Build 0)  -->
<svg version="1.1" id="Laag_1" xmlns="http://www.w3.org/2000/svg" xmlns:xlink="http://www.w3.org/1999/xlink" x="0px" y="0px"
	 viewBox="0 0 159.6 55.8" style="enable-background:new 0 0 159.6 55.8;" xml:space="preserve">
<style type="text/css">
	.st0{fill:#FFFFFF;}
	.st1{fill:none;}
	.st2{fill:#37509E;}
	.st3{font-family:'SegoeUI-Bold';}
	.st4{font-size:21px;}
	.st5{fill:#E02F2F;}
	.st6{fill:#050607;}
	.st7{font-size:21.0009px;}
	.st8{enable-background:new    ;}
</style>
<rect id="XMLID_216_" x="13" y="28.9" transform="matrix(-0.9975 7.098179e-02 -7.098179e-02 -0.9975 151.3349 75.2694)" class="st0" width="122.7" height="22.9"/>
<rect id="XMLID_215_" x="13" y="30.7" transform="matrix(-0.997 7.791874e-02 -7.791874e-02 -0.997 153.7091 72.4864)" class="st1" width="124.9" height="17.1"/>
<text id="XMLID_214_" transform="matrix(0.9975 -7.098339e-02 7.098339e-02 0.9975 13.6577 50.1887)" class="st2 st3 st4">Postkantoor</text>
<g id="XMLID_309_">
	
		<rect id="XMLID_463_" x="13" y="33.9" transform="matrix(-0.997 7.791874e-02 -7.791874e-02 -0.997 153.9625 78.8768)" class="st1" width="124.9" height="17.1"/>
	<text id="XMLID_461_" transform="matrix(0.9975 -7.098339e-02 7.098339e-02 0.9975 13.6577 53.3616)" class="st5 st3 st4">Postkantoor</text>
</g>
<g id="XMLID_313_">
	
		<rect id="XMLID_466_" x="13" y="31.8" transform="matrix(-0.997 7.791874e-02 -7.791874e-02 -0.997 153.8 74.6828)" class="st1" width="124.9" height="17.1"/>
	<text id="XMLID_464_" transform="matrix(0.9982 -7.103365e-02 7.098339e-02 0.9975 13.6572 51.2541)" class="st6 st3 st4">Postkantoor</text>
</g>
<rect id="XMLID_213_" x="22.3" y="6.2" transform="matrix(-0.9926 -0.1218 0.1218 -0.9926 144.8163 44.1157)" class="st0" width="102.9" height="22.9"/>
<rect id="XMLID_212_" x="22.7" y="6.9" transform="matrix(-0.9934 -0.1149 0.1149 -0.9934 160.4398 40.1039)" class="st1" width="117.4" height="17.1"/>
<text id="XMLID_211_" transform="matrix(0.9926 0.1218 -0.1218 0.9926 22.3091 14.7762)" class="st2 st3 st7">Protserige </text>
<g id="XMLID_217_">
	
		<rect id="XMLID_469_" x="22" y="10.5" transform="matrix(-0.9934 -0.1149 0.1149 -0.9934 158.6364 47.2025)" class="st1" width="117.4" height="17.1"/>
	<text id="XMLID_467_" transform="matrix(0.9926 0.1218 -0.1218 0.9926 21.5995 18.4018)" class="st5 st3 st7">Protserige </text>
</g>
<g id="XMLID_222_">
	
		<rect id="XMLID_472_" x="22.3" y="8.5" transform="matrix(-0.9934 -0.1149 0.1149 -0.9934 159.4767 43.2325)" class="st1" width="117.4" height="17.1"/>
	<text id="XMLID_470_" transform="matrix(0.9933 0.1219 -0.1218 0.9926 21.9825 16.4462)" class="st6 st3 st7">Protserige </text>
</g>
<rect id="XMLID_304_" x="34.3" y="218.4" transform="matrix(-0.9647 -0.2634 0.2634 -0.9647 158.2056 480.855)" class="st0" width="154.1" height="22.9"/>
<rect id="XMLID_303_" x="35.1" y="219.2" transform="matrix(-0.9665 -0.2566 0.2566 -0.9665 164.0384 476.9114)" class="st1" width="156" height="17.1"/>
<text id="XMLID_293_" transform="matrix(0.9647 0.2634 -0.2634 0.9647 36.1863 213.5112)" class="st2 st3 st4">Babyschoentjes</text>
<g id="XMLID_234_">
	
		<rect id="XMLID_478_" x="34.1" y="221.9" transform="matrix(-0.9664 -0.257 0.257 -0.9664 158.4416 481.6723)" class="st1" width="153.2" height="17.1"/>
	<text id="XMLID_476_" transform="matrix(0.9654 0.2636 -0.2634 0.9647 35.1038 216.5964)" class="st5 st3 st4">Babyschoentjes</text>
</g>
<g id="XMLID_268_">
	
		<rect id="XMLID_494_" x="34.6" y="220.3" transform="matrix(-0.9665 -0.2566 0.2566 -0.9665 160.7251 478.6352)" class="st1" width="153.9" height="17.1"/>
	<text id="XMLID_492_" transform="matrix(0.9654 0.2636 -0.2634 0.9647 35.7013 214.8974)" class="st6 st3 st4">Babyschoentjes</text>
</g>
<rect id="XMLID_288_" x="40.6" y="241.2" transform="matrix(-0.9999 -1.125435e-02 1.125435e-02 -0.9999 191.0997 506.3904)" class="st0" width="112.8" height="22.9"/>
<g id="XMLID_276_">
	
		<rect id="XMLID_500_" x="40.6" y="241.8" transform="matrix(-1 -4.296304e-03 4.296304e-03 -1 214.5377 501.2462)" class="st1" width="134.4" height="17.1"/>
	
		<text id="XMLID_498_" transform="matrix(0.9999 1.125436e-02 -1.125436e-02 0.9999 40.623 256.1329)" class="st2 st3" style="font-size:20.9992px;">Babywinkel</text>
</g>
<g id="XMLID_367_">
	
		<rect id="XMLID_511_" x="40.5" y="244.1" transform="matrix(-1 -4.296304e-03 4.296304e-03 -1 214.3279 505.8467)" class="st1" width="134.4" height="17.1"/>
	
		<text id="XMLID_504_" transform="matrix(0.9999 1.125436e-02 -1.125436e-02 0.9999 40.4331 258.4278)" class="st5 st3" style="font-size:20.9992px;">Babywinkel</text>
</g>
<g id="XMLID_369_">
	
		<rect id="XMLID_514_" x="40.6" y="242.9" transform="matrix(-1 -4.296304e-03 4.296304e-03 -1 214.5331 503.447)" class="st1" width="134.4" height="17.1"/>
	
		<text id="XMLID_512_" transform="matrix(1.0006 1.126233e-02 -1.125436e-02 0.9999 40.5284 257.2519)" class="st6 st3" style="font-size:20.9992px;">Babywinkel</text>
</g>
<rect id="XMLID_152_" x="59.4" y="325.9" transform="matrix(-0.9975 7.098179e-02 -7.098179e-02 -0.9975 242.0459 666.1654)" class="st0" width="99.5" height="22.9"/>
<rect id="XMLID_151_" x="59.4" y="325.6" transform="matrix(-0.997 7.791874e-02 -7.791874e-02 -0.997 269.4493 657.863)" class="st1" width="124.9" height="17.1"/>
<text id="XMLID_150_" transform="matrix(0.9975 -7.098339e-02 7.098339e-02 0.9975 60.1106 345.1818)" class="st2 st3 st4">Achter de </text>
<g id="XMLID_149_">
	
		<rect id="XMLID_451_" x="59.4" y="328.8" transform="matrix(-0.997 7.791874e-02 -7.791874e-02 -0.997 269.6953 664.2537)" class="st1" width="124.9" height="17.1"/>
	<text id="XMLID_450_" transform="matrix(0.9982 -7.103365e-02 7.098339e-02 0.9975 60.1106 348.404)" class="st5 st3 st4">Achter de</text>
</g>
<g id="XMLID_148_">
	
		<rect id="XMLID_429_" x="59.4" y="327.1" transform="matrix(-0.997 7.791874e-02 -7.791874e-02 -0.997 269.5733 660.858)" class="st1" width="124.9" height="17.1"/>
	<text id="XMLID_426_" transform="matrix(0.9982 -7.103365e-02 7.098339e-02 0.9975 60.1105 346.6358)" class="st6 st3 st4">Achter de</text>
</g>
<rect id="XMLID_147_" x="37.3" y="346.7" transform="matrix(-0.996 -8.953676e-02 8.953676e-02 -0.996 172.5895 724.1232)" class="st0" width="130.4" height="22.9"/>
<g id="XMLID_146_">
	
		<rect id="XMLID_428_" x="37.7" y="347.7" transform="matrix(-0.9966 -8.260480e-02 8.260480e-02 -0.9966 180.0769 720.0272)" class="st1" width="134.4" height="17.1"/>
	<text id="XMLID_427_" transform="matrix(0.996 8.953825e-02 -8.953825e-02 0.996 37.4407 356.7368)" class="st2 st3 st4">Aardkleurige</text>
</g>
<g id="XMLID_145_">
	
		<rect id="XMLID_446_" x="37.3" y="349.9" transform="matrix(-0.9966 -8.260480e-02 8.260480e-02 -0.9966 179.1087 724.3825)" class="st1" width="134.4" height="17.1"/>
	<text id="XMLID_440_" transform="matrix(0.996 8.953825e-02 -8.953825e-02 0.996 37.0731 359.0095)" class="st5 st3 st4">Aardkleurige</text>
</g>
<g id="XMLID_144_">
	
		<rect id="XMLID_452_" x="37.5" y="348.8" transform="matrix(-0.9966 -8.260480e-02 8.260480e-02 -0.9966 179.5882 722.2037)" class="st1" width="134.4" height="17.1"/>
	<text id="XMLID_447_" transform="matrix(0.9967 8.960168e-02 -8.953825e-02 0.996 37.2615 357.8445)" class="st6 st3 st4">Aardkleurige</text>
</g>
<rect id="XMLID_399_" x="37.8" y="358.6" transform="matrix(-0.9975 7.098179e-02 -7.098179e-02 -0.9975 151.3922 734.7905)" class="st0" width="49.6" height="22.9"/>
<g id="XMLID_392_">
	
		<rect id="XMLID_421_" x="37.9" y="359.6" transform="matrix(-0.997 7.791866e-02 -7.791866e-02 -0.997 153.874 730.3632)" class="st1" width="49.5" height="17.1"/>
	<text id="XMLID_418_" transform="matrix(0.9975 -7.098339e-02 7.098339e-02 0.9975 38.4903 376.7601)" class="st2 st3 st4">Auto</text>
</g>
<g id="XMLID_375_">
	
		<rect id="XMLID_435_" x="37.9" y="364.7" transform="matrix(-0.997 7.791866e-02 -7.791866e-02 -0.997 154.4751 740.546)" class="st1" width="49.7" height="17.1"/>
	<text id="XMLID_422_" transform="matrix(0.9975 -7.098339e-02 7.098339e-02 0.9975 38.4902 381.8453)" class="st5 st3 st4">Auto</text>
</g>
<g id="XMLID_383_">
	
		<rect id="XMLID_438_" x="37.9" y="362.6" transform="matrix(-0.997 7.791866e-02 -7.791866e-02 -0.997 154.3116 736.3522)" class="st1" width="49.7" height="17.1"/>
	<text id="XMLID_436_" transform="matrix(0.9982 -7.103365e-02 7.098339e-02 0.9975 38.4902 379.7449)" class="st6 st3 st4">Auto</text>
</g>
<rect id="XMLID_420_" x="99.5" y="360.7" transform="matrix(-0.9976 -6.872112e-02 6.872112e-02 -0.9976 213.6044 751.7218)" class="st0" width="40.4" height="22.9"/>
<g id="XMLID_397_">
	
		<rect id="XMLID_442_" x="99.8" y="362.1" transform="matrix(-0.9981 -6.177514e-02 6.177514e-02 -0.9981 226.0335 748.3622)" class="st1" width="49.5" height="17.1"/>
	
		<text id="XMLID_439_" transform="matrix(0.9976 6.872112e-02 -6.872112e-02 0.9976 99.4817 375.7782)" class="st2 st3" style="font-size:20.9992px;">Aan</text>
</g>
<g id="XMLID_378_">
	
		<rect id="XMLID_445_" x="99.1" y="367.1" transform="matrix(-0.9981 -6.177514e-02 6.177514e-02 -0.9981 224.5316 758.3125)" class="st1" width="49.7" height="17.1"/>
	
		<text id="XMLID_443_" transform="matrix(0.9976 6.872112e-02 -6.872112e-02 0.9976 98.7726 380.8147)" class="st5 st3" style="font-size:20.9992px;">Aan</text>
</g>
<g id="XMLID_390_">
	
		<rect id="XMLID_449_" x="99.5" y="364.3" transform="matrix(-0.9981 -6.177514e-02 6.177514e-02 -0.9981 225.4963 752.7416)" class="st1" width="49.7" height="17.1"/>
	
		<text id="XMLID_448_" transform="matrix(0.9983 6.876979e-02 -6.872112e-02 0.9976 99.1765 377.9537)" class="st6 st3" style="font-size:20.9992px;">Aan</text>
</g>
<rect id="XMLID_254_" x="231.7" y="315.2" transform="matrix(-0.9975 7.098179e-02 -7.098179e-02 -0.9975 601.1716 631.9283)" class="st0" width="115.3" height="22.9"/>
<rect id="XMLID_253_" x="231.7" y="316.3" transform="matrix(-0.997 7.791872e-02 -7.791872e-02 -0.997 602.9827 627.1704)" class="st1" width="115.1" height="18.1"/>
<text id="XMLID_252_" transform="matrix(0.9975 -7.098339e-02 7.098339e-02 0.9975 232.3259 335.5277)" class="st2 st3 st4">Bibberende</text>
<rect id="XMLID_251_" x="231.8" y="319.5" transform="matrix(-0.997 7.791874e-02 -7.791874e-02 -0.997 604.8566 631.5002)" class="st1" width="116.6" height="16.1"/>
<text id="XMLID_250_" transform="matrix(0.9975 -7.098339e-02 7.098339e-02 0.9975 232.5379 338.73)" class="st5 st3 st4">Bibberende</text>
<rect id="XMLID_249_" x="231.7" y="317.8" transform="matrix(-0.997 7.791872e-02 -7.791872e-02 -0.997 605.368 629.0801)" class="st1" width="117.4" height="17.1"/>
<text id="XMLID_248_" transform="matrix(0.9975 -7.098339e-02 7.098339e-02 0.9975 232.4052 337.0426)" class="st6 st3 st4">Bibberende</text>
<rect id="XMLID_218_" x="243.2" y="334.8" transform="matrix(-0.9945 -0.1043 0.1043 -0.9945 563.9384 721.9808)" class="st0" width="115.3" height="22.9"/>
<rect id="XMLID_210_" x="243.6" y="335.3" transform="matrix(-0.9952 -9.738448e-02 9.738448e-02 -0.9952 569.6756 715.5082)" class="st1" width="117.4" height="17.1"/>
<text id="XMLID_209_" transform="matrix(0.9945 0.1043 -0.1043 0.9945 243.2388 344.2954)" class="st2 st3" style="font-size:20.999px;">Bibliotheek</text>
<rect id="XMLID_243_" x="243.1" y="339.6" transform="matrix(-0.9952 -9.738448e-02 9.738448e-02 -0.9952 568.2638 724.0298)" class="st1" width="117.4" height="17.1"/>
<text id="XMLID_237_" transform="matrix(0.9945 0.1043 -0.1043 0.9945 242.786 348.6136)" class="st5 st3" style="font-size:20.999px;">Bibliotheek</text>
<g id="XMLID_244_">
	
		<rect id="XMLID_460_" x="243.3" y="337.8" transform="matrix(-0.9952 -9.738448e-02 9.738448e-02 -0.9952 568.8331 720.4593)" class="st1" width="117.4" height="17.1"/>
	
		<text id="XMLID_458_" transform="matrix(0.9945 0.1043 -0.1043 0.9945 242.9774 346.7885)" class="st6 st3" style="font-size:20.999px;">Bibliotheek</text>
</g>
</svg>
