<?xml version="1.0" encoding="utf-8"?>
<!-- Generator: Adobe Illustrator 19.0.0, SVG Export Plug-In . SVG Version: 6.00 Build 0)  -->
<svg version="1.1" id="Laag_1" xmlns="http://www.w3.org/2000/svg" xmlns:xlink="http://www.w3.org/1999/xlink" x="0px" y="0px"
	 viewBox="0 0 432 134" style="enable-background:new 0 0 432 134;" xml:space="preserve">
<style type="text/css">
	.st0{fill:#5F94CF;}
	.st1{fill:#5DA47C;}
	.st2{fill:#05915F;}
	.st3{fill:#8EB99B;}
	.st4{fill:#4CB8A4;}
	.st5{fill:#0F2E45;}
	.st6{fill:#D13981;}
	.st7{fill:#005184;}
	.st8{fill:#C5426E;}
	.st9{fill:#FFFFFF;}
	.st10{fill:#869CBC;}
	.st11{fill:#587FA7;}
	.st12{fill:#AFBBD2;}
	.st13{fill:#E1B470;}
	.st14{fill:#B2976E;}
	.st15{fill:#8E7B5D;}
	.st16{fill:#C4AF8F;}
	.st17{fill:#0F2E45;stroke:#0F2E45;stroke-miterlimit:10;}
	.st18{fill:#8B8C8C;}
	.st19{fill:#5F5F5E;}
	.st20{fill:#AFAFAF;}
	.st21{fill:#009FE3;}
	.st22{fill:#3AAA35;}
	.st23{fill:#009640;}
	.st24{fill:#7FC07B;}
</style>
<rect id="XMLID_52_" x="-478.1" y="-605.9" class="st0" width="1341.7" height="206.5"/>
<ellipse id="XMLID_40_" class="st1" cx="49.9" cy="-484" rx="107.7" ry="61.8"/>
<ellipse id="XMLID_43_" class="st2" cx="404.7" cy="-504.2" rx="107.7" ry="61.8"/>
<ellipse id="XMLID_42_" class="st1" cx="297" cy="-484" rx="107.7" ry="61.8"/>
<rect id="XMLID_46_" x="-107.8" y="-874.6" class="st1" width="89.3" height="85.3"/>
<ellipse id="XMLID_41_" class="st3" cx="157.7" cy="-461.2" rx="107.7" ry="61.8"/>
<rect id="XMLID_45_" x="0.3" y="-778.2" class="st4" width="89.3" height="85.3"/>
<rect id="XMLID_44_" x="226" y="-778.2" class="st5" width="89.3" height="85.3"/>
<rect id="XMLID_78_" x="345.7" y="-778.2" class="st6" width="89.3" height="85.3"/>
<rect id="XMLID_47_" x="-107.8" y="-778.2" class="st3" width="89.3" height="85.3"/>
<rect id="XMLID_48_" x="0.3" y="-874.6" class="st2" width="89.3" height="85.3"/>
<rect id="XMLID_49_" x="228.3" y="-874.6" class="st7" width="89.3" height="85.3"/>
<rect id="XMLID_50_" x="113" y="-874.6" class="st0" width="89.3" height="85.3"/>
<rect id="XMLID_51_" x="108.9" y="-778.2" class="st8" width="89.3" height="85.3"/>
<path id="XMLID_54_" class="st1" d="M149.2-523.5l-5.8-10.1c-1.8-3.2-2.1-7.1-0.7-10.5l15.5-38.4l10.9,48.7c0.7,3.1-0.1,6.4-2,8.9
	l-2.2,2.7C160.7-517.1,152.5-517.7,149.2-523.5z"/>
<polygon id="XMLID_53_" class="st5" points="157.7,-488.4 153.5,-488.4 155.6,-562.8 "/>
<path id="XMLID_56_" class="st1" d="M169.1-527l-5.8-10.1c-1.8-3.2-2.1-7.1-0.7-10.5l15.5-38.4l10.9,48.7c0.7,3.1-0.1,6.4-2,8.9
	l-2.2,2.7C180.6-520.5,172.4-521.1,169.1-527z"/>
<polygon id="XMLID_55_" class="st5" points="177.5,-491.8 173.4,-491.8 175.5,-566.3 "/>
<path id="XMLID_60_" class="st1" d="M271.1-553.2l-4.1-7.2c-1.3-2.3-1.5-5-0.5-7.5l11-27.2l7.7,34.5c0.5,2.2,0,4.5-1.5,6.3l-1.5,1.9
	C279.3-548.6,273.5-549,271.1-553.2z"/>
<polygon id="XMLID_59_" class="st5" points="277.1,-528.2 274.2,-528.2 275.6,-581 "/>
<path id="XMLID_58_" class="st1" d="M285.2-555.6l-4.1-7.2c-1.3-2.3-1.5-5-0.5-7.5l11-27.2l7.7,34.5c0.5,2.2,0,4.5-1.5,6.3l-1.5,1.9
	C293.4-551,287.6-551.4,285.2-555.6z"/>
<polygon id="XMLID_57_" class="st5" points="291.2,-530.6 288.3,-530.6 289.7,-583.5 "/>
<path id="XMLID_64_" class="st1" d="M71.7-549.1l-3.4-5.9c-1.1-1.9-1.2-4.1-0.4-6.1l9-22.3l6.3,28.3c0.4,1.8,0,3.7-1.2,5.1l-1.3,1.6
	C78.4-545.4,73.6-545.7,71.7-549.1z"/>
<polygon id="XMLID_63_" class="st5" points="76.6,-528.7 74.2,-528.7 75.4,-572 "/>
<path id="XMLID_62_" class="st1" d="M83.2-551.1l-3.4-5.9c-1.1-1.9-1.2-4.1-0.4-6.1l9-22.3l6.3,28.3c0.4,1.8,0,3.7-1.2,5.1l-1.3,1.6
	C89.9-547.4,85.2-547.7,83.2-551.1z"/>
<polygon id="XMLID_61_" class="st5" points="88.1,-530.7 85.8,-530.7 87,-574 "/>
<rect id="XMLID_134_" x="-478.1" y="0" class="st5" width="1373.5" height="210.8"/>
<ellipse id="XMLID_133_" class="st1" cx="49.9" cy="121.9" rx="107.7" ry="61.8"/>
<ellipse id="XMLID_132_" class="st2" cx="404.7" cy="101.7" rx="107.7" ry="61.8"/>
<ellipse id="XMLID_131_" class="st1" cx="297" cy="121.9" rx="107.7" ry="61.8"/>
<ellipse id="XMLID_130_" class="st3" cx="169.4" cy="149" rx="107.7" ry="61.8"/>
<path id="XMLID_125_" class="st0" d="M271.1,52.7l-4.1-7.2c-1.3-2.3-1.5-5-0.5-7.5l11-27.2l7.7,34.5c0.5,2.2,0,4.5-1.5,6.3l-1.5,1.9
	C279.3,57.3,273.5,56.9,271.1,52.7z"/>
<polygon id="XMLID_124_" class="st9" points="277.1,77.7 274.2,77.7 275.6,24.8 "/>
<path id="XMLID_121_" class="st0" d="M71.7,56.7l-3.4-5.9c-1.1-1.9-1.2-4.1-0.4-6.1l9-22.3l6.3,28.3c0.4,1.8,0,3.7-1.2,5.1l-1.3,1.6
	C78.4,60.5,73.6,60.1,71.7,56.7z"/>
<polygon id="XMLID_120_" class="st9" points="76.6,77.2 74.2,77.2 75.4,33.9 "/>
<path id="XMLID_203_" class="st0" d="M383.7,45.8l-2.4-4.2c-0.8-1.3-0.9-2.9-0.3-4.3l6.4-15.8l4.5,20.1c0.3,1.3,0,2.6-0.8,3.6
	l-0.9,1.1C388.4,48.5,385,48.2,383.7,45.8z"/>
<polygon id="XMLID_202_" class="st9" points="387.1,60.3 385.4,60.3 386.3,29.6 "/>
<path id="XMLID_234_" class="st1" d="M396.4-570.6l-2.4-4.2c-0.8-1.3-0.9-2.9-0.3-4.3l6.4-15.8l4.5,20.1c0.3,1.3,0,2.6-0.8,3.6
	l-0.9,1.1C401.1-567.9,397.8-568.2,396.4-570.6z"/>
<path id="XMLID_240_" class="st1" d="M388.2-569.2l-2.4-4.2c-0.8-1.3-0.9-2.9-0.3-4.3l6.4-15.8l4.5,20.1c0.3,1.3,0,2.6-0.8,3.6
	l-0.9,1.1C392.9-566.5,389.6-566.8,388.2-569.2z"/>
<polygon id="XMLID_239_" class="st5" points="391.7,-554.7 390,-554.7 390.8,-585.4 "/>
<polygon id="XMLID_237_" class="st5" points="399.9,-556.1 398.2,-556.1 399,-586.8 "/>
<rect id="XMLID_508_" x="-478.1" y="616.6" class="st8" width="1328" height="219.7"/>
<ellipse id="XMLID_507_" class="st10" cx="10.9" cy="738.5" rx="107.7" ry="61.8"/>
<ellipse id="XMLID_506_" class="st11" cx="365.6" cy="718.3" rx="107.7" ry="61.8"/>
<ellipse id="XMLID_505_" class="st10" cx="257.9" cy="738.5" rx="107.7" ry="61.8"/>
<ellipse id="XMLID_504_" class="st12" cx="118.6" cy="761.3" rx="107.7" ry="61.8"/>
<path id="XMLID_503_" class="st1" d="M110.1,660.2l-5.8,10.1c-1.8,3.2-2.1,7.1-0.7,10.5l15.5,38.4l10.9-48.7c0.7-3.1-0.1-6.4-2-8.9
	l-2.2-2.7C121.7,653.7,113.5,654.4,110.1,660.2z"/>
<polygon id="XMLID_502_" class="st5" points="118.6,625.1 114.5,625.1 116.5,699.5 "/>
<path id="XMLID_499_" class="st1" d="M232,689.8l-4.1,7.2c-1.3,2.3-1.5,5-0.5,7.5l11,27.2l7.7-34.5c0.5-2.2,0-4.5-1.5-6.3l-1.5-1.9
	C240.2,685.2,234.4,685.7,232,689.8z"/>
<polygon id="XMLID_498_" class="st5" points="238,664.9 235.1,664.9 236.6,717.7 "/>
<path id="XMLID_495_" class="st1" d="M32.6,673.4l-3.4-5.9c-1.1-1.9-1.2-4.1-0.4-6.1l9-22.3l6.3,28.3c0.4,1.8,0,3.7-1.2,5.1
	l-1.3,1.6C39.3,677.1,34.6,676.8,32.6,673.4z"/>
<polygon id="XMLID_306_" class="st5" points="37.5,665.4 35.1,665.4 36.3,708.6 "/>
<path id="XMLID_305_" class="st1" d="M44.2,687.8l-3.4,5.9c-1.1,1.9-1.2,4.1-0.4,6.1l9,22.3l6.3-28.3c0.4-1.8,0-3.7-1.2-5.1
	l-1.3-1.6C50.9,684,46.1,684.4,44.2,687.8z"/>
<polygon id="XMLID_304_" class="st5" points="49.1,667.4 46.7,667.4 47.9,710.6 "/>
<polygon id="XMLID_302_" class="st5" points="348.1,676.9 346.4,676.9 347.2,646.2 "/>
<path id="XMLID_301_" class="st1" d="M352.8,661l-2.4-4.2c-0.8-1.3-0.9-2.9-0.3-4.3l6.4-15.8l4.5,20.1c0.3,1.3,0,2.6-0.8,3.6
	l-0.9,1.1C357.5,663.7,354.2,663.4,352.8,661z"/>
<polygon id="XMLID_298_" class="st5" points="348.1,676.9 346.4,676.9 347.2,646.2 "/>
<path id="XMLID_297_" class="st1" d="M352.8,661l-2.4-4.2c-0.8-1.3-0.9-2.9-0.3-4.3l6.4-15.8l4.5,20.1c0.3,1.3,0,2.6-0.8,3.6
	l-0.9,1.1C357.5,663.7,354.2,663.4,352.8,661z"/>
<polygon id="XMLID_294_" class="st5" points="348.1,676.9 346.4,676.9 347.2,646.2 "/>
<path id="XMLID_293_" class="st1" d="M352.8,661l-2.4-4.2c-0.8-1.3-0.9-2.9-0.3-4.3l6.4-15.8l4.5,20.1c0.3,1.3,0,2.6-0.8,3.6
	l-0.9,1.1C357.5,663.7,354.2,663.4,352.8,661z"/>
<polygon id="XMLID_290_" class="st5" points="348.1,676.9 346.4,676.9 347.2,646.2 "/>
<path id="XMLID_289_" class="st1" d="M352.8,661l-2.4-4.2c-0.8-1.3-0.9-2.9-0.3-4.3l6.4-15.8l4.5,20.1c0.3,1.3,0,2.6-0.8,3.6
	l-0.9,1.1C357.5,663.7,354.2,663.4,352.8,661z"/>
<polygon id="XMLID_286_" class="st5" points="348.1,676.9 346.4,676.9 347.2,646.2 "/>
<path id="XMLID_285_" class="st1" d="M352.8,661l-2.4-4.2c-0.8-1.3-0.9-2.9-0.3-4.3l6.4-15.8l4.5,20.1c0.3,1.3,0,2.6-0.8,3.6
	l-0.9,1.1C357.5,663.7,354.2,663.4,352.8,661z"/>
<g id="XMLID_204_">
	<g id="XMLID_404_">
		<g id="XMLID_408_">
			<g id="XMLID_409_">
				<g id="XMLID_410_">
					<path id="XMLID_520_" class="st9" d="M157.1,106.9c-0.1,0.2,0.4,0.2,0.4,0.2C157.5,106.7,157,106.9,157.1,106.9z"/>
					<polygon id="XMLID_519_" class="st9" points="156.6,103.1 156.8,103.2 156.4,102.5 					"/>
					<path id="XMLID_518_" class="st9" d="M157.3,99.6c-0.8,0.2-0.1,1.3-0.5,1.9l-0.2,0.1l0.5,0.4C157.1,101.1,157,100.1,157.3,99.6
						z"/>
					<path id="XMLID_494_" class="st9" d="M159.2,98.1c-0.3,0-0.1-0.4-0.2,0.4c0,0,0.1,0,0.1-0.1C159.1,98.4,159.1,98.3,159.2,98.1z
						"/>
					<path id="XMLID_493_" class="st9" d="M159.1,98.5C159,98.8,159.4,98.3,159.1,98.5L159.1,98.5z"/>
					<path id="XMLID_492_" class="st9" d="M159.4,96.8l0.1,0.5c0.2-0.1,0.3-0.4,0.4-0.3C159.9,96.6,159.7,96.6,159.4,96.8z"/>
					<path id="XMLID_491_" class="st9" d="M159,96.2l0,0.3C159.1,96.5,159.1,96.4,159,96.2z"/>
					<path id="XMLID_490_" class="st9" d="M159.1,97.1l-0.1-0.6c-0.1,0-0.4,0,0,0.3C158.8,96.7,159,96.8,159.1,97.1z"/>
					<path id="XMLID_489_" class="st9" d="M158.9,97.3c-0.2,0.2-0.4,0.5-0.5,0C158.2,98.3,158.8,98.2,158.9,97.3z"/>
					<path id="XMLID_488_" class="st9" d="M156.6,99.2l-0.3,0.3l0.2,0.4C156.4,99.8,156.8,99.3,156.6,99.2z"/>
					<path id="XMLID_487_" class="st9" d="M160.6,94.1c-0.1-0.1-0.4,0-0.6,0l0,0.4C160.2,94.3,160.4,94,160.6,94.1z"/>
					<path id="XMLID_486_" class="st9" d="M160,94.1l-0.1-0.6C159.7,93.9,159.8,94.1,160,94.1z"/>
					<polygon id="XMLID_485_" class="st9" points="158.3,95.9 158.5,96.9 158.3,95.8 					"/>
					<polygon id="XMLID_484_" class="st9" points="161.3,92.2 161.6,92.6 161.3,91.9 					"/>
					<path id="XMLID_483_" class="st9" d="M161.8,91c0.2,0.3,0.6-0.1,0.6,0.2c0.1-0.3,0-0.7-0.1-1.1C162.3,90.4,162.2,90.7,161.8,91
						z"/>
					<path id="XMLID_482_" class="st9" d="M162.2,89.5c0,0.2,0.1,0.4,0.1,0.6C162.3,89.9,162.3,89.8,162.2,89.5z"/>
					<path id="XMLID_481_" class="st9" d="M160.3,92.7c0.1,0,0.3,0,0.6-0.2l-0.5,0C160.4,92.5,160.3,92.6,160.3,92.7z"/>
					<path id="XMLID_480_" class="st9" d="M160.4,92.5L160.4,92.5c0.1-0.2,0.2-0.4,0.2-0.4C160.5,92.1,160.5,92.2,160.4,92.5z"/>
					<path id="XMLID_479_" class="st9" d="M160.3,92.7C160.3,92.7,160.3,92.7,160.3,92.7C160.3,92.7,160.2,92.7,160.3,92.7z"/>
					<path id="XMLID_478_" class="st9" d="M159.1,94.7c-0.1-0.4-0.2-1.1-0.7-0.6C158.5,94.4,158.9,94.1,159.1,94.7z"/>
					<path id="XMLID_477_" class="st9" d="M159.7,92.8l-0.3,0.5c0.1,0,0.3,0,0.4,0.2L159.7,92.8z"/>
					<polygon id="XMLID_476_" class="st9" points="159.7,92.5 159.7,92.8 159.8,92.6 					"/>
					<path id="XMLID_475_" class="st9" d="M161.5,90.3c-0.1-0.3,0-0.5,0.1-0.8c-0.2,0.3-0.4,0.5-0.5,0.8
						C161.2,90.4,161.3,90.6,161.5,90.3z"/>
					<path id="XMLID_474_" class="st9" d="M160.9,91.3L160.9,91.3C160.8,91.3,160.8,91.3,160.9,91.3z"/>
					<polygon id="XMLID_473_" class="st9" points="162.9,86.8 162.8,86.8 162.9,86.8 					"/>
					<path id="XMLID_472_" class="st9" d="M161,90.3c-0.2,0.2-0.1,0.4-0.1,0.5C160.9,90.6,161,90.5,161,90.3
						C161,90.2,161,90.2,161,90.3z"/>
					<path id="XMLID_471_" class="st9" d="M162.4,88.7c-0.1,0.1-0.3,0.2-0.4,0.3C162.2,88.9,162.5,88.8,162.4,88.7z"/>
					<path id="XMLID_470_" class="st9" d="M161,91.2C161,91.2,161,91.3,161,91.2C161.1,91.2,161.1,91.2,161,91.2z"/>
					<path id="XMLID_469_" class="st9" d="M161,91.2c0-0.1-0.1-0.3-0.1-0.4c0,0.2,0,0.3,0,0.4C160.9,91.2,161,91.2,161,91.2z"/>
					<path id="XMLID_468_" class="st9" d="M160.9,84.6c0.3,0.2,0.3,1-0.3,1.3c0,0.6,1.3,0.9,2.2,0.8c-0.1-0.1-0.3-0.2-0.2-0.8
						c-0.3,0.1-1,0.9-1.1,0.3c0.2-0.8,0.4-0.5,0.8-0.7c-0.6,0-0.2-1.2-0.9-1.4l-0.1,0.7C161.1,84.8,161.1,84.5,160.9,84.6z"/>
					<path id="XMLID_467_" class="st9" d="M162.3,87.7l-0.1,0.2c0.2-0.2,0.4-0.3,0.8-0.5c0-0.4-0.1-0.6-0.2-0.6c0,0-0.1,0.2-0.3,0.5
						C162.4,87.5,162.3,87.8,162.3,87.7L162.3,87.7z"/>
					<path id="XMLID_466_" class="st9" d="M161.8,88.8c-0.3-0.3-0.2-0.9-0.8-0.8c-0.3,0.6,0.1,0.6,0.1,1
						C161.4,88,161.2,89.5,161.8,88.8c-0.1,0.2-0.1,0.4-0.2,0.6c0.1-0.2,0.3-0.3,0.4-0.4l0,0l0,0l0,0c-0.1,0-0.1,0-0.1,0
						c0,0,0,0,0,0C161.8,88.9,161.8,88.9,161.8,88.8c0.2-0.2,0.1,0,0.1,0.1c0,0,0,0,0.1,0l0,0l0.3-1.1
						C162.1,88.1,162,88.4,161.8,88.8z"/>
					<path id="XMLID_465_" class="st9" d="M157.7,93.2c0,0,0.1,0,0.1,0C157.7,93.1,157.7,93.1,157.7,93.2z"/>
					<path id="XMLID_464_" class="st9" d="M158.1,92.9c0,0.1,0.2,0.2,0,0.5c-0.2,0.2-0.2-0.1-0.3-0.1c0.1,0.2,0.1,0.6,0.5,0.2l0-0.1
						c0.3-0.4,1-0.7,1-0.6C158.8,92.7,158.5,92.7,158.1,92.9z"/>
					<path id="XMLID_463_" class="st9" d="M159.8,90.7c0,0,0-0.2,0.1-0.5c0-0.2,0.1-0.5,0.1-0.5l-0.5,0.3l0.2,0.1
						C159.4,90.6,159.7,90.6,159.8,90.7z"/>
					<polygon id="XMLID_462_" class="st9" points="163.1,86.8 163.5,87.1 163.2,86.3 					"/>
					<polygon id="XMLID_461_" class="st9" points="163.6,85.7 164,85.9 163.9,85.5 					"/>
					<path id="XMLID_460_" class="st9" d="M186.4,27.9l-0.2-0.1C186.3,27.8,186.4,27.8,186.4,27.9z"/>
					<path id="XMLID_459_" class="st9" d="M187.4,29.2l0.2-0.1C187.5,29.2,187.4,29.2,187.4,29.2z"/>
					<path id="XMLID_458_" class="st9" d="M183.1,63.3c0.6-0.1,1.3,0,0.9-0.3l-0.4-0.2C183.5,63.1,183.3,63.2,183.1,63.3z"/>
					<path id="XMLID_457_" class="st9" d="M191.7,43.9c0,0-0.1,0.1-0.2,0.1c0.1,0.1,0.2,0.3,0.3,0.4
						C191.9,44.2,191.8,44.1,191.7,43.9z"/>
					<path id="XMLID_456_" class="st9" d="M190,43.2l0.4-0.4C190.3,42.9,190.2,43,190,43.2z"/>
					<path id="XMLID_455_" class="st9" d="M178.2,23.7l-0.4,0.4C178.3,24.2,178.1,24,178.2,23.7z"/>
					<path id="XMLID_454_" class="st9" d="M170.6,75.8c0.4-0.1,0.6-0.3,0.8-0.5C170.9,75.5,170.4,75.5,170.6,75.8z"/>
					<path id="XMLID_453_" class="st9" d="M190.5,25.6c-0.2-0.1-0.3-0.1-0.4-0.1C190.3,25.6,190.5,25.7,190.5,25.6z"/>
					<path id="XMLID_452_" class="st9" d="M172.1,74.7c-0.1,0-0.1,0-0.2,0.1c-0.1,0.2-0.2,0.5-0.5,0.7
						C171.8,75.3,172.1,75.1,172.1,74.7z"/>
					<path id="XMLID_451_" class="st9" d="M149.1,39.1C149.1,39.1,149,39.1,149.1,39.1C149.1,39.2,149.1,39.1,149.1,39.1z"/>
					<path id="XMLID_450_" class="st9" d="M144,50.2c0-0.1-0.1-0.3-0.1-0.5C143.8,49.8,143.9,49.9,144,50.2z"/>
					<path id="XMLID_449_" class="st9" d="M166.3,81.8C166.2,82,166.3,81.8,166.3,81.8L166.3,81.8z"/>
					<path id="XMLID_448_" class="st9" d="M164.2,81.8c0-0.1,0-0.1-0.1-0.2C164.2,81.7,164.2,81.8,164.2,81.8z"/>
					<path id="XMLID_447_" class="st9" d="M171.9,70.9L171.9,70.9C171.8,70.9,171.9,70.9,171.9,70.9z"/>
					<path id="XMLID_446_" class="st9" d="M165.9,82c0.1,0,0.2-0.1,0.3-0.2C166.2,81.8,166.1,81.9,165.9,82z"/>
					<path id="XMLID_445_" class="st9" d="M166.1,82.1c-0.1,0.1-0.1,0.1-0.2,0.2C166,82.3,166.1,82.3,166.1,82.1z"/>
					<path id="XMLID_444_" class="st9" d="M166.5,81.5c-0.1,0.1-0.2,0.2-0.3,0.3c0.1,0,0.1,0,0.1,0
						C166.4,81.7,166.4,81.6,166.5,81.5z"/>
					<path id="XMLID_443_" class="st9" d="M161,24.2C161,24.1,161,24.1,161,24.2C160.8,24.4,160.9,24.3,161,24.2z"/>
					<path id="XMLID_442_" class="st9" d="M184.1,55.2C184.1,55.2,184.1,55.2,184.1,55.2L184.1,55.2L184.1,55.2z"/>
					<path id="XMLID_441_" class="st9" d="M184.3,54.2c0.2,0.6,0,0.8-0.2,0.9l1.2,0.5L184.3,54.2z"/>
					<path id="XMLID_434_" class="st9" d="M183.3,25.3l0.2,0.6c-0.9,0.2-1.2-0.2-1,0.5c0.4-0.6,0.8-0.3,1.3-0.1
						c0.4,0.3,0.9,0.6,1.3,0.1l0.1,0.5c-0.1-0.1-0.1,0-0.2-0.1c0,1,1.1-0.4,1.6,0.5c0.1,0.3,0.1,0.6-0.1,0.6c0,0,0.7,0.4,0.7,0.4
						c0.1,0.2-0.1,0.3-0.2,0.1c0,0,0.2,0.2,0.4,0.4c0.2,0.2,0.4,0.4,0.4,0.4l0,0c0.3,0,0.7,0.2,1,0.2c0,0.4-0.2-0.1-0.3,0.1
						c0,0,0.6,0.4,0.6,0.4c-0.2,0.4-0.7,0.1-0.9-0.3c-0.4,0.6-0.3,0.7-0.1,0.8c0.2,0.1,0.6,0.3,0.5,1c0,0-0.4-0.5-0.4-0.5
						c-0.5,0.7-0.1,0.9-0.3,1.7c0.2-0.2,0.6-1.6,1.2-1.2c0,0.2,0,0.5,0.4,0.7c-0.5,0.2-0.2,0.5-0.1,0.9l-0.6,0.2
						c0.3,0.4,0.6,0.3,1,0.5c0.1,0.5-0.4,0.8-0.8,1c0.1,0.9,0.7-0.8,1,0.2c0,0.4,0,0.7,0.1,1c0.1,0.3,0.3,0.6,0.6,1.1
						c-0.2,0.5-0.4-0.1-0.6,0.1l0.5,0.4c0,0.1-0.2,0.1-0.2,0.1c0.2,0.4,0.6,0,0.8,0.6c0.4,0.1,0.1,0.4-0.1,0.8
						c-0.3,0.4-0.5,0.8-0.1,1.3c-0.2,0.2-0.4-0.1-0.6-0.1c0.4,1.1,0.3,0.9,0.9,1.9c0,0-0.1,0.2-0.3,0.3c-0.1,0.2-0.3,0.3-0.3,0.3
						c0.6-0.5,1,0.3,1.3,1.1c0.3-0.2,0.5-0.3,0.6-0.4c0,0,0,0.3,0,0.6c0,0.3,0,0.6,0,0.6c-0.1,0.1-0.3-0.1-0.5-0.3
						c0,0.1,0.1,0.2,0.1,0.2c-0.3,0.3-0.6,0-0.9-0.3c0.2-0.1,0.3-0.2,0.5-0.3c-0.3-0.3-0.7-0.7-1.1-0.7c0.1,0.1,0.1,0.2,0.1,0.4
						c-0.1-0.1-0.2-0.1-0.2-0.1c-0.1,0,0,0.1,0.2,0.3l-0.7,0l0.3,0.1c0,0-0.2,0.3-0.4,0.6c-0.2,0.3-0.4,0.5-0.4,0.5
						c0.4,1.1,1.1,2.2,0.8,3.8c-0.3-0.6-0.7-0.4-1.3-0.7c0.8-0.1,0.2-1.2,0.6-1.8c-0.2,0.3-0.5,0.2-0.5,0c0,0,0,0.4,0,0.7
						c0,0.4,0,0.7,0,0.7c-0.5-0.2-0.5,0.1-0.8,0.4c1,0.2,0.2,1.2,0.2,1.9c-0.3-0.1-0.6-0.4-0.2-1c-1,0.3,0.6,1.4-0.3,1.8
						c0.1-0.2,0.2-0.2,0-0.3c0.1,0.5-0.6,1.2-0.8,0.9l0.1-0.1c-0.6,0.9-1.8,2.9-1.2,3.5c-0.1-0.1-0.8-0.7-0.9-0.9
						c0,0,0.3,0.8,0.6,1.7c0.3,0.8,0.5,1.7,0.5,1.7c-0.5-0.6-2.3-1.1-2-2.1c-0.2,0.2-0.5,0.3-0.7,0.9c0.2-0.1,1.1,0.3,1,0.5
						c-1.1,0-0.6,0.1-1.7,0.3c0.3-0.1,1,0.8,0.7,1.2c-0.1-0.2-0.9-0.7-0.9-0.9l0.2,1.6c0-0.3-0.7-0.7-1.1-0.7c0.2,0.1-0.6,0.7-0.7,1
						l0.5-0.2c-0.9,0.8,0.4,2-0.5,2.8c-0.1-0.3-0.8-1.2-1.3-0.9c0.2,0.6,1.1,2.8,0.7,4l-0.4-0.1l-0.3,0.9c-0.2-1-0.5-3.3-0.5-4.4
						c-0.5,0.2-0.4-0.2-0.8,0.3c-0.4,0-0.1-0.6,0.1-0.8l-1.3,1c0.5,0.4-0.4,1.4,0,1.7l0.7-1.7c0.5,0.4,0.7,2.1-0.3,2.8
						c-0.4,0-0.7-1-0.9-1.1c0.1,0.3-0.5,1.1-0.7,1L176,64c-0.6,0.3-0.1,1.4-1.1,1.5c-0.2,0.2-1.2-0.1-0.9,0.3
						c0.9,0.2,2.6,1.9,2.8,2.5c-0.1,0-1.5,0.5-2,0.4c-0.7-0.1-0.5-1.5-1.2-1.6c0.1,0.1,0.1,0.5,0.1,0.6c-0.3,0.1-0.3-0.5-0.7,0
						c0.4,0.6-0.9,0.8,0.2,0.6c-0.3,0.6-0.6,0.4-1,0.9c0.5,0.2,0.6,1.5,0.3,2.1c-0.1-0.1-0.4-0.2-0.5-0.2c-0.9,0.8-1.6,1.1-2.4,1.9
						c-0.2,0-0.7,0.2-0.8-0.1c0,0.2,0,0.5-0.2,0.7c-0.9,0.1,0.5-0.7-0.4-0.7c0.3,0.3-0.2,1.1-0.4,1.6c0.6,0.3,0.9-0.8,1-1.3
						c0.6,0.6,0.7,1.8,0.2,3c-0.5,0.8-0.7,0-0.7,0.2c-1.3,1.3,0.2,2.1-1.2,2.8c-0.8,0.1-0.9-0.6-1.2-0.8c0.3-0.7,1-0.7,1.3-1.1
						l-0.6,0.3c0-0.3,0.2-0.8,0.5-0.9c-0.7,0.1-2,2.3-3.1,3.2c0,0.3-0.1,0.8,0.2,0.7l0.2-0.4c0.6-0.1,0,1,0.5,0.7
						c-0.1,0.7,0,1.4-0.7,2l-0.6-0.2c0.2,0.1,0.6-0.2,0.6-0.5c0.1,0.4-1.4,0.6-0.9,1.3l0.7-0.3c-0.1,0.6,0.2,1.6-0.4,2.1
						c0.7,0,0-0.2,0.9-0.2c-1-0.1,1-1.5-0.2-1.4c1,0,0.8-0.6,1.7-0.7c-0.2-0.1-0.5,0,0-0.4c0-0.1-0.1-0.1-0.1-0.2c0,0,0,0,0,0l0,0
						c0,0,0,0,0,0c-0.2,0.1-0.3,0.1-0.4,0.1c-0.2-0.5,0.3-1.3,0.3-1.7c0.3-0.2,0.1,0.3,0.4,0.2l0-0.6c0.4,0.2,1.2-0.3,0.9,0.5
						l0.5-0.6c0.5-0.2,0.9-0.6,1-1c0.3-0.2,0.2-1,0.2-0.5l0.5-1.1l0.1,0.1c0.8-0.8,1-2.3,2.5-2.7c0.2-0.4,0.4-0.8,0.9-1.1l0.4,0.2
						c0.3-0.5,1.3-0.8,1.2-1.3c1.1,0.3,1.9-1.6,2.7-2.1l-0.3-0.4c0.5-0.4,0.8-0.9,1.2-1.6l-0.3-0.3c0.2-0.7,1.5-1,2.2-1.8
						c0.1,0.2-0.2,0.3-0.4,0.4c1.6-0.2,1.4-2.4,2.7-2.8c0.1-0.3,0.3-0.4,0.5-0.5c0,0,0,0,0,0.1c0,0,0.1-0.1,0.1-0.1
						c0.1,0,0.3-0.1,0.5-0.1c-0.2,0-0.3,0-0.4,0.1c0.1-0.2,0.3-0.5,0.5-0.8l0.5,0.2c0,0,0,0,0-0.1c0.4-0.1,0-0.4-0.4-0.5
						c0.1-0.2,0.1-0.4,0.1-0.5c0.8,0.3,0.4-0.8,1.3-0.6c-0.1-0.4,0.9-1.5,0.3-2.2c0.1,0.1,0.2,0,0.1,0.2c0.3-0.2,0.6-0.5,0.6-0.9
						l0.6,0.3l-0.2-1.2c0.6-0.2,0.9-0.2,1,0.5c0.1-1.4,0.4-1,0.4-2.2l0.3,0.3c0.2-0.3,0.1-1.1,0.5-1.1c1.1-0.3,2.3-3.3,3.7-5
						c-1.2-0.1,0.9-0.7,0.1-1.1c0.3,0,0.6-0.2,0.6,0.2c0.2-1.1,1-1.4,0.5-2.4c0.3,0,0.3,0.4,0.5,0.3c0-0.1-0.1-0.4,0.1-0.5
						c0.2-0.1,0.2,0.2,0.2,0.4c0.3-1.1-0.5-1.5-1.2-1.8c0.5-0.4,0.5-0.8,0.1-1.3c0.3-0.1,0.6-0.4,0.6,0.3c0.2-0.4,0.8-2.3,0.2-2.4
						c0.2-0.1,0.1-0.5,0-0.6c0.1-0.9,0.2-0.9,0.1-1.8l-0.1,0.2c-0.7-0.4-0.2-0.7-0.3-1.4l0.1,0c0.5-1.6-0.3-0.7,0.2-2.3l-0.5,0.1
						c-0.5,0-0.4-0.4-0.2-0.8c0.2-0.5,0.3-1.1,0.1-1.5l-0.2,0.4c-0.4-0.4,1-1.7,1-2.3c0.1-0.1,0.2,0.1,0.3,0.3
						c0.2-1.5-0.6,0-1.1-0.9c0.3-0.3,0.9-0.1,0.7-0.7c0.1-0.2-0.4-0.6-0.8-1c-0.4-0.5-0.9-0.9-0.9-1.5c-0.1,0.3-0.3,0.6-0.7,0.3
						c-0.2-0.3-0.3-0.8-0.4-1.3c-0.1-0.5-0.4-0.9-0.9-0.9c0-0.1,0-0.2,0.1-0.2c-0.5-0.3-1.5-1.2-2-1c0.4-0.8-0.4-1.3-1.2-1.5
						c-0.7-0.3-1.5-0.5-1.1-1.1c0,0-1.5-0.8-1.5-0.8l0.1-0.1c-1-0.6-1.5-0.4-1.9-0.2c-0.2-0.2,0-0.3,0.1-0.3
						c-0.7-0.4-1.1-0.6-1.5-0.7c-0.4,0-0.8,0-1.5,0.3l0-0.5c-0.4,0.2-2.1-1.2-3.7-0.8c0-0.1,0.1-0.1,0.2-0.2
						c-0.9,0.2-1.9-0.2-2.8-0.4c-0.9-0.2-1.7-0.2-1.9,0.7c0,0-0.3,0.1-0.5,0.3c-0.3,0.1-0.5,0.3-0.5,0.3c1.4,0-0.1,0.8,0.5,1
						c-0.5,0.2-1.4-0.4-0.8-0.6l0.1,0.1c0.1-1-1.8-0.1-1.8-0.8c-2.7,0.5-5.5,0.6-8,1.5l0.5,0.6l-0.9,0.3c-0.3-0.1-0.5-0.4,0.1-0.6
						c-0.5-0.3-0.9,0.7-0.9,0.9c-1.3,0.3,0.1-1-0.2-0.8l-0.5,0.3l0.1,0c-0.3,0.5-0.2,0.8-0.9,1.1c-0.5,0.1-0.4-0.3-0.6-0.2
						c0,0-0.1,0-0.3,0.1c0,0-0.3,0.1-0.5,0.3c-0.3,0.1-0.5,0.3-0.5,0.3l0.7,0.3c-0.3,0.5-1,0.5-0.2,0.8c-0.3-0.1-0.7,0-1.1,0.1
						c-0.4,0.2-0.9,0.5-1.3,0.8c-0.9,0.6-1.5,1.4-1.8,1.5c-0.3,0.8-0.7,1.3-1.4,1.9c0.3-0.1,0.8,0.2,0.3,0.8
						c-0.8-1.1-1.3,0.7-2.5,0.7c0.8-0.1-1.1,1.9,0.2,1.7c-0.4,0.5-0.5-0.2-1,0c-0.3,1.6-1.9,2.8-2.4,4.7c0.2,0.1,0.5-0.1,0.6,0.3
						c0,0-0.3,0.2-0.6,0.3c-0.3,0.2-0.6,0.3-0.6,0.3c0,0.4,0.9,0.6,0.1,1.1c0.2-0.1,0.4-0.1,0.4,0.1c-0.9,1.6-1.1,3.6-1.1,5.4
						c-0.1,1.9,0,3.7-0.7,5.7c0.3-0.6,0.4-0.2,0.4,0.2c0-0.3,0.4,0,0.7-0.1l-0.4,1.6c0.7,0.2,0.4,1.6,1,1.7l-0.2-0.5
						c0.9,0.4,1.4-1.2,2.4-1.3c-0.5-0.2-0.2-0.7,0-1.3c0.2-0.5,0.4-1.1-0.3-1.5c0.2-0.3,0.3,0.2,0.5,0c-0.4-0.2-0.6-0.6-0.4-1.2
						l0.1,0.1c-0.1-1.7,0.3-2.5,0.8-4.3l-0.5,0.1c0.1-0.4,0.3-0.5,0.4-0.6c-0.6-0.6-0.2,1.1-0.9,0.6c0.5-0.2,0.6-0.9,0.8-1.6
						c0.2-0.7,0.3-1.3,0.9-1.4c0.2-0.6-0.6,0-0.4-0.6l0.3-0.1l-0.3-0.3c0.2-0.4,0.6-0.5,0.8-0.4c-0.1,0.1,0,0.3,0,0.4
						c0.5-0.4,0.3-1.4,0.5-1.6l-0.4,0.5c0.3-1.7,1.5-3.4,1.9-5.1l-0.3,0c0.4-1.3,0.7-0.7,1.4-1.9l0,0.1c0-0.4,0.1-0.7,0.4-1
						c0,0.4,0.8-0.1,0.7,0.4c0.6-1.3,0.2-0.7,0.2-2l0.4,0.1c0-0.4-0.1-0.6,0.4-1.1c-0.2,0.6,0.7,0.1,0.5,0.9c0.8-0.2,1.1-0.6,1.3-1
						c0.3-0.4,0.5-0.7,1.1-0.4c0-0.6-0.3-0.6-0.7-0.4c-0.3,0.2-0.6,0.5-0.5,0.3c-0.5-0.1,0-1,0.5-1.1c0.4-0.2,1.4,0.7,2.4,0.1
						c-0.1,0-0.1,0.1-0.2,0.2c0.5,0,0.6-0.7,1.3-0.5c0-0.7,0.6-0.2,0.4-1c0,0-0.2,0.2-0.5,0.3c-0.2,0.2-0.5,0.3-0.5,0.3
						c0.5-0.4,0.6-1.5,1.8-1.5c0,0.2-0.2,0.5-0.4,0.7c0.4,0.1,0.5-0.4,0.9-0.2c0.2,0.8-1.2,0.6-1.5,1.5c0.4,0.2,0.9-1,0.9-0.1
						c0-1.2,1.1-0.3,1.6-1.3l0.1,0.5c0.1-0.1,0.3-0.4,0.5-0.5l-0.2,0.7c0.5-0.7,1.3,0.1,1.8-0.3c-1.2,0.4-0.4-0.5-1.1-0.7
						c1.4-1,1.2,0.9,2.9,0.3c-0.2,0.1-0.9-0.1-0.6-0.4c0.4,0,0.8,0.1,1.1,0.3c1.1-0.3-0.3-0.4,0.2-0.8c0.5,0.5,0.5-0.3,1-0.6
						l0.1,0.5c1.4,0.1,0.2-1.1,1.5-0.8l-0.4,0.7c0,0,0.2-0.1,0.3-0.1c0.2-0.1,0.3-0.1,0.3-0.1l-0.1,0.6c0.6-0.5,0.9-0.4,1.5-0.3
						c-0.2-0.3,0-0.9,0.6-0.9c0.4,0.3-0.2,0.5,0.6,0.4c-0.2,0.3-0.4,0.7-0.8,0.3c0,0.2-0.2,0.3-0.2,0.5c0.4,0.3,1.1,0,1.4,0
						c-0.1,0-0.3,0-0.3-0.1c0,0,0.3-0.2,0.6-0.3c0.3-0.2,0.6-0.3,0.6-0.3c0.2,0.2,0,0.3-0.1,0.5c0.2,0,0.4-0.3,0.8-0.3
						c-0.1,0.4-0.1,0.8-0.6,1c0,0,0.3-0.1,0.6-0.2c0.3-0.1,0.6-0.2,0.6-0.2c0.1,0.2,0.5,0.5,0.4,0.6c0.3,0.2,0.7,0,1.1-0.1
						c0.4-0.1,0.9-0.2,1.2,0c0.1-0.1,0.2-0.1,0.3-0.1c0.7,0.3,1.2,0.9,2.2,0.7L181,25c0.7,0.1-0.3-1.1,0.9-0.9c0.9,0.1,0,0.7,0.2,1
						c0.5-0.1,1.5-0.4,1.8,0.5C183.6,25.6,183.5,25.4,183.3,25.3z M188.9,31.5c-0.2-0.1-0.6-0.3-0.4-0.5
						C189.1,30.9,188.9,31.1,188.9,31.5z M190.5,45c-0.1-0.2,0-0.4,0.3-0.5C190.7,44.7,190.7,44.9,190.5,45z M167.6,79.3
						C167.6,79.3,167.6,79.3,167.6,79.3C168,79.1,167.9,79.2,167.6,79.3z M166.9,79.9c0,0.1,0.1,0.1,0.1,0.2c-0.1-0.1,0-0.3,0.2-0.4
						C167.1,79.6,167,79.6,166.9,79.9z M157.1,22.4l0.2,0C157,22.7,157,22.6,157.1,22.4z"/>
					<path id="XMLID_433_" class="st9" d="M190.2,43.3c0.1,0,0.2,0,0.3,0C190.5,43.2,190.4,43.2,190.2,43.3z"/>
					<path id="XMLID_432_" class="st9" d="M178.3,23.7L178.3,23.7C178.2,23.7,178.2,23.7,178.3,23.7L178.3,23.7z"/>
					<path id="XMLID_431_" class="st9" d="M173.1,67.1c0.2-0.1,0.3-0.1,0.4-0.1C173.5,66.9,173.3,66.9,173.1,67.1z"/>
					<path id="XMLID_430_" class="st9" d="M165.1,84.1l0.2-0.5c-0.1,0.2-0.3,0.3-0.4,0.3C165,83.9,165.2,83.9,165.1,84.1z"/>
					<path id="XMLID_429_" class="st9" d="M160.2,86.8c0,0.1-0.1,0.2-0.1,0.3l0.2,0.1C160.5,86.8,160.4,86.5,160.2,86.8z"/>
					<path id="XMLID_428_" class="st9" d="M163.5,83.7c-0.4-0.2-0.4,0.2-0.6,0.6c0,0,0,0,0-0.1C163.4,84.6,163.4,84.1,163.5,83.7z"
						/>
					<path id="XMLID_427_" class="st9" d="M162.9,84.3c0,0.1-0.1,0.2-0.2,0.3C162.9,84.8,162.8,84.5,162.9,84.3z"/>
					<path id="XMLID_426_" class="st9" d="M166.5,80.9c-0.2,0.1,0.4,0.4,0.2,0.4C167,81.8,166.9,80,166.5,80.9z"/>
					<polygon id="XMLID_425_" class="st9" points="162.2,83.2 162.7,83.4 162.4,83 					"/>
					<path id="XMLID_424_" class="st9" d="M164.1,80.8l-0.5,0.4c0.1,0,0.1,0.1,0.1,0.2C163.9,81.2,164.3,80.9,164.1,80.8z"/>
					<path id="XMLID_423_" class="st9" d="M163.7,81.5c-0.1,0.2-0.2,0.3-0.2,0.5C163.6,81.9,163.7,81.6,163.7,81.5z"/>
					<polygon id="XMLID_422_" class="st9" points="162.5,82.4 162.7,82.3 162.9,81.9 					"/>
					<path id="XMLID_421_" class="st9" d="M168.4,75.5l0.3-0.6c-0.1-0.2-0.3-0.1-0.4,0.1C168.3,75.2,168.2,75.5,168.4,75.5z"/>
					<path id="XMLID_420_" class="st9" d="M166,76.2c0.2-0.1,0.3,0,0.5,0l-0.5-0.4L166,76.2z"/>
					<path id="XMLID_419_" class="st9" d="M167.2,74.6c-0.1-0.2,0.3-1.1-0.3-0.4C167,74.3,166.7,74.9,167.2,74.6z"/>
					<polygon id="XMLID_418_" class="st9" points="175.1,67.5 174.9,67.6 175.7,68.4 					"/>
					<path id="XMLID_417_" class="st9" d="M179.7,59.3c-0.7,0.4,0.3,0.6-0.4,0.9c0,0.3,0.6-0.3,0.6,0
						C180.1,59.7,180.4,59.6,179.7,59.3z"/>
					<path id="XMLID_416_" class="st9" d="M179.9,60.2c0,0.1,0,0.2-0.1,0.3C179.9,60.4,179.9,60.3,179.9,60.2z"/>
					<polygon id="XMLID_415_" class="st9" points="143.8,52.4 143.7,53 144,52.5 					"/>
					<path id="XMLID_414_" class="st9" d="M144.8,53.3l-0.6,0.3l0.6,0.2C144.8,53.6,144.7,53.4,144.8,53.3z"/>
					<path id="XMLID_413_" class="st9" d="M188.1,33.1l0.2,0c0.1-0.1,0.1-0.2,0.1-0.4L188.1,33.1z"/>
					<polygon id="XMLID_412_" class="st9" points="185.6,27.9 185.7,28 186,27.4 					"/>
					<path id="XMLID_411_" class="st9" d="M181.4,25.7c0.2,0.1,0.4,0.1,0.6,0.2C181.5,25.8,181.6,25.1,181.4,25.7z"/>
				</g>
			</g>
		</g>
	</g>
</g>
<g id="XMLID_205_">
	<g id="XMLID_523_">
		<g id="XMLID_527_">
			<g id="XMLID_528_">
				<g id="XMLID_529_">
					<path id="XMLID_616_" class="st9" d="M165.6,117.2c0,0-0.1-0.4-0.1-0.4C165.5,116.9,165.6,117.3,165.6,117.2z"/>
					<polygon id="XMLID_615_" class="st9" points="165.6,118.2 165.5,118.1 165.6,118.5 					"/>
					<path id="XMLID_614_" class="st9" d="M165.3,118.3c0.2,0.7,0.1-0.1,0.2,0.1l0.1,0.2l-0.1-0.6
						C165.4,118.1,165.4,118.5,165.3,118.3z"/>
					<path id="XMLID_613_" class="st9" d="M164.7,116.9C164.8,117.1,164.7,117.1,164.7,116.9C164.7,116.9,164.7,116.9,164.7,116.9
						C164.7,116.9,164.7,116.9,164.7,116.9z"/>
					<path id="XMLID_612_" class="st9" d="M164.7,116.9C164.7,116.9,164.6,116.7,164.7,116.9L164.7,116.9z"/>
					<path id="XMLID_611_" class="st9" d="M164.6,117.1l0-0.2c-0.1-0.2-0.1-0.2-0.1-0.3C164.5,116.7,164.5,116.8,164.6,117.1z"/>
					<path id="XMLID_610_" class="st9" d="M164.7,117.6l0-0.1C164.7,117.4,164.7,117.4,164.7,117.6z"/>
					<path id="XMLID_609_" class="st9" d="M164.7,117.3l0,0.2c0,0.1,0.1,0.3,0-0.1C164.8,117.6,164.7,117.4,164.7,117.3z"/>
					<path id="XMLID_608_" class="st9" d="M164.8,117.3c0.1,0.1,0.1,0.2,0.2,0.5C165,117.7,164.8,117.2,164.8,117.3z"/>
					<path id="XMLID_607_" class="st9" d="M165.5,119l0.1,0.2L165.5,119C165.6,119.1,165.4,118.8,165.5,119z"/>
					<path id="XMLID_606_" class="st9" d="M164.3,116.8c0,0.1,0.1,0.4,0.2,0.6l0-0.2C164.4,117.1,164.4,117,164.3,116.8z"/>
					<path id="XMLID_605_" class="st9" d="M164.5,117.4l0,0.3C164.6,117.6,164.5,117.5,164.5,117.4z"/>
					<polygon id="XMLID_604_" class="st9" points="165,118.3 164.9,117.8 165,118.4 					"/>
					<polygon id="XMLID_603_" class="st9" points="164.1,116.8 164.1,116.5 164.2,117 					"/>
					<path id="XMLID_602_" class="st9" d="M164,116.9c-0.1-0.3-0.2-0.5-0.2-0.6c0,0.1,0,0.3,0.1,0.5
						C163.9,116.7,164,116.7,164,116.9z"/>
					<path id="XMLID_601_" class="st9" d="M164,117.1c0-0.1,0-0.2,0-0.3C163.9,116.9,164,116.9,164,117.1z"/>
					<path id="XMLID_600_" class="st9" d="M164.4,117.6c0-0.1-0.1-0.3-0.2-0.4L164.4,117.6L164.4,117.6z"/>
					<path id="XMLID_599_" class="st9" d="M164.4,117.6L164.4,117.6C164.4,117.6,164.4,117.6,164.4,117.6
						C164.4,117.6,164.4,117.6,164.4,117.6z"/>
					<path id="XMLID_598_" class="st9" d="M164.4,117.6L164.4,117.6C164.4,117.6,164.4,117.6,164.4,117.6z"/>
					<path id="XMLID_597_" class="st9" d="M164.7,118c0,0.2,0.1,0.5,0.2,0.8C164.9,118.6,164.8,118.4,164.7,118z"/>
					<path id="XMLID_596_" class="st9" d="M164.6,118.1L164.6,118.1c0,0,0-0.2,0-0.3L164.6,118.1z"/>
					<polygon id="XMLID_595_" class="st9" points="164.6,118.2 164.6,118.1 164.6,118 					"/>
					<path id="XMLID_594_" class="st9" d="M164.2,117.5c0,0.2,0,0.2,0,0.2c0,0.1,0.1,0.1,0.1,0.1
						C164.2,117.7,164.2,117.4,164.2,117.5z"/>
					<path id="XMLID_593_" class="st9" d="M164.3,117.6L164.3,117.6C164.3,117.6,164.3,117.6,164.3,117.6z"/>
					<path id="XMLID_592_" class="st9" d="M163.9,117.8C163.9,117.8,163.9,117.8,163.9,117.8L163.9,117.8L163.9,117.8z"/>
					<path id="XMLID_591_" class="st9" d="M164.3,117.9c0,0.1,0,0,0-0.2C164.3,117.8,164.3,117.8,164.3,117.9
						C164.3,117.9,164.3,117.9,164.3,117.9z"/>
					<path id="XMLID_590_" class="st9" d="M164,117.3c0,0.1,0.1,0.2,0.1,0.2C164,117.4,163.9,117.2,164,117.3z"/>
					<path id="XMLID_589_" class="st9" d="M164.3,117.5C164.3,117.5,164.3,117.5,164.3,117.5C164.2,117.4,164.2,117.4,164.3,117.5z"
						/>
					<path id="XMLID_588_" class="st9" d="M164.3,117.5c0,0.1,0,0.2,0,0.3c0,0,0-0.1,0-0.1C164.3,117.6,164.3,117.5,164.3,117.5z"/>
					<path id="XMLID_587_" class="st9" d="M164.5,120.4c-0.1-0.4-0.1-0.8,0-0.4c0-0.3-0.4-1.5-0.6-2.2c0,0.2,0.1,0.3,0.1,0.6
						c0.1,0.2,0.2,0.5,0.3,0.8c0,0.2-0.1-0.1-0.2-0.3c0.2,0.5,0.1,0.7,0.3,1.4l0-0.3C164.5,120.2,164.5,120.4,164.5,120.4z"/>
					<path id="XMLID_586_" class="st9" d="M164,117.9L164,117.9c0-0.1-0.1-0.3-0.2-0.6c0,0.2,0.1,0.3,0.1,0.5L164,117.9L164,117.9z"
						/>
					<path id="XMLID_585_" class="st9" d="M164.1,117.8c0.1,0.4,0.1,0.6,0.2,1.1c0,0-0.1-0.4-0.1-0.5
						C164.2,118.4,164.3,118.1,164.1,117.8C164.1,117.8,164.1,117.7,164.1,117.8c0-0.1,0-0.2-0.1-0.3l0,0l0,0l0,0c0,0.1,0,0.1,0,0.1
						c0,0,0,0,0,0C164.1,117.7,164.1,117.7,164.1,117.8c0-0.1,0-0.1,0-0.2l0-0.1l0,0L164.1,117.8
						C164.1,117.9,164.1,117.8,164.1,117.8z"/>
					<path id="XMLID_584_" class="st9" d="M165.2,119.7C165.2,119.7,165.1,119.7,165.2,119.7C165.1,119.7,165.1,119.7,165.2,119.7z"
						/>
					<path id="XMLID_583_" class="st9" d="M165.1,119.5c0-0.1-0.1-0.2,0-0.2c0.1,0.1,0.1,0.2,0.1,0.3c0-0.1,0-0.3-0.1-0.5l0,0.1
						c-0.1-0.1-0.3-0.6-0.3-0.7C164.8,118.9,164.9,119.1,165.1,119.5z"/>
					<path id="XMLID_582_" class="st9" d="M164.6,118.8l0,0.2l0.1,0.3l-0.1-0.2C164.7,119.2,164.7,118.9,164.6,118.8z"/>
					<polygon id="XMLID_581_" class="st9" points="163.9,117.6 163.8,117.1 163.9,117.8 					"/>
					<polygon id="XMLID_580_" class="st9" points="163.8,117.6 163.7,117.3 163.7,117.5 					"/>
					<path id="XMLID_579_" class="st9" d="M158.8,123.5l0,0.1C158.7,123.5,158.8,123.5,158.8,123.5z"/>
					<path id="XMLID_578_" class="st9" d="M158.9,123.5l0-0.2C158.9,123.4,158.9,123.5,158.9,123.5z"/>
					<path id="XMLID_577_" class="st9" d="M161.4,118.2c-0.1-0.4-0.2-0.9-0.2-0.5L161.4,118.2C161.4,118.1,161.4,118.1,161.4,118.2z
						"/>
					<path id="XMLID_576_" class="st9" d="M160.2,121c0,0,0,0.1,0,0.1c0-0.1,0-0.3,0-0.4C160.2,120.8,160.2,120.9,160.2,121z"/>
					<path id="XMLID_575_" class="st9" d="M160.4,122.8l-0.1-0.3C160.3,122.6,160.3,122.7,160.4,122.8z"/>
					<path id="XMLID_574_" class="st9" d="M157.8,124l0,0.4C157.8,124.4,157.8,124.2,157.8,124z"/>
					<path id="XMLID_573_" class="st9" d="M162.8,118c-0.1-0.2-0.1-0.2-0.1-0.2C162.8,118,162.9,118.4,162.8,118z"/>
					<path id="XMLID_572_" class="st9" d="M158.4,118.9c0,0.1,0,0.2,0,0.3C158.5,119.1,158.5,119,158.4,118.9z"/>
					<path id="XMLID_571_" class="st9" d="M162.6,117.8C162.7,117.9,162.7,117.9,162.6,117.8C162.7,117.8,162.7,117.8,162.6,117.8
						C162.7,117.6,162.6,117.5,162.6,117.8z"/>
					<path id="XMLID_570_" class="st9" d="M154.1,123.6C154.1,123.6,154.1,123.6,154.1,123.6C154.1,123.7,154.1,123.7,154.1,123.6z"
						/>
					<path id="XMLID_569_" class="st9" d="M153.4,119.2C153.4,119.2,153.4,119.2,153.4,119.2C153.4,119.2,153.4,119.2,153.4,119.2z"
						/>
					<path id="XMLID_568_" class="st9" d="M163.4,117.6C163.4,117.5,163.3,117.5,163.4,117.6L163.4,117.6z"/>
					<path id="XMLID_567_" class="st9" d="M163.9,119.2c0,0,0,0.1,0,0.2C163.9,119.3,163.9,119.2,163.9,119.2z"/>
					<path id="XMLID_566_" class="st9" d="M163,120.5L163,120.5C163,120.6,163,120.6,163,120.5z"/>
					<path id="XMLID_565_" class="st9" d="M163.4,117.7c0,0,0-0.1-0.1-0.1C163.4,117.7,163.4,117.7,163.4,117.7z"/>
					<path id="XMLID_564_" class="st9" d="M163.4,117.5C163.4,117.6,163.4,117.6,163.4,117.5C163.4,117.5,163.4,117.5,163.4,117.5z"
						/>
					<path id="XMLID_563_" class="st9" d="M163.3,117.6C163.3,117.6,163.4,117.6,163.3,117.6C163.4,117.6,163.4,117.6,163.3,117.6
						C163.3,117.6,163.3,117.6,163.3,117.6z"/>
					<path id="XMLID_562_" class="st9" d="M156,122.5C156,122.5,156,122.5,156,122.5C156,122.7,156,122.6,156,122.5z"/>
					<path id="XMLID_561_" class="st9" d="M161.6,122.7C161.6,122.7,161.6,122.7,161.6,122.7C161.6,122.7,161.6,122.7,161.6,122.7
						L161.6,122.7z"/>
					<path id="XMLID_560_" class="st9" d="M161.6,123.1c-0.1-0.5,0-0.5,0-0.4l-0.2-1.2L161.6,123.1z"/>
					<path id="XMLID_553_" class="st9" d="M158.3,123.6l0.1,0.4c0,0.6-0.1,0.4,0,1c-0.1-1.4,0.2-0.2,0.1-1.5l0.1,0.3
						c0,0,0,0.1,0,0.1c0.1,0.6,0-1,0.1-0.8c0,0.1,0.1,0.3,0.1,0.5l0-0.3c0,0,0,0.3,0,0.2l0.1-0.1l0,0c0-0.2,0-0.5,0-0.7
						c0,0.2,0,0.1,0,0.3l0-0.3c0.1,0.3,0,0.7,0,0.6c0.2,1.3,0-0.3,0.2,0.4l0,0.2c0.1,0.8,0.1,0.5,0.3,1c0-0.2-0.3-1.2-0.2-1.5
						c0,0.1,0.1,0.1,0.1-0.1c0,0.5,0.1,0.4,0.1,0.3l0.1,0.6c0-0.2,0-0.5,0-0.8c0.1,0.1,0.1,0.5,0.2,1c0.1,0.1-0.1-0.8-0.1-0.9
						c0.1,0.2,0.1,0,0.2-0.4c0.1,0.2,0,0.4,0.1,0.6l0-0.5c0,0,0,0.2,0,0.2c0-0.2-0.1-0.6,0-0.8c-0.1-0.7,0.2,1,0.2,0.2
						c0,0.2,0,0.4,0.1,0.6c0-0.5,0-0.4,0-1.1l0.1,0.4c-0.1-0.5-0.1-1-0.1-1.5c0-0.2-0.1-0.4-0.1-0.5l0-0.4c0,0.1,0,0.3,0.1,0.6
						c0-0.1,0-0.1,0-0.2c0.1,0.2,0.1,0.6,0.1,1c0-0.1-0.1-0.3-0.1-0.4c0,0.4,0.1,0.8,0.1,1.2c0-0.1,0-0.1,0-0.2c0,0.1,0,0.2,0,0.3
						c0,0.1,0-0.1,0-0.2l0.1,0.7l0-0.3l0.2,0.4c0-0.7-0.1-1.8,0-2.1c0,0.5,0.1,0.8,0.2,1.5c-0.1-0.6-0.1,0.3-0.2,0.2
						c0,0.1,0.1,0.4,0.1,0.5l0-0.6c0.1,0.5,0.1,0.4,0.1,0.6c-0.2-1,0-0.7,0-1c0.1,0.3,0.1,0.7,0,0.6c0.2,0.7-0.1-1.2,0.1-0.6
						c0,0,0,0,0,0.1c0-0.3,0.1-0.1,0.1,0.2l0,0c0.1,0.1,0.3,0,0.2-0.9c0,0.1,0.1,1,0.2,1.2l-0.3-2.9c0.1,0.7,0.4,2.4,0.4,2.9
						c0,0.1,0.1,0.2,0.1,0c0-0.1-0.2-1-0.2-1.1c0.2,0.8,0.1,0.4,0.3,1.1c-0.1-0.2-0.2-1.3-0.2-1.3c0,0.2,0.2,1.1,0.2,1.2l-0.1-1.1
						c0,0.2,0.2,0.9,0.2,1.2c0-0.2,0.1,0,0.1-0.1l-0.1-0.2c0.1,0.1-0.2-1.6-0.1-1.5c0,0.2,0.2,1.4,0.3,1.5c-0.1-0.6-0.4-2.7-0.4-3.2
						l0.1,0.3l0-0.4c0.1,0.9,0.3,2.7,0.4,3.4c0.1,0.2,0.1,0.4,0.1,0.3c0.1,0.3,0.1,0.5,0,0.5l0.2,0.2c-0.1-0.7,0-0.7-0.1-1.2l0,0.7
						c-0.1-0.7-0.3-1.9-0.1-1.8c0.1,0.3,0.2,1.2,0.3,1.4c0-0.2,0-0.5,0.1-0.3l0,0.4c0.1,0.2-0.1-0.9,0.1-0.3c0,0,0.2,0.8,0.2,0.4
						c-0.2-0.7-0.7-3.1-0.8-3.6c0,0,0.3,0.7,0.4,1.1c0.2,0.6,0.2,1.4,0.4,1.9c0-0.2-0.1-0.4-0.1-0.5c0.1,0.1,0.1,0.6,0.1,0.5
						c-0.1-0.7,0.1,0-0.1-0.6c0-0.2,0.1,0.1,0.1,0.1c-0.1-0.4-0.3-1.5-0.2-1.7c0,0.2,0.1,0.4,0.1,0.5c0.1,0,0.2,0.3,0.3,0.3
						c0,0.2,0.1,0.3,0.2,0.6c0-0.1-0.1-0.3,0-0.4c0.2,0.6,0,0.1,0.2,0.8c-0.1-0.4,0-0.6-0.1-0.8c-0.1-0.6-0.1-0.1-0.1,0.2
						c-0.2-0.8-0.3-1.7-0.3-2.1c0-0.2,0.2,0.5,0.1,0.4c0.2,0.1-0.2-1.5,0-0.9c0.2,0.5,0.3,1,0.4,1.4c0,0.2-0.2-0.3-0.2-0.3l0.1,0.2
						c0,0.2,0,0.3,0,0.2c0.2,0.5,0.3,0,0.5,0.4c0-0.2,0-0.4-0.1-0.6l0,0.1c-0.1-0.4-0.1-0.6-0.2-0.8c0-0.3-0.1-0.8,0-0.6l0.2,0.6
						c0-0.2-0.1-0.3-0.1-0.2c0-0.3,0.3,0.8,0.1,0l-0.2-0.4c0-0.3-0.1-1,0-0.8c-0.2-0.6,0,0.1-0.2-0.6c0.3,0.8-0.2,0,0.1,0.9
						c-0.2-0.8-0.2-0.3-0.4-1c0.1,0.2,0.1,0.4,0,0.3c0,0.1,0,0.1,0,0.2l0,0l0,0c0,0,0,0,0,0c0,0.1,0.1,0.2,0.1,0.3
						c0.1,0.5,0,0.5,0,0.7c-0.1-0.1,0-0.2-0.1-0.4l0,0.4c-0.1-0.4-0.3-0.7-0.2-1l-0.1,0c-0.1-0.2-0.2-0.3-0.2-0.1c0-0.1,0,0.5,0,0.2
						l0,0.3l0-0.1c-0.1,0,0,0.8-0.3,0c0,0.1,0,0.3-0.1,0.1l-0.1-0.4c0,0.1-0.2-0.4-0.1,0c-0.3-1-0.2-0.2-0.3-0.4l0.1,0.5
						c-0.1,0-0.1,0.1-0.1,0.3l0.1,0.4c0,0.4-0.2-0.3-0.3-0.2c0-0.2,0-0.1,0,0c-0.3-1-0.1,0.8-0.3,0.1c0,0.2,0,0.1-0.1,0c0,0,0,0,0,0
						c0,0,0,0,0,0c0-0.1-0.1-0.2-0.1-0.2c0,0.1,0.1,0.2,0.1,0.2c0,0,0,0.1,0,0.2l-0.1-0.5c0,0,0,0,0,0c-0.1-0.2,0,0.2,0.1,0.6
						c0,0.1,0,0.2,0,0.3c-0.2-0.8,0,0.3-0.2-0.5c0.1,0.4-0.1,0.3,0.1,1.2c0-0.1,0-0.2,0-0.2c0-0.1-0.1-0.2-0.1,0.1l-0.1-0.6l0.1,0.8
						c-0.1-0.4-0.2-0.6-0.2-1c0,0.7,0,0.3,0,1l-0.1-0.4c0,0,0,0.6-0.1,0.2c-0.2-0.7-0.3-0.1-0.6-0.7c0.2,1.1-0.1-0.5,0,0.4
						c0-0.3-0.1-0.4-0.1-0.7c0,0.3-0.2-0.4-0.1,0.3c0-0.3,0-0.4-0.1-0.6c0,0.1,0,0.2,0,0.1c0-0.2,0-0.2,0-0.4
						c-0.1,0.1,0,0.9,0.1,1.7c-0.1-0.4-0.1-0.3-0.1,0.2c0-0.3-0.1-0.5-0.1-0.6c0,0-0.2-0.4-0.2,0.3c0-0.2,0,0,0,0
						c-0.1,0-0.1-0.1-0.1,0l0,0.1c0.1,0.8,0,0.2-0.1,0.3l0-0.1c-0.2-0.5,0,0.3-0.2-0.3l0.1,0.5c0.1,1-0.2-0.6-0.2-0.2l0.1,0.3
						c0,0.4-0.3-1.4-0.3-1.5c0-0.1,0-0.1,0-0.2c-0.2-0.6,0,0.6,0,0.8c0-0.3-0.1-0.9-0.1-0.9c0-0.3,0,1.1-0.2,0.5
						c0,0.3,0.1,0.5,0.1,0.7c0,0.1-0.2-1-0.2-0.1c0-0.1,0-0.1,0-0.2c0,0.2-0.1,0.4-0.1,0.8c-0.2-1.6-0.2,0.8-0.3-0.7l-0.1,0.1l0-0.2
						c-0.1-0.1-0.1,0.3-0.1,0.6c0-0.1,0-0.2,0-0.3c-0.1-0.3-0.1-0.2-0.2,0.5l0-0.5c0,0.3-0.2-0.8-0.3-0.2c0-0.1,0-0.2,0-0.2
						c-0.1,0.6-0.4-1.4-0.3,0.4l-0.1,0.4c0.1,0.1,0,0.8,0.1,1.1c0,0.1-0.1-0.5-0.1-0.6l0,0.1c0-0.9-0.2-0.3-0.2-1
						c-0.2,0.1-0.4-0.5-0.6-0.5l0,0.7l-0.1,0c0-0.2,0-0.6,0-0.5c0-0.4-0.1,0.3-0.1,0.5c-0.1-0.3,0-0.9,0-0.9l0,0.1l0,0.1
						c0,0.3,0,0.6-0.1,0.6c0-0.1,0-0.5,0-0.5c0-0.1,0-0.1,0,0l-0.1-0.1l0,0.6c0,0.3-0.1,0,0,0.6c-0.1-1-0.3-0.4-0.4-0.7
						c-0.1,0.4-0.1,0.4-0.2,0.4c0,0.1,0,0.8,0,0.7c0-1.3-0.1-0.6-0.1-1.5c0,0.6-0.2,0.2-0.1,1.1c0-0.1,0-0.5,0-0.8
						c-0.1,0.5-0.2-0.3-0.4-0.2c0,0.2,0,0.4,0,0.7l0-0.9c0,0.1-0.1,1-0.1,0.4c0,0.1,0,0.4,0,0.4c-0.2-0.9-0.6,0.7-0.8-1
						c0,0.3,0,0.4,0,0.4c0,0.1,0,0.4,0,0.7l-0.1-0.7c-0.1,0.7-0.1,0-0.2,0.7l0-0.1c-0.1,0.7-0.1,1.7-0.1,2.6
						c0.1-0.8,0.1,1.3,0.3,0.1c0,0.2,0,0.3,0,0.5c0.1-0.4,0.1-0.5,0.1-0.3l0,0.1c0.2-0.1,0.2,0.3,0.4,0.6l0-0.5c0,0.1,0,0.2,0,0.3
						c0.1-0.7-0.1,0,0-0.8c0,1,0.3,0,0.3,1.1c0.1,0,0-0.5,0.1-0.5l0,0.3l0-0.4c0,0.1,0,0.4,0,0.7c0,0,0,0.1,0,0.1
						c0,0.4,0.2-0.1,0.2,0l-0.1-0.2c0.2-0.3,0.4,0.1,0.5-0.5l0-0.2c0.1-0.4,0.1,0.2,0.2,0.1l0,0.1c0-0.2,0.1-0.3,0.1-0.3
						c0,0.3,0.1,0.5,0,0.8c0.1-0.4,0.1-0.3,0.2-1.2l0,0.4c0-0.3,0-0.5,0.1-0.6c-0.1,0.3,0,0.6,0,1c0.1,0.8,0.2-0.8,0.3,0.4
						c0.1-1-0.1-0.6-0.1-0.8c0-0.3,0.1-0.8,0.1-0.7c0,0,0.1,1.3,0.2,1.3c0,0,0,0.1,0,0.1c0,0.3,0.1-0.4,0.1,0.1c0-0.6,0.1,0,0.1-0.8
						l-0.1,0.2c0.1-0.2,0.1-1.1,0.2-0.7c0,0.2,0,0.4-0.1,0.5c0,0.2,0.1-0.2,0.1,0.1c0,0.8-0.1,0.2-0.2,0.8c0,0.3,0.1-0.6,0.1,0.3
						c0-1.1,0.1,0.1,0.2-0.7l0,0.5c0-0.1,0-0.3,0.1-0.3l0,0.6c0.1-0.5,0.1,0.5,0.2,0.2c-0.1,0,0-0.6-0.1-0.9c0.1-0.6,0.1,1.2,0.3,1
						c0,0.1-0.1-0.3-0.1-0.5c0,0.1,0.1,0.3,0.1,0.5c0.1-0.1,0-0.5,0-0.8c0.1,0.6,0.1-0.2,0.1-0.4l0,0.5c0.1,0.3,0-1,0.1-0.6l0,0.7
						l0.1-0.2l0,0.5c0.1-0.4,0.1-0.3,0.1-0.2c0-0.3,0-0.9,0-0.9c0,0.3,0,0.5,0.1,0.4c0,0.3,0,0.7-0.1,0.2c0,0.2,0,0.3,0,0.5
						c0.1,0.3,0.1,0.1,0.1,0.1c0,0,0,0,0-0.1l0.1-0.7c0,0.2,0,0.3,0,0.5c0-0.1,0-0.3,0.1-0.3c0,0.4,0,0.8,0,1l0.1-0.4
						c0,0.2,0.1,0.5,0.1,0.6c0.1,0.2,0.1-0.8,0.2-0.5c0-0.1,0-0.1,0-0.2c0.1,0.1,0.2,0.6,0.2,0l0.1,0.7c0.1-0.2-0.1-0.9,0-1.2
						c0.1-0.2,0.1,0.6,0.1,0.8C158.2,123.7,158.3,123,158.3,123.6C158.4,123.7,158.3,123.6,158.3,123.6z M159.2,123.2
						c0,0.1,0,0.4-0.1,0.1C159.1,122.8,159.2,123.1,159.2,123.2z M160.4,121.9C160.4,122.1,160.4,122,160.4,121.9
						C160.3,121.8,160.4,121.8,160.4,121.9z M163.2,118C163.2,118,163.2,118,163.2,118C163.2,117.8,163.2,117.9,163.2,118z
						 M163.3,118.2c0-0.1,0-0.1,0-0.2C163.3,118.1,163.3,118.1,163.3,118.2C163.3,118.2,163.3,118.3,163.3,118.2z M155.8,119.3
						l0,0.1C155.8,119.5,155.8,119.4,155.8,119.3z"/>
					<path id="XMLID_552_" class="st9" d="M160.3,122.6c0-0.1,0-0.2,0-0.3C160.3,122.4,160.3,122.5,160.3,122.6z"/>
					<polygon id="XMLID_551_" class="st9" points="157.8,123.9 157.8,123.9 157.8,124 					"/>
					<path id="XMLID_550_" class="st9" d="M163.1,122.4c0-0.1-0.1-0.1-0.1-0.2C163,122.3,163.1,122.4,163.1,122.4z"/>
					<path id="XMLID_549_" class="st9" d="M163.5,117.3l0,0.1c0,0,0,0.1,0.1,0.1C163.5,117.5,163.5,117.3,163.5,117.3z"/>
					<path id="XMLID_548_" class="st9" d="M164.6,120.1C164.6,120,164.7,120.1,164.6,120.1l-0.1-0.3
						C164.6,119.8,164.6,120,164.6,120.1z"/>
					<path id="XMLID_547_" class="st9" d="M163.9,118.8c0.1,0.4,0.1,0.3,0.1,0.2c0,0,0,0,0,0C163.9,118.5,163.9,118.6,163.9,118.8z"
						/>
					<path id="XMLID_546_" class="st9" d="M164.1,119C164.1,119,164.1,119,164.1,119C164,118.8,164.1,118.9,164.1,119z"/>
					<path id="XMLID_545_" class="st9" d="M163.4,117.9c0,0.1-0.1-0.5-0.1-0.3C163.2,117,163.4,118.2,163.4,117.9z"/>
					<polygon id="XMLID_544_" class="st9" points="164.3,120.1 164.2,119.6 164.2,120 					"/>
					<path id="XMLID_543_" class="st9" d="M164,119.8l0.1,0.1C164,119.9,164,119.8,164,119.8C164,119.8,163.9,119.7,164,119.8z"/>
					<path id="XMLID_542_" class="st9" d="M164,119.8C164,119.8,164,119.8,164,119.8C164,119.7,164,119.7,164,119.8z"/>
					<polygon id="XMLID_541_" class="st9" points="164.3,120.3 164.2,120.2 164.2,120.2 					"/>
					<path id="XMLID_540_" class="st9" d="M163.4,119.9l0,0.2c0,0.2,0.1,0.3,0.1,0.2C163.4,120.1,163.4,120,163.4,119.9z"/>
					<path id="XMLID_539_" class="st9" d="M163.9,121.2c0-0.1-0.1-0.2-0.1-0.4l0.1,0.6L163.9,121.2z"/>
					<path id="XMLID_538_" class="st9" d="M163.7,121.4c0,0.2,0,0.5,0.1,0.4C163.8,121.6,163.8,121.5,163.7,121.4z"/>
					<polygon id="XMLID_537_" class="st9" points="162.7,120.8 162.7,120.8 162.5,119.8 					"/>
					<path id="XMLID_536_" class="st9" d="M162.3,123.3c0.1,0.2-0.1-0.6,0-0.3c0-0.2-0.1-0.2-0.1-0.4
						C162.2,122.8,162.2,122.7,162.3,123.3z"/>
					<path id="XMLID_535_" class="st9" d="M162.2,122.5c0,0,0-0.1,0-0.2C162.2,122.5,162.2,122.5,162.2,122.5z"/>
					<polygon id="XMLID_534_" class="st9" points="153.2,118.7 153.2,118.4 153.2,118.8 					"/>
					<path id="XMLID_533_" class="st9" d="M153.1,119.4l0-0.6L153.1,119.4C153.1,119.3,153.1,119.3,153.1,119.4z"/>
					<path id="XMLID_532_" class="st9" d="M159.5,124.5l0-0.2c0-0.2,0-0.2-0.1-0.2L159.5,124.5z"/>
					<polygon id="XMLID_531_" class="st9" points="158.7,124.1 158.8,124.1 158.7,123.5 					"/>
					<path id="XMLID_530_" class="st9" d="M158.2,124.9C158.3,124.9,158.3,124.8,158.2,124.9C158.3,124.9,158.2,124.2,158.2,124.9z"
						/>
				</g>
			</g>
		</g>
	</g>
</g>
<rect id="XMLID_636_" x="1139.2" y="-607.4" class="st13" width="1405.1" height="215.2"/>
<ellipse id="XMLID_635_" class="st14" cx="1671.2" cy="-485.5" rx="107.7" ry="61.8"/>
<ellipse id="XMLID_634_" class="st15" cx="2026" cy="-505.8" rx="107.7" ry="61.8"/>
<ellipse id="XMLID_633_" class="st14" cx="1918.3" cy="-485.5" rx="107.7" ry="61.8"/>
<ellipse id="XMLID_632_" class="st16" cx="1778.9" cy="-462.8" rx="107.7" ry="61.8"/>
<path id="XMLID_1_" class="st2" d="M1786.9-502.2c-6.9-0.2-5.1-27-5.1-27s-12.8-5.6-14.9-9.5c-2.5-4.5-10.2-21.4-3.4-22.7
	c7.1-1.4,8.5,13.7,8.5,13.7l9.8,4.8c0,0-2-32.8,7.4-32.6c5.5,0.1,2.9,32.1,2.9,32.1l7.4-4.6c0,0,2-15.5,8.8-15.2
	c6.7,0.3-3.1,21.3-3.1,21.3l-11.6,13.1C1793.5-528.7,1793.7-502,1786.9-502.2z"/>
<path id="XMLID_300_" class="st2" d="M1691.5-526.2c-5.3-0.2-4-20.9-4-20.9s-9.9-4.4-11.6-7.4c-1.9-3.5-7.9-16.7-2.7-17.7
	c5.5-1.1,6.6,10.6,6.6,10.6l7.6,3.8c0,0-1.5-25.5,5.7-25.3c4.3,0.1,2.2,24.9,2.2,24.9l5.7-3.5c0,0,1.6-12,6.9-11.8
	c5.2,0.2-2.4,16.6-2.4,16.6l-9,10.2C1696.7-546.7,1696.8-526,1691.5-526.2z"/>
<path id="XMLID_303_" class="st2" d="M1899.9-519.9c-5.3-0.2-4-20.9-4-20.9s-9.9-4.4-11.6-7.4c-1.9-3.5-7.9-16.7-2.7-17.7
	c5.5-1.1,6.6,10.6,6.6,10.6l7.6,3.8c0,0-1.5-25.5,5.7-25.3c4.3,0.1,2.2,24.9,2.2,24.9l5.7-3.5c0,0,1.6-12,6.9-11.8
	c5.2,0.2-2.4,16.6-2.4,16.6l-9,10.2C1905-540.4,1905.2-519.7,1899.9-519.9z"/>
<path id="XMLID_385_" class="st2" d="M2005-552.2c-2.6-0.1-2-10.3-2-10.3s-4.9-2.2-5.7-3.6c-0.9-1.7-3.9-8.2-1.3-8.7
	c2.7-0.5,3.3,5.2,3.3,5.2l3.7,1.9c0,0-0.7-12.6,2.8-12.5c2.1,0.1,1.1,12.3,1.1,12.3l2.8-1.7c0,0,0.8-5.9,3.4-5.8
	c2.6,0.1-1.2,8.2-1.2,8.2l-4.4,5C2007.6-562.3,2007.7-552.1,2005-552.2z"/>
<rect id="XMLID_91_" x="1209.1" y="615.1" class="st0" width="1267.7" height="230.4"/>
<ellipse id="XMLID_90_" class="st14" cx="1670.5" cy="737" rx="107.7" ry="61.8"/>
<ellipse id="XMLID_89_" class="st15" cx="2025.2" cy="716.7" rx="107.7" ry="61.8"/>
<ellipse id="XMLID_88_" class="st14" cx="1917.5" cy="737" rx="107.7" ry="61.8"/>
<ellipse id="XMLID_87_" class="st16" cx="1778.2" cy="759.7" rx="107.7" ry="61.8"/>
<polygon id="XMLID_84_" class="st5" points="1697.1,692.2 1694.7,692.2 1695.9,649 "/>
<polygon id="XMLID_83_" class="st5" points="2007.7,675.3 2006,675.3 2006.8,644.6 "/>
<polygon id="XMLID_82_" class="st5" points="2007.7,675.3 2006,675.3 2006.8,644.6 "/>
<polygon id="XMLID_81_" class="st5" points="2007.7,675.3 2006,675.3 2006.8,644.6 "/>
<polygon id="XMLID_80_" class="st5" points="2007.7,675.3 2006,675.3 2006.8,644.6 "/>
<polygon id="XMLID_79_" class="st5" points="2007.7,675.3 2006,675.3 2006.8,644.6 "/>
<polygon id="XMLID_77_" class="st5" points="2007.7,675.3 2006,675.3 2006.8,644.6 "/>
<path id="XMLID_66_" class="st14" d="M1778.1,728.6l-7.8,2c-3.6,1.3-22.5,4.5-25.5,2.2l0,0c-6.1-4.4-5.8-13.5,0.5-17.5v0
	c3.8-2.4,8.6-2.7,12.7-0.8l12.8,5.9c0,0-13.2-61.1,7.3-61.1c20.7,0,7.3,61.6,7.3,61.6l11.4-5.1c4.6-2.1,10-1.8,14.4,0.7l0,0
	c6.1,3.6,6.5,12.3,0.6,16.3h0c-3.3,2.2-19.8-0.3-23.5-1.7L1778.1,728.6L1778.1,728.6z"/>
<line id="XMLID_67_" class="st17" x1="1767" y1="675.7" x2="1790.9" y2="675.7"/>
<path id="XMLID_68_" class="st15" d="M1696.5,693.5l-5.2,1.3c-2.4,0.8-15,3-17.1,1.5l0,0c-4.1-2.9-3.9-9,0.4-11.7l0,0
	c2.6-1.6,5.8-1.8,8.5-0.6l8.6,3.9c0,0-8.8-40.9,4.9-40.9c13.8,0,4.9,41.2,4.9,41.2l7.6-3.4c3.1-1.4,6.7-1.2,9.6,0.5v0
	c4.1,2.4,4.3,8.2,0.4,10.9l0,0c-2.2,1.5-13.3-0.2-15.7-1.1L1696.5,693.5L1696.5,693.5z"/>
<line id="XMLID_65_" class="st17" x1="1689.1" y1="658.2" x2="1705" y2="658.2"/>
<path id="XMLID_70_" class="st15" d="M1902.3,697.2l-5.2,1.3c-2.4,0.8-15,3-17.1,1.5l0,0c-4.1-2.9-3.9-9,0.4-11.7v0
	c2.6-1.6,5.8-1.8,8.5-0.6l8.6,3.9c0,0-8.8-40.9,4.9-40.9c13.8,0,4.9,41.2,4.9,41.2l7.6-3.4c3.1-1.4,6.7-1.2,9.6,0.5l0,0
	c4.1,2.4,4.3,8.2,0.4,10.9l0,0c-2.2,1.5-13.3-0.2-15.7-1.1L1902.3,697.2L1902.3,697.2z"/>
<line id="XMLID_69_" class="st17" x1="1894.9" y1="661.8" x2="1910.8" y2="661.8"/>
<path id="XMLID_72_" class="st16" d="M2007.8,676.5l-4,1c-1.8,0.7-11.5,2.3-13.1,1.2v0c-3.1-2.2-3-6.9,0.3-9l0,0
	c2-1.2,4.4-1.4,6.5-0.4l6.6,3c0,0-6.8-31.4,3.8-31.4c10.6,0,3.7,31.6,3.7,31.6l5.9-2.6c2.4-1.1,5.1-0.9,7.4,0.4l0,0
	c3.2,1.8,3.3,6.3,0.3,8.4l0,0c-1.7,1.2-10.2-0.1-12.1-0.9L2007.8,676.5L2007.8,676.5z"/>
<line id="XMLID_71_" class="st17" x1="2002.1" y1="649.3" x2="2014.3" y2="649.3"/>
<rect id="XMLID_246_" x="2569.8" y="-593.8" class="st5" width="1389.7" height="213.6"/>
<ellipse id="XMLID_245_" class="st18" cx="3081.1" cy="-471.9" rx="107.7" ry="61.8"/>
<ellipse id="XMLID_244_" class="st19" cx="3435.8" cy="-492.1" rx="107.7" ry="61.8"/>
<ellipse id="XMLID_243_" class="st18" cx="3328.1" cy="-471.9" rx="107.7" ry="61.8"/>
<ellipse id="XMLID_242_" class="st20" cx="3188.8" cy="-449.2" rx="107.7" ry="61.8"/>
<path id="XMLID_227_" class="st3" d="M3107.7-547.3l2.5,6.3c0.8,2,0.6,4.2-0.5,6.1l-6.7,10.3l-7.6-18.5c-0.1-1.8,0.6-3.7,1.9-4.9
	l1.5-1.4C3101.6-552,3106.2-550.9,3107.7-547.3z"/>
<polygon id="XMLID_226_" class="st15" points="3119.3,-518.6 3116.9,-518.6 3113.2,-541.1 3104.3,-551.9 3103,-541.1 3103.8,-553.4 
	3114.7,-541.6 "/>
<path id="XMLID_223_" class="st3" d="M3315.7-548.9l2.5,6.3c0.8,2,0.6,4.2-0.5,6.1l-6.7,10.3l-7.6-18.5c-0.1-1.8,0.6-3.7,1.9-4.9
	l1.5-1.4C3309.6-553.6,3314.3-552.5,3315.7-548.9z"/>
<polygon id="XMLID_222_" class="st15" points="3327.3,-520.3 3324.9,-520.3 3321.2,-542.7 3312.4,-553.5 3311,-542.7 3311.8,-555.1 
	3322.7,-543.3 "/>
<path id="XMLID_225_" class="st3" d="M3189.4-548.5l4,10.3c1.3,3.3,1,7-0.8,10l-10.9,16.8l-12.5-30.2c-0.2-3,0.9-6,3.2-8l2.4-2.2
	C3179.5-556.2,3187.1-554.5,3189.4-548.5z"/>
<polygon id="XMLID_224_" class="st15" points="3208.4,-501.7 3204.5,-501.7 3198.5,-538.4 3184,-556.1 3181.7,-538.4 3183,-558.7 
	3200.9,-539.3 "/>
<path id="XMLID_229_" class="st3" d="M3415.8-562.5l1.6,4.2c0.5,1.3,0.4,2.8-0.3,4l-4.4,6.8l-5-12.2c-0.1-1.2,0.4-2.4,1.3-3.2l1-0.9
	C3411.8-565.6,3414.9-564.9,3415.8-562.5z"/>
<polygon id="XMLID_228_" class="st15" points="3423.5,-543.6 3421.9,-543.6 3419.5,-558.4 3413.7,-565.5 3412.7,-558.4 
	3413.3,-566.5 3420.5,-558.8 "/>
<rect id="XMLID_259_" x="1303.3" y="-1.6" class="st21" width="431.7" height="105.5"/>
<ellipse id="XMLID_258_" class="st22" cx="1353" cy="120.3" rx="107.7" ry="61.8"/>
<ellipse id="XMLID_257_" class="st23" cx="1707.8" cy="100.1" rx="107.7" ry="61.8"/>
<ellipse id="XMLID_256_" class="st22" cx="1600.1" cy="120.3" rx="107.7" ry="61.8"/>
<ellipse id="XMLID_255_" class="st24" cx="1460.8" cy="143.1" rx="107.7" ry="61.8"/>
<polygon id="XMLID_12_" class="st5" points="1580.2,76.1 1577.3,76.1 1578.7,23.3 "/>
<polygon id="XMLID_8_" class="st5" points="1379.7,75.6 1377.3,75.6 1378.5,32.3 "/>
<polygon id="XMLID_3_" class="st5" points="1694.8,49.6 1693.1,49.6 1693.9,18.9 "/>
<path id="XMLID_14_" class="st5" d="M1480.2-419.6"/>
<path id="XMLID_13_" class="st5" d="M1478.4-432.1"/>
<path id="XMLID_11_" class="st5" d="M1475.3-442.4"/>
<path id="XMLID_10_" class="st5" d="M1476.4-450.4"/>
<path id="XMLID_9_" class="st5" d="M1465.6-452.1"/>
<path id="XMLID_7_" class="st5" d="M1454.9-442.1"/>
<path id="XMLID_6_" class="st5" d="M1463.9-426.9"/>
<path id="XMLID_2_" class="st5" d="M1473.7-416.2"/>
</svg>
