<?xml version="1.0" encoding="utf-8"?>
<!-- Generator: Adobe Illustrator 19.0.0, SVG Export Plug-In . SVG Version: 6.00 Build 0)  -->
<svg version="1.1" id="Laag_1" xmlns="http://www.w3.org/2000/svg" xmlns:xlink="http://www.w3.org/1999/xlink" x="0px" y="0px"
	 viewBox="0 0 432 134" style="enable-background:new 0 0 432 134;" xml:space="preserve">
<style type="text/css">
	.st0{fill:#5F94CF;}
	.st1{fill:#5DA47C;}
	.st2{fill:#05915F;}
	.st3{fill:#8EB99B;}
	.st4{fill:#4CB8A4;}
	.st5{fill:#0F2E45;}
	.st6{fill:#D13981;}
	.st7{fill:#005184;}
	.st8{fill:#C5426E;}
	.st9{fill:#FFFFFF;}
	.st10{fill:#869CBC;}
	.st11{fill:#587FA7;}
	.st12{fill:#AFBBD2;}
	.st13{fill:#E1B470;}
	.st14{fill:#B2976E;}
	.st15{fill:#8E7B5D;}
	.st16{fill:#C4AF8F;}
	.st17{fill:#0F2E45;stroke:#0F2E45;stroke-miterlimit:10;}
	.st18{fill:#8B8C8C;}
	.st19{fill:#5F5F5E;}
	.st20{fill:#AFAFAF;}
	.st21{fill:#009FE3;}
	.st22{fill:#3AAA35;}
	.st23{fill:#009640;}
	.st24{fill:#7FC07B;}
</style>
<rect id="XMLID_52_" x="-2099.6" y="0" class="st0" width="1341.7" height="206.5"/>
<ellipse id="XMLID_40_" class="st1" cx="-1571.6" cy="121.9" rx="107.7" ry="61.8"/>
<ellipse id="XMLID_43_" class="st2" cx="-1216.8" cy="101.7" rx="107.7" ry="61.8"/>
<ellipse id="XMLID_42_" class="st1" cx="-1324.5" cy="121.9" rx="107.7" ry="61.8"/>
<rect id="XMLID_46_" x="-1729.3" y="-268.8" class="st1" width="89.3" height="85.3"/>
<ellipse id="XMLID_41_" class="st3" cx="-1463.8" cy="144.7" rx="107.7" ry="61.8"/>
<rect id="XMLID_45_" x="-1621.2" y="-172.3" class="st4" width="89.3" height="85.3"/>
<rect id="XMLID_44_" x="-1395.5" y="-172.3" class="st5" width="89.3" height="85.3"/>
<rect id="XMLID_78_" x="-1275.8" y="-172.3" class="st6" width="89.3" height="85.3"/>
<rect id="XMLID_47_" x="-1729.3" y="-172.3" class="st3" width="89.3" height="85.3"/>
<rect id="XMLID_48_" x="-1621.2" y="-268.8" class="st2" width="89.3" height="85.3"/>
<rect id="XMLID_49_" x="-1393.2" y="-268.8" class="st7" width="89.3" height="85.3"/>
<rect id="XMLID_50_" x="-1508.5" y="-268.8" class="st0" width="89.3" height="85.3"/>
<rect id="XMLID_51_" x="-1512.6" y="-172.3" class="st8" width="89.3" height="85.3"/>
<path id="XMLID_54_" class="st1" d="M-1472.3,82.3l-5.8-10.1c-1.8-3.2-2.1-7.1-0.7-10.5l15.5-38.4l10.9,48.7c0.7,3.1-0.1,6.4-2,8.9
	l-2.2,2.7C-1460.8,88.8-1469,88.2-1472.3,82.3z"/>
<polygon id="XMLID_53_" class="st5" points="-1463.8,117.5 -1468,117.5 -1465.9,43 "/>
<path id="XMLID_56_" class="st1" d="M-1452.4,78.9l-5.8-10.1c-1.8-3.2-2.1-7.1-0.7-10.5l15.5-38.4l10.9,48.7c0.7,3.1-0.1,6.4-2,8.9
	l-2.2,2.7C-1440.9,85.4-1449.1,84.8-1452.4,78.9z"/>
<polygon id="XMLID_55_" class="st5" points="-1443.9,114.1 -1448.1,114.1 -1446,39.6 "/>
<path id="XMLID_60_" class="st1" d="M-1350.4,52.7l-4.1-7.2c-1.3-2.3-1.5-5-0.5-7.5l11-27.2l7.7,34.5c0.5,2.2,0,4.5-1.5,6.3
	l-1.5,1.9C-1342.2,57.3-1348,56.9-1350.4,52.7z"/>
<polygon id="XMLID_59_" class="st5" points="-1344.4,77.7 -1347.3,77.7 -1345.9,24.8 "/>
<path id="XMLID_58_" class="st1" d="M-1336.3,50.3l-4.1-7.2c-1.3-2.3-1.5-5-0.5-7.5l11-27.2l7.7,34.5c0.5,2.2,0,4.5-1.5,6.3
	l-1.5,1.9C-1328.1,54.9-1333.9,54.4-1336.3,50.3z"/>
<polygon id="XMLID_57_" class="st5" points="-1330.3,75.2 -1333.2,75.2 -1331.8,22.4 "/>
<path id="XMLID_64_" class="st1" d="M-1549.8,56.7l-3.4-5.9c-1.1-1.9-1.2-4.1-0.4-6.1l9-22.3l6.3,28.3c0.4,1.8,0,3.7-1.2,5.1
	l-1.3,1.6C-1543.1,60.5-1547.9,60.1-1549.8,56.7z"/>
<polygon id="XMLID_63_" class="st5" points="-1544.9,77.2 -1547.3,77.2 -1546.1,33.9 "/>
<path id="XMLID_62_" class="st1" d="M-1538.3,54.8l-3.4-5.9c-1.1-1.9-1.2-4.1-0.4-6.1l9-22.3l6.3,28.3c0.4,1.8,0,3.7-1.2,5.1
	l-1.3,1.6C-1531.6,58.5-1536.3,58.2-1538.3,54.8z"/>
<polygon id="XMLID_61_" class="st5" points="-1533.3,75.2 -1535.7,75.2 -1534.5,31.9 "/>
<rect id="XMLID_134_" x="-2099.6" y="605.9" class="st5" width="1373.5" height="210.8"/>
<ellipse id="XMLID_133_" class="st1" cx="-1571.6" cy="727.8" rx="107.7" ry="61.8"/>
<ellipse id="XMLID_132_" class="st2" cx="-1216.8" cy="707.6" rx="107.7" ry="61.8"/>
<ellipse id="XMLID_131_" class="st1" cx="-1324.5" cy="727.8" rx="107.7" ry="61.8"/>
<ellipse id="XMLID_130_" class="st3" cx="-1452.1" cy="754.9" rx="107.7" ry="61.8"/>
<path id="XMLID_125_" class="st0" d="M-1350.4,658.6l-4.1-7.2c-1.3-2.3-1.5-5-0.5-7.5l11-27.2l7.7,34.5c0.5,2.2,0,4.5-1.5,6.3
	l-1.5,1.9C-1342.2,663.2-1348,662.7-1350.4,658.6z"/>
<polygon id="XMLID_124_" class="st9" points="-1344.4,683.5 -1347.3,683.5 -1345.9,630.7 "/>
<path id="XMLID_121_" class="st0" d="M-1549.8,662.6l-3.4-5.9c-1.1-1.9-1.2-4.1-0.4-6.1l9-22.3l6.3,28.3c0.4,1.8,0,3.7-1.2,5.1
	l-1.3,1.6C-1543.1,666.4-1547.9,666-1549.8,662.6z"/>
<polygon id="XMLID_120_" class="st9" points="-1544.9,683 -1547.3,683 -1546.1,639.8 "/>
<path id="XMLID_203_" class="st0" d="M-1237.8,651.7l-2.4-4.2c-0.8-1.3-0.9-2.9-0.3-4.3l6.4-15.8l4.5,20.1c0.3,1.3,0,2.6-0.8,3.6
	l-0.9,1.1C-1233.1,654.3-1236.5,654.1-1237.8,651.7z"/>
<polygon id="XMLID_202_" class="st9" points="-1234.4,666.2 -1236.1,666.2 -1235.2,635.5 "/>
<path id="XMLID_234_" class="st1" d="M-1225.1,35.3l-2.4-4.2c-0.8-1.3-0.9-2.9-0.3-4.3l6.4-15.8l4.5,20.1c0.3,1.3,0,2.6-0.8,3.6
	l-0.9,1.1C-1220.4,37.9-1223.7,37.7-1225.1,35.3z"/>
<path id="XMLID_240_" class="st1" d="M-1233.3,36.7l-2.4-4.2c-0.8-1.3-0.9-2.9-0.3-4.3l6.4-15.8l4.5,20.1c0.3,1.3,0,2.6-0.8,3.6
	l-0.9,1.1C-1228.6,39.4-1231.9,39.1-1233.3,36.7z"/>
<polygon id="XMLID_239_" class="st5" points="-1229.8,51.2 -1231.5,51.2 -1230.7,20.5 "/>
<polygon id="XMLID_237_" class="st5" points="-1221.6,49.8 -1223.3,49.8 -1222.5,19.1 "/>
<rect id="XMLID_508_" x="-2099.6" y="1222.5" class="st8" width="1328" height="219.7"/>
<ellipse id="XMLID_507_" class="st10" cx="-1610.6" cy="1344.4" rx="107.7" ry="61.8"/>
<ellipse id="XMLID_506_" class="st11" cx="-1255.9" cy="1324.2" rx="107.7" ry="61.8"/>
<ellipse id="XMLID_505_" class="st10" cx="-1363.6" cy="1344.4" rx="107.7" ry="61.8"/>
<ellipse id="XMLID_504_" class="st12" cx="-1502.9" cy="1367.2" rx="107.7" ry="61.8"/>
<path id="XMLID_503_" class="st1" d="M-1511.4,1266.1l-5.8,10.1c-1.8,3.2-2.1,7.1-0.7,10.5l15.5,38.4l10.9-48.7
	c0.7-3.1-0.1-6.4-2-8.9l-2.2-2.7C-1499.8,1259.6-1508,1260.2-1511.4,1266.1z"/>
<polygon id="XMLID_502_" class="st5" points="-1502.9,1230.9 -1507,1230.9 -1505,1305.4 "/>
<path id="XMLID_499_" class="st1" d="M-1389.5,1295.7l-4.1,7.2c-1.3,2.3-1.5,5-0.5,7.5l11,27.2l7.7-34.5c0.5-2.2,0-4.5-1.5-6.3
	l-1.5-1.9C-1381.3,1291.1-1387.1,1291.6-1389.5,1295.7z"/>
<polygon id="XMLID_498_" class="st5" points="-1383.5,1270.8 -1386.4,1270.8 -1384.9,1323.6 "/>
<path id="XMLID_495_" class="st1" d="M-1588.9,1279.2l-3.4-5.9c-1.1-1.9-1.2-4.1-0.4-6.1l9-22.3l6.3,28.3c0.4,1.8,0,3.7-1.2,5.1
	l-1.3,1.6C-1582.2,1283-1586.9,1282.6-1588.9,1279.2z"/>
<polygon id="XMLID_306_" class="st5" points="-1584,1271.3 -1586.4,1271.3 -1585.2,1314.5 "/>
<path id="XMLID_305_" class="st1" d="M-1577.3,1293.7l-3.4,5.9c-1.1,1.9-1.2,4.1-0.4,6.1l9,22.3l6.3-28.3c0.4-1.8,0-3.7-1.2-5.1
	l-1.3-1.6C-1570.6,1289.9-1575.4,1290.3-1577.3,1293.7z"/>
<polygon id="XMLID_304_" class="st5" points="-1572.4,1273.2 -1574.8,1273.2 -1573.6,1316.5 "/>
<polygon id="XMLID_302_" class="st5" points="-1273.4,1282.8 -1275.1,1282.8 -1274.3,1252.1 "/>
<path id="XMLID_301_" class="st1" d="M-1268.7,1266.9l-2.4-4.2c-0.8-1.3-0.9-2.9-0.3-4.3l6.4-15.8l4.5,20.1c0.3,1.3,0,2.6-0.8,3.6
	l-0.9,1.1C-1264,1269.5-1267.3,1269.3-1268.7,1266.9z"/>
<polygon id="XMLID_298_" class="st5" points="-1273.4,1282.8 -1275.1,1282.8 -1274.3,1252.1 "/>
<path id="XMLID_297_" class="st1" d="M-1268.7,1266.9l-2.4-4.2c-0.8-1.3-0.9-2.9-0.3-4.3l6.4-15.8l4.5,20.1c0.3,1.3,0,2.6-0.8,3.6
	l-0.9,1.1C-1264,1269.5-1267.3,1269.3-1268.7,1266.9z"/>
<polygon id="XMLID_294_" class="st5" points="-1273.4,1282.8 -1275.1,1282.8 -1274.3,1252.1 "/>
<path id="XMLID_293_" class="st1" d="M-1268.7,1266.9l-2.4-4.2c-0.8-1.3-0.9-2.9-0.3-4.3l6.4-15.8l4.5,20.1c0.3,1.3,0,2.6-0.8,3.6
	l-0.9,1.1C-1264,1269.5-1267.3,1269.3-1268.7,1266.9z"/>
<polygon id="XMLID_290_" class="st5" points="-1273.4,1282.8 -1275.1,1282.8 -1274.3,1252.1 "/>
<path id="XMLID_289_" class="st1" d="M-1268.7,1266.9l-2.4-4.2c-0.8-1.3-0.9-2.9-0.3-4.3l6.4-15.8l4.5,20.1c0.3,1.3,0,2.6-0.8,3.6
	l-0.9,1.1C-1264,1269.5-1267.3,1269.3-1268.7,1266.9z"/>
<polygon id="XMLID_286_" class="st5" points="-1273.4,1282.8 -1275.1,1282.8 -1274.3,1252.1 "/>
<path id="XMLID_285_" class="st1" d="M-1268.7,1266.9l-2.4-4.2c-0.8-1.3-0.9-2.9-0.3-4.3l6.4-15.8l4.5,20.1c0.3,1.3,0,2.6-0.8,3.6
	l-0.9,1.1C-1264,1269.5-1267.3,1269.3-1268.7,1266.9z"/>
<g id="XMLID_204_">
	<g id="XMLID_404_">
		<g id="XMLID_408_">
			<g id="XMLID_409_">
				<g id="XMLID_410_">
					<path id="XMLID_520_" class="st9" d="M-1464.4,712.8c-0.1,0.2,0.4,0.2,0.4,0.2C-1464,712.6-1464.5,712.8-1464.4,712.8z"/>
					<polygon id="XMLID_519_" class="st9" points="-1464.9,708.9 -1464.7,709 -1465.1,708.4 					"/>
					<path id="XMLID_518_" class="st9" d="M-1464.2,705.5c-0.8,0.2-0.1,1.3-0.5,1.9l-0.2,0.1l0.5,0.4
						C-1464.4,707-1464.5,706-1464.2,705.5z"/>
					<path id="XMLID_494_" class="st9" d="M-1462.3,704c-0.3,0-0.1-0.4-0.2,0.4c0,0,0.1,0,0.1-0.1
						C-1462.4,704.3-1462.4,704.2-1462.3,704z"/>
					<path id="XMLID_493_" class="st9" d="M-1462.4,704.4C-1462.5,704.7-1462.1,704.2-1462.4,704.4L-1462.4,704.4z"/>
					<path id="XMLID_492_" class="st9" d="M-1462.1,702.7l0.1,0.5c0.2-0.1,0.3-0.4,0.4-0.3C-1461.6,702.5-1461.8,702.5-1462.1,702.7
						z"/>
					<path id="XMLID_491_" class="st9" d="M-1462.5,702.1l0,0.3C-1462.4,702.4-1462.4,702.3-1462.5,702.1z"/>
					<path id="XMLID_490_" class="st9" d="M-1462.4,703l-0.1-0.6c-0.1,0-0.4,0,0,0.3C-1462.7,702.5-1462.5,702.7-1462.4,703z"/>
					<path id="XMLID_489_" class="st9" d="M-1462.6,703.2c-0.2,0.2-0.4,0.5-0.5,0C-1463.3,704.1-1462.7,704.1-1462.6,703.2z"/>
					<path id="XMLID_488_" class="st9" d="M-1464.9,705.1l-0.3,0.3l0.2,0.4C-1465.1,705.6-1464.7,705.2-1464.9,705.1z"/>
					<path id="XMLID_487_" class="st9" d="M-1460.9,700c-0.1-0.1-0.4,0-0.6,0l0,0.4C-1461.3,700.2-1461.1,699.9-1460.9,700z"/>
					<path id="XMLID_486_" class="st9" d="M-1461.5,700l-0.1-0.6C-1461.8,699.8-1461.7,699.9-1461.5,700z"/>
					<polygon id="XMLID_485_" class="st9" points="-1463.2,701.8 -1463,702.8 -1463.2,701.6 					"/>
					<polygon id="XMLID_484_" class="st9" points="-1460.2,698.1 -1459.9,698.5 -1460.2,697.8 					"/>
					<path id="XMLID_483_" class="st9" d="M-1459.7,696.9c0.2,0.3,0.6-0.1,0.6,0.2c0.1-0.3,0-0.7-0.1-1.1
						C-1459.2,696.3-1459.3,696.6-1459.7,696.9z"/>
					<path id="XMLID_482_" class="st9" d="M-1459.3,695.4c0,0.2,0.1,0.4,0.1,0.6C-1459.2,695.8-1459.2,695.6-1459.3,695.4z"/>
					<path id="XMLID_481_" class="st9" d="M-1461.2,698.6c0.1,0,0.3,0,0.6-0.2l-0.5,0C-1461.1,698.4-1461.2,698.5-1461.2,698.6z"/>
					<path id="XMLID_480_" class="st9" d="M-1461.1,698.4L-1461.1,698.4c0.1-0.2,0.2-0.4,0.2-0.4C-1461,698-1461,698.1-1461.1,698.4
						z"/>
					<path id="XMLID_479_" class="st9" d="M-1461.2,698.6C-1461.2,698.6-1461.2,698.6-1461.2,698.6
						C-1461.2,698.6-1461.3,698.6-1461.2,698.6z"/>
					<path id="XMLID_478_" class="st9" d="M-1462.4,700.6c-0.1-0.4-0.2-1.1-0.7-0.6C-1462.9,700.3-1462.6,700-1462.4,700.6z"/>
					<path id="XMLID_477_" class="st9" d="M-1461.8,698.7l-0.3,0.5c0.1,0,0.3,0,0.4,0.2L-1461.8,698.7z"/>
					<polygon id="XMLID_476_" class="st9" points="-1461.8,698.3 -1461.8,698.7 -1461.7,698.5 					"/>
					<path id="XMLID_475_" class="st9" d="M-1460,696.1c-0.1-0.3,0-0.5,0.1-0.8c-0.2,0.3-0.4,0.5-0.5,0.8
						C-1460.3,696.2-1460.2,696.5-1460,696.1z"/>
					<path id="XMLID_474_" class="st9" d="M-1460.6,697.2L-1460.6,697.2C-1460.7,697.2-1460.7,697.2-1460.6,697.2z"/>
					<polygon id="XMLID_473_" class="st9" points="-1458.6,692.6 -1458.7,692.6 -1458.6,692.7 					"/>
					<path id="XMLID_472_" class="st9" d="M-1460.5,696.2c-0.2,0.2-0.1,0.4-0.1,0.5C-1460.6,696.5-1460.5,696.3-1460.5,696.2
						C-1460.5,696.1-1460.5,696.1-1460.5,696.2z"/>
					<path id="XMLID_471_" class="st9" d="M-1459.1,694.6c-0.1,0.1-0.3,0.2-0.4,0.3C-1459.3,694.8-1459,694.7-1459.1,694.6z"/>
					<path id="XMLID_470_" class="st9" d="M-1460.5,697.1C-1460.5,697.1-1460.5,697.1-1460.5,697.1
						C-1460.4,697.1-1460.4,697.1-1460.5,697.1z"/>
					<path id="XMLID_469_" class="st9" d="M-1460.5,697.1c0-0.1-0.1-0.3-0.1-0.4c0,0.2,0,0.3,0,0.4
						C-1460.6,697.1-1460.5,697.1-1460.5,697.1z"/>
					<path id="XMLID_468_" class="st9" d="M-1460.6,690.5c0.3,0.2,0.3,1-0.3,1.3c0,0.6,1.3,0.9,2.2,0.8c-0.1-0.1-0.3-0.2-0.2-0.8
						c-0.3,0.1-1,0.9-1.1,0.3c0.2-0.8,0.4-0.5,0.8-0.7c-0.6,0-0.2-1.2-0.9-1.4l-0.1,0.7C-1460.4,690.7-1460.4,690.4-1460.6,690.5z"
						/>
					<path id="XMLID_467_" class="st9" d="M-1459.2,693.6l-0.1,0.2c0.2-0.2,0.4-0.3,0.8-0.5c0-0.4-0.1-0.6-0.2-0.6
						c0,0-0.1,0.2-0.3,0.5C-1459.1,693.4-1459.2,693.7-1459.2,693.6L-1459.2,693.6z"/>
					<path id="XMLID_466_" class="st9" d="M-1459.7,694.7c-0.3-0.3-0.2-0.9-0.8-0.8c-0.3,0.6,0.1,0.6,0.1,1
						C-1460.1,693.9-1460.3,695.3-1459.7,694.7c-0.1,0.2-0.1,0.4-0.2,0.6c0.1-0.2,0.3-0.3,0.4-0.4l0,0l0,0l0,0c-0.1,0-0.1,0-0.1,0
						c0,0,0,0,0,0C-1459.7,694.8-1459.7,694.8-1459.7,694.7c0.2-0.2,0.1,0,0.1,0.1c0,0,0,0,0.1,0l0,0l0.3-1.1
						C-1459.4,694-1459.5,694.2-1459.7,694.7z"/>
					<path id="XMLID_465_" class="st9" d="M-1463.8,699.1c0,0,0.1,0,0.1,0C-1463.8,699-1463.8,699-1463.8,699.1z"/>
					<path id="XMLID_464_" class="st9" d="M-1463.4,698.8c0,0.1,0.2,0.2,0,0.5c-0.2,0.2-0.2-0.1-0.3-0.1c0.1,0.2,0.1,0.6,0.5,0.2
						l0-0.1c0.3-0.4,1-0.7,1-0.6C-1462.7,698.6-1463,698.6-1463.4,698.8z"/>
					<path id="XMLID_463_" class="st9" d="M-1461.7,696.6c0,0,0-0.2,0.1-0.5c0-0.2,0.1-0.5,0.1-0.5l-0.5,0.3l0.2,0.1
						C-1462.1,696.5-1461.8,696.5-1461.7,696.6z"/>
					<polygon id="XMLID_462_" class="st9" points="-1458.4,692.6 -1458,693 -1458.3,692.2 					"/>
					<polygon id="XMLID_461_" class="st9" points="-1457.8,691.6 -1457.5,691.8 -1457.6,691.4 					"/>
					<path id="XMLID_460_" class="st9" d="M-1435,633.7l-0.2-0.1C-1435.2,633.7-1435.1,633.7-1435,633.7z"/>
					<path id="XMLID_459_" class="st9" d="M-1434,635.1l0.2-0.1C-1434,635-1434.1,635.1-1434,635.1z"/>
					<path id="XMLID_458_" class="st9" d="M-1438.4,669.2c0.6-0.1,1.3,0,0.9-0.3l-0.4-0.2C-1438,669-1438.2,669.1-1438.4,669.2z"/>
					<path id="XMLID_457_" class="st9" d="M-1429.8,649.8c0,0-0.1,0.1-0.2,0.1c0.1,0.1,0.2,0.3,0.3,0.4
						C-1429.6,650.1-1429.7,649.9-1429.8,649.8z"/>
					<path id="XMLID_456_" class="st9" d="M-1431.4,649.1l0.4-0.4C-1431.2,648.8-1431.3,648.9-1431.4,649.1z"/>
					<path id="XMLID_455_" class="st9" d="M-1443.3,629.6l-0.4,0.4C-1443.2,630.1-1443.4,629.8-1443.3,629.6z"/>
					<path id="XMLID_454_" class="st9" d="M-1450.9,681.7c0.4-0.1,0.6-0.3,0.8-0.5C-1450.6,681.4-1451,681.4-1450.9,681.7z"/>
					<path id="XMLID_453_" class="st9" d="M-1431,631.5c-0.2-0.1-0.3-0.1-0.4-0.1C-1431.2,631.5-1431,631.6-1431,631.5z"/>
					<path id="XMLID_452_" class="st9" d="M-1449.4,680.5c-0.1,0-0.1,0-0.2,0.1c-0.1,0.2-0.2,0.5-0.5,0.7
						C-1449.7,681.2-1449.4,681-1449.4,680.5z"/>
					<path id="XMLID_451_" class="st9" d="M-1472.4,645C-1472.4,645-1472.5,645-1472.4,645C-1472.4,645-1472.4,645-1472.4,645z"/>
					<path id="XMLID_450_" class="st9" d="M-1477.5,656.1c0-0.1-0.1-0.3-0.1-0.5C-1477.7,655.7-1477.6,655.8-1477.5,656.1z"/>
					<path id="XMLID_449_" class="st9" d="M-1455.2,687.7C-1455.3,687.9-1455.2,687.7-1455.2,687.7L-1455.2,687.7z"/>
					<path id="XMLID_448_" class="st9" d="M-1457.3,687.7c0-0.1,0-0.1-0.1-0.2C-1457.3,687.6-1457.3,687.7-1457.3,687.7z"/>
					<path id="XMLID_447_" class="st9" d="M-1449.6,676.8L-1449.6,676.8C-1449.7,676.8-1449.6,676.8-1449.6,676.8z"/>
					<path id="XMLID_446_" class="st9" d="M-1455.6,687.9c0.1,0,0.2-0.1,0.3-0.2C-1455.3,687.7-1455.4,687.8-1455.6,687.9z"/>
					<path id="XMLID_445_" class="st9" d="M-1455.4,687.9c-0.1,0.1-0.1,0.1-0.2,0.2C-1455.5,688.2-1455.4,688.2-1455.4,687.9z"/>
					<path id="XMLID_444_" class="st9" d="M-1455,687.4c-0.1,0.1-0.2,0.2-0.3,0.3c0.1,0,0.1,0,0.1,0
						C-1455.1,687.6-1455.1,687.5-1455,687.4z"/>
					<path id="XMLID_443_" class="st9" d="M-1460.5,630C-1460.5,630-1460.5,630-1460.5,630C-1460.7,630.3-1460.6,630.2-1460.5,630z"
						/>
					<path id="XMLID_442_" class="st9" d="M-1437.4,661C-1437.4,661-1437.4,661.1-1437.4,661L-1437.4,661L-1437.4,661z"/>
					<path id="XMLID_441_" class="st9" d="M-1437.2,660.1c0.2,0.6,0,0.8-0.2,0.9l1.2,0.5L-1437.2,660.1z"/>
					<path id="XMLID_434_" class="st9" d="M-1438.2,631.2l0.2,0.6c-0.9,0.2-1.2-0.2-1,0.5c0.4-0.6,0.8-0.3,1.3-0.1
						c0.4,0.3,0.9,0.6,1.3,0.1l0.1,0.5c-0.1-0.1-0.1,0-0.2-0.1c0,1,1.1-0.4,1.6,0.5c0.1,0.3,0.1,0.6-0.1,0.6c0,0,0.7,0.4,0.7,0.4
						c0.1,0.2-0.1,0.3-0.2,0.1c0,0,0.2,0.2,0.4,0.4c0.2,0.2,0.4,0.4,0.4,0.4l0,0c0.3,0,0.7,0.2,1,0.2c0,0.4-0.2-0.1-0.3,0.1
						c0,0,0.6,0.4,0.6,0.4c-0.2,0.4-0.7,0.1-0.9-0.3c-0.4,0.6-0.3,0.7-0.1,0.8c0.2,0.1,0.6,0.3,0.5,1c0,0-0.4-0.5-0.4-0.5
						c-0.5,0.7-0.1,0.9-0.3,1.7c0.2-0.2,0.6-1.6,1.2-1.2c0,0.2,0,0.5,0.4,0.7c-0.5,0.2-0.2,0.5-0.1,0.9l-0.6,0.2
						c0.3,0.4,0.6,0.3,1,0.5c0.1,0.5-0.4,0.8-0.8,1c0.1,0.9,0.7-0.8,1,0.2c0,0.4,0,0.7,0.1,1c0.1,0.3,0.3,0.6,0.6,1.1
						c-0.2,0.5-0.4-0.1-0.6,0.1l0.5,0.4c0,0.1-0.2,0.1-0.2,0.1c0.2,0.4,0.6,0,0.8,0.6c0.4,0.1,0.1,0.4-0.1,0.8
						c-0.3,0.4-0.5,0.8-0.1,1.3c-0.2,0.2-0.4-0.1-0.6-0.1c0.4,1.1,0.3,0.9,0.9,1.9c0,0-0.1,0.2-0.3,0.3c-0.1,0.2-0.3,0.3-0.3,0.3
						c0.6-0.5,1,0.3,1.3,1.1c0.3-0.2,0.5-0.3,0.6-0.4c0,0,0,0.3,0,0.6c0,0.3,0,0.6,0,0.6c-0.1,0.1-0.3-0.1-0.5-0.3
						c0,0.1,0.1,0.2,0.1,0.2c-0.3,0.3-0.6,0-0.9-0.3c0.2-0.1,0.3-0.2,0.5-0.3c-0.3-0.3-0.7-0.7-1.1-0.7c0.1,0.1,0.1,0.2,0.1,0.4
						c-0.1-0.1-0.2-0.1-0.2-0.1c-0.1,0,0,0.1,0.2,0.3l-0.7,0l0.3,0.1c0,0-0.2,0.3-0.4,0.6c-0.2,0.3-0.4,0.5-0.4,0.5
						c0.4,1.1,1.1,2.2,0.8,3.8c-0.3-0.6-0.7-0.4-1.3-0.7c0.8-0.1,0.2-1.2,0.6-1.8c-0.2,0.3-0.5,0.2-0.5,0c0,0,0,0.4,0,0.7
						c0,0.4,0,0.7,0,0.7c-0.5-0.2-0.5,0.1-0.8,0.4c1,0.2,0.2,1.2,0.2,1.9c-0.3-0.1-0.5-0.4-0.2-1c-1,0.3,0.6,1.4-0.3,1.8
						c0.1-0.2,0.2-0.2,0-0.3c0.1,0.5-0.6,1.2-0.8,0.9l0.1-0.1c-0.6,0.9-1.8,2.9-1.2,3.5c-0.1-0.1-0.8-0.7-0.9-0.9
						c0,0,0.3,0.8,0.6,1.7c0.3,0.8,0.5,1.7,0.5,1.7c-0.5-0.6-2.3-1.1-2-2.1c-0.2,0.2-0.5,0.3-0.7,0.9c0.2-0.1,1.1,0.3,1,0.5
						c-1.1,0-0.6,0.1-1.7,0.3c0.3-0.1,1,0.8,0.7,1.2c-0.1-0.2-0.9-0.7-0.9-0.9l0.2,1.6c0-0.3-0.7-0.7-1.1-0.7c0.2,0.1-0.6,0.7-0.7,1
						l0.5-0.2c-0.9,0.8,0.4,2-0.5,2.8c-0.1-0.3-0.8-1.2-1.3-0.9c0.2,0.6,1.1,2.8,0.7,4l-0.4-0.1l-0.3,0.9c-0.2-1-0.5-3.3-0.5-4.4
						c-0.5,0.2-0.4-0.2-0.8,0.3c-0.4,0-0.1-0.6,0.1-0.8l-1.3,1c0.5,0.4-0.4,1.4,0,1.7l0.7-1.7c0.5,0.4,0.7,2.1-0.3,2.8
						c-0.4,0-0.7-1-0.9-1.1c0.1,0.3-0.5,1.1-0.7,1l0.1-0.6c-0.6,0.3-0.1,1.4-1.1,1.5c-0.2,0.2-1.2-0.1-0.9,0.3
						c0.9,0.2,2.6,1.9,2.8,2.5c-0.1,0-1.5,0.5-2,0.4c-0.7-0.1-0.5-1.5-1.2-1.6c0.1,0.1,0.1,0.5,0.1,0.6c-0.3,0.1-0.3-0.5-0.7,0
						c0.4,0.6-0.9,0.8,0.2,0.6c-0.3,0.6-0.6,0.4-1,0.9c0.5,0.2,0.6,1.5,0.3,2.1c-0.1-0.1-0.4-0.2-0.5-0.2c-0.9,0.8-1.6,1.1-2.4,1.9
						c-0.2,0-0.7,0.2-0.8-0.1c0,0.2,0,0.5-0.2,0.7c-0.9,0.1,0.5-0.7-0.4-0.7c0.3,0.3-0.2,1.1-0.4,1.6c0.6,0.3,0.9-0.8,1-1.3
						c0.6,0.6,0.7,1.8,0.2,3c-0.5,0.8-0.7,0-0.7,0.2c-1.3,1.3,0.2,2.1-1.2,2.8c-0.8,0.1-0.9-0.6-1.2-0.8c0.3-0.7,1-0.7,1.3-1.1
						l-0.6,0.3c0-0.3,0.2-0.8,0.5-0.9c-0.7,0.1-2,2.3-3.1,3.2c0,0.3-0.1,0.8,0.2,0.7l0.2-0.4c0.6-0.1,0,1,0.5,0.7
						c-0.1,0.7,0,1.4-0.7,2l-0.6-0.2c0.2,0.1,0.6-0.2,0.6-0.5c0.1,0.4-1.4,0.6-0.9,1.3l0.7-0.3c-0.1,0.6,0.2,1.6-0.4,2.1
						c0.7,0,0-0.2,0.9-0.2c-1-0.1,1-1.5-0.2-1.4c1,0,0.8-0.6,1.7-0.7c-0.2-0.1-0.5,0,0-0.4c0-0.1-0.1-0.1-0.1-0.2c0,0,0,0,0,0l0,0
						c0,0,0,0,0,0c-0.2,0.1-0.3,0.1-0.4,0.1c-0.2-0.5,0.3-1.3,0.3-1.7c0.3-0.2,0.1,0.3,0.4,0.2l0-0.6c0.4,0.2,1.2-0.3,0.9,0.5
						l0.5-0.6c0.5-0.2,0.9-0.6,1-1c0.3-0.2,0.2-1,0.2-0.5l0.5-1.1l0.1,0.1c0.8-0.8,1-2.3,2.5-2.7c0.2-0.4,0.4-0.8,0.9-1.1l0.4,0.2
						c0.3-0.5,1.3-0.8,1.2-1.3c1.1,0.3,1.9-1.6,2.7-2.1l-0.3-0.4c0.5-0.4,0.8-0.9,1.2-1.6l-0.3-0.3c0.2-0.7,1.5-1,2.2-1.8
						c0.1,0.2-0.2,0.3-0.4,0.4c1.6-0.2,1.4-2.4,2.7-2.8c0.1-0.3,0.3-0.4,0.5-0.5c0,0,0,0,0,0.1c0,0,0.1-0.1,0.1-0.1
						c0.1,0,0.3-0.1,0.5-0.1c-0.2,0-0.3,0-0.4,0.1c0.1-0.2,0.3-0.5,0.5-0.8l0.5,0.2c0,0,0,0,0-0.1c0.4-0.1,0-0.4-0.4-0.5
						c0.1-0.2,0.1-0.4,0.1-0.5c0.8,0.3,0.4-0.8,1.3-0.6c-0.1-0.4,0.9-1.5,0.3-2.2c0.1,0.1,0.2,0,0.1,0.2c0.3-0.2,0.6-0.5,0.6-0.9
						l0.6,0.3l-0.2-1.2c0.6-0.2,0.9-0.2,1,0.5c0.1-1.4,0.4-1,0.4-2.2l0.3,0.3c0.2-0.3,0.1-1.1,0.5-1.1c1.1-0.3,2.3-3.3,3.7-5
						c-1.2-0.1,0.9-0.7,0.1-1.1c0.3,0,0.6-0.2,0.6,0.2c0.2-1.1,1-1.4,0.5-2.4c0.3,0,0.3,0.4,0.5,0.3c0-0.1-0.1-0.4,0.1-0.5
						c0.2-0.1,0.2,0.2,0.2,0.4c0.3-1.1-0.5-1.5-1.2-1.8c0.5-0.4,0.5-0.8,0.1-1.3c0.3-0.1,0.6-0.4,0.6,0.3c0.2-0.4,0.8-2.3,0.2-2.4
						c0.2-0.1,0.1-0.5,0-0.6c0.1-0.9,0.2-0.9,0.1-1.8l-0.1,0.2c-0.7-0.4-0.2-0.7-0.3-1.4l0.1,0c0.5-1.6-0.3-0.7,0.2-2.3l-0.5,0.1
						c-0.5,0-0.4-0.4-0.2-0.8c0.2-0.5,0.3-1.1,0.1-1.5l-0.2,0.4c-0.4-0.4,1-1.7,1-2.3c0.1-0.1,0.2,0.1,0.3,0.3
						c0.2-1.5-0.6,0-1.1-0.9c0.3-0.3,0.9-0.1,0.7-0.7c0.1-0.2-0.4-0.6-0.8-1c-0.4-0.5-0.9-0.9-0.9-1.5c-0.1,0.3-0.3,0.6-0.7,0.3
						c-0.2-0.3-0.3-0.8-0.4-1.3c-0.1-0.5-0.4-0.9-0.9-0.9c0-0.1,0-0.2,0.1-0.2c-0.5-0.3-1.5-1.2-2-1c0.4-0.8-0.4-1.3-1.2-1.5
						c-0.7-0.3-1.5-0.5-1.1-1.1c0,0-1.5-0.8-1.5-0.8l0.1-0.1c-1-0.6-1.5-0.4-1.9-0.2c-0.2-0.2,0-0.3,0.1-0.3
						c-0.7-0.4-1.1-0.6-1.5-0.7c-0.4,0-0.8,0-1.5,0.3l0-0.5c-0.4,0.2-2.1-1.2-3.7-0.8c0-0.1,0.1-0.1,0.2-0.2
						c-0.9,0.2-1.9-0.2-2.8-0.4c-0.9-0.2-1.7-0.2-1.9,0.7c0,0-0.3,0.1-0.5,0.3c-0.3,0.1-0.5,0.3-0.5,0.3c1.4,0-0.1,0.8,0.5,1
						c-0.5,0.2-1.4-0.4-0.8-0.6l0.1,0.1c0.1-1-1.8-0.1-1.8-0.8c-2.7,0.5-5.5,0.6-8,1.5l0.5,0.6l-0.9,0.3c-0.3-0.1-0.5-0.4,0.1-0.6
						c-0.5-0.3-0.9,0.7-0.9,0.9c-1.3,0.3,0.1-1-0.2-0.8l-0.5,0.3l0.1,0c-0.3,0.5-0.2,0.8-0.9,1.1c-0.5,0.1-0.4-0.3-0.6-0.2
						c0,0-0.1,0-0.3,0.1c0,0-0.3,0.1-0.5,0.3c-0.3,0.1-0.5,0.3-0.5,0.3l0.7,0.3c-0.3,0.5-1,0.5-0.2,0.8c-0.3-0.1-0.7,0-1.1,0.1
						c-0.4,0.2-0.9,0.5-1.3,0.8c-0.9,0.6-1.5,1.4-1.8,1.5c-0.3,0.8-0.7,1.3-1.4,1.9c0.3-0.1,0.8,0.2,0.3,0.8
						c-0.8-1.1-1.3,0.7-2.5,0.7c0.8-0.1-1.1,1.9,0.2,1.7c-0.4,0.5-0.5-0.2-1,0c-0.3,1.6-1.9,2.8-2.4,4.7c0.2,0.1,0.5-0.1,0.6,0.3
						c0,0-0.3,0.2-0.6,0.3c-0.3,0.2-0.6,0.3-0.6,0.3c0,0.4,0.9,0.6,0.1,1.1c0.2-0.1,0.4-0.1,0.4,0.1c-0.9,1.6-1.1,3.6-1.1,5.4
						c-0.1,1.9,0,3.7-0.7,5.7c0.3-0.6,0.4-0.2,0.4,0.2c0-0.3,0.4,0,0.7-0.1l-0.4,1.6c0.7,0.2,0.4,1.6,1,1.7l-0.2-0.5
						c0.9,0.4,1.4-1.2,2.4-1.3c-0.5-0.2-0.2-0.7,0-1.3c0.2-0.5,0.4-1.1-0.3-1.5c0.2-0.3,0.3,0.2,0.5,0c-0.4-0.2-0.6-0.6-0.4-1.2
						l0.1,0.1c-0.1-1.7,0.3-2.5,0.8-4.3l-0.5,0.1c0.1-0.4,0.3-0.5,0.4-0.6c-0.6-0.6-0.2,1.1-0.9,0.6c0.5-0.2,0.6-0.9,0.8-1.6
						c0.2-0.7,0.3-1.3,0.9-1.4c0.2-0.6-0.6,0-0.4-0.6l0.3-0.1l-0.3-0.3c0.2-0.4,0.6-0.5,0.8-0.4c-0.1,0.1,0,0.3,0,0.4
						c0.5-0.4,0.3-1.4,0.5-1.6l-0.4,0.5c0.3-1.7,1.5-3.4,1.9-5.1l-0.3,0c0.4-1.3,0.7-0.7,1.4-1.9l0,0.1c0-0.4,0.1-0.7,0.4-1
						c0,0.4,0.8-0.1,0.7,0.4c0.6-1.3,0.2-0.7,0.2-2l0.4,0.1c0-0.4-0.1-0.6,0.4-1.1c-0.2,0.6,0.7,0.1,0.5,0.9c0.8-0.2,1.1-0.6,1.3-1
						c0.3-0.4,0.5-0.7,1.1-0.4c0-0.6-0.3-0.6-0.7-0.4c-0.3,0.2-0.6,0.5-0.5,0.3c-0.5-0.1,0-1,0.5-1.1c0.4-0.2,1.4,0.7,2.4,0.1
						c-0.1,0-0.1,0.1-0.2,0.2c0.5,0,0.6-0.7,1.3-0.5c0-0.7,0.6-0.2,0.4-1c0,0-0.2,0.2-0.5,0.3c-0.2,0.2-0.5,0.3-0.5,0.3
						c0.5-0.4,0.6-1.5,1.8-1.5c0,0.2-0.2,0.5-0.4,0.7c0.4,0.1,0.5-0.4,0.9-0.2c0.2,0.8-1.2,0.6-1.5,1.5c0.4,0.2,0.9-1,0.9-0.1
						c0-1.2,1.1-0.3,1.6-1.3l0.1,0.5c0.1-0.1,0.3-0.4,0.5-0.5l-0.2,0.7c0.5-0.7,1.3,0.1,1.8-0.3c-1.2,0.4-0.4-0.5-1.1-0.7
						c1.4-1,1.2,0.9,2.9,0.3c-0.2,0.1-0.9-0.1-0.6-0.4c0.4,0,0.8,0.1,1.1,0.3c1.1-0.3-0.3-0.4,0.2-0.8c0.5,0.5,0.5-0.3,1-0.6
						l0.1,0.5c1.4,0.1,0.2-1.1,1.5-0.8l-0.4,0.7c0,0,0.2-0.1,0.3-0.1c0.2-0.1,0.3-0.1,0.3-0.1l-0.1,0.6c0.6-0.5,0.9-0.4,1.5-0.3
						c-0.2-0.3,0-0.9,0.6-0.9c0.4,0.3-0.2,0.5,0.6,0.4c-0.2,0.3-0.4,0.7-0.8,0.3c0,0.2-0.2,0.3-0.2,0.5c0.4,0.3,1.1,0,1.4,0
						c-0.1,0-0.3,0-0.3-0.1c0,0,0.3-0.2,0.6-0.3c0.3-0.2,0.6-0.3,0.6-0.3c0.2,0.2,0,0.3-0.1,0.5c0.2,0,0.4-0.3,0.8-0.3
						c-0.1,0.4-0.1,0.8-0.6,1c0,0,0.3-0.1,0.6-0.2c0.3-0.1,0.6-0.2,0.6-0.2c0.1,0.2,0.5,0.5,0.4,0.6c0.3,0.2,0.7,0,1.1-0.1
						c0.4-0.1,0.9-0.2,1.2,0c0.1-0.1,0.2-0.1,0.3-0.1c0.7,0.3,1.2,0.9,2.2,0.7l0.2,0.8c0.7,0.1-0.3-1.1,0.9-0.9c0.9,0.1,0,0.7,0.2,1
						c0.5-0.1,1.5-0.4,1.8,0.5C-1437.9,631.5-1438,631.3-1438.2,631.2z M-1432.6,637.3c-0.2-0.1-0.6-0.3-0.4-0.5
						C-1432.4,636.8-1432.6,637-1432.6,637.3z M-1431,650.9c-0.1-0.2,0-0.4,0.3-0.5C-1430.8,650.6-1430.8,650.7-1431,650.9z
						 M-1453.9,685.2C-1453.9,685.2-1453.9,685.2-1453.9,685.2C-1453.5,685-1453.6,685.1-1453.9,685.2z M-1454.6,685.8
						c0,0.1,0.1,0.1,0.1,0.2c-0.1-0.1,0-0.3,0.2-0.4C-1454.4,685.5-1454.5,685.5-1454.6,685.8z M-1464.4,628.3l0.2,0
						C-1464.5,628.6-1464.5,628.5-1464.4,628.3z"/>
					<path id="XMLID_433_" class="st9" d="M-1431.3,649.2c0.1,0,0.2,0,0.3,0C-1431,649.1-1431.1,649.1-1431.3,649.2z"/>
					<path id="XMLID_432_" class="st9" d="M-1443.2,629.6L-1443.2,629.6C-1443.3,629.6-1443.3,629.6-1443.2,629.6L-1443.2,629.6z"/>
					<path id="XMLID_431_" class="st9" d="M-1448.4,672.9c0.2-0.1,0.3-0.1,0.4-0.1C-1448,672.8-1448.2,672.8-1448.4,672.9z"/>
					<path id="XMLID_430_" class="st9" d="M-1456.4,689.9l0.2-0.5c-0.1,0.2-0.3,0.3-0.4,0.3
						C-1456.5,689.8-1456.3,689.8-1456.4,689.9z"/>
					<path id="XMLID_429_" class="st9" d="M-1461.3,692.7c0,0.1-0.1,0.2-0.1,0.3l0.2,0.1C-1461,692.7-1461.1,692.4-1461.3,692.7z"/>
					<path id="XMLID_428_" class="st9" d="M-1458,689.5c-0.4-0.2-0.4,0.2-0.6,0.6c0,0,0,0,0-0.1
						C-1458.1,690.4-1458.1,690-1458,689.5z"/>
					<path id="XMLID_427_" class="st9" d="M-1458.6,690.2c0,0.1-0.1,0.2-0.2,0.3C-1458.6,690.7-1458.7,690.4-1458.6,690.2z"/>
					<path id="XMLID_426_" class="st9" d="M-1455,686.8c-0.2,0.1,0.4,0.4,0.2,0.4C-1454.5,687.6-1454.6,685.9-1455,686.8z"/>
					<polygon id="XMLID_425_" class="st9" points="-1459.3,689.1 -1458.8,689.3 -1459.1,688.9 					"/>
					<path id="XMLID_424_" class="st9" d="M-1457.3,686.7l-0.5,0.4c0.1,0,0.1,0.1,0.1,0.2C-1457.5,687-1457.2,686.7-1457.3,686.7z"
						/>
					<path id="XMLID_423_" class="st9" d="M-1457.8,687.4c-0.1,0.2-0.2,0.3-0.2,0.5C-1457.9,687.7-1457.8,687.5-1457.8,687.4z"/>
					<polygon id="XMLID_422_" class="st9" points="-1459,688.3 -1458.8,688.2 -1458.6,687.8 					"/>
					<path id="XMLID_421_" class="st9" d="M-1453.1,681.4l0.3-0.6c-0.1-0.2-0.3-0.1-0.4,0.1
						C-1453.2,681.1-1453.3,681.3-1453.1,681.4z"/>
					<path id="XMLID_420_" class="st9" d="M-1455.5,682.1c0.2-0.1,0.3,0,0.5,0l-0.5-0.4L-1455.5,682.1z"/>
					<path id="XMLID_419_" class="st9" d="M-1454.3,680.4c-0.1-0.2,0.3-1.1-0.3-0.4C-1454.5,680.2-1454.8,680.8-1454.3,680.4z"/>
					<polygon id="XMLID_418_" class="st9" points="-1446.4,673.4 -1446.6,673.5 -1445.8,674.2 					"/>
					<path id="XMLID_417_" class="st9" d="M-1441.8,665.2c-0.7,0.4,0.3,0.6-0.4,0.9c0,0.3,0.6-0.3,0.6,0
						C-1441.4,665.6-1441.1,665.5-1441.8,665.2z"/>
					<path id="XMLID_416_" class="st9" d="M-1441.6,666.1c0,0.1,0,0.2-0.1,0.3C-1441.6,666.2-1441.6,666.1-1441.6,666.1z"/>
					<polygon id="XMLID_415_" class="st9" points="-1477.7,658.2 -1477.8,658.9 -1477.5,658.4 					"/>
					<path id="XMLID_414_" class="st9" d="M-1476.7,659.1l-0.6,0.3l0.6,0.2C-1476.7,659.5-1476.8,659.3-1476.7,659.1z"/>
					<path id="XMLID_413_" class="st9" d="M-1433.4,639l0.2,0c0.1-0.1,0.1-0.2,0.1-0.4L-1433.4,639z"/>
					<polygon id="XMLID_412_" class="st9" points="-1435.9,633.8 -1435.8,633.8 -1435.5,633.3 					"/>
					<path id="XMLID_411_" class="st9" d="M-1440.1,631.6c0.2,0.1,0.4,0.1,0.6,0.2C-1440,631.7-1439.9,630.9-1440.1,631.6z"/>
				</g>
			</g>
		</g>
	</g>
</g>
<g id="XMLID_205_">
	<g id="XMLID_523_">
		<g id="XMLID_527_">
			<g id="XMLID_528_">
				<g id="XMLID_529_">
					<path id="XMLID_616_" class="st9" d="M-1455.9,723.1c0,0-0.1-0.4-0.1-0.4C-1456,722.8-1455.9,723.2-1455.9,723.1z"/>
					<polygon id="XMLID_615_" class="st9" points="-1455.9,724.1 -1456,723.9 -1455.9,724.4 					"/>
					<path id="XMLID_614_" class="st9" d="M-1456.2,724.2c0.2,0.7,0.1-0.1,0.2,0.1l0.1,0.2l-0.1-0.6
						C-1456.1,724-1456.1,724.4-1456.2,724.2z"/>
					<path id="XMLID_613_" class="st9" d="M-1456.8,722.8C-1456.7,723-1456.8,723-1456.8,722.8
						C-1456.8,722.8-1456.8,722.8-1456.8,722.8C-1456.8,722.8-1456.8,722.8-1456.8,722.8z"/>
					<path id="XMLID_612_" class="st9" d="M-1456.8,722.8C-1456.7,722.7-1456.9,722.5-1456.8,722.8L-1456.8,722.8z"/>
					<path id="XMLID_611_" class="st9" d="M-1456.9,723l0-0.2c-0.1-0.2-0.1-0.2-0.1-0.3C-1457,722.5-1457,722.7-1456.9,723z"/>
					<path id="XMLID_610_" class="st9" d="M-1456.7,723.5l0-0.1C-1456.8,723.3-1456.8,723.3-1456.7,723.5z"/>
					<path id="XMLID_609_" class="st9" d="M-1456.8,723.1l0,0.2c0,0.1,0.1,0.3,0-0.1C-1456.7,723.5-1456.8,723.3-1456.8,723.1z"/>
					<path id="XMLID_608_" class="st9" d="M-1456.7,723.2c0.1,0.1,0.1,0.2,0.2,0.5C-1456.5,723.6-1456.7,723.1-1456.7,723.2z"/>
					<path id="XMLID_607_" class="st9" d="M-1456,724.9l0.1,0.2L-1456,724.9C-1455.9,725-1456.1,724.7-1456,724.9z"/>
					<path id="XMLID_606_" class="st9" d="M-1457.2,722.7c0,0.1,0.1,0.4,0.2,0.6l0-0.2C-1457.1,723-1457.1,722.9-1457.2,722.7z"/>
					<path id="XMLID_605_" class="st9" d="M-1457,723.2l0,0.3C-1456.9,723.5-1457,723.4-1457,723.2z"/>
					<polygon id="XMLID_604_" class="st9" points="-1456.5,724.2 -1456.6,723.7 -1456.5,724.2 					"/>
					<polygon id="XMLID_603_" class="st9" points="-1457.4,722.7 -1457.4,722.3 -1457.3,722.9 					"/>
					<path id="XMLID_602_" class="st9" d="M-1457.4,722.8c-0.1-0.3-0.2-0.5-0.2-0.6c0,0.1,0,0.3,0.1,0.5
						C-1457.6,722.5-1457.5,722.6-1457.4,722.8z"/>
					<path id="XMLID_601_" class="st9" d="M-1457.5,723c0-0.1,0-0.2,0-0.3C-1457.6,722.7-1457.5,722.8-1457.5,723z"/>
					<path id="XMLID_600_" class="st9" d="M-1457.1,723.4c0-0.1-0.1-0.3-0.2-0.4L-1457.1,723.4L-1457.1,723.4z"/>
					<path id="XMLID_599_" class="st9" d="M-1457.1,723.5L-1457.1,723.5C-1457.1,723.4-1457.1,723.4-1457.1,723.5
						C-1457.1,723.4-1457.1,723.4-1457.1,723.5z"/>
					<path id="XMLID_598_" class="st9" d="M-1457.1,723.4L-1457.1,723.4C-1457.1,723.5-1457.1,723.5-1457.1,723.4z"/>
					<path id="XMLID_597_" class="st9" d="M-1456.8,723.9c0,0.2,0.1,0.5,0.2,0.8C-1456.6,724.4-1456.7,724.2-1456.8,723.9z"/>
					<path id="XMLID_596_" class="st9" d="M-1456.9,724L-1456.9,724c0,0,0-0.2,0-0.3L-1456.9,724z"/>
					<polygon id="XMLID_595_" class="st9" points="-1456.9,724.1 -1456.9,724 -1456.9,723.9 					"/>
					<path id="XMLID_594_" class="st9" d="M-1457.3,723.4c0,0.2,0,0.2,0,0.2c0,0.1,0.1,0.1,0.1,0.1
						C-1457.3,723.6-1457.3,723.3-1457.3,723.4z"/>
					<path id="XMLID_593_" class="st9" d="M-1457.2,723.4L-1457.2,723.4C-1457.2,723.5-1457.2,723.5-1457.2,723.4z"/>
					<path id="XMLID_592_" class="st9" d="M-1457.6,723.7C-1457.6,723.7-1457.6,723.7-1457.6,723.7L-1457.6,723.7L-1457.6,723.7z"/>
					<path id="XMLID_591_" class="st9" d="M-1457.2,723.8c0,0.1,0,0,0-0.2C-1457.2,723.7-1457.2,723.7-1457.2,723.8
						C-1457.2,723.8-1457.2,723.8-1457.2,723.8z"/>
					<path id="XMLID_590_" class="st9" d="M-1457.5,723.2c0,0.1,0.1,0.2,0.1,0.2C-1457.5,723.3-1457.6,723.1-1457.5,723.2z"/>
					<path id="XMLID_589_" class="st9" d="M-1457.2,723.4C-1457.2,723.3-1457.2,723.3-1457.2,723.4
						C-1457.3,723.2-1457.3,723.3-1457.2,723.4z"/>
					<path id="XMLID_588_" class="st9" d="M-1457.2,723.4c0,0.1,0,0.2,0,0.3c0,0,0-0.1,0-0.1
						C-1457.2,723.4-1457.2,723.4-1457.2,723.4z"/>
					<path id="XMLID_587_" class="st9" d="M-1457,726.3c-0.1-0.4-0.1-0.8,0-0.4c0-0.3-0.4-1.5-0.6-2.2c0,0.2,0.1,0.3,0.1,0.6
						c0.1,0.2,0.2,0.5,0.3,0.8c0,0.2-0.1-0.1-0.2-0.3c0.2,0.5,0.1,0.7,0.3,1.4l0-0.3C-1457,726.1-1457,726.2-1457,726.3z"/>
					<path id="XMLID_586_" class="st9" d="M-1457.5,723.7L-1457.5,723.7c0-0.1-0.1-0.3-0.2-0.6c0,0.2,0.1,0.3,0.1,0.5L-1457.5,723.7
						L-1457.5,723.7z"/>
					<path id="XMLID_585_" class="st9" d="M-1457.4,723.7c0.1,0.4,0.1,0.6,0.2,1.1c0,0-0.1-0.4-0.1-0.5
						C-1457.2,724.3-1457.2,723.9-1457.4,723.7C-1457.4,723.6-1457.3,723.6-1457.4,723.7c0-0.1,0-0.2-0.1-0.3l0,0l0,0l0,0
						c0,0.1,0,0.1,0,0.1c0,0,0,0,0,0C-1457.4,723.6-1457.4,723.6-1457.4,723.7c0-0.1,0-0.1,0-0.2l0-0.1l0,0L-1457.4,723.7
						C-1457.4,723.7-1457.4,723.7-1457.4,723.7z"/>
					<path id="XMLID_584_" class="st9" d="M-1456.3,725.6C-1456.3,725.6-1456.4,725.6-1456.3,725.6
						C-1456.4,725.6-1456.3,725.6-1456.3,725.6z"/>
					<path id="XMLID_583_" class="st9" d="M-1456.4,725.4c0-0.1-0.1-0.2,0-0.2c0.1,0.1,0.1,0.2,0.1,0.3c0-0.1,0-0.3-0.1-0.5l0,0.1
						c-0.1-0.1-0.3-0.6-0.3-0.7C-1456.7,724.8-1456.6,725-1456.4,725.4z"/>
					<path id="XMLID_582_" class="st9" d="M-1456.9,724.6l0,0.2l0.1,0.3l-0.1-0.2C-1456.8,725.1-1456.8,724.8-1456.9,724.6z"/>
					<polygon id="XMLID_581_" class="st9" points="-1457.6,723.4 -1457.7,723 -1457.6,723.6 					"/>
					<polygon id="XMLID_580_" class="st9" points="-1457.7,723.5 -1457.8,723.1 -1457.8,723.4 					"/>
					<path id="XMLID_579_" class="st9" d="M-1462.7,729.3l0,0.1C-1462.7,729.4-1462.7,729.4-1462.7,729.3z"/>
					<path id="XMLID_578_" class="st9" d="M-1462.6,729.4l0-0.2C-1462.6,729.3-1462.6,729.3-1462.6,729.4z"/>
					<path id="XMLID_577_" class="st9" d="M-1460.1,724.1c-0.1-0.4-0.2-0.9-0.2-0.5L-1460.1,724.1
						C-1460.1,724-1460.1,724-1460.1,724.1z"/>
					<path id="XMLID_576_" class="st9" d="M-1461.3,726.9c0,0,0,0.1,0,0.1c0-0.1,0-0.3,0-0.4
						C-1461.3,726.7-1461.3,726.8-1461.3,726.9z"/>
					<path id="XMLID_575_" class="st9" d="M-1461.1,728.7l-0.1-0.3C-1461.2,728.5-1461.2,728.6-1461.1,728.7z"/>
					<path id="XMLID_574_" class="st9" d="M-1463.7,729.9l0,0.4C-1463.7,730.3-1463.7,730.1-1463.7,729.9z"/>
					<path id="XMLID_573_" class="st9" d="M-1458.7,723.9c-0.1-0.2-0.1-0.2-0.1-0.2C-1458.7,723.9-1458.6,724.3-1458.7,723.9z"/>
					<path id="XMLID_572_" class="st9" d="M-1463.1,724.7c0,0.1,0,0.2,0,0.3C-1463,724.9-1463,724.9-1463.1,724.7z"/>
					<path id="XMLID_571_" class="st9" d="M-1458.9,723.7C-1458.8,723.7-1458.8,723.8-1458.9,723.7
						C-1458.8,723.7-1458.8,723.7-1458.9,723.7C-1458.8,723.5-1458.9,723.4-1458.9,723.7z"/>
					<path id="XMLID_570_" class="st9" d="M-1467.4,729.5C-1467.4,729.5-1467.4,729.5-1467.4,729.5
						C-1467.4,729.5-1467.4,729.5-1467.4,729.5z"/>
					<path id="XMLID_569_" class="st9" d="M-1468.1,725.1C-1468.1,725.1-1468.1,725.1-1468.1,725.1
						C-1468.1,725-1468.1,725-1468.1,725.1z"/>
					<path id="XMLID_568_" class="st9" d="M-1458.1,723.4C-1458.1,723.4-1458.2,723.4-1458.1,723.4L-1458.1,723.4z"/>
					<path id="XMLID_567_" class="st9" d="M-1457.6,725.1c0,0,0,0.1,0,0.2C-1457.6,725.2-1457.6,725.1-1457.6,725.1z"/>
					<path id="XMLID_566_" class="st9" d="M-1458.5,726.4L-1458.5,726.4C-1458.5,726.5-1458.5,726.4-1458.5,726.4z"/>
					<path id="XMLID_565_" class="st9" d="M-1458.1,723.6c0,0,0-0.1-0.1-0.1C-1458.1,723.5-1458.1,723.6-1458.1,723.6z"/>
					<path id="XMLID_564_" class="st9" d="M-1458.1,723.4C-1458.1,723.4-1458.1,723.5-1458.1,723.4
						C-1458.1,723.4-1458.1,723.3-1458.1,723.4z"/>
					<path id="XMLID_563_" class="st9" d="M-1458.2,723.5C-1458.2,723.5-1458.1,723.5-1458.2,723.5
						C-1458.1,723.5-1458.1,723.5-1458.2,723.5C-1458.2,723.4-1458.2,723.5-1458.2,723.5z"/>
					<path id="XMLID_562_" class="st9" d="M-1465.4,728.4C-1465.4,728.4-1465.5,728.4-1465.4,728.4
						C-1465.5,728.5-1465.5,728.5-1465.4,728.4z"/>
					<path id="XMLID_561_" class="st9" d="M-1459.9,728.6C-1459.9,728.6-1459.9,728.6-1459.9,728.6
						C-1459.9,728.6-1459.9,728.6-1459.9,728.6L-1459.9,728.6z"/>
					<path id="XMLID_560_" class="st9" d="M-1459.9,729c-0.1-0.5,0-0.5,0-0.4l-0.2-1.2L-1459.9,729z"/>
					<path id="XMLID_553_" class="st9" d="M-1463.2,729.5l0.1,0.4c0,0.6-0.1,0.4,0,1c-0.1-1.4,0.2-0.2,0.1-1.5l0.1,0.3
						c0,0,0,0.1,0,0.1c0.1,0.6,0-1,0.1-0.8c0,0.1,0.1,0.3,0.1,0.5l0-0.3c0,0,0,0.3,0,0.2l0.1-0.1l0,0c0-0.2,0-0.5,0-0.7
						c0,0.2,0,0.1,0,0.3l0-0.3c0.1,0.3,0,0.7,0,0.6c0.2,1.3,0-0.3,0.2,0.4l0,0.2c0.1,0.8,0.1,0.5,0.3,1c0-0.2-0.3-1.2-0.2-1.5
						c0,0.1,0.1,0.1,0.1-0.1c0,0.5,0.1,0.4,0.1,0.3l0.1,0.6c0-0.2,0-0.5,0-0.8c0.1,0.1,0.1,0.5,0.2,1c0.1,0.1-0.1-0.8-0.1-0.9
						c0.1,0.2,0.1,0,0.2-0.4c0.1,0.2,0,0.4,0.1,0.6l0-0.5c0,0,0,0.2,0,0.2c0-0.2-0.1-0.6,0-0.8c-0.1-0.7,0.2,1,0.2,0.2
						c0,0.2,0,0.4,0.1,0.6c0-0.5,0-0.4,0-1.1l0.1,0.4c-0.1-0.5-0.1-1-0.1-1.5c0-0.2-0.1-0.4-0.1-0.5l0-0.4c0,0.1,0,0.3,0.1,0.6
						c0-0.1,0-0.1,0-0.2c0.1,0.2,0.1,0.6,0.1,1c0-0.1-0.1-0.3-0.1-0.4c0,0.4,0.1,0.8,0.1,1.2c0-0.1,0-0.1,0-0.2c0,0.1,0,0.2,0,0.3
						c0,0.1,0-0.1,0-0.2l0.1,0.7l0-0.3l0.2,0.4c0-0.7-0.1-1.8,0-2.1c0,0.5,0.1,0.8,0.2,1.5c-0.1-0.6-0.1,0.3-0.2,0.2
						c0,0.1,0.1,0.4,0.1,0.5l0-0.6c0.1,0.5,0.1,0.4,0.1,0.6c-0.2-1,0-0.7,0-1c0.1,0.3,0.1,0.7,0,0.6c0.2,0.7-0.1-1.2,0.1-0.6
						c0,0,0,0,0,0.1c0-0.3,0.1-0.1,0.1,0.2l0,0c0.1,0.1,0.3,0,0.2-0.9c0,0.1,0.1,1,0.2,1.2l-0.3-2.9c0.1,0.7,0.4,2.4,0.4,2.9
						c0,0.1,0.1,0.2,0.1,0c0-0.1-0.2-1-0.2-1.1c0.2,0.8,0.1,0.4,0.3,1.1c-0.1-0.2-0.2-1.3-0.2-1.3c0,0.2,0.2,1.1,0.2,1.2l-0.1-1.1
						c0,0.2,0.2,0.9,0.2,1.2c0-0.2,0.1,0,0.1-0.1l-0.1-0.2c0.1,0.1-0.2-1.6-0.1-1.5c0,0.2,0.2,1.4,0.3,1.5c-0.1-0.6-0.4-2.7-0.4-3.2
						l0.1,0.3l0-0.4c0.1,0.9,0.3,2.7,0.4,3.4c0.1,0.2,0.1,0.4,0.1,0.3c0.1,0.3,0.1,0.5,0,0.5l0.2,0.2c-0.1-0.7,0-0.7-0.1-1.2l0,0.7
						c-0.1-0.7-0.3-1.9-0.1-1.8c0.1,0.3,0.2,1.2,0.3,1.4c0-0.2,0-0.5,0.1-0.3l0,0.4c0.1,0.2-0.1-0.9,0.1-0.3c0,0,0.2,0.8,0.2,0.4
						c-0.2-0.7-0.7-3.1-0.8-3.6c0,0,0.3,0.7,0.4,1.1c0.2,0.6,0.2,1.4,0.4,1.9c0-0.2-0.1-0.4-0.1-0.5c0.1,0.1,0.1,0.6,0.1,0.5
						c-0.1-0.7,0.1,0-0.1-0.6c0-0.2,0.1,0.1,0.1,0.1c-0.1-0.4-0.3-1.5-0.2-1.7c0,0.2,0.1,0.4,0.1,0.5c0.1,0,0.2,0.3,0.3,0.3
						c0,0.2,0.1,0.3,0.2,0.6c0-0.1-0.1-0.3,0-0.4c0.2,0.6,0,0.1,0.2,0.8c-0.1-0.4,0-0.6-0.1-0.8c-0.1-0.6-0.1-0.1-0.1,0.2
						c-0.2-0.8-0.3-1.7-0.3-2.1c0-0.2,0.2,0.5,0.1,0.4c0.2,0.1-0.2-1.5,0-0.9c0.2,0.5,0.3,1,0.4,1.4c0,0.2-0.2-0.3-0.2-0.3l0.1,0.2
						c0,0.2,0,0.3,0,0.2c0.2,0.5,0.3,0,0.5,0.4c0-0.2,0-0.4-0.1-0.6l0,0.1c-0.1-0.4-0.1-0.6-0.2-0.8c0-0.3-0.1-0.8,0-0.6l0.2,0.6
						c0-0.2-0.1-0.3-0.1-0.2c0-0.3,0.3,0.8,0.1,0l-0.2-0.4c0-0.3-0.1-1,0-0.8c-0.2-0.6,0,0.1-0.2-0.6c0.3,0.8-0.2,0,0.1,0.9
						c-0.2-0.8-0.2-0.3-0.4-1c0.1,0.2,0.1,0.4,0,0.3c0,0.1,0,0.1,0,0.2l0,0l0,0c0,0,0,0,0,0c0,0.1,0.1,0.2,0.1,0.3
						c0.1,0.5,0,0.5,0,0.7c-0.1-0.1,0-0.2-0.1-0.4l0,0.4c-0.1-0.4-0.3-0.7-0.2-1l-0.1,0c-0.1-0.2-0.2-0.3-0.2-0.1c0-0.1,0,0.5,0,0.2
						l0,0.3l0-0.1c-0.1,0,0,0.8-0.3,0c0,0.1,0,0.3-0.1,0.1l-0.1-0.4c0,0.1-0.2-0.4-0.1,0c-0.3-1-0.2-0.2-0.3-0.4l0.1,0.5
						c-0.1,0-0.1,0.1-0.1,0.3l0.1,0.4c0,0.4-0.2-0.3-0.3-0.2c0-0.2,0-0.1,0,0c-0.3-1-0.1,0.8-0.3,0.1c0,0.2,0,0.1-0.1,0c0,0,0,0,0,0
						c0,0,0,0,0,0c0-0.1-0.1-0.2-0.1-0.2c0,0.1,0.1,0.2,0.1,0.2c0,0,0,0.1,0,0.2l-0.1-0.5c0,0,0,0,0,0c-0.1-0.2,0,0.2,0.1,0.6
						c0,0.1,0,0.2,0,0.3c-0.2-0.8,0,0.3-0.2-0.5c0.1,0.4-0.1,0.3,0.1,1.2c0-0.1,0-0.2,0-0.2c0-0.1-0.1-0.2-0.1,0.1l-0.1-0.6l0.1,0.8
						c-0.1-0.4-0.2-0.6-0.2-1c0,0.7,0,0.3,0,1l-0.1-0.4c0,0,0,0.6-0.1,0.2c-0.2-0.7-0.3-0.1-0.6-0.7c0.2,1.1-0.1-0.5,0,0.4
						c0-0.3-0.1-0.4-0.1-0.7c0,0.3-0.2-0.4-0.1,0.3c0-0.3,0-0.4-0.1-0.6c0,0.1,0,0.2,0,0.1c0-0.2,0-0.2,0-0.4
						c-0.1,0.1,0,0.9,0.1,1.7c-0.1-0.4-0.1-0.3-0.1,0.2c0-0.3-0.1-0.5-0.1-0.6c0,0-0.2-0.4-0.2,0.3c0-0.2,0,0,0,0
						c-0.1,0-0.1-0.1-0.1,0l0,0.1c0.1,0.8,0,0.2-0.1,0.3l0-0.1c-0.2-0.5,0,0.3-0.2-0.3l0.1,0.5c0.1,1-0.2-0.6-0.2-0.2l0.1,0.3
						c0,0.4-0.3-1.4-0.3-1.5c0-0.1,0-0.1,0-0.2c-0.2-0.6,0,0.6,0,0.8c0-0.3-0.1-0.9-0.1-0.9c0-0.3,0,1.1-0.2,0.5
						c0,0.3,0.1,0.5,0.1,0.7c0,0.1-0.2-1-0.2-0.1c0-0.1,0-0.1,0-0.2c0,0.2-0.1,0.4-0.1,0.8c-0.2-1.6-0.2,0.8-0.3-0.7l-0.1,0.1l0-0.2
						c-0.1-0.1-0.1,0.3-0.1,0.6c0-0.1,0-0.2,0-0.3c-0.1-0.3-0.1-0.2-0.2,0.5l0-0.5c0,0.3-0.2-0.8-0.3-0.2c0-0.1,0-0.2,0-0.2
						c-0.1,0.6-0.4-1.4-0.3,0.4l-0.1,0.4c0.1,0.1,0,0.8,0.1,1.1c0,0.1-0.1-0.5-0.1-0.6l0,0.1c0-0.9-0.2-0.3-0.2-1
						c-0.2,0.1-0.4-0.5-0.6-0.5l0,0.7l-0.1,0c0-0.2,0-0.6,0-0.5c0-0.4-0.1,0.3-0.1,0.5c-0.1-0.3,0-0.9,0-0.9l0,0.1l0,0.1
						c0,0.3,0,0.6-0.1,0.6c0-0.1,0-0.5,0-0.5c0-0.1,0-0.1,0,0l-0.1-0.1l0,0.6c0,0.3-0.1,0,0,0.6c-0.1-1-0.3-0.4-0.4-0.7
						c-0.1,0.4-0.1,0.4-0.2,0.4c0,0.1,0,0.8,0,0.7c0-1.3-0.1-0.6-0.1-1.5c0,0.6-0.2,0.2-0.1,1.1c0-0.1,0-0.5,0-0.8
						c-0.1,0.5-0.2-0.3-0.4-0.2c0,0.2,0,0.4,0,0.7l0-0.9c0,0.1-0.1,1-0.1,0.4c0,0.1,0,0.4,0,0.4c-0.2-0.9-0.6,0.7-0.8-1
						c0,0.3,0,0.4,0,0.4c0,0.1,0,0.4,0,0.7l-0.1-0.7c-0.1,0.7-0.1,0-0.2,0.7l0-0.1c-0.1,0.7-0.1,1.7-0.1,2.6
						c0.1-0.8,0.1,1.3,0.3,0.1c0,0.2,0,0.3,0,0.5c0.1-0.4,0.1-0.5,0.1-0.3l0,0.1c0.2-0.1,0.2,0.3,0.4,0.6l0-0.5c0,0.1,0,0.2,0,0.3
						c0.1-0.7-0.1,0,0-0.8c0,1,0.3,0,0.3,1.1c0.1,0,0-0.5,0.1-0.5l0,0.3l0-0.4c0,0.1,0,0.4,0,0.7c0,0,0,0.1,0,0.1
						c0,0.4,0.2-0.1,0.2,0l-0.1-0.2c0.2-0.3,0.4,0.1,0.5-0.5l0-0.2c0.1-0.4,0.1,0.2,0.2,0.1l0,0.1c0-0.2,0.1-0.3,0.1-0.3
						c0,0.3,0.1,0.5,0,0.8c0.1-0.4,0.1-0.3,0.2-1.2l0,0.4c0-0.3,0-0.5,0.1-0.6c-0.1,0.3,0,0.6,0,1c0.1,0.8,0.2-0.8,0.3,0.4
						c0.1-1-0.1-0.6-0.1-0.8c0-0.3,0.1-0.8,0.1-0.7c0,0,0.1,1.3,0.2,1.3c0,0,0,0.1,0,0.1c0,0.3,0.1-0.4,0.1,0.1c0-0.6,0.1,0,0.1-0.8
						l-0.1,0.2c0.1-0.2,0.1-1.1,0.2-0.7c0,0.2,0,0.4-0.1,0.5c0,0.2,0.1-0.2,0.1,0.1c0,0.8-0.1,0.2-0.2,0.8c0,0.3,0.1-0.6,0.1,0.3
						c0-1.1,0.1,0.1,0.2-0.7l0,0.5c0-0.1,0-0.3,0.1-0.3l0,0.6c0.1-0.5,0.1,0.5,0.2,0.2c-0.1,0,0-0.6-0.1-0.9c0.1-0.6,0.1,1.2,0.3,1
						c0,0.1-0.1-0.3-0.1-0.5c0,0.1,0.1,0.3,0.1,0.5c0.1-0.1,0-0.5,0-0.8c0.1,0.6,0.1-0.2,0.1-0.4l0,0.5c0.1,0.3,0-1,0.1-0.6l0,0.7
						l0.1-0.2l0,0.5c0.1-0.4,0.1-0.3,0.1-0.2c0-0.3,0-0.9,0-0.9c0,0.3,0,0.5,0.1,0.4c0,0.3,0,0.7-0.1,0.2c0,0.2,0,0.3,0,0.5
						c0.1,0.3,0.1,0.1,0.1,0.1c0,0,0,0,0-0.1l0.1-0.7c0,0.2,0,0.3,0,0.5c0-0.1,0-0.3,0.1-0.3c0,0.4,0,0.8,0,1l0.1-0.4
						c0,0.2,0.1,0.5,0.1,0.6c0.1,0.2,0.1-0.8,0.2-0.5c0-0.1,0-0.1,0-0.2c0.1,0.1,0.2,0.6,0.2,0l0.1,0.7c0.1-0.2-0.1-0.9,0-1.2
						c0.1-0.2,0.1,0.6,0.1,0.8C-1463.2,729.6-1463.2,728.8-1463.2,729.5C-1463.1,729.5-1463.2,729.4-1463.2,729.5z M-1462.3,729.1
						c0,0.1,0,0.4-0.1,0.1C-1462.4,728.7-1462.3,729-1462.3,729.1z M-1461.1,727.8C-1461.1,728-1461.1,727.9-1461.1,727.8
						C-1461.2,727.7-1461.1,727.7-1461.1,727.8z M-1458.3,723.9C-1458.3,723.9-1458.3,723.9-1458.3,723.9
						C-1458.3,723.7-1458.3,723.8-1458.3,723.9z M-1458.2,724.1c0-0.1,0-0.1,0-0.2C-1458.2,724-1458.2,724-1458.2,724.1
						C-1458.2,724.1-1458.2,724.2-1458.2,724.1z M-1465.7,725.2l0,0.1C-1465.7,725.4-1465.7,725.3-1465.7,725.2z"/>
					<path id="XMLID_552_" class="st9" d="M-1461.2,728.5c0-0.1,0-0.2,0-0.3C-1461.2,728.3-1461.2,728.4-1461.2,728.5z"/>
					<polygon id="XMLID_551_" class="st9" points="-1463.7,729.8 -1463.7,729.8 -1463.7,729.9 					"/>
					<path id="XMLID_550_" class="st9" d="M-1458.4,728.3c0-0.1-0.1-0.1-0.1-0.2C-1458.5,728.2-1458.4,728.3-1458.4,728.3z"/>
					<path id="XMLID_549_" class="st9" d="M-1458,723.2l0,0.1c0,0,0,0.1,0.1,0.1C-1458,723.3-1458,723.2-1458,723.2z"/>
					<path id="XMLID_548_" class="st9" d="M-1456.8,726C-1456.9,725.9-1456.8,726-1456.8,726l-0.1-0.3
						C-1456.9,725.7-1456.9,725.9-1456.8,726z"/>
					<path id="XMLID_547_" class="st9" d="M-1457.6,724.7c0.1,0.4,0.1,0.3,0.1,0.2c0,0,0,0,0,0
						C-1457.6,724.3-1457.6,724.5-1457.6,724.7z"/>
					<path id="XMLID_546_" class="st9" d="M-1457.4,724.9C-1457.4,724.9-1457.4,724.8-1457.4,724.9
						C-1457.5,724.6-1457.4,724.8-1457.4,724.9z"/>
					<path id="XMLID_545_" class="st9" d="M-1458.1,723.8c0,0.1-0.1-0.5-0.1-0.3C-1458.3,722.9-1458.1,724.1-1458.1,723.8z"/>
					<polygon id="XMLID_544_" class="st9" points="-1457.2,726 -1457.3,725.5 -1457.3,725.9 					"/>
					<path id="XMLID_543_" class="st9" d="M-1457.5,725.7l0.1,0.1C-1457.5,725.8-1457.5,725.7-1457.5,725.7
						C-1457.5,725.7-1457.6,725.6-1457.5,725.7z"/>
					<path id="XMLID_542_" class="st9" d="M-1457.5,725.7C-1457.5,725.7-1457.5,725.7-1457.5,725.7
						C-1457.5,725.6-1457.5,725.6-1457.5,725.7z"/>
					<polygon id="XMLID_541_" class="st9" points="-1457.2,726.2 -1457.3,726.1 -1457.3,726 					"/>
					<path id="XMLID_540_" class="st9" d="M-1458.1,725.8l0,0.2c0,0.2,0.1,0.3,0.1,0.2C-1458.1,726-1458.1,725.9-1458.1,725.8z"/>
					<path id="XMLID_539_" class="st9" d="M-1457.6,727.1c0-0.1-0.1-0.2-0.1-0.4l0.1,0.6L-1457.6,727.1z"/>
					<path id="XMLID_538_" class="st9" d="M-1457.8,727.2c0,0.2,0,0.5,0.1,0.4C-1457.7,727.5-1457.7,727.4-1457.8,727.2z"/>
					<polygon id="XMLID_537_" class="st9" points="-1458.8,726.7 -1458.8,726.6 -1459,725.6 					"/>
					<path id="XMLID_536_" class="st9" d="M-1459.2,729.2c0.1,0.2-0.1-0.6,0-0.3c0-0.2-0.1-0.2-0.1-0.4
						C-1459.3,728.7-1459.3,728.5-1459.2,729.2z"/>
					<path id="XMLID_535_" class="st9" d="M-1459.3,728.4c0,0,0-0.1,0-0.2C-1459.3,728.3-1459.3,728.4-1459.3,728.4z"/>
					<polygon id="XMLID_534_" class="st9" points="-1468.2,724.5 -1468.3,724.3 -1468.3,724.7 					"/>
					<path id="XMLID_533_" class="st9" d="M-1468.4,725.3l0-0.6L-1468.4,725.3C-1468.4,725.2-1468.4,725.1-1468.4,725.3z"/>
					<path id="XMLID_532_" class="st9" d="M-1462,730.4l0-0.2c0-0.2,0-0.2-0.1-0.2L-1462,730.4z"/>
					<polygon id="XMLID_531_" class="st9" points="-1462.7,730 -1462.7,730 -1462.8,729.4 					"/>
					<path id="XMLID_530_" class="st9" d="M-1463.3,730.8C-1463.2,730.8-1463.2,730.7-1463.3,730.8
						C-1463.2,730.8-1463.3,730-1463.3,730.8z"/>
				</g>
			</g>
		</g>
	</g>
</g>
<rect id="XMLID_636_" x="-482.3" y="-1.6" class="st13" width="1405.1" height="215.2"/>
<ellipse id="XMLID_635_" class="st14" cx="49.7" cy="120.3" rx="107.7" ry="61.8"/>
<ellipse id="XMLID_634_" class="st15" cx="404.5" cy="100.1" rx="107.7" ry="61.8"/>
<ellipse id="XMLID_633_" class="st14" cx="296.8" cy="120.3" rx="107.7" ry="61.8"/>
<ellipse id="XMLID_632_" class="st16" cx="157.4" cy="143.1" rx="107.7" ry="61.8"/>
<path id="XMLID_1_" class="st2" d="M165.4,103.6c-6.9-0.2-5.1-27-5.1-27s-12.8-5.6-14.9-9.5c-2.5-4.5-10.2-21.4-3.4-22.7
	c7.1-1.4,8.5,13.7,8.5,13.7l9.8,4.8c0,0-2-32.8,7.4-32.6c5.5,0.1,2.9,32.1,2.9,32.1l7.4-4.6c0,0,2-15.5,8.8-15.2
	c6.7,0.3-3.1,21.3-3.1,21.3L172,77.2C172,77.2,172.2,103.8,165.4,103.6z"/>
<path id="XMLID_300_" class="st2" d="M70,79.7c-5.3-0.2-4-20.9-4-20.9s-9.9-4.4-11.6-7.4c-1.9-3.5-7.9-16.7-2.7-17.7
	c5.5-1.1,6.6,10.6,6.6,10.6l7.6,3.8c0,0-1.5-25.5,5.7-25.3c4.3,0.1,2.2,24.9,2.2,24.9l5.7-3.5c0,0,1.6-12,6.9-11.8
	c5.2,0.2-2.4,16.6-2.4,16.6l-9,10.2C75.2,59.2,75.3,79.9,70,79.7z"/>
<path id="XMLID_303_" class="st2" d="M278.4,86c-5.3-0.2-4-20.9-4-20.9s-9.9-4.4-11.6-7.4c-1.9-3.5-7.9-16.7-2.7-17.7
	c5.5-1.1,6.6,10.6,6.6,10.6l7.6,3.8c0,0-1.5-25.5,5.7-25.3c4.3,0.1,2.2,24.9,2.2,24.9l5.7-3.5c0,0,1.6-12,6.9-11.8
	c5.2,0.2-2.4,16.6-2.4,16.6l-9,10.2C283.5,65.5,283.7,86.2,278.4,86z"/>
<path id="XMLID_385_" class="st2" d="M383.5,53.7c-2.6-0.1-2-10.3-2-10.3s-4.9-2.2-5.7-3.6c-0.9-1.7-3.9-8.2-1.3-8.7
	c2.7-0.5,3.3,5.2,3.3,5.2l3.7,1.9c0,0-0.7-12.6,2.8-12.5c2.1,0.1,1.1,12.3,1.1,12.3l2.8-1.7c0,0,0.8-5.9,3.4-5.8
	c2.6,0.1-1.2,8.2-1.2,8.2l-4.4,5C386.1,43.5,386.2,53.7,383.5,53.7z"/>
<rect id="XMLID_91_" x="-412.4" y="1220.9" class="st0" width="1267.7" height="230.4"/>
<ellipse id="XMLID_90_" class="st14" cx="49" cy="1342.8" rx="107.7" ry="61.8"/>
<ellipse id="XMLID_89_" class="st15" cx="403.7" cy="1322.6" rx="107.7" ry="61.8"/>
<ellipse id="XMLID_88_" class="st14" cx="296" cy="1342.8" rx="107.7" ry="61.8"/>
<ellipse id="XMLID_87_" class="st16" cx="156.7" cy="1365.6" rx="107.7" ry="61.8"/>
<polygon id="XMLID_84_" class="st5" points="75.6,1298.1 73.2,1298.1 74.4,1254.9 "/>
<polygon id="XMLID_83_" class="st5" points="386.2,1281.2 384.5,1281.2 385.3,1250.5 "/>
<polygon id="XMLID_82_" class="st5" points="386.2,1281.2 384.5,1281.2 385.3,1250.5 "/>
<polygon id="XMLID_81_" class="st5" points="386.2,1281.2 384.5,1281.2 385.3,1250.5 "/>
<polygon id="XMLID_80_" class="st5" points="386.2,1281.2 384.5,1281.2 385.3,1250.5 "/>
<polygon id="XMLID_79_" class="st5" points="386.2,1281.2 384.5,1281.2 385.3,1250.5 "/>
<polygon id="XMLID_77_" class="st5" points="386.2,1281.2 384.5,1281.2 385.3,1250.5 "/>
<path id="XMLID_66_" class="st14" d="M156.6,1334.4l-7.8,2c-3.6,1.3-22.5,4.5-25.5,2.2h0c-6.1-4.4-5.8-13.5,0.5-17.5h0
	c3.8-2.4,8.6-2.7,12.7-0.8l12.8,5.9c0,0-13.2-61.1,7.3-61.1c20.7,0,7.3,61.6,7.3,61.6l11.4-5.1c4.6-2.1,10-1.8,14.4,0.7h0
	c6.1,3.6,6.5,12.3,0.6,16.3h0c-3.3,2.2-19.8-0.3-23.5-1.7L156.6,1334.4L156.6,1334.4z"/>
<line id="XMLID_67_" class="st17" x1="145.5" y1="1281.6" x2="169.4" y2="1281.6"/>
<path id="XMLID_68_" class="st15" d="M75,1299.4l-5.2,1.3c-2.4,0.8-15,3-17.1,1.5h0c-4.1-2.9-3.9-9,0.4-11.7h0
	c2.6-1.6,5.8-1.8,8.5-0.6l8.6,3.9c0,0-8.8-40.9,4.9-40.9c13.8,0,4.9,41.2,4.9,41.2l7.6-3.4c3.1-1.4,6.7-1.2,9.6,0.5h0
	c4.1,2.4,4.3,8.2,0.4,10.9h0c-2.2,1.5-13.3-0.2-15.7-1.1L75,1299.4L75,1299.4z"/>
<line id="XMLID_65_" class="st17" x1="67.6" y1="1264.1" x2="83.5" y2="1264.1"/>
<path id="XMLID_70_" class="st15" d="M280.8,1303.1l-5.2,1.3c-2.4,0.8-15,3-17.1,1.5l0,0c-4.1-2.9-3.9-9,0.4-11.7l0,0
	c2.6-1.6,5.8-1.8,8.5-0.6l8.6,3.9c0,0-8.8-40.9,4.9-40.9c13.8,0,4.9,41.2,4.9,41.2l7.6-3.4c3.1-1.4,6.7-1.2,9.6,0.5l0,0
	c4.1,2.4,4.3,8.2,0.4,10.9h0c-2.2,1.5-13.3-0.2-15.7-1.1L280.8,1303.1L280.8,1303.1z"/>
<line id="XMLID_69_" class="st17" x1="273.4" y1="1267.7" x2="289.3" y2="1267.7"/>
<path id="XMLID_72_" class="st16" d="M386.3,1282.4l-4,1c-1.8,0.7-11.5,2.3-13.1,1.2l0,0c-3.1-2.2-3-6.9,0.3-9h0
	c2-1.2,4.4-1.4,6.5-0.4l6.6,3c0,0-6.8-31.4,3.8-31.4c10.6,0,3.7,31.6,3.7,31.6l5.9-2.6c2.4-1.1,5.1-0.9,7.4,0.4l0,0
	c3.2,1.8,3.3,6.3,0.3,8.4l0,0c-1.7,1.2-10.2-0.1-12.1-0.9L386.3,1282.4L386.3,1282.4z"/>
<line id="XMLID_71_" class="st17" x1="380.6" y1="1255.2" x2="392.8" y2="1255.2"/>
<rect id="XMLID_246_" x="948.3" y="12.1" class="st5" width="1389.7" height="213.6"/>
<ellipse id="XMLID_245_" class="st18" cx="1459.6" cy="134" rx="107.7" ry="61.8"/>
<ellipse id="XMLID_244_" class="st19" cx="1814.3" cy="113.7" rx="107.7" ry="61.8"/>
<ellipse id="XMLID_243_" class="st18" cx="1706.6" cy="134" rx="107.7" ry="61.8"/>
<ellipse id="XMLID_242_" class="st20" cx="1567.3" cy="156.7" rx="107.7" ry="61.8"/>
<path id="XMLID_227_" class="st3" d="M1486.2,58.6l2.5,6.3c0.8,2,0.6,4.2-0.5,6.1l-6.7,10.3l-7.6-18.5c-0.1-1.8,0.6-3.7,1.9-4.9
	l1.5-1.4C1480.1,53.9,1484.7,55,1486.2,58.6z"/>
<polygon id="XMLID_226_" class="st15" points="1497.8,87.2 1495.4,87.2 1491.7,64.8 1482.9,54 1481.5,64.8 1482.3,52.4 1493.2,64.2 
	"/>
<path id="XMLID_223_" class="st3" d="M1694.2,57l2.5,6.3c0.8,2,0.6,4.2-0.5,6.1l-6.7,10.3l-7.6-18.5c-0.1-1.8,0.6-3.7,1.9-4.9
	l1.5-1.4C1688.1,52.3,1692.8,53.4,1694.2,57z"/>
<polygon id="XMLID_222_" class="st15" points="1705.8,85.6 1703.4,85.6 1699.7,63.2 1690.9,52.4 1689.5,63.2 1690.3,50.8 
	1701.2,62.6 "/>
<path id="XMLID_225_" class="st3" d="M1567.9,57.4l4,10.3c1.3,3.3,1,7-0.8,10l-10.9,16.8l-12.5-30.2c-0.2-3,0.9-6,3.2-8l2.4-2.2
	C1558,49.7,1565.6,51.4,1567.9,57.4z"/>
<polygon id="XMLID_224_" class="st15" points="1586.9,104.2 1583,104.2 1577,67.4 1562.5,49.8 1560.2,67.4 1561.5,47.2 1579.4,66.5 
	"/>
<path id="XMLID_229_" class="st3" d="M1794.3,43.4l1.6,4.2c0.5,1.3,0.4,2.8-0.3,4l-4.4,6.8l-5-12.2c-0.1-1.2,0.4-2.4,1.3-3.2l1-0.9
	C1790.4,40.3,1793.4,41,1794.3,43.4z"/>
<polygon id="XMLID_228_" class="st15" points="1802,62.3 1800.4,62.3 1798,47.5 1792.2,40.4 1791.2,47.5 1791.8,39.3 1799,47.1 "/>
<rect id="XMLID_259_" x="-318.1" y="604.3" class="st21" width="431.7" height="105.5"/>
<ellipse id="XMLID_258_" class="st22" cx="-268.5" cy="726.2" rx="107.7" ry="61.8"/>
<ellipse id="XMLID_257_" class="st23" cx="86.3" cy="706" rx="107.7" ry="61.8"/>
<ellipse id="XMLID_256_" class="st22" cx="-21.4" cy="726.2" rx="107.7" ry="61.8"/>
<ellipse id="XMLID_255_" class="st24" cx="-160.7" cy="749" rx="107.7" ry="61.8"/>
<polygon id="XMLID_12_" class="st5" points="-41.3,682 -44.2,682 -42.8,629.2 "/>
<polygon id="XMLID_8_" class="st5" points="-241.8,681.5 -244.2,681.5 -243,638.2 "/>
<polygon id="XMLID_3_" class="st5" points="73.3,655.5 71.6,655.5 72.4,624.8 "/>
<path id="XMLID_14_" class="st5" d="M-141.3,186.2"/>
<path id="XMLID_13_" class="st5" d="M-143.1,173.8"/>
<path id="XMLID_11_" class="st5" d="M-146.2,163.4"/>
<path id="XMLID_10_" class="st5" d="M-145.1,155.5"/>
<path id="XMLID_9_" class="st5" d="M-155.8,153.8"/>
<path id="XMLID_7_" class="st5" d="M-166.6,163.8"/>
<path id="XMLID_6_" class="st5" d="M-157.6,179"/>
<path id="XMLID_2_" class="st5" d="M-147.8,189.7"/>
</svg>
